<?xml version="1.0" encoding="UTF-8"?>
<svg id="_ëîé_1" data-name=" ëîé 1" xmlns="http://www.w3.org/2000/svg" viewBox="0 0 218 214">
  <defs>
    <style>
      .cls-1 {
        fill: #f9f9f9;
      }

      .cls-2 {
        fill: none;
        stroke: #000;
        stroke-dasharray: 0 0 10.13 10.13;
        stroke-miterlimit: 10;
      }
    </style>
  </defs>
  <path class="cls-2" d="m41.7,39.81C63.53,19.13,90.47,2.64,118.01,6.79c18.59,2.8,35.32,14.68,50.83,27.36,11.56,9.45,23.26,20.2,28.96,35.58,3.15,8.52,4.24,17.91,5.2,27.17.67,6.55,1.3,13.17.86,19.75-1.09,16.55-8.71,31.41-17.22,44.45-5.19,7.96-10.91,15.62-18.01,21.02-6.11,4.64-13.03,7.45-19.95,9.91-11.71,4.17-23.84,7.5-36.02,6.59-13.64-1.01-26.72-7.33-38.42-15.88-11.69-8.54-22.16-19.29-32.57-29.99-4.85-4.98-9.79-10.09-13.04-16.7-3.1-6.31-4.48-13.6-5.82-20.75-2.26-12.13-9.3-30.71-5.26-42.8,4.45-13.31,15.08-24.08,24.15-32.7Z"/>
  <path class="cls-1" d="m53.93,59.05c19.41-16.02,43.37-28.78,67.85-25.57,16.52,2.17,31.4,11.37,45.19,21.19,10.28,7.32,20.68,15.64,25.75,27.56,2.8,6.6,3.77,13.87,4.62,21.04.6,5.08,1.15,10.2.77,15.3-.97,12.82-7.74,24.33-15.31,34.43-4.62,6.16-9.7,12.1-16.01,16.28-5.43,3.6-11.59,5.77-17.74,7.68-10.41,3.23-21.19,5.81-32.03,5.1-12.13-.79-23.76-5.68-34.16-12.3-10.4-6.62-19.7-14.94-28.96-23.22-4.31-3.86-8.7-7.82-11.6-12.94-2.76-4.88-3.99-10.53-5.17-16.07-2.01-9.39-8.27-23.79-4.68-33.15,3.96-10.31,13.4-18.65,21.48-25.32Z"/>
</svg>