<?xml version="1.0" encoding="UTF-8"?>
<svg id="_ëîé_1" data-name=" ëîé 1" xmlns="http://www.w3.org/2000/svg" viewBox="0 0 218 214">
  <defs>
    <style>
      .cls-1 {
        fill: #f9f9f9;
      }

      .cls-2 {
        fill: none;
        stroke: #000;
        stroke-dasharray: 0 0 10.06 10.06;
        stroke-miterlimit: 10;
      }
    </style>
  </defs>
  <path class="cls-2" d="m42.91,38.45C65.8,17.64,94.03,1.05,122.88,5.23c19.48,2.82,37.01,14.77,53.27,27.53,12.11,9.51,24.38,20.32,30.35,35.81,3.31,8.57,4.45,18.02,5.45,27.34.71,6.6,1.36,13.25.9,19.87-1.14,16.66-9.12,31.61-18.04,44.73-5.44,8.01-11.43,15.72-18.87,21.16-6.4,4.67-13.66,7.5-20.91,9.97-12.27,4.19-24.98,7.54-37.75,6.63-14.3-1.02-28.01-7.38-40.26-15.98-12.26-8.6-23.22-19.41-34.13-30.18-5.08-5.01-10.26-10.16-13.67-16.81-3.25-6.35-4.7-13.68-6.1-20.89-2.37-12.2-9.75-30.91-5.52-43.07,4.66-13.4,15.8-24.23,25.31-32.91Z"/>
  <path class="cls-1" d="m46.81,62.87c19.2-14.05,42.88-25.25,67.09-22.43,16.34,1.9,31.05,9.97,44.69,18.59,10.16,6.42,20.45,13.72,25.46,24.18,2.77,5.79,3.73,12.17,4.57,18.46.59,4.45,1.14,8.95.76,13.42-.96,11.25-7.65,21.34-15.14,30.2-4.57,5.41-9.59,10.62-15.83,14.28-5.37,3.15-11.46,5.06-17.54,6.73-10.29,2.83-20.96,5.09-31.67,4.48-11.99-.69-23.5-4.98-33.78-10.79-10.28-5.81-19.48-13.11-28.64-20.37-4.26-3.39-8.61-6.86-11.47-11.35-2.73-4.28-3.94-9.24-5.12-14.1-1.99-8.24-8.18-20.87-4.63-29.08,3.91-9.05,13.25-16.36,21.24-22.22Z"/>
</svg>