<?xml version="1.0" encoding="UTF-8"?>
<svg id="_ëîé_1" data-name=" ëîé 1" xmlns="http://www.w3.org/2000/svg" viewBox="0 0 218 214">
  <defs>
    <style>
      .cls-1 {
        fill: #f9f9f9;
      }

      .cls-2 {
        fill: none;
        stroke: #000;
        stroke-dasharray: 0 0 9.94 9.94;
        stroke-miterlimit: 10;
      }
    </style>
  </defs>
  <path class="cls-2" d="m37.8,37.92C61.46,18.4,90.66,2.84,120.5,6.76c20.14,2.64,38.28,13.86,55.09,25.83,12.53,8.92,25.21,19.07,31.39,33.59,3.42,8.04,4.6,16.91,5.63,25.65.73,6.19,1.4,12.43.93,18.64-1.18,15.62-9.44,29.66-18.66,41.96-5.63,7.51-11.82,14.75-19.51,19.85-6.62,4.38-14.12,7.03-21.63,9.36-12.69,3.93-25.83,7.08-39.04,6.22-14.79-.96-28.96-6.92-41.64-14.99s-24.02-18.21-35.3-28.31c-5.26-4.7-10.61-9.53-14.14-15.77-3.36-5.95-4.86-12.84-6.31-19.59-2.45-11.45-10.08-29-5.71-40.41,4.82-12.57,16.34-22.73,26.18-30.87Z"/>
  <path class="cls-1" d="m51.55,55.02c18.98-15.66,42.4-28.14,66.34-25,16.16,2.12,30.7,11.12,44.19,20.72,10.05,7.16,20.22,15.29,25.18,26.94,2.74,6.45,3.69,13.56,4.52,20.57.59,4.96,1.13,9.97.75,14.95-.95,12.53-7.57,23.79-14.97,33.66-4.52,6.02-9.48,11.83-15.65,15.92-5.31,3.52-11.33,5.64-17.35,7.51-10.18,3.15-20.72,5.68-31.31,4.99-11.86-.77-23.23-5.55-33.4-12.02-10.17-6.47-19.27-14.61-28.32-22.71-4.22-3.77-8.51-7.64-11.34-12.65-2.7-4.78-3.9-10.3-5.06-15.71-1.97-9.18-8.09-23.26-4.58-32.41,3.87-10.08,13.1-18.23,21-24.76Z"/>
</svg>