<?xml version="1.0" encoding="UTF-8"?>
<svg id="_ëîé_1" data-name=" ëîé 1" xmlns="http://www.w3.org/2000/svg" viewBox="0 0 218 214">
  <defs>
    <style>
      .cls-1 {
        fill: none;
        stroke: #000;
        stroke-dasharray: 0 0 9.91 9.91;
        stroke-miterlimit: 10;
      }

      .cls-2 {
        fill: #f9f9f9;
      }
    </style>
  </defs>
  <path class="cls-1" d="m50.81,42.5C72.45,22.53,99.15,6.61,126.44,10.62c18.42,2.7,35,14.17,50.37,26.42,11.45,9.13,23.05,19.5,28.7,34.36,3.13,8.22,4.21,17.29,5.15,26.23.67,6.33,1.28,12.71.85,19.07-1.08,15.98-8.63,30.33-17.06,42.92-5.15,7.68-10.81,15.09-17.84,20.3-6.05,4.48-12.92,7.19-19.78,9.57-11.6,4.02-23.62,7.24-35.7,6.36-13.52-.98-26.48-7.08-38.07-15.33-11.59-8.25-21.96-18.63-32.28-28.95-4.81-4.81-9.7-9.74-12.93-16.13-3.08-6.09-4.44-13.13-5.77-20.04-2.24-11.71-9.22-29.66-5.22-41.33,4.41-12.85,14.94-23.25,23.94-31.57Z"/>
  <path class="cls-2" d="m69.16,71.9c17.24-14.22,38.51-25.56,60.26-22.71,14.68,1.93,27.89,10.1,40.14,18.82,9.13,6.5,18.37,13.89,22.87,24.47,2.49,5.86,3.35,12.32,4.1,18.68.53,4.51,1.02,9.06.68,13.58-.86,11.38-6.87,21.61-13.6,30.57-4.1,5.47-8.61,10.75-14.22,14.46-4.82,3.19-10.29,5.12-15.76,6.82-9.25,2.87-18.82,5.16-28.44,4.53-10.77-.7-21.1-5.04-30.34-10.92-9.23-5.88-17.5-13.27-25.72-20.62-3.83-3.43-7.73-6.94-10.3-11.49-2.45-4.34-3.54-9.35-4.6-14.27-1.79-8.34-7.35-21.12-4.16-29.44,3.51-9.16,11.9-16.56,19.07-22.49Z"/>
</svg>