<svg id="visual" viewBox="0 0 900 600" width="900" height="600" xmlns="http://www.w3.org/2000/svg" xmlns:xlink="http://www.w3.org/1999/xlink" version="1.1"><g transform="translate(459.2650804521579 299.17546776837855)"><path d="M147.3 -210.8C177 -181.1 177.7 -119.5 185.7 -66.9C193.7 -14.3 209.1 29.3 208.2 78.6C207.2 127.9 190 182.9 152.6 210.6C115.2 238.2 57.6 238.6 3.9 233.2C-49.8 227.8 -99.5 216.7 -138.2 189.4C-176.9 162.1 -204.5 118.8 -217.8 72.1C-231.1 25.4 -230.2 -24.5 -211.1 -64C-192 -103.6 -154.8 -132.7 -116.6 -159.6C-78.4 -186.5 -39.2 -211.3 9.8 -224.8C58.8 -238.2 117.6 -240.5 147.3 -210.8" fill="none" stroke="#6e6b6c" stroke-width="6"></path></g></svg>