<?xml version="1.0" encoding="UTF-8"?>
<svg id="_ëîé_1" data-name="‘ëîé_1" xmlns="http://www.w3.org/2000/svg" viewBox="0 0 552.18 536.04">
  <path d="m298.24,521.68c-53.94,0-104.62-18.9-135.79-33.54-28-13.15-47.43-25.63-63.02-40.44-27.34-25.99-42.57-46.78-58.18-79.47-8.48-17.76-13.71-44.62-15.12-63.36-1.37-18.14,1.68-65.92,7.34-84.76,9.97-33.17,19.41-55.21,31.58-73.7,14.27-21.68,32.63-38.62,57.77-53.29,4.15-2.42,8.41-4.58,12.77-6.53,28.8-20.47,62.76-40.04,101.15-43.12,18.92-1.52,38.7.36,59.93,5.73,28.16-3.24,55.79-2.01,81.47,9.92,32.89,15.28,80.62,45.89,106.89,81.87,12.89,17.65,22.04,40.2,27.29,67.21,2.45,6.7,4.59,13.54,6.44,20.48,10.45,39.43,10.18,79.69-.79,116.42-12.89,43.14-41.09,84.92-81.55,120.81-20.13,17.86-39.29,30.77-58.55,39.48-26.04,11.77-53.22,16.29-79.62,16.29ZM125.6,93.85c-.59.33-1.18.67-1.77,1.01-51.6,30.12-70.89,67.46-88.44,125.83-5.61,18.65-8.62,66.02-7.26,84.02,1.4,18.55,6.56,45.12,14.93,62.64,15.5,32.44,30.61,53.08,57.75,78.87,15.42,14.66,34.69,27.02,62.49,40.08,46.11,21.67,135.19,52.71,213.72,17.24,19.07-8.62,38.06-21.42,58.04-39.15,40.17-35.64,68.17-77.09,80.95-119.88,10.87-36.37,11.14-76.25.78-115.32-.73-2.75-1.51-5.48-2.33-8.19.2,1.43.4,2.86.58,4.31,4.47,35.27,1.96,68.52-.93,90.19-5.31,39.85-10.29,53.99-31.35,89.02-4.23,7.04-12.59,15.74-22.26,24.59-22.47,30.94-56.37,61.02-107.09,76.06-44.6,13.23-96.05,2.67-144.93-9.27-15.39-3.76-31.28-10.08-47.23-18.79-50.24-27.42-90.97-73.74-111.76-127.07l.09-.04c-15.89-32.05-19.14-71.15-9.96-119.27,6.92-36.27,22.04-71.6,41.48-96.93,12.3-16.02,28.62-28.21,44.49-39.96ZM57.77,364.17c21.98,46.58,59.35,86.54,104.44,111.16,15.79,8.62,31.52,14.88,46.74,18.6,48.61,11.88,99.76,22.39,143.88,9.3,45.68-13.55,77.59-39.42,99.74-67.07-9.4,8.16-19.27,16.1-27.4,22.63-3.18,2.56-6.03,4.85-8.39,6.79-19.16,15.73-36.39,27.6-58.16,34.38-20.14,6.27-47.81,9.09-74.02,7.53-32.98-1.96-106.96-23.05-165.07-71.3-7.05-5.85-16.3-15.32-25.79-26.03l-.02.02c-6.79-6.21-13.04-13.72-18.66-22.35-6.62-8.39-12.66-16.6-17.3-23.66Zm18.97,22.53c14.76,18.7,32.46,38.28,44.09,47.94,57.74,47.94,131.17,68.89,163.89,70.84,25.98,1.54,53.38-1.24,73.3-7.44,21.53-6.71,37.96-17.99,57.48-34.02,2.37-1.94,5.22-4.24,8.41-6.8,9.89-7.95,23.44-18.85,35.14-29.56,10.51-14.51,18.48-29.21,24.48-42.6,22.85-50.99,27.25-103.7,24.07-133.33-5.89-55-42.54-111.25-98.03-150.49-27.19-19.23-59.16-31.68-87-41.85-4.48-1.64-8.89-3.13-13.24-4.49-8.13-1.05-16.31-1.72-24.48-2.03-16.83,2.61-33.79,6.51-50.55,10.36-7.03,1.61-14.29,3.28-21.35,4.81-4.8,1.03-9.71,2.04-14.45,3.01-13.82,2.82-27.9,5.7-41.49,9.83-39.52,20.37-71.99,50.69-91.71,87.38-16.87,31.39-23.83,78.49-18.62,125.99,4.01,36.51,14.63,68.76,30.07,92.46ZM320.93,56.63c.78.28,1.56.56,2.34.84,27.96,10.21,60.08,22.73,87.47,42.1,55.96,39.57,92.92,96.36,98.88,151.93,3.2,29.89-1.22,83.01-24.24,134.37-4.96,11.07-11.25,23.02-19.19,35.03,6.46-6.35,11.81-12.39,14.84-17.43,20.87-34.72,25.81-48.74,31.08-88.24,2.87-21.56,5.37-54.61.93-89.67-.73-5.79-1.63-11.4-2.68-16.83-11.1-30.36-28.31-57.97-50.47-80.74-26.43-27.17-60.48-48.3-98.47-61.12-13.19-4.45-26.75-7.87-40.48-10.24Zm-184.34,31.73c-3.03,2.15-6,4.32-8.92,6.47-16.04,11.86-32.62,24.12-44.97,40.21-19.26,25.08-34.24,60.1-41.1,96.07-9.63,50.47-5.48,90.87,12.69,123.52,3,5.39,7.48,12.11,12.8,19.4-11.31-22.08-19.13-49.39-22.44-79.58-5.26-47.9,1.79-95.44,18.85-127.17,18.22-33.9,47.21-62.42,82.56-82.77-3.2,1.18-6.37,2.46-9.48,3.84Zm173.18-35.45c17.77,2.29,35.33,6.33,52.29,12.05,38.29,12.92,72.61,34.23,99.27,61.63,19.45,19.99,35.12,43.66,46.24,69.64-5.39-21.29-13.48-39.39-24.18-54.04-26.04-35.67-73.44-66.05-106.11-81.23-23.65-10.99-49.09-12.75-75.11-10.29,2.51.7,5.04,1.44,7.6,2.24Zm-60.26-7.91c-4.25,0-8.45.17-12.61.5-34.66,2.78-65.77,19.24-92.68,37.56,3.96-1.5,7.99-2.85,12.06-4.09,27.01-13.89,57.28-23.17,89.02-26.7,13.03-1.45,26.23-1.92,39.42-1.44,2.09-.32,4.18-.63,6.27-.91-14.43-3.29-28.19-4.93-41.47-4.93Zm24.37,7.68c-9.5.03-18.97.56-28.37,1.61-27.65,3.08-54.17,10.54-78.36,21.64,10.26-2.65,20.67-4.77,30.94-6.87,4.74-.97,9.65-1.97,14.43-3,7.04-1.52,14.3-3.19,21.32-4.8,13.27-3.05,26.67-6.13,40.03-8.58Zm21.33-1.25c.94.07,1.87.15,2.81.23-.49-.13-.99-.26-1.49-.38-.44.05-.88.1-1.32.16Z"/>
</svg>