<?xml version="1.0" encoding="UTF-8"?>
<svg id="_ëîé_1" data-name="‘ëîé_1" xmlns="http://www.w3.org/2000/svg" viewBox="0 0 552.18 536.04">
  <path d="m278.25,498.3c-11.61,0-22.71-1.03-32.98-3.13-15.95-3.25-30.89-7.8-44.96-13.72-23.05-7.33-45.18-18.03-65.4-31.97-28.47-19.62-52.01-45.22-68.07-74.03-17.49-31.38-26.36-66.15-26.36-103.36,0-50.36,8.25-88.48,25.96-119.95,16.9-30.04,41.45-51.24,65.46-69.68,27.9-21.43,73.57-35.63,123.89-38.81,2.91-.23,5.87-.38,8.86-.44,1.12-.04,2.24-.08,3.37-.11,55.34-1.5,106.77,10.65,137.57,32.53,46.9,33.3,77.4,65.06,94.52,128.86,16.54,61.63-.8,155.21-38.65,208.62-19.86,28.02-55.28,53.08-97.16,68.74-28.96,10.83-58.91,16.46-86.03,16.46Zm-55.12-10.75c7.28,2.2,14.78,4.09,22.53,5.67,33.93,6.92,76.91,2.09,117.93-13.25,41.52-15.53,76.59-40.33,96.23-68.03,17.44-24.6,31.66-60.55,39.01-98.62,7.67-39.7,7.43-78.18-.66-108.33-16.97-63.22-47.23-94.71-93.76-127.75-25.13-17.84-64.21-29.15-107.96-31.72,22.12,3.54,45.34,11.04,68.44,22.29,41.14,20.02,75.51,49.05,94.3,79.64,42.75,69.63,31.06,152.48,13.73,209.73-17.92,59.18-55.09,98.79-113.62,121.08-43.01,16.38-90.73,19.18-136.18,9.3Zm-22.12-7.96c51.55,16.38,107.76,15.78,157.59-3.2h0c57.92-22.06,94.7-61.25,112.43-119.8,17.22-56.86,28.85-139.12-13.52-208.11-18.59-30.28-52.66-59.03-93.48-78.89-34.21-16.65-68.66-25.03-99.26-24.41-2.98.11-5.94.26-8.89.44-4.46.36-8.83.92-13.08,1.69-22.35,4.03-78.22,16.9-114.19,49.15-21.3,19.09-39.58,43.47-52.86,70.49-13.64,27.73-21.36,57.03-22.32,84.72-1.24,35.81,11.58,95.12,34.46,128.49,21.66,31.59,43.82,55.62,67.73,73.45,14.16,10.56,29.21,19.18,45.39,25.98Zm23.74-430.51c-37.27,6-69.93,18.26-91.66,34.94-49.59,38.08-90.64,78.51-90.64,188.06,0,36.86,8.78,71.31,26.11,102.39,15.91,28.54,39.24,53.91,67.47,73.37,14.36,9.9,29.68,18.15,45.62,24.7-9.44-5.07-18.49-10.85-27.21-17.35-24.09-17.96-46.4-42.14-68.19-73.92-23.11-33.7-36.06-93.55-34.8-129.68.97-27.97,8.76-57.55,22.52-85.53,13.4-27.24,31.84-51.83,53.32-71.09,28.88-25.9,70.35-39.41,97.47-45.9Z"/>
</svg>