<?xml version="1.0" encoding="UTF-8"?>
<svg id="_ëîé_1" data-name="‘ëîé_1" xmlns="http://www.w3.org/2000/svg" viewBox="0 0 552.18 536.04">
  <path d="m296.56,486.29c-31.19,0-63.48-5.24-93.57-18.48-10.86-4.78-21.93-11.43-32.77-19.45-29.11-17.4-51.53-41.4-65.47-70.49-10-15.64-17.69-31.64-21.98-46.73-7.17-25.25-8.77-58.14-4.52-92.62,4.15-33.64,13.65-64.97,26.07-85.95,19.89-33.6,52.14-74.98,83.01-90.37,54.23-27.03,114.72-34.62,174.93-21.94,22.1,4.66,44.04,14.67,64.6,29.36,57.53,31.56,91.12,86.62,100.11,164.39,5.31,45.98-2.21,93.73-21.19,134.45-20.47,43.92-52.36,76.38-92.22,93.87-30.29,13.29-72.53,23.95-117.01,23.95Zm-109.05-28.74c5.44,3.24,10.89,6.08,16.28,8.45,72.4,31.88,157.83,16.98,208.99-5.47,39.41-17.29,70.96-49.41,91.22-92.89,18.83-40.39,26.29-87.76,21.02-133.39-8.11-70.17-36.41-121.67-84.42-153.93,3.27,2.76,6.49,5.64,9.66,8.63,25.42,24.03,45.52,54.11,56.6,84.68,11.14,30.75,16.02,61.9,14.5,92.59-1.53,30.97-9.64,62.59-24.09,94-5.31,11.54-14.2,30.87-22.64,41.36-24.78,30.8-61.08,53.95-104.98,66.96-41.5,12.29-87.47,14.46-129.46,6.08-19.04-3.8-36.67-9.55-52.67-17.07Zm-16.36-10.94c20.1,12.04,43.44,20.9,69.42,26.08,41.68,8.31,87.32,6.17,128.52-6.04,43.51-12.89,79.48-35.82,104-66.3,8.29-10.3,17.12-29.49,22.39-40.95,28.83-62.66,31.94-123.21,9.52-185.09-10.97-30.29-30.9-60.09-56.1-83.91-7.4-7-15.08-13.34-22.96-18.99-17.62-9.68-37.52-17.14-59.66-22.34-46.19-10.85-88.83-11.1-126.76-.74-34.48,9.42-64.44,27.35-89.04,53.29-57.84,60.99-79.22,161.94-53.19,251.18,2.46,8.44,5.57,16.55,9.28,24.29,16.77,26.19,40.07,51.37,64.58,69.53Zm-54.82-52.13c9.52,14.68,21.49,27.73,35.61,38.89-12.91-11.65-25.06-24.93-35.61-38.89ZM305.51,36.27c-40.63,0-80.42,9.32-117.3,27.71-30.48,15.19-62.44,56.25-82.19,89.61-12.29,20.76-21.7,51.81-25.81,85.19-4.22,34.22-2.63,66.83,4.46,91.84,3.13,11.02,8.09,22.52,14.45,34.01-1.37-3.69-2.62-7.45-3.74-11.28-26.22-89.89-4.65-191.6,53.66-253.09,24.86-26.21,55.12-44.32,89.96-53.84,38.25-10.45,81.23-10.2,127.73.72,16.24,3.82,31.28,8.83,45.12,15.04-16.2-9.64-33.05-16.4-49.99-19.97-18.82-3.96-37.67-5.93-56.34-5.93Z"/>
</svg>