<?xml version="1.0" encoding="UTF-8"?>
<svg id="Layer_4" data-name="Layer 4" xmlns="http://www.w3.org/2000/svg" xmlns:xlink="http://www.w3.org/1999/xlink" viewBox="0 0 539.87 439.33">
  <defs>
    <style>
      .cls-1 {
        stroke-width: 2px;
      }

      .cls-1, .cls-2 {
        fill: none;
        stroke: #bcdbca;
        stroke-miterlimit: 10;
      }

      .cls-3 {
        clip-path: url(#clippath);
      }

      .cls-4 {
        fill: #bcdbca;
      }

      .cls-5 {
        fill: #aedccb;
      }

      .cls-6 {
        fill: #9fc9af;
      }

      .cls-7 {
        fill: #b1a999;
      }

      .cls-8 {
        fill: #070707;
      }
    </style>
    <clipPath id="clippath">
      <path class="cls-5" d="m161.67,155.32c2.47-7.52,11.34-57.62,11.34-57.62,0,0,266.33-5.61,270.76-4.06s22.19,15.05,25.15,45.56c2.96,30.51,7.4,131.33,7.4,131.33-6.48.26-16.8-.09-28.11-4.38-18.49-7-21.75-17.71-38.47-20.46-2.85-.47-16.35-2.69-28.11,4.38-9.81,5.9-8.87,12.52-17.75,16.07-10.2,4.08-14.85-3.28-28.11-1.46-13.39,1.84-13.9,10.07-29.59,16.07-9.59,3.67-18.72,3.42-36.99,2.92-22.48-.61-27.53-4.02-43-2.2-10.98,1.3-19.66,4.34-25.06,6.58.31-17.36-.39-31.81-1.17-42.26-2.44-32.99-3.92-50.22-15.11-67.33-7.52-11.5-16.75-18.85-23.18-23.17Z"/>
    </clipPath>
  </defs>
  <g>
    <path class="cls-5" d="m161.67,155.32c2.47-7.52,11.34-57.62,11.34-57.62,0,0,266.33-5.61,270.76-4.06s22.19,15.05,25.15,45.56c2.96,30.51,7.4,131.33,7.4,131.33-6.48.26-16.8-.09-28.11-4.38-18.49-7-21.75-17.71-38.47-20.46-2.85-.47-16.35-2.69-28.11,4.38-9.81,5.9-8.87,12.52-17.75,16.07-10.2,4.08-14.85-3.28-28.11-1.46-13.39,1.84-13.9,10.07-29.59,16.07-9.59,3.67-18.72,3.42-36.99,2.92-22.48-.61-27.53-4.02-43-2.2-10.98,1.3-19.66,4.34-25.06,6.58.31-17.36-.39-31.81-1.17-42.26-2.44-32.99-3.92-50.22-15.11-67.33-7.52-11.5-16.75-18.85-23.18-23.17Z"/>
    <g class="cls-3">
      <image width="5000" height="3043" transform="translate(161.67 68.63) scale(.07)" xlink:href="little-children-with-hands-up/15454.jpg"/>
    </g>
  </g>
  <rect class="cls-8" x="85.2" y="222.81" width="2.92" height="21.67" transform="translate(190.6 7.15) rotate(45)"/>
  <path class="cls-1" d="m193.07,191.12c3.74,12.16,3.08,25.18,5.05,37.73.57,3.63,1.5,7.47,4.21,10,2.63,2.45,6.56,3.28,8.93,5.97,2.03,2.31,2.52,5.54,2.75,8.59,1.24,16.43-2.61,33.21-10.92,47.51,34.67-.77,69.34-1.54,104.01-2.31,1.44-.03,3.05-.13,4.05-1.16.87-.9,1.01-2.25,1.2-3.49,1.6-10.5,10.63-19.47,21.25-21.11s22,4.17,26.77,13.68c1.34,2.67,2.32,5.73,4.78,7.46,3.87,2.73,9.67.57,12.36-3.31,2.69-3.87,3.08-8.82,3.27-13.52.42-9.82,2.3-15.18,6.1-19.33,6.31-6.89,17.36-6.34,20.45-6.19,7.23.36,12.43,3.09,15.9,4.9,8.27,4.34,13.05,10.03,14.17,11.4,3.15,3.87,2.86,4.92,11.66,20.97,3.53,6.44,4.5,7.95,6.68,9.18,3.25,1.83,5.26.81,17.16-.35,10.98-1.07,14.78-2.71,17.88-3.92,17.55-6.87-1.52-68.71-.99-149.11.15-23.19,1.94-49.21-14.56-61.33-6.23-4.58-13.12-6.82-25.06-7.81-16.94-1.41-33.96-1.33-50.96-1.25-74.35.34-148.7.69-223.04,1.03-8.46.04-17.85.44-23.87,6.31-9.82,9.57-5.02,25.99-4.88,37.93l-1.3,33.08"/>
  <path class="cls-8" d="m318.72,325.21c3.1,8.96,12.25,16.94,23.17,16.45,12.52-.56,21.9-12,22.41-23.38.67-14.91-13.94-28.74-28.04-26.19-13.78,2.49-22.17,19.72-17.54,33.13Z"/>
  <path class="cls-8" d="m382.8,319.25c3.32,12.99,15.16,25.33,30.2,25.33,17.54,0,31.37-16.81,31.17-33.12-.26-20.7-23.07-37.99-41.55-32.26-15.09,4.68-24,23.7-19.82,40.05Z"/>
  <path class="cls-8" d="m165.75,340.01c3.87-.22,7.87-.48,11.29-2.31,10.91-5.85,12.3-27.27,5.43-36.36-6.44-8.52-24.98-14.74-35.33-12.09-13.32,3.4-17.55,18.67-15.46,31.01,3.05,18.07,18.24,20.65,34.08,19.75Z"/>
  <path class="cls-8" d="m53.15,308.78c-4.18,8.7-4.42,22.2,4.29,28.98,9.02,7.03,21.36,1.93,22.69,1.36.9-.39,12.81-5.76,14.92-18.34,1.77-10.55-3.78-23.68-15.26-26.81-11.81-3.22-22.48,6.17-26.63,14.81Z"/>
  <path class="cls-4" d="m43.8,306.91s6.77-29.23,30.69-26.28,26.79,21.31,26.79,21.31c0,0-10.23-13.64-25.81-12.54-15.59,1.11-22.89,13.44-31.66,17.5Z"/>
  <path class="cls-4" d="m127.46,293.66c-2.5,2.26,13.76-32.86,39.09-27.99,25.33,4.87,25.33,32.63,25.33,32.63,0,0-3.58-14.44-17.53-20.22-14.44-5.98-21.19-7.58-46.88,15.57Z"/>
  <path class="cls-2" d="m67.6,315.09c-1.11,2.32-1.18,5.92,1.14,7.73,2.41,1.87,5.7.51,6.05.36.24-.1,3.42-1.54,3.98-4.89.47-2.81-1.01-6.31-4.07-7.15-3.15-.86-5.99,1.64-7.1,3.95Z"/>
  <path class="cls-2" d="m160.56,320.54c.93-.05,1.89-.11,2.7-.55,2.61-1.4,2.95-6.53,1.3-8.71-1.54-2.04-5.99-3.53-8.47-2.9-3.19.82-4.2,4.47-3.7,7.43.73,4.33,4.37,4.95,8.17,4.73Z"/>
  <path class="cls-2" d="m334.6,319.13c.88,2.54,3.47,4.8,6.56,4.66,3.55-.16,6.2-3.4,6.35-6.62.19-4.22-3.95-8.14-7.94-7.42-3.9.7-6.28,5.58-4.97,9.38Z"/>
  <path class="cls-2" d="m405.88,313.2c.78,3.05,3.56,5.95,7.1,5.95,4.12,0,7.37-3.95,7.33-7.78-.06-4.87-5.42-8.93-9.77-7.58-3.55,1.1-5.64,5.57-4.66,9.41Z"/>
  <path class="cls-6" d="m214.76,250.28c-2.71-8.12-7.55-8.88-12.88-15.86-17.35-22.74,4.32-53.5-9.16-65.04-3.95-3.38-16.45-2.09-41.45.49-13.09,1.35-14.78,2.3-28.69,3.4-7.03.56-13.04.82-27.28,1.95-4.93.39-8.99.74-11.69.97-6.81,15.04-11.01,27.84-13.64,37.02-6.71,23.44-6.84,36.23-17.03,41.64-5.87,3.12-8.3.19-21.21,3.83-8.53,2.41-18.06,5.1-21.18,11.03-4.62,8.76,4.44,25.23,22.41,39.94.35-18.43,14.83-33.71,33.12-35.07,18.44-1.37,35.11,11.84,37.99,30.2,3.7,1.97,9.14,4.21,12.66,1.95,5.02-3.22,1.02-12.27,4.87-22.41,5.23-13.77,21.08-19.31,24.35-20.46,11.24-3.93,30.21-5.46,39.94,4.87,11.13,11.82,3.84,32.45,14.61,37.02.53.22,3.6,1.53,6.24.23,4.62-2.27,3.54-10.35,4.48-22.63,1.59-20.69,6.66-23.73,3.53-33.08Zm-135.91-9.01s.67-27.1,9.11-37.72c8.44-10.62,24.6-3.2,24.6-3.2l3.32,38.15-37.03,2.77Zm57.82-2.77v-41.35l46.11-4.15,3.89,40.84-50,4.65Z"/>
  <ellipse class="cls-8" cx="91.45" cy="228.86" rx="4.52" ry="9.03" transform="translate(-108.88 85.3) rotate(-32.59)"/>
  <path class="cls-7" d="m78.85,172.16c6.51-.65,18.85-7.67,22.42-4.81s0-14.67,0-14.67l-22.42,5.84v13.64Z"/>
  <path class="cls-7" d="m479.33,330.73c.68,0,2.21-.12,1.95-1.15-.23-.95-2.15-1.3-2.91-1.3-.68,0-2.21.12-1.95,1.15.23.95,2.15,1.3,2.91,1.3h0Z"/>
  <path class="cls-7" d="m493.78,326.03c.69,0-.84-1.53-.93-1.62-.6-.56-1.71-1.66-2.62-1.66-.69,0,.84,1.53.93,1.62.6.56,1.71,1.66,2.62,1.66h0Z"/>
  <path class="cls-7" d="m501.63,351.36c1.08,0,2.07-.89,1.72-2.01-.38-1.21-1.8-1.82-2.97-1.82-1.08,0-2.07.89-1.72,2.01.38,1.21,1.8,1.82,2.97,1.82h0Z"/>
  <path class="cls-7" d="m475.77,338.2c.77,0,2.64-.16,2.97-1.05s-1.38-1.01-1.88-1.01c-.77,0-2.64.16-2.97,1.05s1.38,1.01,1.88,1.01h0Z"/>
  <path class="cls-7" d="m503.59,302.51c1.17,0,2.33-.57,3.14-1.41.39-.4,1.18-1.77,0-1.77s-2.33.57-3.14,1.41c-.39.4-1.18,1.77,0,1.77h0Z"/>
  <path class="cls-7" d="m503.33,323.06c1.14,0,2.31-.47,3.25-1.1.32-.22,1.53-1.33.4-1.33s-2.31.47-3.25,1.1c-.32.22-1.53,1.33-.4,1.33h0Z"/>
  <path class="cls-7" d="m505.07,336.57c.65,0-.5-1.58-.62-1.75-.37-.51-1.45-2.16-2.22-2.16-.65,0,.5,1.58.62,1.75.37.51,1.45,2.16,2.22,2.16h0Z"/>
  <path class="cls-7" d="m514.47,312.78c2.87,0,1.36-4.6-.97-4.6-2.87,0-1.36,4.6.97,4.6h0Z"/>
  <path class="cls-7" d="m515.31,330.58c.63,0,2.5-.2,2.47-1.14s-1.96-1.01-2.53-1.01c-.63,0-2.5.2-2.47,1.14s1.96,1.01,2.53,1.01h0Z"/>
  <path class="cls-7" d="m491.76,317.01c1.14,0,2.57-.73,2.72-1.98s-1.13-1.97-2.22-1.97-2.57.73-2.72,1.98,1.13,1.97,2.22,1.97h0Z"/>
  <path class="cls-7" d="m477.77,321.5c.73,0,2.66-.1,2.99-.94s-1.42-.92-1.85-.92c-.73,0-2.66.1-2.99.94s1.42.92,1.85.92h0Z"/>
  <path class="cls-7" d="m487.64,346.41c.97,0,2.58-.63,2.76-1.72.2-1.19-1.28-1.44-2.12-1.44-.97,0-2.58.63-2.76,1.72-.2,1.19,1.28,1.44,2.12,1.44h0Z"/>
  <path class="cls-7" d="m515.68,366.39c.74,0,2.24-.1,2.03-1.2-.19-.99-2.03-1.5-2.83-1.5-.74,0-2.24.1-2.03,1.2.19.99,2.03,1.5,2.83,1.5h0Z"/>
  <path class="cls-7" d="m521.84,343.19c.51,0-1.16-1.26-1.25-1.31-.71-.47-1.85-1.37-2.77-1.37-.51,0,1.16,1.26,1.25,1.31.71.47,1.85,1.37,2.77,1.37h0Z"/>
  <path class="cls-7" d="m519.86,321.39c.49,0,2.5-.13,2.47-.91s-2.13-.73-2.53-.73c-.49,0-2.5.13-2.47.91s2.13.73,2.53.73h0Z"/>
  <path class="cls-7" d="m533.15,305.44c.34,0-1.41-.85-1.55-.9-.95-.33-1.99-.7-3-.7-.34,0,1.41.85,1.55.9.95.33,1.99.7,3,.7h0Z"/>
  <path class="cls-7" d="m513.55,354.46c1.11,0,1.73-.91,1.33-1.94-.43-1.09-1.74-2-2.92-2-1.11,0-1.73.91-1.33,1.94.43,1.09,1.74,2,2.92,2h0Z"/>
  <path class="cls-7" d="m489.8,307.91c.22.22.43.43.65.65.26.23.54.39.86.5.29.14.6.22.93.24.3.03.58,0,.85-.11.27-.05.5-.18.7-.37l.32-.41c.16-.32.22-.66.16-1.02l-.16-.53c-.18-.37-.42-.69-.74-.96-.22-.22-.43-.43-.65-.65-.26-.23-.54-.39-.86-.5-.29-.14-.6-.22-.93-.24-.3-.03-.58,0-.85.11-.27.05-.5.18-.7.37l-.32.41c-.16.32-.22.66-.16,1.02l.16.53c.18.37.42.69.74.96h0Z"/>
  <path class="cls-7" d="m530.05,339.09h1.01c.3,0,.58-.07.85-.19.31-.09.6-.24.87-.44.28-.18.52-.4.72-.66.2-.21.36-.45.48-.73l.14-.48c.05-.31,0-.59-.17-.85l-.31-.29c-.29-.16-.59-.23-.92-.21h-1.01c-.3,0-.58.07-.85.19-.31.09-.6.24-.87.44-.28.18-.52.4-.72.66-.2.21-.36.45-.48.73l-.14.48c-.05.31,0,.59.17.85l.31.29c.29.16.59.23.92.21h0Z"/>
</svg>