<?xml version="1.0" encoding="UTF-8"?>
<svg id="Layer_1" data-name="Layer 1" xmlns="http://www.w3.org/2000/svg" viewBox="0 0 133.29 46.37">
  <defs>
    <style>
      .cls-1 {
        fill: #fff;
      }

      .cls-2 {
        letter-spacing: 0em;
      }

      .cls-3 {
        fill: #3d4154;
      }

      .cls-4 {
        fill: #1d5ba6;
      }

      .cls-5 {
        letter-spacing: -.01em;
      }

      .cls-6 {
        fill: #a62521;
      }

      .cls-7 {
        letter-spacing: -.02em;
      }

      .cls-8 {
        fill: #666569;
      }

      .cls-9 {
        fill: #2f2b30;
      }

      .cls-10 {
        fill: #ee7b1d;
      }

      .cls-11 {
        fill: #2a6ab1;
      }

      .cls-12 {
        fill: #94211c;
      }

      .cls-13 {
        fill: #f59e17;
      }

      .cls-14 {
        fill: #353535;
        font-family: BubblegumPop-Highlight, 'Bubblegum Pop';
        font-size: 26.85px;
        font-weight: 300;
      }
    </style>
  </defs>
  <text class="cls-14" transform="translate(33.26 21.12)"><tspan x="0" y="0">Li</tspan><tspan class="cls-2" x="19.01" y="0">t</tspan><tspan x="29.92" y="0">tle </tspan><tspan x="0" y="18.4">Lea</tspan><tspan class="cls-5" x="40.76" y="18.4">r</tspan><tspan x="49.95" y="18.4">ne</tspan><tspan class="cls-7" x="79.14" y="18.4">r</tspan><tspan x="88.05" y="18.4">s</tspan></text>
  <g>
    <path class="cls-1" d="m33.52,34.37c.01-.07.02-.14.03-.21,0,.07-.02.14-.03.21Z"/>
    <path class="cls-1" d="m33.44,34.91h0s0-.03,0-.05c0,.02,0,.04,0,.06h0s0-.01,0-.01Z"/>
    <path class="cls-1" d="m33.41,35.06h0s0,0,0,0h0s0,0,0,0h0s0,0,0,0h0s0,0,0,0h0s0,0,0,0h0s0,0,0,0h0s0,0,0,0h0s0,0,0,0h0s0,0,0,0h0s0,0,0,0h0s0,0,0,0h0s0,0,0,0h0s0,0,0,0h0s0,0,0,0h0s0,0,0,0h0s0,0,0,0h0c-.02.09-.04.19-.06.29.01-.05.02-.1.03-.15h0Z"/>
    <path class="cls-1" d="m33.28,35.69c.02-.07.03-.14.05-.21-.02.07-.03.14-.05.21Z"/>
    <path class="cls-1" d="m33.43,34.93h0s0,0,0,0c0,0,0,0,0,.01h0s0,0,0,0Z"/>
    <path class="cls-1" d="m32.44,39.23c.05-.12.1-.25.15-.38-.04.13-.09.25-.15.38Z"/>
    <path class="cls-1" d="m32.36,39.41c-.07.16-.15.32-.24.48.09-.16.16-.32.24-.48Z"/>
    <g>
      <path class="cls-1" d="m32.22,11.77h0s0,0,0,0h0s0,0,0,0h0s0,0,0,0h0c.05-.06.09-.11.14-.17h0s0,0,0,0h0s0,0,0,0h0s0,0,0,0h0s0,0,0,0h0s0,0,0,0h0s0,0,0,0h0s0,0,0,0h0s0,0,0,0h0s0,0,0,0h0s0,0,0,0h0s0,0,0,0l.02-.03c-.07.09-.14.18-.22.27h0s0,0,0,0Z"/>
      <rect class="cls-1" x="32.21" y="11.84" width="0" height="0" transform="translate(-1.42 5.02) rotate(-8.71)"/>
      <rect class="cls-1" x="32.21" y="11.85" width="0" height="0" transform="translate(-1.42 5.02) rotate(-8.71)"/>
      <polygon class="cls-1" points="32.21 11.85 32.21 11.85 32.21 11.85 32.21 11.85"/>
      <rect class="cls-1" x="32.21" y="11.83" width="0" height="0" transform="translate(-1.42 5.02) rotate(-8.71)"/>
      <polygon class="cls-1" points="32.21 11.85 32.21 11.85 32.21 11.85 32.21 11.85"/>
      <polygon class="cls-1" points="32.21 11.82 32.21 11.8 32.21 11.78 32.21 11.83 32.21 11.83 32.21 11.82"/>
      <path class="cls-1" d="m32.18,12.49l-.04.99c.01-.26.03-.64.04-.99Z"/>
      <polygon class="cls-1" points="32.21 11.89 32.21 11.89 32.21 11.89 32.21 11.89"/>
      <rect class="cls-1" x="32.2" y="11.87" width=".02" height="0" transform="translate(-1.43 5.02) rotate(-8.71)"/>
      <polygon class="cls-1" points="32.21 11.85 32.21 11.85 32.21 11.85 32.21 11.85"/>
      <path class="cls-1" d="m11.49,8.4s-.07-.06-.11-.09c.04.03.08.06.11.09Z"/>
      <polygon class="cls-1" points="12.06 8.98 12.06 8.98 11.81 8.71 12.06 8.98"/>
      <path class="cls-1" d="m12.03,8.24c0,.15,0,.3,0,.45,0-.15-.01-.3,0-.45Z"/>
      <path class="cls-4" d="m4.83,36.43s0,0,0-.01c-.04,0-.08,0-.12-.01-.04,0-.08-.02-.11-.02-.07-.01-.15-.03-.22-.04-.04-.01-.08-.02-.12-.04-.07-.02-.13-.04-.2-.06-.04-.01-.08-.03-.11-.05-.06-.03-.13-.05-.19-.08-.04-.02-.07-.04-.1-.05-.06-.03-.13-.07-.19-.1-.03-.02-.06-.04-.09-.06-.06-.04-.12-.08-.18-.13-.03-.02-.05-.04-.08-.06-.06-.05-.12-.09-.17-.15-.02-.02-.05-.05-.07-.07-.05-.05-.11-.11-.16-.16,0,0-.01-.01-.02-.02,0,0,0,0,0,0-.19-.22-.35-.45-.48-.71L.11,37.98c-.3.53.06,1.18.67,1.21l4.85.2c.15,0,.29-.03.42-.1-.78-.7-1.26-1.73-1.21-2.86Zm-2.52-.79c-.29.42-.58.85-.87,1.27-.15.21-.29.43-.44.63-.16.2-.31.41-.48.6h0s0,0,0,0c.13-.22.27-.44.41-.65.14-.21.3-.41.46-.62.31-.41.61-.82.93-1.23h0s0,0,0,0Z"/>
      <polygon class="cls-4" points="6.84 20.3 9.37 20.4 9.61 20.41 9.61 20.41 10.57 20.46 10.81 14.6 10.37 14.59 6.84 20.3"/>
      <polygon class="cls-11" points="10.37 14.59 6.57 14.43 6.32 20.28 6.84 20.3 10.37 14.59"/>
      <path class="cls-13" d="m6.55,14.42h.01s3.8.16,3.8.16l.45.02h.01c.82.03,1.28-.94.72-1.55l-2.05-2.23c-.35-.38-.93-.4-1.31-.05l-2.23,2.05c-.61.56-.24,1.57.59,1.6Zm-.4-1.17c.18-.19.38-.37.58-.55.2-.18.41-.34.61-.51.41-.34.82-.67,1.23-1h0s0,0,0,0c-.39.35-.79.71-1.19,1.06-.2.18-.39.36-.6.52-.21.16-.41.33-.63.48h0s0,0,0,0Z"/>
      <path class="cls-4" d="m27.97,10.03l-2.5,2.19c.75.73,1.2,1.76,1.15,2.89-.09,2.11-1.87,3.74-3.98,3.65l-.86-.04c-.98-.04-1.85-.45-2.51-1.09l-3.47,3.04,6.4.27h.07s6.39.27,6.39.27l.47-11.16c-.05,0-.11.01-.17,0l-1.01-.04Z"/>
      <path class="cls-11" d="m19.28,17.64c-.75-.73-1.2-1.76-1.15-2.89.09-2.11,1.87-3.74,3.98-3.65l.86.04c.98.04,1.86.45,2.51,1.09l2.5-2.19-11.74-.5s.02,0,.14,0h-.15c-.06,0-.12-.02-.18-.03l-.47,11.17h.23s3.47-3.03,3.47-3.03Z"/>
      <path class="cls-6" d="m3.12,35.71c-.06-.05-.12-.09-.17-.15.05.05.11.1.17.15Z"/>
      <path class="cls-6" d="m3.95,36.2c-.06-.03-.13-.05-.19-.08.06.03.13.06.19.08Z"/>
      <path class="cls-6" d="m4.26,36.31c-.07-.02-.13-.04-.2-.06.06.02.13.04.2.06Z"/>
      <path class="cls-6" d="m4.6,36.39c-.07-.01-.15-.03-.22-.04.07.02.15.03.22.04Z"/>
      <path class="cls-6" d="m5.22,34.95c.63-1.23,1.93-2.06,3.4-2,.15,0,.29.02.43.05.17-1.29.3-2.78.37-4.36.14-3.29-.03-6.17-.4-7.77l-1.6-.07-1.02-.05c-.34-.01-.68-.04-1.01-.02-.34.02-.67.07-.98.21-.15.07-.3.16-.42.27-.12.11-.23.25-.28.41h0s0,0,0,0h0c.05-.17.16-.31.28-.43.12-.12.27-.21.42-.28.31-.14.65-.21.99-.23.34-.02.68,0,1.02.01l1.02.04,1.58.06c-.04-.15-.07-.29-.11-.42l.47.02-2.53-.11-.52-.02-.58-.02c-1.27-.05-2.4.61-3,1.63.05-.02.09-.03.14-.02.83.04,1.38,2.92,1.24,6.43-.15,3.52-.94,6.34-1.77,6.31-.05,0-.09-.02-.14-.04,0,0,0,.02.01.03.13.26.29.5.48.71.84-.1,1.68-.22,2.52-.35Z"/>
      <path class="cls-6" d="m2.88,35.49c-.05-.05-.11-.11-.16-.16.05.06.1.11.16.16Z"/>
      <path class="cls-6" d="m3.38,35.9c-.06-.04-.12-.08-.18-.13.06.04.12.09.18.13Z"/>
      <path class="cls-6" d="m3.66,36.06c-.06-.03-.13-.07-.19-.1.06.04.12.07.19.1Z"/>
      <path class="cls-6" d="m4.83,36.42s0,0,0,0c-.04,0-.08,0-.12-.01.04,0,.08,0,.12.01Z"/>
      <path class="cls-6" d="m9.72,20.83l1.77.07,2.03.08,2.03.09,2.03.1,1.01.05,1.01.06h0s0,0,0,0l-1.02-.03-1.02-.03-2.03-.07-2.03-.09-2.03-.09-1.75-.08c.37,1.61.53,4.49.4,7.77-.07,1.65-.21,3.19-.39,4.52.4.15.77.38,1.09.65,3.95-.99,7.77-2.44,11.25-4.52,0-.05,0-.1,0-.14.15-3.64-.07-6.79-.52-8.25l.64.03-6.4-.27h-.23s-5-.22-5-.22l-.96-.04c.04.12.07.27.11.41Z"/>
      <path class="cls-6" d="m22.81,28.87c.68-.43,1.34-.88,1.99-1.36,2.15-1.59,3.86-3.66,4.32-6.27l-.45-.02-6.39-.27c.44,1.42.66,4.43.53,7.92Z"/>
      <path class="cls-12" d="m2.7,35.31s.01.01.02.02c.05.06.1.11.16.16.02.02.05.05.07.07.05.05.11.1.17.15.03.02.05.04.08.06.06.04.12.09.18.13.03.02.06.04.09.06.06.04.12.07.19.1.03.02.07.04.1.05.06.03.13.06.19.08.04.02.08.03.11.05.06.02.13.04.2.06.04.01.08.03.12.04.07.02.15.03.22.04.04,0,.08.02.11.02.04,0,.08,0,.12.01.02-.53.16-1.02.39-1.47-.84.13-1.68.25-2.52.35,0,0,0,0,0,0Z"/>
      <path class="cls-12" d="m24.8,27.51c-.65.48-1.31.93-1.99,1.36,0,.11,0,.22-.01.33-.11,2.66-.4,5.05-.78,6.69.58-1.36,1.95-2.29,3.5-2.23,1.88.08,3.38,1.6,3.48,3.44.66-.98,1.24-4.05,1.4-7.71.19-4.47-.33-8.12-1.16-8.16h-.11s0,0,0,0c-.46,2.61-2.17,4.69-4.32,6.27Z"/>
      <path class="cls-12" d="m12.06,36.05l1.32.06c.39-1.66,1.93-2.87,3.69-2.8,1.76.07,3.19,1.41,3.44,3.1l.66.03c.43-1.61.78-4.19.91-7.12-3.49,2.08-7.31,3.53-11.25,4.52.65.56,1.09,1.34,1.23,2.21Z"/>
      <path class="cls-13" d="m2.35,34.6c.83.04,1.62-2.79,1.77-6.31.15-3.52-.4-6.4-1.24-6.43-.05,0-.09,0-.14.02-.78.27-1.49,2.96-1.63,6.28-.14,3.32.34,6.07,1.1,6.4.05.02.09.03.14.04Zm-.73-3.77l-.02-.3v-.31s-.02-.61-.02-.61c-.01-.81,0-1.63.06-2.44,0-.2.03-.41.05-.61.02-.2.03-.41.06-.61l.08-.61c.03-.2.07-.4.11-.6l.03-.15.04-.15.07-.3c.02-.1.06-.2.08-.29.03-.1.06-.2.09-.29l.11-.29c.04-.09.09-.18.13-.28.1-.18.21-.36.37-.48h0s0,0,0,0h0c-.16.12-.26.31-.36.48-.04.09-.09.18-.13.28l-.11.29c-.03.1-.06.19-.09.29-.03.1-.06.19-.08.29l-.07.3-.03.15-.03.15c-.03.2-.07.4-.1.6l-.07.6c-.02.2-.03.4-.05.61-.02.2-.03.4-.04.61-.01.41-.04.81-.03,1.22,0,.41-.02.81,0,1.22v.61s0,.3,0,.3v.3c.02.41.03.81.03,1.22h0s0,0,0,0c-.03-.41-.06-.81-.08-1.22Z"/>
      <path class="cls-13" d="m9.01,20.8l.71.03c-.03-.15-.07-.29-.11-.41h0s-.24-.01-.24-.01l-.47-.02c.04.13.08.27.11.42Z"/>
      <path class="cls-13" d="m9.42,28.64c-.07,1.59-.2,3.07-.37,4.36.24.04.47.1.69.18.18-1.33.32-2.87.39-4.52.14-3.28-.03-6.16-.4-7.77l-.71-.03c.37,1.61.54,4.49.4,7.77Z"/>
      <path class="cls-13" d="m21.83,36.46c.05-.2.11-.39.19-.57.37-1.65.67-4.03.78-6.69,0-.11,0-.22.01-.33.13-3.49-.1-6.49-.53-7.92h-.07s-.64-.03-.64-.03c.45,1.46.68,4.61.52,8.25,0,.05,0,.1,0,.14-.13,2.93-.48,5.51-.91,7.12l.66.03Z"/>
      <path class="cls-13" d="m29.65,8.05s.03.02.04.03c-.01-.01-.03-.02-.04-.03Z"/>
      <path class="cls-13" d="m16.38,9.53c1.36,0,12.07.03,12.07.03.61.03,1.13-.45,1.15-1.06,0-.2-.04-.38-.12-.55.03.01.05.03.08.04-.15-.08-.32-.14-.5-.15l-12.74-.54c-.61-.03-1.13.45-1.15,1.06-.02.55.36,1.02.88,1.13.06.01.12.02.18.03h.15Zm-.08-1.7l5.71.21,1.43.05,1.43.06c.95.05,1.9.1,2.85.16h0s0,0,0,0c-.95-.01-1.9-.05-2.86-.08l-1.43-.06-1.43-.07-5.71-.28h0s0-.01,0-.01Z"/>
      <path class="cls-13" d="m21.78,18.72l.86.04c2.11.09,3.89-1.55,3.98-3.65.05-1.13-.4-2.16-1.15-2.89-.65-.64-1.53-1.05-2.51-1.09l-.86-.04c-2.11-.09-3.89,1.55-3.98,3.65-.05,1.13.4,2.16,1.15,2.89.65.64,1.53,1.05,2.51,1.09Zm-2.91-3.95c.07-1.74,1.54-3.08,3.28-3.01l.71.03c1.74.07,3.08,1.54,3.01,3.28-.07,1.74-1.54,3.08-3.28,3.01l-.71-.03c-1.74-.07-3.08-1.54-3.01-3.28Z"/>
      <path class="cls-1" d="m21.89,18.05l.71.03c1.74.07,3.2-1.27,3.28-3.01.07-1.74-1.27-3.2-3.01-3.28l-.71-.03c-1.74-.07-3.2,1.27-3.28,3.01-.07,1.74,1.27,3.2,3.01,3.28Z"/>
      <path class="cls-3" d="m8.37,38.94c-1.3-.06-2.31-1.15-2.26-2.46.05-1.3,1.15-2.31,2.45-2.26,1.06.04,1.92.79,2.17,1.76l1.32.06c-.13-.88-.58-1.66-1.23-2.21-.32-.28-.69-.5-1.09-.65-.22-.08-.45-.14-.69-.18-.14-.02-.29-.04-.43-.05-1.47-.06-2.77.77-3.4,2-.23.44-.37.94-.39,1.47,0,0,0,0,0,0,0,0,0,0,0,.01-.05,1.12.43,2.16,1.21,2.86.61.55,1.4.89,2.27.93,1.76.07,3.3-1.14,3.69-2.8l-1.32-.06c-.34.95-1.25,1.62-2.31,1.58Z"/>
      <path class="cls-8" d="m8.56,34.23c-1.3-.05-2.4.96-2.45,2.26-.06,1.3.96,2.4,2.26,2.46,1.06.04,1.98-.62,2.31-1.58l-2.26-.1c-.38-.02-.67-.34-.66-.71.02-.38.34-.67.71-.66l2.26.1c-.25-.98-1.11-1.72-2.17-1.76Z"/>
      <path class="cls-3" d="m16.82,39.3c-1.06-.04-1.92-.79-2.17-1.76l-1.32-.06c.25,1.69,1.68,3.02,3.44,3.1,1.76.07,3.3-1.14,3.69-2.8l-1.32-.06c-.34.95-1.25,1.62-2.31,1.58Z"/>
      <path class="cls-3" d="m17.07,33.31c-1.76-.07-3.3,1.14-3.69,2.8l1.32.06c.34-.95,1.25-1.62,2.31-1.58,1.06.04,1.92.79,2.17,1.76l1.32.06c-.25-1.69-1.68-3.02-3.44-3.1Z"/>
      <path class="cls-8" d="m16.82,39.3c1.06.04,1.98-.62,2.31-1.58l-4.48-.19c.25.98,1.11,1.72,2.17,1.76Z"/>
      <path class="cls-8" d="m17.02,34.59c-1.06-.04-1.98.62-2.31,1.58l4.48.19c-.25-.98-1.11-1.72-2.17-1.76Z"/>
      <path class="cls-3" d="m25.52,33.67c-1.55-.07-2.93.87-3.5,2.23-.08.18-.14.37-.19.57l1.32.06c.34-.95,1.25-1.62,2.31-1.58,1.3.06,2.31,1.15,2.26,2.46-.06,1.3-1.15,2.31-2.45,2.26-1.06-.04-1.92-.79-2.17-1.76l-1.32-.06c.25,1.69,1.68,3.02,3.44,3.1,2,.08,3.7-1.48,3.79-3.48,0-.12,0-.23,0-.34-.1-1.85-1.59-3.36-3.48-3.44Z"/>
      <path class="cls-8" d="m26.04,36.64c.38.02.67.34.66.71-.02.38-.34.67-.71.66l-2.88-.12c.25.98,1.11,1.72,2.17,1.76,1.3.06,2.4-.96,2.45-2.26.06-1.3-.96-2.4-2.26-2.46-1.06-.04-1.98.62-2.31,1.58l2.88.12Z"/>
      <path class="cls-9" d="m25.98,38.01c.38.02.7-.28.71-.66.02-.38-.28-.7-.66-.71l-2.88-.12-1.32-.06-.66-.03-.66-.03-1.32-.06-4.48-.19-1.32-.06-1.32-.06-1.32-.06-2.26-.1c-.38-.02-.7.28-.71.66-.02.38.28.7.66.71l2.26.1,1.32.06,1.32.06,1.32.06,4.48.19,1.32.06,1.32.06,1.32.06,2.88.12Zm-4.6-.83l-2.15-.09-2.15-.1-8.61-.4h0s0,0,0,0l8.61.33,2.15.08,2.15.09,2.15.11,1.08.05,1.08.06h0s0,0,0,0l-1.08-.03-1.08-.04-2.15-.07Z"/>
      <path class="cls-10" d="m29.59,8.5c-.03.61-.54,1.08-1.15,1.06,0,0-10.71-.04-12.07-.03-.12,0-.17,0-.14,0l11.74.5,1.01.04c.06,0,.11,0,.17,0,.54-.06.96-.5.99-1.05.02-.38-.16-.72-.44-.93-.01,0-.03-.02-.04-.03-.03-.02-.06-.04-.09-.06-.03-.01-.05-.03-.08-.04.08.16.13.35.12.55Z"/>
      <path class="cls-1" d="m6.79,12.78c.21-.17.4-.35.6-.52.4-.35.79-.7,1.19-1.06h0s0,0,0,0c-.41.33-.82.67-1.23,1-.21.17-.41.33-.61.51-.2.18-.39.36-.58.55h0s0,0,0,0c.22-.15.43-.32.63-.48Z"/>
      <path class="cls-1" d="m1.71,32.06h0c0-.41-.01-.82-.02-1.23v-.3s0-.3,0-.3v-.61c-.01-.41,0-.81,0-1.22,0-.41.02-.81.03-1.22,0-.2.02-.41.04-.61.02-.2.03-.41.05-.61l.07-.6c.02-.2.07-.4.1-.6l.03-.15.03-.15.07-.3c.02-.1.05-.2.08-.29.03-.1.05-.2.09-.29l.11-.29c.04-.09.08-.18.13-.28.1-.17.2-.36.36-.48h0s0,0,0,0h0c-.17.12-.27.31-.37.48-.04.09-.09.18-.13.28l-.11.29c-.04.1-.06.19-.09.29-.03.1-.06.19-.08.29l-.07.3-.04.15-.03.15c-.03.2-.08.4-.11.6l-.08.61c-.02.2-.04.41-.06.61-.02.2-.04.41-.05.61-.05.81-.07,1.63-.06,2.44l.02.61v.31s.03.3.03.3c.02.41.05.81.08,1.22h0Z"/>
      <path class="cls-1" d="m7.43,20.74l-1.02-.04c-.34-.01-.68-.03-1.02-.01-.34.02-.68.08-.99.23-.15.07-.3.16-.42.28-.12.12-.23.26-.28.42h0s0,0,0,0h0c.05-.16.16-.3.28-.41.12-.12.27-.21.42-.27.31-.14.65-.2.98-.21.34-.02.68.01,1.01.02l1.02.05,1.6.07.71.03,1.75.08,2.03.09,2.03.09,2.03.07,1.02.03,1.02.03h0s0,0,0,0l-1.01-.06-1.01-.05-2.03-.1-2.03-.09-2.03-.08-1.77-.07-.71-.03-1.58-.06Z"/>
      <path class="cls-1" d="m22.01,8.11l1.43.07,1.43.06c.95.03,1.9.06,2.86.08h0s0,0,0,0c-.95-.07-1.9-.12-2.85-.16l-1.43-.06-1.43-.05-5.71-.21h0s0,.01,0,.01l5.71.28Z"/>
      <path class="cls-1" d="m1.37,36.86c-.15.2-.31.41-.46.62-.14.21-.29.43-.41.65h0s0,0,0,0c.17-.19.33-.4.48-.6.15-.2.3-.42.44-.63.29-.42.58-.84.87-1.27h0s0,0,0,0c-.31.41-.62.82-.93,1.23Z"/>
      <polygon class="cls-1" points="23.53 37.25 24.61 37.29 25.69 37.32 25.69 37.31 25.69 37.31 24.61 37.25 23.53 37.19 21.38 37.08 19.23 36.99 17.08 36.91 8.47 36.58 8.46 36.59 8.46 36.59 17.07 36.99 19.23 37.09 21.38 37.18 23.53 37.25"/>
    </g>
  </g>
</svg>