<?xml version="1.0" encoding="utf-8"?>
<!-- Generator: Adobe Illustrator 27.1.1, SVG Export Plug-In . SVG Version: 6.00 Build 0)  -->
<svg version="1.1" id="Capa_1" xmlns="http://www.w3.org/2000/svg" xmlns:xlink="http://www.w3.org/1999/xlink" x="0px" y="0px"
	 viewBox="0 0 278 249.6" style="enable-background:new 0 0 278 249.6;" xml:space="preserve">
<style type="text/css">
	.st0{fill:#FFFFFF;stroke:#FFFFFF;stroke-width:11.5131;stroke-linecap:round;stroke-linejoin:round;stroke-miterlimit:10;}
	.st1{fill:#FFD142;}
	.st2{fill:#010202;}
	.st3{fill:#F08F3A;}
	.st4{fill:#EDEDED;}
	.st5{fill:#6A5265;}
	.st6{fill:#878787;}
	.st7{fill:#D0D7E1;}
	.st8{fill:#F6F6F6;}
	.st9{fill:#9AACC0;}
	.st10{fill:#C6C6C6;}
	.st11{fill:#CA9E67;}
	.st12{fill:#FFE278;}
</style>
<g>
	<g>
		<g>
			<path class="st0" d="M94.5,60.2c0.6,0,1.3,0,1.9,0c2.2,0,4.5,0.1,6.7,0.2l1.1,0c2.5,0.1,9,0.1,19.5,0.1c21.1,0,52.6-0.1,59-0.2
				c1.6,0,3.1,0,4.5,0c6.7,0,12.2,0.3,17.3,0.8c8.4,0.9,16.8,2.5,25.1,4.7c5.5,1.5,11.3,3.3,16.3,6.3c5.1,3,8.8,7.1,11.4,12.3l0,0
				l0,0c5.8,11.2,9.1,24.8,9.8,40.2c0.6,13.2-0.8,27.6-3.9,41.7l-0.5,1.3c-1.7,0.6-5.5,1.1-10,1.1c-5.7,0-13.3-0.7-17.9-2.6
				c0.2-0.7,0.3-1.1,0.4-1.3l0,0c0.3-1.2,0.5-2.5,0.6-3.6c0-0.2,0-0.4,0-0.5c0.1-1.5,0.1-2.9,0-4.2c-0.2-2-0.9-4.4-2.2-7.4
				c-1-2.2-2.3-4.3-4-6.2c-2.3-2.6-6.2-5.9-11.5-7c-1.9-0.4-3.9-0.6-5.8-0.6c-0.7,0-1.3,0-2,0.1c-0.3,0-0.5,0.1-0.8,0.1
				c-5.1,0.6-9.6,2.4-13.1,5.1c-2.7,2.1-5,4.9-6.9,8.5c-1.4,2.5-2.2,4.9-2.4,7.3c-0.3,2.6,0,5.1,0.5,7.5c0,0.1,0,0.2,0,0.2
				c0,0.2,0.1,0.4,0.1,0.7l0.4,2l-1.5,0.4c-3,0.7-17.2,1.2-34.6,1.2c-19.9,0-36-0.6-39.1-1.5l0,0l0,0l-1.8-0.5
				c0.3-1.2,0.4-1.6,0.4-1.8h0c0.6-4.6,0.9-8.8-0.9-13.4c-1.7-4.2-4.1-7.8-6.9-10.3c-4.3-3.8-10-5.8-16-5.8c-2.1,0-4.1,0.2-6.2,0.7
				c-2.2,0.5-4.4,1.4-6,2.4c-3.2,2-5.7,4.7-7.6,8.3c-1.2,2.3-2,4.1-2.6,5.8c-0.6,1.9-1.1,3.8-1.4,5.7c-0.5,3.1-0.5,6.6-0.1,10
				c-2.1,0-4.1,0.1-6.1,0.2c-2.3,0.1-4.6,0.2-6.7,0.2c-8.4,0-15.2-1.2-20.9-6.8c-3-3-4.7-7-5.2-12.2c-0.4-4.7,0.3-9.8,0.9-14.8
				c0.2-1.8,0.5-3.5,0.6-5.1l0.4-2.2l0,0l0,0c1.2-12.2,8.4-14.3,16.9-16.6c6.6-1.9,13.5-3.8,17.8-11l0,0l0,0c2.8-5,3.1-11.1,3.5-17
				c0.6-10.5,1.1-19.6,14.2-21.4c2.1-0.2,4.2-0.5,6.3-0.6C88.5,60.3,91.5,60.2,94.5,60.2 M94.5,59c-3.1,0-6.1,0.1-9.2,0.4
				c-2.1,0.2-4.2,0.4-6.4,0.6c-21.8,3-11.2,25.7-18.6,39c-9.3,15.5-32.6,5.2-34.8,28.1l-0.4,2.2c-1.1,11-4.7,24.7,4,33.2
				c6.2,6.1,13.5,7.1,21.8,7.1c4.5,0,9.3-0.3,14.3-0.3c-0.6-3.6-0.7-7.5-0.1-11.1c0.3-1.9,0.7-3.7,1.3-5.5c0.6-1.9,1.6-3.9,2.5-5.6
				c1.7-3.2,4-5.9,7.1-7.8c1.7-1,3.8-1.8,5.7-2.3c1.9-0.5,3.9-0.7,5.9-0.7c5.5,0,11,1.9,15.2,5.5c3,2.6,5.2,6.2,6.6,9.8
				c1.7,4.3,1.4,8.3,0.8,12.8l-0.7,2.8l3,0.8c3.7,1,21.9,1.5,39.5,1.5c16,0,31.5-0.4,34.9-1.2l2.7-0.8l-0.7-3.2
				c-0.1-0.3-0.1-0.6-0.2-0.9c-0.4-2.3-0.8-4.7-0.5-7.1c0.3-2.4,1.2-4.7,2.3-6.8c1.7-3.1,3.8-5.9,6.6-8.1c3.6-2.8,8-4.3,12.5-4.9
				c0.3,0,0.5-0.1,0.8-0.1c0.6-0.1,1.2-0.1,1.8-0.1c1.9,0,3.8,0.2,5.5,0.6c4.2,0.9,8,3.4,10.9,6.6c1.6,1.7,2.9,3.7,3.8,5.8
				c0.9,2.1,1.9,4.7,2.1,7c0.1,1.3,0.1,2.6,0,3.9c-0.1,1.3-0.2,2.7-0.6,3.9l-0.7,2.3l0.5,0.3c4.5,2,12.3,2.8,18.8,2.8
				c5,0,9.2-0.5,10.9-1.4l0.7-1.9c5.9-26.3,6.7-58.5-5.9-82.9C252.5,72,242.2,68,229.9,64.6c-8.3-2.2-16.7-3.9-25.2-4.8
				c-5.8-0.6-11.6-0.8-17.5-0.8c-1.5,0-3,0-4.5,0c-6.2,0.1-37.5,0.2-59,0.2c-9.3,0-16.8,0-19.5-0.1c-2.6-0.1-5.2-0.2-7.8-0.2
				C95.8,59,95.2,59,94.5,59L94.5,59z"/>
		</g>
		<g>
			<g>
				<path class="st0" d="M66.2,123.8c3.5,0,7.1,0.3,10.6,0.5c1.1,0.1,2.3,0.2,3.4,0.2c1.7,0.1,3.4,0.1,5.1,0.2
					c6.3,0.1,12.8,0.3,18.5,3.9c4.6,3,7.7,7,9.3,12c1.5,4.6,1.7,9.7,1.7,14.6v5.6l-51.3,2.3l0-0.3l-1.4,0.3c0,0-0.1,0-0.3,0
					c-1.9,0-6.4-1.5-7.4-2.1l0,0l0,0c-4.4-2.1-7.6-5.6-9.5-10.5c-2.1-5.8-1.6-12.9,1.3-18.2c2.2-4.1,5.7-6.7,9.9-7.6
					C58.9,124.1,62.3,123.8,66.2,123.8 M66.2,122.5c-3.5,0-7.1,0.2-10.5,1c-4.6,1-8.3,3.8-10.7,8.2c-3.1,5.6-3.6,13.1-1.4,19.2
					c2.1,5.2,5.5,9,10.2,11.2c1.2,0.7,5.9,2.3,8,2.3c0.2,0,0.4,0,0.6-0.1l0,0.1l53.7-2.4v-6.8c0-10.1-0.9-20.6-11.6-27.7
					c-6-3.8-12.7-4-19.2-4.1c-1.7,0-3.4-0.1-5.1-0.2c-1.1-0.1-2.3-0.2-3.4-0.2C73.3,122.8,69.7,122.5,66.2,122.5L66.2,122.5z"/>
			</g>
		</g>
		<g>
			<path class="st0" d="M213.5,133.2c4.1,0,8.4,0.8,12.5,2.3c5.5,2.1,9.4,5.1,12,9.3c2.1,3.4,3.4,7.3,4.1,11.7
				c0.6,3.7,0.6,7.6,0.1,11.4c-2.9-0.4-5.4-1.1-7.3-1.8c0.2-0.7,0.3-1.1,0.4-1.3l0,0c0.3-1.2,0.5-2.5,0.6-3.6c0-0.2,0-0.4,0-0.5
				c0.1-1.5,0.1-2.9,0-4.2c-0.2-2-0.9-4.4-2.2-7.4c-1-2.2-2.3-4.3-4-6.2c-2.3-2.6-6.2-5.9-11.5-7c-1.9-0.4-3.9-0.6-5.8-0.6
				c-0.7,0-1.3,0-2,0.1c-0.3,0-0.5,0.1-0.8,0.1c-5.1,0.6-9.6,2.4-13.1,5.1c-2,1.6-3.9,3.6-5.5,6c0.9-2.1,2.1-3.9,3.5-5.4
				c3.4-3.8,8.1-6.5,13.1-7.5C209.4,133.4,211.4,133.2,213.5,133.2 M213.5,132c-2.1,0-4.1,0.2-6.2,0.6c-5.3,1.1-10.1,3.9-13.7,7.9
				c-3,3.4-4.8,7.7-5.7,12.1c-1,5.2-1,10.5-0.3,15.8l2.1-0.6l-0.7-3.2c-0.1-0.3-0.1-0.6-0.2-0.9c-0.4-2.3-0.8-4.7-0.5-7.1
				c0.3-2.4,1.2-4.7,2.3-6.8c1.7-3.1,3.8-5.9,6.6-8.1c3.6-2.8,8-4.3,12.5-4.9c0.3,0,0.5-0.1,0.8-0.1c0.6-0.1,1.2-0.1,1.8-0.1
				c1.9,0,3.8,0.2,5.5,0.6c4.2,0.9,8,3.4,10.9,6.6c1.6,1.7,2.9,3.7,3.8,5.8c0.9,2.1,1.9,4.7,2.1,7c0.1,1.3,0.1,2.6,0,3.9
				c-0.1,1.3-0.2,2.7-0.6,3.9l-0.7,2.3l0.5,0.3c2.4,1.1,5.7,1.8,9.3,2.2c1.4-8.5,0.3-17.8-4.2-25.2c-2.9-4.8-7.4-7.9-12.6-9.9
				C222.3,132.8,217.9,132,213.5,132L213.5,132z"/>
		</g>
		<g>
			<path class="st0" d="M86.9,133.3L86.9,133.3c0.4,0,0.9,0,1.3,0c6,0.3,11.9,2.6,16.7,6.4c4.3,3.5,7.3,8.1,8.9,13.7
				c1.4,4.9,1.9,9.6,1.5,14c-0.8-0.2-1.6-0.4-2.3-0.6l0,0l0,0l-1.8-0.5c0.3-1.2,0.4-1.6,0.4-1.8h0c0.6-4.6,0.9-8.8-0.9-13.4
				c-1.7-4.2-4-7.8-6.9-10.3c-4.3-3.8-10-5.8-16-5.8c-2.1,0-4.1,0.2-6.2,0.7c-2.2,0.5-4.4,1.4-6,2.4c-2.1,1.3-3.9,2.9-5.4,4.9
				c1-1.7,2.1-3.2,3.4-4.4C77,135.2,81.6,133.3,86.9,133.3 M86.9,132.1c-5.4,0-10.4,1.9-14.3,5.8c-4.4,4.4-6.7,10.6-7.9,16.6
				c-1,4.9-1.4,9.9-1.5,14.8c0.7,0,1.4,0,2.1,0c-0.6-3.6-0.7-7.5-0.1-11.1c0.3-1.9,0.7-3.7,1.3-5.5c0.6-1.9,1.6-3.9,2.5-5.6
				c1.7-3.2,4-5.9,7.1-7.8c1.7-1,3.8-1.8,5.7-2.3c1.9-0.5,3.9-0.7,5.9-0.7c5.5,0,11,1.9,15.2,5.5c3,2.6,5.2,6.2,6.6,9.8
				c1.7,4.3,1.4,8.3,0.8,12.8l-0.7,2.8l3,0.8c1.2,0.3,2.4,0.6,3.7,0.8c0.7-5.3,0.1-10.7-1.3-15.8c-1.6-5.7-4.7-10.6-9.3-14.3
				c-5-4-11.1-6.3-17.4-6.7C87.8,132.1,87.3,132.1,86.9,132.1L86.9,132.1z"/>
		</g>
		<g>
			<path class="st0" d="M212.2,136.3c8.9,0,17.1,5.3,20.2,13.2c1.2,3.1,2,6.4,2.2,9c0.1,2.6-0.3,5.4-1.2,8.1c-0.9,2.6-2.7,4.9-4.6,7
				c-3.6,4-8.6,6.6-14.4,7.5c-1.8,0.3-3.6,0.4-5.3,0.4c-4.1,0-7.7-0.8-10.5-2.5c-4.3-2.5-8.1-7.6-9.5-13.2c-1.3-4.8-1.1-10.3,0.5-15
				c1.3-4,4.1-7.4,8.1-10c3.6-2.3,8.1-3.9,12.6-4.3C210.9,136.3,211.5,136.3,212.2,136.3 M212.2,135.1c-0.7,0-1.4,0-2.1,0.1
				c-9.1,0.8-18.7,6-21.7,15.1c-1.7,5-1.8,10.8-0.5,15.8c1.4,5.4,5.1,11.1,10.1,13.9c3.4,1.9,7.3,2.6,11.1,2.6
				c1.9,0,3.7-0.2,5.5-0.4c5.8-0.9,11.2-3.4,15.2-7.9c2-2.2,3.9-4.6,4.8-7.4c0.9-2.7,1.4-5.7,1.2-8.5c-0.2-3.1-1.1-6.5-2.3-9.3
				C230.1,140.4,221.3,135.1,212.2,135.1L212.2,135.1z"/>
		</g>
		<g>
			<path class="st0" d="M87.1,136.5c1.3,0,2.6,0.1,3.9,0.3c4.6,0.6,8.9,2.4,11.6,4.8c4.2,3.8,6.7,8.6,7.9,15.4
				c0.3,1.8,0.5,3.6,0.5,5.5c0.1,6.7-2.2,12.5-6.2,16.2c-3.7,3.3-9.1,5.2-15.1,5.2h-0.1c-7.1,0-12.4-1.1-16.6-3.4
				c-5.8-3.1-8.3-9.5-9.3-13c-1.5-5.5-0.5-11.9,2.8-18.2c1.3-2.4,3-4.6,5-6.4c2.1-1.8,4.5-3.8,7.2-4.8C81.1,137,84,136.5,87.1,136.5
				 M87.1,135.3c-3,0-6.1,0.5-8.8,1.5c-2.8,1.1-5.3,3.1-7.6,5.1c-2.1,1.9-3.9,4.2-5.3,6.7c-3.1,5.8-4.8,12.6-2.9,19.1
				c1.6,5.5,4.7,10.9,9.9,13.7c5.2,2.8,11.3,3.6,17.2,3.6c0,0,0,0,0.1,0c5.7,0,11.7-1.6,16-5.5c4.7-4.3,6.7-10.8,6.6-17.1
				c0-1.9-0.2-3.8-0.5-5.7c-1.1-6.5-3.5-11.8-8.3-16.1c-3.2-2.8-8-4.5-12.2-5.1C89.8,135.4,88.5,135.3,87.1,135.3L87.1,135.3z"/>
		</g>
		<g>
			<g>
				<path class="st0" d="M211.9,149.3c2.8,0,5.4,1.2,6.8,3.1l0,0.1l0,0.1c1.4,1.5,2.3,3.8,2.5,6.2c0.1,1.1-0.1,2.3-0.5,3.4
					c-0.4,1.1-1.1,2-1.9,2.9c-1.5,1.7-3.6,2.8-6.1,3.2c-0.8,0.1-1.6,0.2-2.3,0.2c-1.7,0-3.2-0.3-4.4-1c-1.8-1-3.4-3.2-4-5.6
					c-0.5-2.1-0.5-4.4,0.2-6.4c1.2-3.7,5.3-5.7,8.8-6C211.3,149.3,211.6,149.3,211.9,149.3 M211.9,148c-0.3,0-0.7,0-1,0
					c-4.1,0.4-8.4,2.7-9.8,6.8c-0.8,2.3-0.8,4.9-0.2,7.1c0.6,2.4,2.3,5,4.6,6.3c1.5,0.9,3.3,1.2,5,1.2c0.8,0,1.7-0.1,2.5-0.2
					c2.6-0.4,5.1-1.6,6.9-3.6c0.9-1,1.7-2.1,2.2-3.3c0.4-1.2,0.6-2.6,0.6-3.9c-0.1-2.5-1-5.1-2.8-7C217.9,149.2,214.9,148,211.9,148
					L211.9,148z"/>
			</g>
		</g>
		<g>
			<g>
				<path class="st0" d="M87,151.3c0.5,0,1,0,1.5,0.1c1.7,0.2,3.3,0.9,4.3,1.8c1.6,1.4,2.5,3.2,3,5.8c0.1,0.7,0.2,1.4,0.2,2.1
					c0,2.5-0.8,4.7-2.3,6c-1.4,1.2-3.4,1.9-5.7,1.9h0c-2.8,0-4.8-0.4-6.4-1.3c-2.1-1.1-3.1-3.5-3.4-4.8c-0.6-2-0.2-4.5,1.1-6.8
					c0.5-0.9,1.1-1.7,1.9-2.4c0.8-0.7,1.7-1.5,2.7-1.8C84.7,151.5,85.8,151.3,87,151.3 M87,150c-1.2,0-2.5,0.2-3.6,0.6
					c-1.1,0.4-2.2,1.2-3.1,2.1c-0.9,0.8-1.6,1.7-2.2,2.7c-1.3,2.4-1.9,5.1-1.2,7.8c0.6,2.2,1.9,4.4,4,5.6c2.1,1.2,4.6,1.4,7,1.5
					c0,0,0,0,0,0c2.3,0,4.7-0.7,6.5-2.2c1.9-1.7,2.7-4.4,2.7-6.9c0-0.8-0.1-1.5-0.2-2.3c-0.4-2.6-1.4-4.8-3.4-6.5
					c-1.3-1.2-3.2-1.8-5-2.1C88.1,150.1,87.5,150,87,150L87,150z"/>
			</g>
		</g>
		<g>
			<path class="st0" d="M220.7,160.8c-0.6,3.3-2.9,5.2-4.5,6c-0.1-1.7,0.2-3.1,1-4.1C218.1,161.5,219.6,161,220.7,160.8 M222,159.4
				c0,0-8.8,0.1-6.8,9.2C215.2,168.6,221.9,166.5,222,159.4L222,159.4z"/>
		</g>
		<g>
			<path class="st0" d="M95.3,163.3c0,0,0.1,0,0.1,0c-0.1,0.5-0.2,1.2-0.6,1.9c-0.7,1.4-1.7,2.4-3.2,2.8c0.1-1.2,0.4-2.8,1.3-3.8
				C93.6,163.6,94.3,163.3,95.3,163.3 M95.3,162.1c-5.4,0-4.9,7.4-4.9,7.4c6.5-0.5,6.3-7.2,6.3-7.2
				C96.2,162.1,95.7,162.1,95.3,162.1L95.3,162.1z"/>
		</g>
		<g>
			<path class="st0" d="M211.7,149.6c1.1,0,2.3,0.2,3.5,0.7c-0.8,1.5-2.6,4-5.4,4c-1.4,0-3-0.7-4.7-1.9
				C206.2,151.3,208.6,149.6,211.7,149.6 M211.7,148.3c-5.2,0-8.4,4.1-8.4,4.1c2.6,2.2,4.8,3.1,6.6,3.1c4.8,0,7-5.9,7-5.9
				C214.9,148.7,213.2,148.3,211.7,148.3L211.7,148.3z"/>
		</g>
		<g>
			<path class="st0" d="M202.1,160.2c2.5,0.4,4.2,1.3,5,2.8c1,1.6,0.7,3.5,0.4,4.7C203.1,166.2,202.3,162.3,202.1,160.2
				 M200.9,158.8c0,0-0.7,8.6,7.5,10.4C208.4,169.2,212.4,159.8,200.9,158.8L200.9,158.8z"/>
		</g>
		<g>
			<path class="st0" d="M86.8,151.6c0.2,0,0.4,0,0.5,0c1.5,0.2,2.7,0.5,3.6,0.7c-0.6,0.9-1.8,2-3.5,2c-0.1,0-0.3,0-0.5,0
				c-2-0.2-3.1-1-3.8-1.7C84.1,152.1,85.5,151.6,86.8,151.6 M86.8,150.3c-2.6,0-5.4,1.7-5.4,1.7s1.2,3,5.4,3.4c0.2,0,0.4,0,0.6,0
				c3.8,0,5.3-3.8,5.3-3.8c-0.5-0.3-2.4-1-5.2-1.3C87.2,150.4,87,150.3,86.8,150.3L86.8,150.3z"/>
		</g>
		<g>
			<path class="st0" d="M78.5,159.2c2.1,0.7,3.5,1.7,4.2,3.2c0.9,1.8,0.5,4,0.1,5.3c-1.2-0.6-3.1-1.7-3.9-3.4
				C78.1,162.7,78.2,160.6,78.5,159.2 M77.6,157.7c0,0-1.4,4.1,0.1,7.1c1.5,3.1,5.7,4.5,5.7,4.5S88,160.1,77.6,157.7L77.6,157.7z"/>
		</g>
		<g>
			<path class="st0" d="M243.4,161.3c1.3,0,2.5,0.2,3.9,0.4c0.5,0.1,1.1,0.2,1.6,0.3c1.7,0.2,3.5,0.4,5.2,0.5
				c1.9,0.2,3.9,0.3,5.8,0.6c1.2,0.2,2.3,0.4,3.3,0.7c0.9,0.3,1.8,0.6,2.5,1c1.6,0.8,2.9,2.7,2.3,4.4l0,0l0,0
				c-0.6,1.7-3.6,1.8-5.3,1.9c-1.5,0.1-3,0.1-4.4,0.1c-3.9,0-7.5-0.2-10.9-0.7c-0.4-0.1-0.8-0.1-1.2-0.2c-1.2-0.2-2.4-0.3-3.6-0.5
				c-0.1,0-0.2,0-0.4-0.1c-1.3-0.2-2.1-0.4-2.7-1.1c-0.7-0.8-1-2.1-0.8-3.4c0.2-1.4,0.5-2.1,0.7-2.4c0.5-0.9,1.6-1.4,3.1-1.5
				C242.8,161.3,243.1,161.3,243.4,161.3 M243.4,160.1c-0.3,0-0.6,0-0.9,0c-1.7,0.1-3.2,0.7-4.1,2.1c-0.5,0.8-0.7,1.9-0.9,2.8
				c-0.3,1.6,0,3.3,1.1,4.5c1,1.1,2.4,1.3,3.8,1.5c1.6,0.3,3.3,0.5,4.9,0.7c3.7,0.5,7.3,0.7,11,0.7c1.5,0,3,0,4.4-0.1
				c2.1-0.1,5.6-0.2,6.4-2.7c0.8-2.4-0.8-4.9-2.9-5.9c-0.9-0.4-1.8-0.8-2.7-1.1c-1.1-0.3-2.3-0.6-3.4-0.8c-3.6-0.6-7.3-0.6-11-1.1
				C247.2,160.5,245.3,160.1,243.4,160.1L243.4,160.1z"/>
		</g>
		<g>
			<path class="st0" d="M145.8,82.5v1.2c3,0,4.7,0.5,5.4,3.1l0,0l0,0c1.1,3.7,1.1,7.9,1.1,11.9c0,0.5,0,0.9,0,1.3
				c0,4.5,0.2,9.1,0.3,13.5c0.3,12.2,0.6,24.9-0.5,38.4l-0.3,1.8c-0.4,0.2-1.7,0.5-2.9,0.5h0l0,0c-1,0-1.9,0.1-3,0.1
				c-2.8,0-5.5-0.2-8.2-0.3c-2.8-0.2-5.6-0.3-8.5-0.3l-0.4,0h-0.4c-4.1,0-6.4-0.5-7-3l0,0l0,0c-0.5-1.9-0.3-4.4,0-6.8
				c0.1-1.2,0.2-2.3,0.2-3.4c0.1-4,0.1-7.6,0.1-11c0-4.9,0.1-9.5,0.2-15.2l0-0.9c0.1-5.2,0.3-11,0.1-16v0l0,0
				c-0.5-10.3,1.4-12.4,2-12.9c0.7-0.4,2.1-0.6,4.2-0.6c0.9,0,1.7,0,2.5,0.1c0.6,0,1.2,0,1.8,0c1.8,0,3.5,0,5.2-0.1
				c1.7,0,3.3-0.1,4.9-0.1c0.6,0,1.1,0,1.7,0c0.5,0,1,0,1.6,0V82.5 M145.8,82.5c-1,0-2.1,0.1-3.2,0.1c-3.3,0-6.6,0.2-10,0.2
				c-1.1,0-2.7-0.1-4.2-0.1c-1.9,0-3.7,0.1-4.8,0.8c-3.1,2-2.8,10.9-2.6,14c0.2,5.3,0,11.6-0.2,16.9c-0.3,9.9-0.2,16.5-0.3,26.2
				c-0.1,3.1-1,7.4-0.2,10.5c0.9,3.8,4.9,4,8.2,4c0.3,0,0.5,0,0.8,0c5.7,0,11.1,0.7,16.7,0.7c1,0,2,0,3-0.1c1.2,0,3.9-0.3,4.1-1.3
				l0.3-2.1c1.6-18.5,0.4-35,0.2-52c0-4.4,0.2-9.4-1.2-13.7C151.5,83,148.9,82.5,145.8,82.5L145.8,82.5z"/>
		</g>
		<g>
			<path class="st0" d="M254.6,88.7c0.7,0,1.4,0,2.1,0c0.7,0,1.4,0,2.1,0c0.2,0,0.4,0,0.6,0c0.9,2,3.3,7.7,4.5,13.5
				c1.2,5.6,1.9,12.9,2.2,15.8h-1c-1.5,0-2.9,0-4.3-0.2l0,0l0,0c-0.3,0-0.5,0-0.8,0c-3.2-0.1-6.9-0.3-9.3-2.3l0,0l0,0
				c-2.6-2-2.8-6.2-3-9.9c0-0.7-0.1-1.4-0.1-2.1v0v0c0-0.2,0-0.5-0.1-0.7c-0.3-3.5-0.8-8.2,0.8-11.1
				C249.3,89.2,251.5,88.7,254.6,88.7L254.6,88.7 M254.6,87.5c-3.1,0-6,0.5-7.7,3.7c-1.8,3.5-1.2,8.9-0.8,12.5
				c0.3,4.3,0,10,3.6,12.8c3,2.5,7.2,2.5,10.9,2.6c1.5,0.2,3,0.2,4.4,0.2c0.2,0,1.8,0,2.3,0c0,0-0.8-9.9-2.3-17.3
				c-1.5-7.4-4.9-14.5-4.9-14.5c-0.4,0-0.9,0-1.4,0C257.4,87.6,256,87.5,254.6,87.5L254.6,87.5z M267.3,119.3c0.1,0,0.2,0,0.2,0
				S267.4,119.3,267.3,119.3L267.3,119.3z"/>
		</g>
		<g>
			<path class="st0" d="M219.7,88.2c1.5,0,2.9,0.1,4,0.2c0.3,0,0.5,0,0.7,0l0,0h0c0.9,0,1.8,0.1,2.7,0.1c0.9,0.1,1.9,0.1,2.9,0.1
				c0.6,0,1.2,0,1.7-0.1c0.3,0,0.6,0,0.9,0c1.7,0,3.6,0.4,4.5,0.9c1.5,0.9,1.4,5.2,1.4,8.1c0,1,0,2,0,2.8c0,0.7,0.1,1.6,0.2,2.4
				c0.3,3.3,0.6,7.3-0.7,9.8c-1.2,2.3-3.9,3.3-8.5,3.3c-0.7,0-1.5,0-2,0c-0.5,0-1-0.1-1.5-0.1c-3.1-0.3-6.7-0.5-9.4-1.7l0,0l0,0
				c-1.2-0.5-2-1.6-2.3-3.5c-0.3-1.9-0.2-4.1-0.1-6.1c0-0.9,0.1-1.8,0.1-2.5c0-0.8-0.1-1.9-0.2-3.3c-0.2-1.8-0.4-3.8-0.3-5.6
				c0-2.4,0.4-3.2,0.6-3.5C214.7,88.9,215.9,88.2,219.7,88.2 M219.7,87c-2.6,0-5.3,0.3-6.4,1.5c-1.8,2.1-0.3,10.4-0.3,13.2
				c0,4.3-1.3,11.5,3.1,13.3c3.5,1.5,7.7,1.6,11.3,2c0.7,0,1.4,0.1,2.1,0.1c3.6,0,7.8-0.6,9.6-4c1.8-3.5,0.8-9.2,0.7-12.8
				c-0.2-3.3,0.8-10.2-2-11.8c-1.2-0.7-3.4-1-5.1-1c-0.3,0-0.7,0-1,0c-0.5,0-1.1,0.1-1.6,0.1c-1.9,0-3.8-0.2-5.6-0.2
				C223.4,87.1,221.6,87,219.7,87L219.7,87z"/>
		</g>
		<g>
			<path class="st0" d="M171.1,87.5c1.4,0,3,0.1,4.4,0.3c1.5,0.1,3.1,0.3,4.6,0.3c0.3,0,0.7,0,1,0l0,0h0c2.5-0.2,4.9-0.2,7.2-0.2
				c3,0,5.8,0.1,8.6,0.4l3.7,0.4c0.4,0,0.7,0.1,1,0.1c0.9,0.1,1.7,0.2,2,0.4c0.3,0.2,0.4,0.9,0.5,2v0l0,0c0.3,5.2,0.3,10.1,0,15.3
				c-0.1,0.8-0.1,1.5-0.2,2.3c-0.3,4.2-0.5,6.3-4.3,6.5c-0.8,0-1.7,0-2.6,0c-1.8,0-3.6-0.1-5.4-0.1c-1.8-0.1-3.6-0.1-5.4-0.1
				c-1.6,0-3.3-0.1-5-0.1c-1.7-0.1-3.4-0.1-5.2-0.1c-1.3,0-2.4,0-3.4,0.1c-0.4,0-0.9,0-1.3,0.1c-0.9,0.1-1.9,0.1-2.9,0.1
				c-3.7,0-5.8-0.8-6.8-2.8c-1.4-2.6-1.5-6.6-1.5-10.2c0-1.4,0-2.6-0.1-3.8l0,0l0,0c0-0.3-0.1-0.7-0.1-1.2c-0.2-1.5-0.5-3.5-0.4-5.2
				c0-2.4,0.6-2.9,0.7-3c1.3-0.9,4.8-1,7.2-1c0.8,0,1.5,0,2.1-0.1l0,0l0,0C170,87.6,170.6,87.5,171.1,87.5 M171.1,86.3
				c-0.6,0-1.2,0-1.8,0.1c-2.5,0.2-7.7-0.2-9.9,1.3c-2.1,1.5-1,7.7-0.7,10.5c0.3,4.3-0.3,10.5,1.8,14.5c1.6,2.9,4.7,3.5,7.9,3.5
				c1.5,0,3-0.1,4.3-0.2c1.1-0.1,2.2-0.1,3.4-0.1c3.4,0,6.8,0.3,10.1,0.3c3.6,0,7.2,0.2,10.8,0.2c0.9,0,1.8,0,2.7,0
				c5.9-0.3,5.1-5.1,5.6-9.9c0.3-5.3,0.3-10.2,0-15.5c-0.2-3.6-1.5-3.3-4.6-3.6l-3.7-0.4c-2.9-0.3-5.8-0.4-8.7-0.4
				c-2.4,0-4.8,0.1-7.2,0.2c-0.3,0-0.6,0-0.9,0C177.2,86.8,174.1,86.3,171.1,86.3L171.1,86.3z"/>
		</g>
		<g>
			<path class="st0" d="M121.5,151c3.4,0.7,6.7,1.2,9.9,1.4c1.6,0.1,3.3,0.2,4.9,0.2c2.8,0,5.5-0.2,8.5-0.5c2.9-0.3,5.2-0.7,7.3-1.1
				c0,0.3,0,0.6-0.1,0.9l-0.3,1.8c-0.4,0.2-1.7,0.5-2.9,0.5h0l0,0c-1,0-1.9,0.1-3,0.1c-2.8,0-5.5-0.2-8.2-0.3
				c-2.8-0.2-5.6-0.3-8.5-0.3h-0.4h-0.4C124.6,153.6,122.3,153.2,121.5,151 M120,149.4c0.1,0.5,0.1,1,0.3,1.5c0.9,3.8,4.9,4,8.2,4
				c0.3,0,0.5,0,0.8,0c5.7,0,11.1,0.7,16.7,0.7c1,0,2,0,3-0.1c1.2,0,3.9-0.3,4.1-1.3l0.3-2.1c0.1-0.9,0.1-1.7,0.2-2.5
				c-2.9,0.6-5.9,1-8.8,1.4c-2.8,0.3-5.6,0.5-8.4,0.5c-1.6,0-3.2-0.1-4.8-0.2C127.6,150.9,123.8,150.3,120,149.4L120,149.4z"/>
		</g>
		<g>
			<g>
				<path class="st0" d="M132.6,91c1.4,0,2.8,0,4.2,0.1c1.4,0,2.8,0.1,4.2,0.1c0.2,0,0.4,0,0.6,0c0.2,0,0.4,0,0.6,0
					c0.4,0,0.7,0,1.1,0c1.4,0,2.9,0.1,4.1,0.5c1.2,0.5,1.3,2.2,1.2,4.6c0,0.7,0,1.3,0,1.8c0,0.5,0.1,0.9,0.1,1.4c0.1,1,0.2,2,0.2,3
					v0.1c0,1.2,0,2.5-0.5,3.3c-0.8,1.2-2.9,1.4-4.9,1.4h-0.2c-1,0-2-0.1-3.1-0.1c-1.1-0.1-2.2-0.1-3.3-0.1c-0.1,0-0.3,0-0.4,0
					c-0.9,0-1.7,0.1-2.6,0.1c-1,0-2,0.1-3,0.1l-0.2,0c-0.2,0-0.4,0-0.7,0c-1.3,0-2.7,0-3.9-0.5c-1.5-0.5-1.5-2.7-1.3-4.9
					c0-0.5,0.1-0.9,0.1-1.4c0.1-0.7,0.2-1.4,0.2-2.1c0-0.5,0-1,0-1.6c0-0.7,0-1.3,0-1.9c0.1-0.9,0.1-2.3,0.8-2.9
					c0.7-0.7,2-0.9,3-0.9C130,91,131.2,91,132.6,91 M132.6,89.8c-1.2,0-2.5,0-3.7,0.1c-1.3,0.1-2.8,0.3-3.8,1.3
					c-0.9,0.9-1.1,2.5-1.2,3.7c-0.1,1.2,0,2.3-0.1,3.5c0,1.1-0.2,2.3-0.3,3.4c-0.2,2.1-0.3,5.3,2.1,6.1c1.3,0.5,2.9,0.5,4.3,0.5
					c0.3,0,0.6,0,0.9,0c1.8,0,3.7-0.2,5.5-0.2c0.1,0,0.3,0,0.4,0c2.1,0,4.2,0.3,6.4,0.3c0.1,0,0.2,0,0.2,0c2,0,4.9-0.1,6-2
					c0.7-1.2,0.7-2.7,0.7-4c0-1.5-0.2-3-0.3-4.5c-0.1-2.3,0.8-6.4-2-7.5c-1.4-0.5-3-0.6-4.6-0.6c-0.6,0-1.2,0-1.8,0
					c-0.2,0-0.4,0-0.6,0C138.2,89.9,135.4,89.8,132.6,89.8L132.6,89.8z"/>
			</g>
		</g>
		<g>
			<path class="st0" d="M123.1,165.5c0.6,0,1.4,0.1,2,0.1c0.6,0,1.1,0.1,1.5,0.1c1.8,0.1,3.4,0.1,5.1,0.1c1.7,0,3.4,0,5.2-0.1
				c0.4,0,0.9,0,1.3,0c1.7,0,3.5,0.1,5.3,0.3c1.1,0.1,2.2,0.2,3.3,0.2c0.3,0,0.6,0,0.9,0c0.9,0,1.8-0.1,2.7-0.1
				c0.9-0.1,1.7-0.1,2.5-0.1c0.5,0,0.9,0,1.3,0.1c0.3,2.8,0.6,5.6,0.6,8.5v0.7c-0.3,0.2-1.5,0.6-5.4,0.6c-2.7,0-5.9-0.2-8.1-0.4
				c-1.4-0.1-2.6-0.2-3.2-0.2c-3,0-6-0.3-8.9-0.6c-2.5-0.2-5.2-0.5-7.8-0.6c0.1-0.5,0.1-0.9,0.2-1.4c0.1-1.1,0.3-2.2,0.4-3.3
				c0-0.5,0-1,0-1.5c0-1.4,0-2,0.5-2.2l0,0l0,0C122.3,165.6,122.6,165.5,123.1,165.5 M123.1,164.3c-0.6,0-1.1,0.1-1.4,0.2
				c-1.6,0.8-1,3.1-1.2,4.8c-0.2,2.1-0.5,4.1-0.7,6.1c6.1,0,12,1.2,18.1,1.2c1.6,0,6.9,0.6,11.3,0.6c3.4,0,6.3-0.3,6.6-1.5v-1.1
				c0-3.3-0.3-6.4-0.7-9.5c-0.8-0.2-1.6-0.3-2.4-0.3c-1.7,0-3.5,0.3-5.2,0.3c-0.3,0-0.5,0-0.8,0c-2.8-0.1-5.8-0.5-8.6-0.5
				c-0.5,0-0.9,0-1.4,0c-1.7,0.1-3.4,0.1-5.1,0.1c-1.7,0-3.4,0-5.1-0.1C125.9,164.5,124.3,164.3,123.1,164.3L123.1,164.3z"/>
		</g>
		<g>
			<g>
				<path class="st0" d="M121.5,172l1.4,0.1c3.7,0.1,7.5,0.3,11.2,0.4c1.3,0,2.5,0,3.9,0c3.8,0,7.6-0.1,11.2-0.2
					c1.8,0,3.6-0.1,5.4-0.1c0,0.8,0.1,1.6,0.1,2.4v0.7c-0.3,0.2-1.5,0.6-5.4,0.6c-2.7,0-5.9-0.2-8.1-0.4c-1.4-0.1-2.6-0.2-3.2-0.2
					c-3,0-6-0.3-8.9-0.6c-2.5-0.2-5.2-0.5-7.8-0.6c0.1-0.5,0.1-1,0.2-1.4C121.4,172.5,121.5,172.2,121.5,172 M120.4,170.7
					c-0.2,1.6-0.4,3.1-0.5,4.7c6.1,0,12,1.2,18.1,1.2c1.6,0,6.9,0.6,11.3,0.6c3.4,0,6.3-0.3,6.6-1.5v-1.1c0-1.2,0-2.4-0.1-3.6
					c-5.9,0.1-11.8,0.3-17.8,0.3c-1.3,0-2.6,0-3.9,0c-4.3-0.1-8.6-0.3-12.9-0.4C120.9,170.7,120.7,170.7,120.4,170.7L120.4,170.7z"
					/>
			</g>
		</g>
		<g>
			<path class="st0" d="M254.6,88.7c0.7,0,1.4,0,2.1,0c0.7,0,1.4,0,2.1,0c0.2,0,0.4,0,0.6,0c0.9,2,3.3,7.7,4.5,13.5
				c1.2,5.6,1.9,12.9,2.2,15.8h-1c-1.5,0-2.9,0-4.3-0.2l0,0l0,0c-0.3,0-0.5,0-0.8,0c-3.2-0.1-6.9-0.3-9.3-2.3l0,0l0,0
				c-2.6-2-2.8-6.2-3-9.9c0-0.7-0.1-1.4-0.1-2.1v0v0c0-0.2,0-0.5-0.1-0.7c-0.3-3.5-0.8-8.2,0.8-11.1
				C249.3,89.2,251.5,88.7,254.6,88.7L254.6,88.7 M254.6,87.5c-3.1,0-6,0.5-7.7,3.7c-1.8,3.5-1.2,8.9-0.8,12.5
				c0.3,4.3,0,10,3.6,12.8c3,2.5,7.2,2.5,10.9,2.6c1.5,0.2,3,0.2,4.4,0.2c0.2,0,1.8,0,2.3,0c0,0-0.8-9.9-2.3-17.3
				c-1.5-7.4-4.9-14.5-4.9-14.5c-0.4,0-0.9,0-1.4,0C257.4,87.6,256,87.5,254.6,87.5L254.6,87.5z M267.3,119.3c0.1,0,0.2,0,0.2,0
				S267.4,119.3,267.3,119.3L267.3,119.3z"/>
		</g>
		<g>
			<path class="st0" d="M219.7,88.2c1.5,0,2.9,0.1,4,0.2c0.3,0,0.5,0,0.7,0l0,0h0c0.9,0,1.8,0.1,2.7,0.1c0.9,0.1,1.9,0.1,2.9,0.1
				c0.6,0,1.2,0,1.7-0.1c0.3,0,0.6,0,0.9,0c1.7,0,3.6,0.4,4.5,0.9c1.5,0.9,1.4,5.2,1.4,8.1c0,1,0,2,0,2.8c0,0.7,0.1,1.6,0.2,2.4
				c0.3,3.3,0.6,7.3-0.7,9.8c-2,3.9-7.4,4.3-9.6,4.3c-0.2,0-0.5,0-0.7,0c-0.7-0.1-1.4-0.1-2.1-0.2c-3-0.2-6.4-0.5-9-1.6l0,0l0,0
				c-2.9-1.2-2.7-6.8-2.5-10.8c0-0.9,0.1-1.7,0.1-2.5c0-0.8-0.1-1.9-0.2-3.3c-0.2-1.8-0.4-3.8-0.3-5.6c0-2.4,0.4-3.2,0.6-3.5
				C214.7,88.9,215.9,88.2,219.7,88.2 M219.7,87c-2.6,0-5.3,0.3-6.4,1.5c-1.8,2.1-0.3,10.4-0.3,13.2c0,4.3-1.2,12.6,3.2,14.4
				c3.5,1.5,7.9,1.5,11.5,1.8c0.3,0,0.5,0,0.8,0c3.8,0,8.7-1.1,10.7-5c1.8-3.5,0.8-9.2,0.7-12.8c-0.2-3.3,0.8-10.2-2-11.8
				c-1.2-0.7-3.4-1-5.1-1c-0.3,0-0.7,0-1,0c-0.5,0-1.1,0.1-1.6,0.1c-1.9,0-3.8-0.2-5.6-0.2C223.4,87.1,221.6,87,219.7,87L219.7,87z"
				/>
		</g>
		<g>
			<path class="st0" d="M171.1,87.5c1.4,0,3,0.1,4.4,0.3c1.5,0.1,3.1,0.3,4.6,0.3c0.3,0,0.7,0,1,0l0,0h0c2.5-0.2,4.9-0.2,7.2-0.2
				c3,0,5.8,0.1,8.6,0.4l3.7,0.4c0.4,0,0.7,0.1,1,0.1c0.9,0.1,1.7,0.2,2,0.4c0.3,0.2,0.4,0.9,0.5,2v0l0,0c0.3,5.2,0.3,10.1,0,15.3
				c-0.1,0.8-0.1,1.7-0.2,2.5c-0.2,4.5-0.6,7.1-4.2,7.3c-0.6,0-1.3,0-2,0c-1.9,0-3.9-0.1-5.8-0.2c-1.9-0.1-3.9-0.2-5.8-0.2
				c-1.5,0-3,0-4.4-0.1c-1.5,0-3.1-0.1-4.6-0.1c-1.7,0-3.2,0-4.6,0.1c-0.6,0-1.1,0-1.6,0c-4.9,0-7.8-1.2-9.2-3.7
				c-1.4-2.6-1.5-6.6-1.5-10.2c0-1.4,0-2.6-0.1-3.8l0,0l0,0c0-0.3-0.1-0.7-0.1-1.2c-0.2-1.5-0.5-3.5-0.4-5.2c0-2.4,0.6-2.9,0.7-3
				c1.3-0.9,4.8-1,7.2-1c0.8,0,1.5,0,2.1-0.1l0,0l0,0C170,87.6,170.6,87.5,171.1,87.5 M171.1,86.3c-0.6,0-1.2,0-1.8,0.1
				c-2.5,0.2-7.7-0.2-9.9,1.3c-2.1,1.5-1,7.7-0.7,10.5c0.3,4.3-0.3,10.5,1.8,14.5c2,3.7,6.4,4.4,10.3,4.4c0.6,0,1.2,0,1.7,0
				c1.5-0.1,3-0.1,4.5-0.1c3,0,6.1,0.1,9.1,0.1c3.7,0,7.7,0.3,11.5,0.3c0.7,0,1.4,0,2.1,0c5.9-0.3,5.1-6.1,5.6-10.9
				c0.3-5.3,0.3-10.2,0-15.5c-0.2-3.6-1.5-3.3-4.6-3.6l-3.7-0.4c-2.9-0.3-5.8-0.4-8.7-0.4c-2.4,0-4.8,0.1-7.2,0.2
				c-0.3,0-0.6,0-0.9,0C177.2,86.8,174.1,86.3,171.1,86.3L171.1,86.3z"/>
		</g>
		<g>
			<g>
				<path class="st0" d="M32.4,115.8c1.2,1.4,0.8,5.9,0.6,7.9c0,0.3-0.1,0.6-0.1,0.8c-0.9,6-1.2,10.8-1.2,15.4
					c-0.1,1,0.1,2.7,0.3,4.8c0.3,3.2,0.6,7.2,0.3,10.4c-0.2,2.2-0.7,4.8-2.2,5.1h-0.5c-1.7-2-3.1-5.1-3.9-8.5
					c-0.9-3.9,0.4-15.1,1.4-23.1C28.1,120.2,31.1,116.9,32.4,115.8 M32.4,114.3c0,0-5.1,2.7-6.5,14.1c-1.5,11.4-2.2,20-1.4,23.6
					c0.8,3.5,2.3,7.2,4.6,9.5h1.2c5.7-0.7,2.5-17.5,2.7-21.5c0-5.2,0.5-10.1,1.2-15.3C34.4,121.9,35.3,115.5,32.4,114.3L32.4,114.3z
					"/>
			</g>
		</g>
		<g>
			<path class="st0" d="M66.4,72.3c1.9,0.4,4.3,0.7,6.9,1c2.7,0.3,5.4,0.6,7.4,1.1l0,0l0,0c0.5,0.1,1,0.2,1.5,0.3
				c6,1.1,12.8,2.4,18,5.7c2.6,1.7,4.8,5,5.9,9.2c1.2,4.1,1.3,8.7,0.5,12.8c-0.6,3.1-1.8,5.8-3.3,7.8c-1.7,2.2-3.9,3.5-6.4,4
				c-1,0.2-2.1,0.3-3.2,0.3c-4.7,0-9.8-1.5-14.7-3c-2.5-0.8-4.9-1.5-7.2-2c-5.4-1.3-10.3-2.7-15-4.1c1.8-1.3,4.1-3.5,5.2-5.8
				c2-4.4,2.7-10.8,2.8-12c0.1-1.2,0.3-3.8,0.7-9.8l0-0.2C65.7,75.4,66.1,73.4,66.4,72.3 M65.5,70.8c0,0-1,3.2-1.2,6.5
				c-0.1,1-0.5,7.3-0.7,10c-0.2,2.7-1,8-2.7,11.6c-1.7,3.6-6.9,6.8-6.9,6.8c6,1.8,11.4,3.4,17.6,4.9c6.8,1.5,14.9,5,22.2,5
				c1.2,0,2.3-0.1,3.5-0.3c14.3-2.7,14.3-29.1,3.7-36c-5.9-3.7-13.6-4.9-20-6.2C76.5,72.1,69.3,71.8,65.5,70.8L65.5,70.8z"/>
		</g>
		<g>
			<path class="st0" d="M46.5,128.8l0.1,0.2L47,129c2.6,0.5,3.5,4.3,3.8,5.9c0.6,4,0,7.8-1.7,11c-0.8,1.5-2.4,3.1-4.2,3.1
				c0,0-0.1,0-0.1,0c-1.5,0-2.7-1-3.6-2.9c-1.9-3.9-2-8.8-0.4-12.6C41.9,130.7,44,129,46.5,128.8 M46.7,127.5
				C46.6,127.5,46.6,127.5,46.7,127.5c-3.3,0.2-5.8,2.5-7,5.4c-1.8,4.2-1.5,9.5,0.4,13.6c0.9,1.9,2.4,3.5,4.7,3.6c0,0,0.1,0,0.1,0
				c2.3,0,4.2-1.8,5.3-3.7c2-3.6,2.5-7.7,1.9-11.8c-0.5-2.9-1.8-6.4-4.8-6.9C47.1,127.6,46.9,127.5,46.7,127.5L46.7,127.5z"/>
		</g>
		<g>
			<g>
				<path class="st0" d="M94.5,60.2c0.6,0,1.3,0,1.9,0c2.2,0,4.5,0.1,6.7,0.2l1.1,0c2.5,0.1,9,0.1,19.5,0.1c21.1,0,52.6-0.1,59-0.2
					c1.6,0,3.1,0,4.5,0c6.7,0,12.2,0.3,17.3,0.8c8.4,0.9,16.8,2.5,25.1,4.7c5.6,1.5,11.4,3.4,16.4,6.3c-0.5,0.1-1,0.2-1.5,0.3
					l-0.1,0c-0.2,0-0.3,0-0.3,0l-0.1,0c-0.1,0-0.3,0-0.4,0c-0.3,0-0.7,0.1-1.1,0.1c-0.8,0.1-1.7,0.1-2.5,0.1c-1.5,0-3.1,0.1-4.7,0.1
					c-9.2,0-18.6-0.8-27.6-1.6l-1.7-0.1c-13-1.1-27.1-1.6-44.5-1.6c-10.1,0-20.3,0.2-30.3,0.3c-4.4,0.1-8.9,0.1-13.3,0.2
					c-1.1,0-2,0-2.9,0c-4.5,0-8-0.2-11.2-0.6c-2.7-0.3-7.9-1.3-11.8-3.6c-2.4-1.4-4.3-3.2-5.6-5.4C89.1,60.3,91.9,60.2,94.5,60.2
					 M94.5,59c-3.1,0-6.1,0.1-9.2,0.4c-0.3,0-0.6,0-0.9,0.1c1.4,3.2,3.8,5.8,6.9,7.6c3.5,2.1,8.2,3.2,12.2,3.7
					c3.8,0.5,7.6,0.6,11.4,0.6c1,0,1.9,0,2.9,0c14.5-0.2,29-0.5,43.6-0.5c14.8,0,29.6,0.4,44.4,1.6c9.8,0.8,19.6,1.7,29.4,1.7
					c1.6,0,3.1,0,4.7-0.1c0.8,0,1.7-0.1,2.5-0.1c0.4,0,0.8-0.1,1.2-0.1c0.2,0,0.3,0,0.5-0.1c0,0,0.4-0.1,0.5-0.1
					c0.8-0.1,1.6-0.3,2.4-0.5c0.3-0.1,0.7-0.2,1-0.3c0.2-0.1,0.4-0.1,0.6-0.2c0,0,0.1,0,0.1,0c0,0,0,0,0.1,0c0,0,0,0,0,0
					c-5.3-3.8-11.8-6-18.9-8c-8.3-2.2-16.7-3.9-25.2-4.8c-5.8-0.6-11.6-0.8-17.5-0.8c-1.5,0-3,0-4.5,0c-6.2,0.1-37.5,0.2-59,0.2
					c-9.3,0-16.8,0-19.5-0.1c-2.6-0.1-5.2-0.2-7.8-0.2C95.8,59,95.2,59,94.5,59L94.5,59z"/>
			</g>
		</g>
		<g>
			<g>
				<path class="st0" d="M29.6,157c1.3,0,2.5,0.1,3.6,0.2c2.9,0.3,5.9,0.8,8.8,1.2c1.2,0.2,2.5,0.4,3.7,0.6c0.8,0.1,1.7,0.2,2.9,0.2
					c0.5,0,1,0,1.5,0c0.5,0,1,0,1.5,0c0.5,0,1,0,1.4,0c2,0.1,3.4,0.5,4.5,1.3c0.6,0.4,1.1,1.1,1.4,1.8c0.3,0.9,0.5,2.1,0.3,3.6l0,0
					v0c-0.2,3.9-2.7,5.4-8.9,5.4c-0.9,0-1.9,0-2.8-0.1c-0.9,0-1.8-0.1-2.6-0.1c-4.5,0-8.9-0.9-13.1-1.7l-0.5-0.1
					c-2.8-0.6-5.9-1.2-7.8-3.1c-1.3-1.2-2.2-3.2-2.1-4.8c0-1.1,0.5-2,1.3-2.7l0,0l0,0C24.3,157.6,26.5,157,29.6,157 M29.6,155.8
					c-2.7,0-5.5,0.4-7.6,2.1c-3.1,2.4-1.8,7,0.7,9.3c2.3,2.2,5.9,2.8,8.9,3.5c4.4,0.9,8.8,1.8,13.3,1.8c1.7,0,3.6,0.1,5.4,0.1
					c5,0,9.8-0.8,10.1-6.5c0.1-1.3,0.1-2.9-0.4-4.2c-0.4-0.9-1-1.8-1.8-2.4c-1.5-1.1-3.3-1.5-5.2-1.6c-0.5,0-1,0-1.5,0
					c-1,0-2,0-3.1,0c-0.9,0-1.9,0-2.7-0.2c-4.2-0.6-8.3-1.4-12.5-1.8C32.1,155.9,30.9,155.8,29.6,155.8L29.6,155.8z"/>
			</g>
		</g>
	</g>
	<g>
		<g>
			<g>
				<path class="st1" d="M252.7,169.4c4.8,0,8.8-0.5,10.4-1.2l0.6-1.6c3.2-14.1,4.6-28.6,4-41.9c-0.7-15.6-4-29.2-9.8-40.5
					c-6-12-16.7-15.8-28.1-18.9c-8.3-2.3-16.7-3.9-25.2-4.8c-5.1-0.6-10.6-0.8-17.4-0.8c-1.4,0-2.9,0-4.5,0
					c-6.3,0.1-37.9,0.2-59,0.2c-10.5,0-17,0-19.5-0.1l-1.1,0c-2.2-0.1-4.4-0.1-6.7-0.2c-0.6,0-1.3,0-1.9,0c-3,0-6.1,0.1-9.1,0.4
					c-2.1,0.2-4.3,0.4-6.3,0.6c-6.2,0.8-10,3.3-12.2,7.7c-1.9,4-2.2,9-2.5,14.3C64,88.4,63.7,94.5,61,99.3
					c-4.1,6.9-10.9,8.9-17.4,10.7c-8.3,2.3-16.1,4.6-17.3,17.2l0,0l-0.4,2.2c-0.2,1.7-0.4,3.3-0.6,5.1c-1.3,9.6-2.7,20.5,4.4,27.5
					c5.9,5.8,12.8,7,21.3,7c2.2,0,4.4-0.1,6.8-0.2c2.2-0.1,4.5-0.2,6.8-0.2c-0.5-3.6-0.5-7.3,0-10.5c0.3-1.9,0.7-3.8,1.3-5.6
					c0.6-1.7,1.4-3.5,2.6-5.7c1.8-3.4,4.3-6.1,7.3-8c1.6-1,3.7-1.8,5.8-2.4c2-0.5,4-0.7,6-0.7c5.8,0,11.4,2,15.6,5.7
					c2.8,2.4,5.1,5.9,6.8,10.1c1.8,4.5,1.4,8.6,0.9,13.1v0c0,0.1-0.1,0.4-0.5,2.3l2.4,0.6c3.7,1,22.4,1.5,39.3,1.5h0
					c17.7,0,31.7-0.5,34.7-1.2l2.1-0.6l-0.6-2.6c0-0.2-0.1-0.4-0.1-0.6l0-0.3c-0.4-2.3-0.8-4.8-0.5-7.3c0.3-2.3,1.1-4.6,2.4-7
					c1.9-3.5,4.1-6.2,6.7-8.3c3.4-2.6,7.8-4.4,12.8-5c0.3,0,0.5-0.1,0.8-0.1c0.6-0.1,1.2-0.1,1.9-0.1c1.8,0,3.7,0.2,5.6,0.6
					c5.1,1.1,8.9,4.3,11.2,6.8c1.6,1.8,2.9,3.8,3.9,6c1.3,2.9,2,5.3,2.2,7.2c0.1,1.3,0.1,2.6,0,4.1c0,0.2,0,0.4,0,0.5
					c-0.1,1.1-0.2,2.4-0.5,3.5l0-0.1c0,0.2-0.2,0.6-0.6,1.9l0.1,0.1C238.8,168.6,246.8,169.4,252.7,169.4z"/>
			</g>
			<g>
				<path class="st2" d="M94.5,60.2c0.6,0,1.3,0,1.9,0c2.2,0,4.5,0.1,6.7,0.2l1.1,0c2.5,0.1,9,0.1,19.5,0.1c21.1,0,52.6-0.1,59-0.2
					c1.6,0,3.1,0,4.5,0c6.7,0,12.2,0.3,17.3,0.8c8.4,0.9,16.8,2.5,25.1,4.7c5.5,1.5,11.3,3.3,16.3,6.3c5.1,3,8.8,7.1,11.4,12.3l0,0
					l0,0c5.8,11.2,9.1,24.8,9.8,40.2c0.6,13.2-0.8,27.6-3.9,41.7l-0.5,1.3c-1.7,0.6-5.5,1.1-10,1.1c-5.7,0-13.3-0.7-17.9-2.6
					c0.2-0.7,0.3-1.1,0.4-1.3l0,0c0.3-1.2,0.5-2.5,0.6-3.6c0-0.2,0-0.4,0-0.5c0.1-1.5,0.1-2.9,0-4.2c-0.2-2-0.9-4.4-2.2-7.4
					c-1-2.2-2.3-4.3-4-6.2c-2.3-2.6-6.2-5.9-11.5-7c-1.9-0.4-3.9-0.6-5.8-0.6c-0.7,0-1.3,0-2,0.1c-0.3,0-0.5,0.1-0.8,0.1
					c-5.1,0.6-9.6,2.4-13.1,5.1c-2.7,2.1-5,4.9-6.9,8.5c-1.4,2.5-2.2,4.9-2.4,7.3c-0.3,2.6,0,5.1,0.5,7.5c0,0.1,0,0.2,0,0.2
					c0,0.2,0.1,0.4,0.1,0.7l0.4,2l-1.5,0.4c-3,0.7-17.2,1.2-34.6,1.2c-19.9,0-36-0.6-39.1-1.5l0,0l0,0l-1.8-0.5
					c0.3-1.2,0.4-1.6,0.4-1.8h0c0.6-4.6,0.9-8.8-0.9-13.4c-1.7-4.2-4.1-7.8-6.9-10.3c-4.3-3.8-10-5.8-16-5.8c-2.1,0-4.1,0.2-6.2,0.7
					c-2.2,0.5-4.4,1.4-6,2.4c-3.2,2-5.7,4.7-7.6,8.3c-1.2,2.3-2,4.1-2.6,5.8c-0.6,1.9-1.1,3.8-1.4,5.7c-0.5,3.1-0.5,6.6-0.1,10
					c-2.1,0-4.1,0.1-6.1,0.2c-2.3,0.1-4.6,0.2-6.7,0.2c-8.4,0-15.2-1.2-20.9-6.8c-3-3-4.7-7-5.2-12.2c-0.4-4.7,0.3-9.8,0.9-14.8
					c0.2-1.8,0.5-3.5,0.6-5.1l0.4-2.2l0,0l0,0c1.2-12.2,8.4-14.3,16.9-16.6c6.6-1.9,13.5-3.8,17.8-11l0,0l0,0c2.8-5,3.1-11.1,3.5-17
					c0.6-10.5,1.1-19.6,14.2-21.4c2.1-0.2,4.2-0.5,6.3-0.6C88.5,60.3,91.5,60.2,94.5,60.2 M94.5,59c-3.1,0-6.1,0.1-9.2,0.4
					c-2.1,0.2-4.2,0.4-6.4,0.6c-21.8,3-11.2,25.7-18.6,39c-9.3,15.5-32.6,5.2-34.8,28.1l-0.4,2.2c-1.1,11-4.7,24.7,4,33.2
					c6.2,6.1,13.5,7.1,21.8,7.1c4.5,0,9.3-0.3,14.3-0.3c-0.6-3.6-0.7-7.5-0.1-11.1c0.3-1.9,0.7-3.7,1.3-5.5c0.6-1.9,1.6-3.9,2.5-5.6
					c1.7-3.2,4-5.9,7.1-7.8c1.7-1,3.8-1.8,5.7-2.3c1.9-0.5,3.9-0.7,5.9-0.7c5.5,0,11,1.9,15.2,5.5c3,2.6,5.2,6.2,6.6,9.8
					c1.7,4.3,1.4,8.3,0.8,12.8l-0.7,2.8l3,0.8c3.7,1,21.9,1.5,39.5,1.5c16,0,31.5-0.4,34.9-1.2l2.7-0.8l-0.7-3.2
					c-0.1-0.3-0.1-0.6-0.2-0.9c-0.4-2.3-0.8-4.7-0.5-7.1c0.3-2.4,1.2-4.7,2.3-6.8c1.7-3.1,3.8-5.9,6.6-8.1c3.6-2.8,8-4.3,12.5-4.9
					c0.3,0,0.5-0.1,0.8-0.1c0.6-0.1,1.2-0.1,1.8-0.1c1.9,0,3.8,0.2,5.5,0.6c4.2,0.9,8,3.4,10.9,6.6c1.6,1.7,2.9,3.7,3.8,5.8
					c0.9,2.1,1.9,4.7,2.1,7c0.1,1.3,0.1,2.6,0,3.9c-0.1,1.3-0.2,2.7-0.6,3.9l-0.7,2.3l0.5,0.3c4.5,2,12.3,2.8,18.8,2.8
					c5,0,9.2-0.5,10.9-1.4l0.7-1.9c5.9-26.3,6.7-58.5-5.9-82.9C252.5,72,242.2,68,229.9,64.6c-8.3-2.2-16.7-3.9-25.2-4.8
					c-5.8-0.6-11.6-0.8-17.5-0.8c-1.5,0-3,0-4.5,0c-6.2,0.1-37.5,0.2-59,0.2c-9.3,0-16.8,0-19.5-0.1c-2.6-0.1-5.2-0.2-7.8-0.2
					C95.8,59,95.2,59,94.5,59L94.5,59z"/>
			</g>
		</g>
		<g>
			<path class="st1" d="M66.4,152.8c-0.6,1.8-1,3.6-1.3,5.5c-0.4,2.5-0.4,5.3-0.2,7.9c-2.6-0.4-5.1-1-7.6-1.8
				c-1.4-4.6-3-9.2-3.8-13.9c-0.5-2.6-0.8-5.2-0.4-7.8c0.2-2.1,1.1-4,2.4-5.7c3.4-4.5,8.8-7.8,14.1-9.7c7.1-2.6,14.4-0.5,21.4,1.3
				c3.7,0.9,7.2,1.4,11,1.5c3.1,0.1,6.3,0.1,9,1.8c4,2.5,4.6,7.3,4.9,11.6c0.3,5-0.2,10.8,3.6,14.7c3.6,3.6,9,4.4,13.8,4.5
				c3.8,0.1,7.5,0.3,11.2,0.8c3.8,0.5,7.6,1.2,11.4,1.8c5.9,0.8,11.7,1.2,17.4-0.9c2.4-0.9,4.9-2.2,6.6-4.2c1.9-2.3,2.3-5.2,2.7-8.1
				c0.2-1.6,0.4-3.2,0.9-4.8c0.5-1.5,1.1-3.1,1.9-4.5c1.6-3,3.6-5.7,6.3-7.9c9.2-7.5,22.3-8.1,33.5-5.6c5,1.1,10.1,3,14.1,6.2
				c1.9,1.6,3.6,3.4,4.9,5.6c1.3,2.2,1.9,4.7,2.5,7.1c0.5,1.9,0.9,4,2,5.6c1.2,1.7,2.9,2.8,5,3.2c1.6,0.3,3.2,0.3,4.8,0.5
				c1.5,0.2,3,0.6,4.4,1.2c1,0.4,2,0.8,3,1.3c-0.4,2.3-0.9,4.6-1.4,6.9l-0.7,1.9c-1.7,0.9-6,1.4-10.9,1.4c-6.6,0-14.3-0.9-18.8-2.8
				l-0.5-0.3l0.7-2.3c0.4-1.2,0.4-2.6,0.6-3.9c0.1-1.3,0.1-2.6,0-3.9c-0.2-2.3-1.2-4.9-2.1-7c-0.9-2.1-2.2-4.1-3.8-5.8
				c-2.9-3.2-6.6-5.7-10.9-6.6c-1.7-0.4-3.7-0.6-5.5-0.6c-0.6,0-1.2,0-1.8,0.1c-0.2,0-0.5,0.1-0.8,0.1c-4.5,0.6-8.9,2.1-12.5,4.9
				c-2.8,2.2-4.9,5-6.6,8.1c-1.1,2.1-2,4.4-2.3,6.8c-0.3,2.4,0,4.8,0.5,7.1c0.1,0.3,0.1,0.6,0.2,0.9l0.7,3.2l-2.7,0.8
				c-3.4,0.8-18.9,1.2-34.9,1.2c-17.6,0-35.8-0.5-39.5-1.5l-3-0.8l0.7-2.8c0.6-4.5,0.9-8.5-0.8-12.8c-1.4-3.7-3.6-7.2-6.6-9.8
				c-4.2-3.7-9.7-5.5-15.2-5.5c-2,0-3.9,0.2-5.9,0.7c-1.9,0.5-4,1.2-5.7,2.3c-3.1,1.9-5.4,4.6-7.1,7.8
				C68,148.9,67.1,150.9,66.4,152.8z"/>
		</g>
		<g>
			<g>
				<path class="st3" d="M61.8,163.9c0.2,0,0.4,0,0.4,0l0.7-0.2l0,0.2l52.5-2.4v-6.2c0-10-0.9-20.2-11.3-27.1
					c-5.9-3.7-12.5-3.9-18.9-4c-1.7,0-3.4-0.1-5.1-0.2c-1.1-0.1-2.3-0.2-3.4-0.2c-3.5-0.2-7.1-0.5-10.7-0.5c-3.9,0-7.3,0.3-10.3,1
					c-4.4,1-7.9,3.7-10.3,7.9c-3,5.4-3.5,12.8-1.3,18.7c2,5,5.3,8.7,9.8,10.8l0,0C55.3,162.3,59.9,163.9,61.8,163.9L61.8,163.9z"/>
			</g>
			<g>
				<g>
					<path class="st2" d="M66.2,123.8c3.5,0,7.1,0.3,10.6,0.5c1.1,0.1,2.3,0.2,3.4,0.2c1.7,0.1,3.4,0.1,5.1,0.2
						c6.3,0.1,12.8,0.3,18.5,3.9c4.6,3,7.7,7,9.3,12c1.5,4.6,1.7,9.7,1.7,14.6v5.6l-51.3,2.3l0-0.3l-1.4,0.3c0,0-0.1,0-0.3,0
						c-1.9,0-6.4-1.5-7.4-2.1l0,0l0,0c-4.4-2.1-7.6-5.6-9.5-10.5c-2.1-5.8-1.6-12.9,1.3-18.2c2.2-4.1,5.7-6.7,9.9-7.6
						C58.9,124.1,62.3,123.8,66.2,123.8 M66.2,122.5c-3.5,0-7.1,0.2-10.5,1c-4.6,1-8.3,3.8-10.7,8.2c-3.1,5.6-3.6,13.1-1.4,19.2
						c2.1,5.2,5.5,9,10.2,11.2c1.2,0.7,5.9,2.3,8,2.3c0.2,0,0.4,0,0.6-0.1l0,0.1l53.7-2.4v-6.8c0-10.1-0.9-20.6-11.6-27.7
						c-6-3.8-12.7-4-19.2-4.1c-1.7,0-3.4-0.1-5.1-0.2c-1.1-0.1-2.3-0.2-3.4-0.2C73.3,122.8,69.7,122.5,66.2,122.5L66.2,122.5z"/>
				</g>
			</g>
		</g>
		<g>
			<path class="st3" d="M45,131.8c2.4-4.4,6.1-7.2,10.7-8.2c3.4-0.7,6.9-1,10.5-1c3.6,0,7.2,0.3,10.7,0.5c1.1,0.1,2.3,0.2,3.4,0.2
				c1.7,0.1,3.4,0.1,5.1,0.2c6.5,0.1,13.2,0.3,19.2,4.1c10.7,7.1,11.6,17.5,11.6,27.7v6.8l-0.4,0c-0.2-10.7-1.8-22.3-11.1-29
				c-4.4-3.2-9.7-4.6-15-4.9c-3.3-0.2-6.6-0.1-9.9,0c-4,0.1-8,0.2-12,0.3c-6.1,0.2-12.7,0.8-17.7,4.9c-5,4-6.1,10.7-3.6,16.5
				c5.2,11.9,20.6,10.2,31.3,9.8c8.1-0.3,16.1-1,24.2-1.2c2.9-0.1,5.8-0.1,8.7,0.1c0.8,0,1.7,0.2,2.4-0.1c0.1,1.3,0.1,2.5,0.1,3.8
				l-50.7,2.3l0-0.1c-0.2,0-0.4,0.1-0.6,0.1c-2.1,0-6.8-1.6-8-2.3c-4.7-2.2-8.1-6-10.2-11.2C41.4,144.9,41.9,137.3,45,131.8z"/>
		</g>
		<g>
			<path class="st1" d="M158.6,84.8c2.1-1.4,4.7-1.7,7.1-1.8c4.4-0.1,8.8,0.3,13.1,0.2c4.5-0.1,9.1-0.2,13.5,0.5
				c3.1,0.5,7.7,1.4,9.3,4.5c-0.5,0.5-0.6,1.2,0,1.7c1.4,1.2,1.6,3.7,1.8,5.4c0.2,2.5,0,5-0.2,7.4c-0.2,2.5-0.6,5-0.9,7.4
				c-0.3,2-0.3,4.2-0.7,6.2c-0.3,1.8-1.1,2-2.9,2.2c-3.6,0.4-7.1,0.8-10.7,1.1c-3.7,0.3-7.4,0.3-11.1,0.6c-3.6,0.2-7.2,0.5-10.8,0
				c-2.6-0.4-6.2-1-7.7-3.5c-1.2-2-1.3-4.5-1.3-6.8c0-2.5,0.2-5,0-7.5c-0.4-3.3-1.3-6.5-1.4-9.8C155.5,89.9,156,86.4,158.6,84.8z"/>
		</g>
		<g>
			<path class="st1" d="M25.3,129.4l0.4-2.2c2.2-22.9,25.5-12.6,34.8-28.1c7.4-13.3-3.3-36.1,18.6-39c2.1-0.3,4.2-0.5,6.3-0.6
				c-0.8,1.1-1.7,2.2-2.2,3.5c-1.2,3.2,1.6,5.9,3.9,7.6c6.3,4.7,15.2,5,20.7,10.9c6.2,6.7,7.5,17.3,4.7,25.8
				c-1.4,4.2-3.9,8.1-7.7,10.5c-5.1,3.2-11.2,1.9-16.5,0.1c-6.1-2-11.9-4.6-18.1-6.2c-3.5-1-7.2-1.7-10.8-1.5
				c-3.6,0.2-6.9,1.1-10.1,2.6c-4.5,2-8.8,4.9-11.6,9.1c-2.5,3.7-3.7,8.1-4.3,12.5c-0.3,2.5-0.4,5-0.5,7.4c0,2.7-0.2,5.6,0.1,8.3
				c0.2,2.1,0.6,4.4,1.9,6.1c1.2,1.6,2.8,2.7,4.6,3.6c2.5,1.2,5,2.3,7.5,3.4c2.7,1.2,5.4,2.4,8.2,3.3c0.3,1.1,0.7,2.1,1,3.2
				c-1.8,0.1-3.5,0.1-5.2,0.1c-8.2,0-15.6-1.1-21.8-7.1C20.6,154.1,24.1,140.3,25.3,129.4z"/>
		</g>
		<g>
			<path class="st1" d="M239.5,104.9c-0.4,2.6-0.2,5.3-0.7,7.9c-0.3,1.7-1.1,3.3-2.8,4c-2.1,0.8-4.2,1.4-6.4,1.9
				c-2.5,0.7-5,1.3-7.5,1.4c-4.1,0.3-9.4-0.2-10.9-4.8c-0.9-2.7-0.9-5.6-1-8.4c-0.1-4.1,0.2-8.1,0.4-12.2c0.1-2.3-0.3-6,1.6-7.7
				c1.4-1.3,3.6-1.5,5.5-1.7c5.2-0.5,15.7-2.5,19.9,2c-0.1,0.3-0.2,0.6-0.1,0.9C239.2,93.7,240.4,99.2,239.5,104.9z"/>
		</g>
		<g>
			<path class="st1" d="M267,125.6c-3.3-0.4-6.5-1.2-9.8-1.8c-3.4-0.6-8.4,0.1-11-2.8c-1.3-1.5-1.7-3.7-2-5.6
				c-0.6-3.9-0.9-7.9-1-11.8c-0.1-3.1-0.3-6.3,0.1-9.4c0.2-1.9,0.7-3.9,2-5.3c1.6-1.7,3.8-2.3,6-2.8c2.5-0.6,5.3-1.2,7.9-0.7
				c5.9,12.2,8.6,26.2,9.2,40.4C267.9,125.7,267.4,125.7,267,125.6z"/>
		</g>
		<g>
			<g>
				<path class="st4" d="M234.2,166.6L234.2,166.6c0.3-1.4,0.4-1.8,0.5-1.9l0,0.1c0.3-1.1,0.4-2.4,0.5-3.5c0-0.2,0-0.4,0-0.5
					c0.1-1.5,0.1-2.8,0-4.1c-0.2-1.9-0.9-4.3-2.2-7.2c-1-2.2-2.3-4.2-3.9-6c-2.3-2.5-6-5.7-11.2-6.8c-1.9-0.4-3.8-0.6-5.6-0.6
					c-0.7,0-1.3,0-1.9,0.1c-0.3,0-0.5,0.1-0.8,0.1c-5,0.6-9.4,2.3-12.8,5c-2.6,2-4.9,4.8-6.7,8.3c-0.8,1.5-1.4,3-1.8,4.4
					c0.1-0.4,0.1-0.8,0.2-1.2c1-4.9,2.8-8.8,5.5-11.8c3.5-3.9,8.3-6.6,13.4-7.7c1.9-0.4,4-0.6,6.1-0.6c4.2,0,8.6,0.8,12.7,2.4
					c5.7,2.1,9.7,5.3,12.3,9.6c3.9,6.5,5.5,15.3,4.2,24.2C239.1,168.2,236.2,167.5,234.2,166.6z M188.1,167.5
					c-0.3-2.5-0.4-4.9-0.4-7.1c0.1,1.2,0.3,2.3,0.5,3.4l0,0.3c0,0.2,0.1,0.4,0.1,0.6l0.6,2.6L188.1,167.5z"/>
			</g>
			<g>
				<path class="st2" d="M213.5,133.2c4.1,0,8.4,0.8,12.5,2.3c5.5,2.1,9.4,5.1,12,9.3c2.1,3.4,3.4,7.3,4.1,11.7
					c0.6,3.7,0.6,7.6,0.1,11.4c-2.9-0.4-5.4-1.1-7.3-1.8c0.2-0.7,0.3-1.1,0.4-1.3l0,0c0.3-1.2,0.5-2.5,0.6-3.6c0-0.2,0-0.4,0-0.5
					c0.1-1.5,0.1-2.9,0-4.2c-0.2-2-0.9-4.4-2.2-7.4c-1-2.2-2.3-4.3-4-6.2c-2.3-2.6-6.2-5.9-11.5-7c-1.9-0.4-3.9-0.6-5.8-0.6
					c-0.7,0-1.3,0-2,0.1c-0.3,0-0.5,0.1-0.8,0.1c-5.1,0.6-9.6,2.4-13.1,5.1c-2,1.6-3.9,3.6-5.5,6c0.9-2.1,2.1-3.9,3.5-5.4
					c3.4-3.8,8.1-6.5,13.1-7.5C209.4,133.4,211.4,133.2,213.5,133.2 M213.5,132c-2.1,0-4.1,0.2-6.2,0.6c-5.3,1.1-10.1,3.9-13.7,7.9
					c-3,3.4-4.8,7.7-5.7,12.1c-1,5.2-1,10.5-0.3,15.8l2.1-0.6l-0.7-3.2c-0.1-0.3-0.1-0.6-0.2-0.9c-0.4-2.3-0.8-4.7-0.5-7.1
					c0.3-2.4,1.2-4.7,2.3-6.8c1.7-3.1,3.8-5.9,6.6-8.1c3.6-2.8,8-4.3,12.5-4.9c0.3,0,0.5-0.1,0.8-0.1c0.6-0.1,1.2-0.1,1.8-0.1
					c1.9,0,3.8,0.2,5.5,0.6c4.2,0.9,8,3.4,10.9,6.6c1.6,1.7,2.9,3.7,3.8,5.8c0.9,2.1,1.9,4.7,2.1,7c0.1,1.3,0.1,2.6,0,3.9
					c-0.1,1.3-0.2,2.7-0.6,3.9l-0.7,2.3l0.5,0.3c2.4,1.1,5.7,1.8,9.3,2.2c1.4-8.5,0.3-17.8-4.2-25.2c-2.9-4.8-7.4-7.9-12.6-9.9
					C222.3,132.8,217.9,132,213.5,132L213.5,132z"/>
			</g>
		</g>
		<g>
			<g>
				<path class="st4" d="M63.8,168.7c0.1-2.2,0.2-4.3,0.4-6.3c0,2.1,0.1,4.2,0.4,6.3C64.3,168.7,64,168.7,63.8,168.7z M112.8,167.5
					l-2.4-0.6c0.5-1.9,0.5-2.2,0.5-2.3v0c0.6-4.5,0.9-8.6-0.9-13.1c-1.6-4.1-4-7.6-6.8-10.1c-4.2-3.7-9.8-5.7-15.6-5.7
					c-2,0-4,0.2-6,0.7c-2.2,0.5-4.3,1.4-5.8,2.4c-3.1,1.9-5.5,4.6-7.3,8c-1.2,2.2-2,4.1-2.6,5.7c-0.2,0.5-0.3,1-0.5,1.5
					c1.4-6.8,4-12.1,7.6-15.8c3.6-3.7,8.4-5.6,13.8-5.6c0.4,0,0.9,0,1.3,0c6.1,0.4,12.2,2.7,17,6.5c4.4,3.6,7.5,8.3,9.1,14
					c1.5,5.2,1.9,10.2,1.4,14.9C114.7,168,113.7,167.8,112.8,167.5z"/>
			</g>
			<g>
				<path class="st2" d="M86.9,133.3L86.9,133.3c0.4,0,0.9,0,1.3,0c6,0.3,11.9,2.6,16.7,6.4c4.3,3.5,7.3,8.1,8.9,13.7
					c1.4,4.9,1.9,9.6,1.5,14c-0.8-0.2-1.6-0.4-2.3-0.6l0,0l0,0l-1.8-0.5c0.3-1.2,0.4-1.6,0.4-1.8h0c0.6-4.6,0.9-8.8-0.9-13.4
					c-1.7-4.2-4-7.8-6.9-10.3c-4.3-3.8-10-5.8-16-5.8c-2.1,0-4.1,0.2-6.2,0.7c-2.2,0.5-4.4,1.4-6,2.4c-2.1,1.3-3.9,2.9-5.4,4.9
					c1-1.7,2.1-3.2,3.4-4.4C77,135.2,81.6,133.3,86.9,133.3 M86.9,132.1c-5.4,0-10.4,1.9-14.3,5.8c-4.4,4.4-6.7,10.6-7.9,16.6
					c-1,4.9-1.4,9.9-1.5,14.8c0.7,0,1.4,0,2.1,0c-0.6-3.6-0.7-7.5-0.1-11.1c0.3-1.9,0.7-3.7,1.3-5.5c0.6-1.9,1.6-3.9,2.5-5.6
					c1.7-3.2,4-5.9,7.1-7.8c1.7-1,3.8-1.8,5.7-2.3c1.9-0.5,3.9-0.7,5.9-0.7c5.5,0,11,1.9,15.2,5.5c3,2.6,5.2,6.2,6.6,9.8
					c1.7,4.3,1.4,8.3,0.8,12.8l-0.7,2.8l3,0.8c1.2,0.3,2.4,0.6,3.7,0.8c0.7-5.3,0.1-10.7-1.3-15.8c-1.6-5.7-4.7-10.6-9.3-14.3
					c-5-4-11.1-6.3-17.4-6.7C87.8,132.1,87.3,132.1,86.9,132.1L86.9,132.1z"/>
			</g>
		</g>
		<g>
			<g>
				<path class="st5" d="M209.2,181.9c1.7,0,3.5-0.1,5.4-0.4c6-0.9,11.1-3.6,14.8-7.7c1.9-2.1,3.8-4.4,4.7-7.2
					c0.9-2.8,1.3-5.6,1.2-8.3c-0.1-2.7-0.9-6-2.2-9.1c-3.3-8.1-11.6-13.6-20.8-13.6c-0.7,0-1.3,0-2,0.1c-4.6,0.4-9.2,2-12.8,4.3
					c-4.1,2.6-7,6.2-8.3,10.3c-1.6,4.9-1.8,10.5-0.5,15.4c1.5,5.7,5.4,11,9.8,13.6C201.3,181.1,204.9,181.9,209.2,181.9L209.2,181.9
					z"/>
			</g>
			<g>
				<path class="st2" d="M212.2,136.3c8.9,0,17.1,5.3,20.2,13.2c1.2,3.1,2,6.4,2.2,9c0.1,2.6-0.3,5.4-1.2,8.1
					c-0.9,2.6-2.7,4.9-4.6,7c-3.6,4-8.6,6.6-14.4,7.5c-1.8,0.3-3.6,0.4-5.3,0.4c-4.1,0-7.7-0.8-10.5-2.5c-4.3-2.5-8.1-7.6-9.5-13.2
					c-1.3-4.8-1.1-10.3,0.5-15c1.3-4,4.1-7.4,8.1-10c3.6-2.3,8.1-3.9,12.6-4.3C210.9,136.3,211.5,136.3,212.2,136.3 M212.2,135.1
					c-0.7,0-1.4,0-2.1,0.1c-9.1,0.8-18.7,6-21.7,15.1c-1.7,5-1.8,10.8-0.5,15.8c1.4,5.4,5.1,11.1,10.1,13.9
					c3.4,1.9,7.3,2.6,11.1,2.6c1.9,0,3.7-0.2,5.5-0.4c5.8-0.9,11.2-3.4,15.2-7.9c2-2.2,3.9-4.6,4.8-7.4c0.9-2.7,1.4-5.7,1.2-8.5
					c-0.2-3.1-1.1-6.5-2.3-9.3C230.1,140.4,221.3,135.1,212.2,135.1L212.2,135.1z"/>
			</g>
		</g>
		<g>
			<g>
				<path class="st5" d="M89.6,184.3c6.2,0,11.7-1.9,15.6-5.3c4.1-3.7,6.5-9.8,6.4-16.6c0-1.9-0.2-3.8-0.5-5.6
					c-1.2-6.8-3.7-11.8-8.1-15.7c-2.8-2.5-7.2-4.3-11.9-4.9c-1.3-0.2-2.7-0.3-4-0.3c-3.1,0-6.1,0.5-8.6,1.4c-2.8,1-5.3,3.1-7.4,5
					c-2.1,1.8-3.8,4.1-5.2,6.5c-3.5,6.4-4.5,13-2.9,18.7c1,3.6,3.6,10.1,9.6,13.3C76.9,183.2,82.3,184.3,89.6,184.3L89.6,184.3z"/>
			</g>
			<g>
				<path class="st2" d="M87.1,136.5c1.3,0,2.6,0.1,3.9,0.3c4.6,0.6,8.9,2.4,11.6,4.8c4.2,3.8,6.7,8.6,7.9,15.4
					c0.3,1.8,0.5,3.6,0.5,5.5c0.1,6.7-2.2,12.5-6.2,16.2c-3.7,3.3-9.1,5.2-15.1,5.2h-0.1c-7.1,0-12.4-1.1-16.6-3.4
					c-5.8-3.1-8.3-9.5-9.3-13c-1.5-5.5-0.5-11.9,2.8-18.2c1.3-2.4,3-4.6,5-6.4c2.1-1.8,4.5-3.8,7.2-4.8
					C81.1,137,84,136.5,87.1,136.5 M87.1,135.3c-3,0-6.1,0.5-8.8,1.5c-2.8,1.1-5.3,3.1-7.6,5.1c-2.1,1.9-3.9,4.2-5.3,6.7
					c-3.1,5.8-4.8,12.6-2.9,19.1c1.6,5.5,4.7,10.9,9.9,13.7c5.2,2.8,11.3,3.6,17.2,3.6c0,0,0,0,0.1,0c5.7,0,11.7-1.6,16-5.5
					c4.7-4.3,6.7-10.8,6.6-17.1c0-1.9-0.2-3.8-0.5-5.7c-1.1-6.5-3.5-11.8-8.3-16.1c-3.2-2.8-8-4.5-12.2-5.1
					C89.8,135.4,88.5,135.3,87.1,135.3L87.1,135.3z"/>
			</g>
		</g>
		<g>
			<path class="st6" d="M208.9,149.3c0.3,0,0.7,0,1,0c3,0,6,1.1,7.8,3.6c1.7,1.9,2.7,4.5,2.8,7c0.1,1.3-0.1,2.6-0.6,3.9
				c-0.4,1.3-1.3,2.4-2.2,3.3c-1.8,2-4.2,3.2-6.9,3.6c-0.8,0.1-1.6,0.2-2.5,0.2c-1.8,0-3.5-0.3-5-1.2c-2.3-1.3-3.9-3.9-4.6-6.3
				c-0.6-2.3-0.5-4.9,0.2-7.1C200.4,152,204.8,149.7,208.9,149.3z"/>
		</g>
		<g>
			<path class="st6" d="M76.2,156.7c0.6-1,1.3-2,2.2-2.7c0.9-0.8,1.9-1.6,3.1-2.1c1.1-0.4,2.4-0.6,3.6-0.6c0.6,0,1.1,0,1.7,0.1
				c1.7,0.2,3.7,0.9,5,2.1c2,1.7,2.9,3.9,3.4,6.5c0.1,0.8,0.2,1.5,0.2,2.3c0,2.5-0.8,5.2-2.7,6.9c-1.8,1.6-4.2,2.2-6.5,2.2
				c0,0,0,0,0,0c-2.4,0-4.9-0.3-7-1.5c-2.1-1.1-3.4-3.3-4-5.6C74.2,161.8,74.9,159,76.2,156.7z"/>
		</g>
		<g>
			<g>
				<path class="st7" d="M210.4,168.9c0.8,0,1.6-0.1,2.4-0.2c2.6-0.4,4.9-1.6,6.5-3.4c0.8-0.9,1.7-2,2-3.1c0.4-1.2,0.6-2.5,0.5-3.6
					c-0.1-2.5-1.1-4.9-2.6-6.6l0,0l0,0c-1.5-2.1-4.3-3.3-7.3-3.3c-0.3,0-0.7,0-1,0c-3.7,0.3-8,2.4-9.3,6.4c-0.7,2.1-0.8,4.6-0.2,6.8
					c0.7,2.5,2.3,4.8,4.3,5.9C207,168.6,208.6,168.9,210.4,168.9L210.4,168.9z"/>
			</g>
			<g>
				<g>
					<path class="st2" d="M211.9,149.3c2.8,0,5.4,1.2,6.8,3.1l0,0.1l0,0.1c1.4,1.5,2.3,3.8,2.5,6.2c0.1,1.1-0.1,2.3-0.5,3.4
						c-0.4,1.1-1.1,2-1.9,2.9c-1.5,1.7-3.6,2.8-6.1,3.2c-0.8,0.1-1.6,0.2-2.3,0.2c-1.7,0-3.2-0.3-4.4-1c-1.8-1-3.4-3.2-4-5.6
						c-0.5-2.1-0.5-4.4,0.2-6.4c1.2-3.7,5.3-5.7,8.8-6C211.3,149.3,211.6,149.3,211.9,149.3 M211.9,148c-0.3,0-0.7,0-1,0
						c-4.1,0.4-8.4,2.7-9.8,6.8c-0.8,2.3-0.8,4.9-0.2,7.1c0.6,2.4,2.3,5,4.6,6.3c1.5,0.9,3.3,1.2,5,1.2c0.8,0,1.7-0.1,2.5-0.2
						c2.6-0.4,5.1-1.6,6.9-3.6c0.9-1,1.7-2.1,2.2-3.3c0.4-1.2,0.6-2.6,0.6-3.9c-0.1-2.5-1-5.1-2.8-7
						C217.9,149.2,214.9,148,211.9,148L211.9,148z"/>
				</g>
			</g>
		</g>
		<g>
			<g>
				<path class="st7" d="M88,169.6c2.4,0,4.6-0.7,6.1-2.1c1.6-1.4,2.5-3.8,2.5-6.5c0-0.7-0.1-1.5-0.2-2.2c-0.5-2.7-1.5-4.7-3.2-6.2
					c-1.1-1-2.8-1.7-4.7-1.9c-0.5-0.1-1.1-0.1-1.6-0.1c-1.2,0-2.4,0.2-3.4,0.6c-1.1,0.4-2.1,1.2-2.9,1.9c-0.8,0.7-1.5,1.6-2,2.6
					c-1.4,2.5-1.8,5.1-1.1,7.3c0.4,1.4,1.4,3.9,3.7,5.2C83,169.2,85.1,169.6,88,169.6L88,169.6z"/>
			</g>
			<g>
				<g>
					<path class="st2" d="M87,151.3c0.5,0,1,0,1.5,0.1c1.7,0.2,3.3,0.9,4.3,1.8c1.6,1.4,2.5,3.2,3,5.8c0.1,0.7,0.2,1.4,0.2,2.1
						c0,2.5-0.8,4.7-2.3,6c-1.4,1.2-3.4,1.9-5.7,1.9h0c-2.8,0-4.8-0.4-6.4-1.3c-2.1-1.1-3.1-3.5-3.4-4.8c-0.6-2-0.2-4.5,1.1-6.8
						c0.5-0.9,1.1-1.7,1.9-2.4c0.8-0.7,1.7-1.5,2.7-1.8C84.7,151.5,85.8,151.3,87,151.3 M87,150c-1.2,0-2.5,0.2-3.6,0.6
						c-1.1,0.4-2.2,1.2-3.1,2.1c-0.9,0.8-1.6,1.7-2.2,2.7c-1.3,2.4-1.9,5.1-1.2,7.8c0.6,2.2,1.9,4.4,4,5.6c2.1,1.2,4.6,1.4,7,1.5
						c0,0,0,0,0,0c2.3,0,4.7-0.7,6.5-2.2c1.9-1.7,2.7-4.4,2.7-6.9c0-0.8-0.1-1.5-0.2-2.3c-0.4-2.6-1.4-4.8-3.4-6.5
						c-1.3-1.2-3.2-1.8-5-2.1C88.1,150.1,87.5,150,87,150L87,150z"/>
				</g>
			</g>
		</g>
		<g>
			<g>
				<path class="st8" d="M215.7,167.8c1.5-0.7,5.3-2.9,5.7-7.7c-1.1,0.1-3.3,0.6-4.7,2.3C215.7,163.7,215.3,165.5,215.7,167.8z"/>
			</g>
			<g>
				<path class="st2" d="M220.7,160.8c-0.6,3.3-2.9,5.2-4.5,6c-0.1-1.7,0.2-3.1,1-4.1C218.1,161.5,219.6,161,220.7,160.8 M222,159.4
					c0,0-8.8,0.1-6.8,9.2C215.2,168.6,221.9,166.5,222,159.4L222,159.4z"/>
			</g>
		</g>
		<g>
			<g>
				<path class="st8" d="M91,168.8c4.4-0.7,5-4.6,5.1-6c-0.3,0-0.5-0.1-0.8-0.1c-1.2,0-2.1,0.4-2.8,1.1
					C91.2,165.2,91,167.6,91,168.8z"/>
			</g>
			<g>
				<path class="st2" d="M95.3,163.3c0,0,0.1,0,0.1,0c-0.1,0.5-0.2,1.2-0.6,1.9c-0.7,1.4-1.7,2.4-3.2,2.8c0.1-1.2,0.4-2.8,1.3-3.8
					C93.6,163.6,94.3,163.3,95.3,163.3 M95.3,162.1c-5.4,0-4.9,7.4-4.9,7.4c6.5-0.5,6.3-7.2,6.3-7.2
					C96.2,162.1,95.7,162.1,95.3,162.1L95.3,162.1z"/>
			</g>
		</g>
		<g>
			<path class="st5" d="M188.4,150.2c3.1-9.1,12.6-14.3,21.7-15.1c0.8-0.1,1.5-0.1,2.3-0.1c5.7,0,11.4,1.9,15.4,5.8
				c-4.8-2.1-10.5-2.5-15.5-1.8c-4.9,0.7-9.6,2.8-13.1,6.4c-4,4.2-6.9,10.3-6.1,16.3c0.8,5.9,4.4,11.1,9.3,14.3
				c4.7,3,10.1,4.1,15.6,4.4c0.8,0,1.6,0.1,2.5,0.1c-1.9,0.7-3.8,1.2-5.8,1.5c-1.8,0.3-3.6,0.4-5.5,0.4c-3.9,0-7.8-0.7-11.1-2.6
				c-5-2.9-8.7-8.6-10.1-13.9C186.6,161,186.8,155.2,188.4,150.2z"/>
		</g>
		<g>
			<path class="st5" d="M65.3,148.6c1.4-2.5,3.2-4.8,5.3-6.7c2.3-2,4.8-4,7.6-5.1c2.7-1,5.8-1.5,8.8-1.5c1.4,0,2.8,0.1,4.1,0.3
				c2.4,0.3,5,1,7.3,2c-3.2-0.6-6.5-0.5-9.5,0.1c-10.1,2-18,11-19.9,20.9c-0.7,3.8-0.5,7.4,1.1,10.9c1.2,2.6,2.9,5,5,6.8
				c4.7,4,10.7,5.8,16.8,6.5c3.2,0.4,6.4,0.2,9.3-0.4c-3.6,1.8-7.7,2.6-11.6,2.6h-0.1c-5.9,0-12-0.7-17.2-3.6
				c-5.2-2.8-8.3-8.2-9.9-13.7C60.6,161.2,62.2,154.4,65.3,148.6z"/>
		</g>
		<g>
			<path class="st9" d="M201,154.9c1.4-4.1,5.7-6.5,9.8-6.8c0.3,0,0.7,0,1,0c3,0,6,1.1,7.8,3.6c1,1.1,1.7,2.4,2.2,3.8
				c-0.9-0.5-1.9-0.8-2.9-0.9c-2.3-0.2-4.8,0.5-6.8,1.6c-3.9,2.2-5.9,6.2-5.7,10.6c0,0.7,0.1,1.5,0.2,2.3c-0.5-0.2-0.9-0.4-1.3-0.6
				c-2.3-1.3-3.9-3.9-4.6-6.3C200.2,159.8,200.3,157.2,201,154.9z"/>
		</g>
		<g>
			<path class="st9" d="M78.1,155.4c0.6-1,1.3-2,2.2-2.7c0.9-0.8,1.9-1.6,3.1-2.1c1.1-0.4,2.4-0.6,3.6-0.6c0.6,0,1.1,0,1.7,0.1
				c1.7,0.2,3.7,0.9,5,2.1c1,0.9,1.8,1.9,2.3,3.1c-2.2-0.2-4.5,0.3-6.4,1.8c-3.1,2.4-4.7,6.2-4.7,10.1c0,0.9,0.1,1.9,0.3,2.8
				c-1.4-0.2-2.9-0.6-4.2-1.3c-2.1-1.1-3.4-3.3-4-5.6C76.2,160.6,76.9,157.8,78.1,155.4z"/>
		</g>
		<g>
			<g>
				<path class="st8" d="M209.8,154.9c3.6,0,5.6-3.6,6.2-5c-1.5-0.6-2.9-1-4.3-1c-3.9,0-6.6,2.4-7.6,3.4
					C206.2,154.1,208.1,154.9,209.8,154.9L209.8,154.9z"/>
			</g>
			<g>
				<path class="st2" d="M211.7,149.6c1.1,0,2.3,0.2,3.5,0.7c-0.8,1.5-2.6,4-5.4,4c-1.4,0-3-0.7-4.7-1.9
					C206.2,151.3,208.6,149.6,211.7,149.6 M211.7,148.3c-5.2,0-8.4,4.1-8.4,4.1c2.6,2.2,4.8,3.1,6.6,3.1c4.8,0,7-5.9,7-5.9
					C214.9,148.7,213.2,148.3,211.7,148.3L211.7,148.3z"/>
			</g>
		</g>
		<g>
			<g>
				<path class="st8" d="M208,168.4c0.3-1.1,1-3.7-0.3-5.8c-1-1.7-3.1-2.8-6.2-3.2C201.5,161.4,202,166.9,208,168.4z"/>
			</g>
			<g>
				<path class="st2" d="M202.1,160.2c2.5,0.4,4.2,1.3,5,2.8c1,1.6,0.7,3.5,0.4,4.7C203.1,166.2,202.3,162.3,202.1,160.2
					 M200.9,158.8c0,0-0.7,8.6,7.5,10.4C208.4,169.2,212.4,159.8,200.9,158.8L200.9,158.8z"/>
			</g>
		</g>
		<g>
			<g>
				<path class="st8" d="M87.3,154.9c2.5,0,3.9-1.9,4.5-2.9c-0.8-0.3-2.3-0.7-4.4-1c-0.2,0-0.4,0-0.6,0c-1.8,0-3.7,0.9-4.6,1.4
					c0.5,0.8,1.8,2.3,4.6,2.6C87,154.9,87.2,154.9,87.3,154.9z"/>
			</g>
			<g>
				<path class="st2" d="M86.8,151.6c0.2,0,0.4,0,0.5,0c1.5,0.2,2.7,0.5,3.6,0.7c-0.6,0.9-1.8,2-3.5,2c-0.1,0-0.3,0-0.5,0
					c-2-0.2-3.1-1-3.8-1.7C84.1,152.1,85.5,151.6,86.8,151.6 M86.8,150.3c-2.6,0-5.4,1.7-5.4,1.7s1.2,3,5.4,3.4c0.2,0,0.4,0,0.6,0
					c3.8,0,5.3-3.8,5.3-3.8c-0.5-0.3-2.4-1-5.2-1.3C87.2,150.4,87,150.3,86.8,150.3L86.8,150.3z"/>
			</g>
		</g>
		<g>
			<g>
				<path class="st8" d="M83.1,168.5c0.4-1.1,1.3-4,0.1-6.4c-0.8-1.8-2.6-3-5.2-3.7c-0.3,1.2-0.8,3.9,0.2,6.1
					C79.3,166.7,82,168,83.1,168.5z"/>
			</g>
			<g>
				<path class="st2" d="M78.5,159.2c2.1,0.7,3.5,1.7,4.2,3.2c0.9,1.8,0.5,4,0.1,5.3c-1.2-0.6-3.1-1.7-3.9-3.4
					C78.1,162.7,78.2,160.6,78.5,159.2 M77.6,157.7c0,0-1.4,4.1,0.1,7.1c1.5,3.1,5.7,4.5,5.7,4.5S88,160.1,77.6,157.7L77.6,157.7z"
					/>
			</g>
		</g>
		<g>
			<path class="st2" d="M198.2,165.3c2.1,4.7,6.9,7.6,11.9,8.2c2.5,0.3,5.4,0.3,7.7-0.8c2.4-1.1,4.5-3,5.8-5.3
				c1.2-2.1,1.9-5.2,2-7.6c0.5-7.5-5.5-15.7-13.5-15.3c-3.2,0.2-6.4,1.2-9,3.2C197.7,151.7,195.4,159,198.2,165.3z M211.6,147
				c2.3-0.3,6.2,1.5,8,2.8c4.3,3,5.5,9.1,3.8,13.9c-1.5,4.4-6.5,7.6-11.2,7.5c-5-0.1-10.8-2.5-12.8-7.4
				C195.9,155.2,203.6,148,211.6,147z"/>
		</g>
		<g>
			<path class="st2" d="M79.9,172.7c4.4,2.6,10,2.2,14.4-0.2c2.2-1.2,4.6-2.9,5.9-5.1c4.5-7.7-0.4-17.8-8.1-21
				c-7.7-3.2-15.9,1.3-18.4,9C71.7,161.9,74,169.2,79.9,172.7z M75.4,164.9c-0.8-1.9-0.7-4.9-0.3-6.8c0.9-4.2,4.4-7.7,8.2-9.4
				c3.9-1.7,8.2-0.7,11.8,1.5c6.8,4.2,5.5,14.8-0.2,19.3c-2.1,1.6-4.6,2.6-7.2,2.7c-2.1,0.1-5.8-0.2-7.6-1.4
				C78.2,169.6,76.2,166.9,75.4,164.9z"/>
		</g>
		<g>
			<g>
				<path class="st2" d="M210.4,157c0.5-0.1,1,0.1,1.4,0.3c0.1-0.1,0.2-0.1,0.4,0c1.8,1.3,0.6,4.5-1.7,4.1c-0.6-0.1-1.1-0.5-1.4-1
					c0,0-0.1-0.1-0.1-0.1c-0.3-0.4-0.4-1-0.3-1.5C208.8,157.9,209.5,157.1,210.4,157z"/>
			</g>
			<g>
				<path class="st2" d="M86,158.8c0.6-0.8,1.4-0.8,2.1-0.5c1.4,0.2,1.9,1.7,1.2,3c-0.7,1.1-2.4,1.3-3.2,0.3
					C85.4,160.8,85.5,159.6,86,158.8z"/>
			</g>
		</g>
		<g>
			<g>
				<g>
					<path class="st2" d="M225.4,177c-1.7-2.1-3.1-4.5-5.3-6.2c-0.7-0.6,0.3-1.6,1-1c2.2,1.7,3.5,4.1,5.3,6.3
						C227,176.6,226,177.7,225.4,177L225.4,177z"/>
				</g>
			</g>
			<g>
				<g>
					<path class="st2" d="M214.6,181.1c0-2.7-0.5-5.3-1.1-7.9c-0.2-0.9,1.2-1.3,1.4-0.4c0.6,2.7,1.1,5.5,1.2,8.3
						C216.1,182.1,214.6,182.1,214.6,181.1L214.6,181.1z"/>
				</g>
			</g>
			<g>
				<g>
					<path class="st2" d="M206.6,171.4c-0.2,1.8-1.3,3.1-2.2,4.6c-1,1.5-1.7,3.2-3.1,4.4c-0.7,0.6-1.8-0.4-1-1
						c1.2-1.1,1.9-2.5,2.7-3.8c0.8-1.3,2-2.6,2.2-4.1C205.2,170.5,206.7,170.5,206.6,171.4L206.6,171.4z"/>
				</g>
			</g>
			<g>
				<g>
					<path class="st2" d="M200,167.1c-2.5,2.2-5.1,4.3-8.2,5.5c-0.9,0.4-1.3-1.1-0.4-1.4c2.9-1.2,5.2-3.2,7.6-5.2
						C199.7,165.4,200.7,166.5,200,167.1L200,167.1z"/>
				</g>
			</g>
			<g>
				<g>
					<path class="st2" d="M197.9,157.7c-3.2,0-6.5-0.3-9.7,0.1c-0.9,0.1-1.3-1.3-0.4-1.4c3.3-0.5,6.7-0.2,10.1-0.2
						C198.9,156.2,198.9,157.7,197.9,157.7L197.9,157.7z"/>
				</g>
			</g>
			<g>
				<g>
					<path class="st2" d="M200.3,151.1c-0.8-1.4-2.2-2.3-3.3-3.5c-1.3-1.2-2.3-2.7-3.6-4c-0.7-0.7,0.4-1.7,1-1
						c1.3,1.2,2.4,2.7,3.6,4c1.2,1.3,2.6,2.2,3.6,3.8C202,151.1,200.7,151.9,200.3,151.1L200.3,151.1z"/>
				</g>
			</g>
			<g>
				<g>
					<path class="st2" d="M206.5,146.5c-0.8-3-1.8-6-3.5-8.7c-0.5-0.8,0.8-1.6,1.3-0.7c1.7,2.8,2.8,5.9,3.6,9.1
						C208.2,147,206.8,147.4,206.5,146.5L206.5,146.5z"/>
				</g>
			</g>
			<g>
				<g>
					<path class="st2" d="M213.8,145.4c0.1-1.5,0.6-2.9,1-4.4c0.5-1.6,0.7-3.4,1.3-5c0.3-0.9,1.8-0.5,1.4,0.4
						c-0.5,1.4-0.7,2.8-1.1,4.2c-0.4,1.6-1.1,3.1-1.2,4.8C215.2,146.4,213.8,146.4,213.8,145.4L213.8,145.4z"/>
				</g>
			</g>
		</g>
		<g>
			<g>
				<path class="st2" d="M98.5,182.6c-2-3.3-3.5-6.9-4.8-10.5c-0.3-0.9,1.1-1.3,1.4-0.4c1.3,3.5,2.7,6.9,4.7,10.1
					C100.3,182.6,99,183.4,98.5,182.6L98.5,182.6z"/>
			</g>
		</g>
		<g>
			<g>
				<path class="st2" d="M107.8,175.4c-3-2.4-6.1-4.9-8.7-7.8c-0.6-0.7,0.4-1.8,1-1c2.6,2.9,5.7,5.4,8.7,7.8
					C109.6,175,108.6,176,107.8,175.4L107.8,175.4z"/>
			</g>
		</g>
		<g>
			<g>
				<path class="st2" d="M111.1,161.9c-3.3-0.1-6.6,0.5-9.9,0.7c-1,0.1-0.9-1.4,0-1.5c3.3-0.2,6.6-0.8,9.9-0.7
					C112.1,160.4,112.1,161.9,111.1,161.9L111.1,161.9z"/>
			</g>
		</g>
		<g>
			<g>
				<path class="st2" d="M108.4,149.3c-3,1.1-5.6,3.2-8.3,4.9c-0.8,0.5-1.5-0.8-0.7-1.3c2.8-1.9,5.5-3.9,8.6-5.1
					C108.9,147.5,109.3,148.9,108.4,149.3L108.4,149.3z"/>
			</g>
		</g>
		<g>
			<g>
				<path class="st2" d="M91.9,147c0.9-3.2,2.1-6.2,3.4-9.2c0.4-0.9,1.7-0.1,1.3,0.7c-1.3,2.9-2.4,5.8-3.3,8.9
					C93.1,148.3,91.7,147.9,91.9,147L91.9,147z"/>
			</g>
		</g>
		<g>
			<g>
				<path class="st2" d="M81.6,147.1c-1.1-3-1.2-6.4-3-9c-0.5-0.8,0.8-1.5,1.3-0.7c1.9,2.8,2,6.3,3.1,9.4
					C83.3,147.6,81.9,148,81.6,147.1L81.6,147.1z"/>
			</g>
		</g>
		<g>
			<g>
				<path class="st2" d="M75.4,153.2c-3.4-0.7-6.4-2.9-9.1-4.9c-0.8-0.6,0-1.8,0.7-1.3c2.6,1.9,5.5,4.2,8.8,4.8
					C76.8,152,76.4,153.4,75.4,153.2L75.4,153.2z"/>
			</g>
		</g>
		<g>
			<g>
				<path class="st2" d="M73.7,161.8c-1.4,0.8-3,0.7-4.6,0.7c-2.1,0-4.5,0.1-6.6,0.5c-0.9,0.2-1.3-1.2-0.4-1.4
					c1.9-0.4,3.8-0.3,5.7-0.5c1.6-0.2,3.6,0.3,5.1-0.6C73.8,160,74.5,161.3,73.7,161.8L73.7,161.8z"/>
			</g>
		</g>
		<g>
			<g>
				<path class="st2" d="M77.2,170.4c-1.4,1.3-3,2.4-4.4,3.6c-1.5,1.2-2.6,2.7-4.4,3.6c-0.8,0.4-1.6-0.8-0.7-1.3
					c1.6-0.8,2.8-2.2,4.1-3.4c1.4-1.3,3-2.3,4.4-3.6C76.8,168.7,77.9,169.7,77.2,170.4L77.2,170.4z"/>
			</g>
		</g>
		<g>
			<g>
				<path class="st2" d="M82.9,183.6c-0.2-3.3,0-6.6,0.8-9.8c0.2-0.9,1.6-0.5,1.4,0.4c-0.7,3.1-0.9,6.3-0.7,9.4
					C84.4,184.5,82.9,184.5,82.9,183.6L82.9,183.6z"/>
			</g>
		</g>
		<g>
			<g>
				<path class="st2" d="M233.3,168.1c-3-0.9-5.9-2.3-9-3c-0.9-0.2-0.5-1.6,0.4-1.4c3.1,0.6,6,2,9,3
					C234.6,167,234.2,168.4,233.3,168.1L233.3,168.1z"/>
			</g>
		</g>
		<g>
			<g>
				<path class="st2" d="M234.7,155.5c-3.3-0.2-6.4,1.3-9.6,2c-0.9,0.2-1.3-1.2-0.4-1.4c3.3-0.8,6.5-2.3,10-2.1
					C235.6,154,235.6,155.5,234.7,155.5L234.7,155.5z"/>
			</g>
		</g>
		<g>
			<g>
				<path class="st2" d="M228.9,143.2c-1.2,1.1-2.2,2.2-3.3,3.4c-1.1,1.1-2,2.4-3.2,3.4c-0.7,0.6-1.8-0.4-1-1c1.1-0.9,1.9-2,2.9-3
					c1.2-1.2,2.3-2.5,3.6-3.7C228.5,141.6,229.6,142.6,228.9,143.2L228.9,143.2z"/>
			</g>
		</g>
		<g>
			<g>
				<path class="st2" d="M264.2,167.3c0,0.2-0.1,0.4-0.3,0.4c-0.1,0-0.1,0-0.2,0c-0.1,0-0.2,0-0.2-0.1c-0.1-0.1-0.1-0.2,0-0.3
					c0,0,0.1-0.1,0.1-0.1c0,0,0.1,0,0.2,0c0,0,0.1,0,0.1,0c0.1,0,0,0,0,0c0-0.1,0.1-0.3,0.2-0.3
					C264.2,167.1,264.2,167.2,264.2,167.3L264.2,167.3z"/>
			</g>
		</g>
		<g>
			<g>
				<path class="st7" d="M258.3,171.8c1.4,0,2.9,0,4.4-0.1c2.5-0.1,5.2-0.4,5.9-2.3c0.7-2-0.8-4.2-2.6-5.2c-0.8-0.4-1.7-0.7-2.6-1
					c-1-0.3-2.1-0.5-3.3-0.7c-1.9-0.3-3.9-0.5-5.9-0.6c-1.7-0.1-3.4-0.3-5.1-0.5c-0.5-0.1-1.1-0.2-1.6-0.2c-1.3-0.2-2.7-0.4-4-0.4
					c-0.3,0-0.6,0-0.9,0c-1.8,0.1-2.9,0.7-3.6,1.8c-0.3,0.6-0.6,1.4-0.8,2.6c-0.3,1.6,0.1,3,0.9,3.9c0.8,0.9,1.9,1.1,3.1,1.3
					l0.4,0.1c1.2,0.2,2.4,0.4,3.6,0.5c0.4,0.1,0.8,0.1,1.2,0.2C250.8,171.6,254.3,171.8,258.3,171.8L258.3,171.8z"/>
			</g>
			<g>
				<path class="st2" d="M243.4,161.3c1.3,0,2.5,0.2,3.9,0.4c0.5,0.1,1.1,0.2,1.6,0.3c1.7,0.2,3.5,0.4,5.2,0.5
					c1.9,0.2,3.9,0.3,5.8,0.6c1.2,0.2,2.3,0.4,3.3,0.7c0.9,0.3,1.8,0.6,2.5,1c1.6,0.8,2.9,2.7,2.3,4.4l0,0l0,0
					c-0.6,1.7-3.6,1.8-5.3,1.9c-1.5,0.1-3,0.1-4.4,0.1c-3.9,0-7.5-0.2-10.9-0.7c-0.4-0.1-0.8-0.1-1.2-0.2c-1.2-0.2-2.4-0.3-3.6-0.5
					c-0.1,0-0.2,0-0.4-0.1c-1.3-0.2-2.1-0.4-2.7-1.1c-0.7-0.8-1-2.1-0.8-3.4c0.2-1.4,0.5-2.1,0.7-2.4c0.5-0.9,1.6-1.4,3.1-1.5
					C242.8,161.3,243.1,161.3,243.4,161.3 M243.4,160.1c-0.3,0-0.6,0-0.9,0c-1.7,0.1-3.2,0.7-4.1,2.1c-0.5,0.8-0.7,1.9-0.9,2.8
					c-0.3,1.6,0,3.3,1.1,4.5c1,1.1,2.4,1.3,3.8,1.5c1.6,0.3,3.3,0.5,4.9,0.7c3.7,0.5,7.3,0.7,11,0.7c1.5,0,3,0,4.4-0.1
					c2.1-0.1,5.6-0.2,6.4-2.7c0.8-2.4-0.8-4.9-2.9-5.9c-0.9-0.4-1.8-0.8-2.7-1.1c-1.1-0.3-2.3-0.6-3.4-0.8c-3.6-0.6-7.3-0.6-11-1.1
					C247.2,160.5,245.3,160.1,243.4,160.1L243.4,160.1z"/>
			</g>
		</g>
		<g>
			<g>
				<path class="st3" d="M145.9,155c1,0,2,0,3-0.1l0,0c1.7,0,3.3-0.4,3.5-0.8l0.3-2.1c1.1-13.6,0.8-26.2,0.5-38.5
					c-0.1-4.4-0.2-8.9-0.3-13.4c0-0.4,0-0.9,0-1.3c0-4.1,0-8.4-1.1-12.1c-0.8-3-2.8-3.6-6-3.6c-0.5,0-1,0-1.6,0c-0.5,0-1.1,0-1.7,0
					c-1.6,0-3.2,0-4.9,0.1c-1.7,0-3.4,0.1-5.2,0.1c-0.5,0-1.1,0-1.7,0c-0.8,0-1.7-0.1-2.5-0.1c-2.2,0-3.7,0.2-4.5,0.7
					c-1.1,0.7-2.9,3.4-2.3,13.4c0.2,5,0,10.8-0.1,16l0,0.9c-0.2,5.8-0.2,10.4-0.2,15.3c0,3.4,0,6.9-0.1,11c0,1-0.1,2.1-0.2,3.3
					c-0.2,2.5-0.5,5,0.1,7c0.8,3.2,4,3.5,7.6,3.5l0.8,0c2.9,0,5.7,0.2,8.5,0.3C140.3,154.9,143.1,155,145.9,155z"/>
			</g>
			<g>
				<path class="st2" d="M145.8,82.5v1.2c3,0,4.7,0.5,5.4,3.1l0,0l0,0c1.1,3.7,1.1,7.9,1.1,11.9c0,0.5,0,0.9,0,1.3
					c0,4.5,0.2,9.1,0.3,13.5c0.3,12.2,0.6,24.9-0.5,38.4l-0.3,1.8c-0.4,0.2-1.7,0.5-2.9,0.5h0l0,0c-1,0-1.9,0.1-3,0.1
					c-2.8,0-5.5-0.2-8.2-0.3c-2.8-0.2-5.6-0.3-8.5-0.3l-0.4,0h-0.4c-4.1,0-6.4-0.5-7-3l0,0l0,0c-0.5-1.9-0.3-4.4,0-6.8
					c0.1-1.2,0.2-2.3,0.2-3.4c0.1-4,0.1-7.6,0.1-11c0-4.9,0.1-9.5,0.2-15.2l0-0.9c0.1-5.2,0.3-11,0.1-16v0l0,0
					c-0.5-10.3,1.4-12.4,2-12.9c0.7-0.4,2.1-0.6,4.2-0.6c0.9,0,1.7,0,2.5,0.1c0.6,0,1.2,0,1.8,0c1.8,0,3.5,0,5.2-0.1
					c1.7,0,3.3-0.1,4.9-0.1c0.6,0,1.1,0,1.7,0c0.5,0,1,0,1.6,0V82.5 M145.8,82.5c-1,0-2.1,0.1-3.2,0.1c-3.3,0-6.6,0.2-10,0.2
					c-1.1,0-2.7-0.1-4.2-0.1c-1.9,0-3.7,0.1-4.8,0.8c-3.1,2-2.8,10.9-2.6,14c0.2,5.3,0,11.6-0.2,16.9c-0.3,9.9-0.2,16.5-0.3,26.2
					c-0.1,3.1-1,7.4-0.2,10.5c0.9,3.8,4.9,4,8.2,4c0.3,0,0.5,0,0.8,0c5.7,0,11.1,0.7,16.7,0.7c1,0,2,0,3-0.1c1.2,0,3.9-0.3,4.1-1.3
					l0.3-2.1c1.6-18.5,0.4-35,0.2-52c0-4.4,0.2-9.4-1.2-13.7C151.5,83,148.9,82.5,145.8,82.5L145.8,82.5z"/>
			</g>
		</g>
		<g>
			<path class="st2" d="M147.1,119.2c0-1.9,0-3.9,0.1-5.8c0-0.3,0.2-0.6,0.5-0.7c0.6-0.2,1.1-0.3,1.7-0.3c0.3,0,0.6,0,0.8-0.1
				c0.1,0,0.1,0,0.2,0c0.4,0,0.8,0.3,0.9,0.8c0,0.4-0.2,0.8-0.7,0.9c-0.2,0-0.4,0-0.6,0c-0.3,0-0.8,0-1.1,0.1
				c-0.1,1.2-0.1,2.4-0.1,3.7c0,0.5,0,0.9,0,1.4c0,1.6,0,3.3-0.1,5c0.5,0,1,0.1,1.5,0.2c0.4,0.1,0.7,0.5,0.6,0.9
				c-0.1,0.5-0.4,0.8-0.9,0.8c-0.1,0-0.1,0-0.2,0c-0.6-0.1-1.1-0.1-1.7-0.2c-0.1,0-0.2,0-0.3,0c-0.2,0-0.4-0.1-0.6-0.3
				c-0.2-0.2-0.2-0.4-0.2-0.6C147.1,123,147.1,121.1,147.1,119.2z"/>
		</g>
		<g>
			<g>
				<path class="st2" d="M254.6,90.4c1.4,0,2.8,0.1,4.1,0.1c0.5,0,0.9,0,1.4,0c0,0,3.3,7.1,4.9,14.5c1.5,7.4,2.3,17.3,2.3,17.3
					c-0.5,0-2.1,0-2.3,0c-1.5,0-3,0-4.4-0.2c-3.6-0.2-7.9-0.2-10.9-2.6c-3.6-2.8-3.3-8.6-3.6-12.8c-0.3-3.6-1-9,0.8-12.5
					C248.6,90.9,251.5,90.4,254.6,90.4z"/>
			</g>
			<g>
				<path class="st2" d="M213.3,91.5c1.1-1.2,3.8-1.5,6.4-1.5c1.9,0,3.7,0.2,4.8,0.2c1.9,0,3.8,0.2,5.6,0.2c0.5,0,1.1,0,1.6-0.1
					c0.3,0,0.6,0,1,0c1.7,0,3.9,0.3,5.1,1c2.8,1.6,1.8,8.6,2,11.8c0.2,3.6,1.2,9.4-0.7,12.8c-1.8,3.4-6,4-9.6,4c-0.7,0-1.4,0-2.1,0
					c-3.6-0.3-7.9-0.5-11.3-2c-4.4-1.8-3.1-9-3.1-13.3C213,101.8,211.5,93.6,213.3,91.5z"/>
			</g>
			<g>
				<path class="st2" d="M159.5,90.7c2.1-1.5,7.4-1.2,9.9-1.3c0.6,0,1.2-0.1,1.8-0.1c3,0,6.1,0.5,9,0.5c0.3,0,0.6,0,0.9,0
					c2.4-0.1,4.8-0.2,7.2-0.2c2.9,0,5.8,0.1,8.7,0.4l3.7,0.4c3.1,0.3,4.4,0,4.6,3.6c0.3,5.3,0.3,10.2,0,15.5
					c-0.5,4.8,0.3,9.5-5.6,9.9c-0.9,0-1.8,0-2.7,0c-3.6,0-7.3-0.2-10.8-0.2c-3.3,0-6.8-0.3-10.1-0.3c-1.1,0-2.2,0-3.4,0.1
					c-1.3,0.1-2.8,0.2-4.3,0.2c-3.2,0-6.3-0.5-7.9-3.5c-2.1-3.9-1.5-10.2-1.8-14.5C158.5,98.4,157.4,92.1,159.5,90.7z"/>
			</g>
		</g>
		<g>
			<g>
				<path class="st4" d="M266.6,118.7c-0.2-2.3-1-10.4-2.3-16.5c-1.3-6.3-4-12.4-4.7-14c-0.3,0-0.6,0-1,0c-0.7,0-1.4,0-2.1,0
					c-0.7,0-1.4,0-2.1,0c-3.2,0-5.7,0.6-7.1,3.3c-1.6,3.1-1.2,7.9-0.8,11.4l0.1,0.7c0.1,0.7,0.1,1.3,0.1,2.1
					c0.2,3.8,0.4,8.1,3.3,10.3c2.6,2.2,6.4,2.3,9.7,2.5c0.3,0,0.8,0,0.8,0l0,0c1.4,0.2,2.9,0.2,4.4,0.2H266.6z"/>
			</g>
			<g>
				<path class="st2" d="M254.6,88.7c0.7,0,1.4,0,2.1,0c0.7,0,1.4,0,2.1,0c0.2,0,0.4,0,0.6,0c0.9,2,3.3,7.7,4.5,13.5
					c1.2,5.6,1.9,12.9,2.2,15.8h-1c-1.5,0-2.9,0-4.3-0.2l0,0l0,0c-0.3,0-0.5,0-0.8,0c-3.2-0.1-6.9-0.3-9.3-2.3l0,0l0,0
					c-2.6-2-2.8-6.2-3-9.9c0-0.7-0.1-1.4-0.1-2.1v0v0c0-0.2,0-0.5-0.1-0.7c-0.3-3.5-0.8-8.2,0.8-11.1
					C249.3,89.2,251.5,88.7,254.6,88.7L254.6,88.7 M254.6,87.5c-3.1,0-6,0.5-7.7,3.7c-1.8,3.5-1.2,8.9-0.8,12.5
					c0.3,4.3,0,10,3.6,12.8c3,2.5,7.2,2.5,10.9,2.6c1.5,0.2,3,0.2,4.4,0.2c0.2,0,1.8,0,2.3,0c0,0-0.8-9.9-2.3-17.3
					c-1.5-7.4-4.9-14.5-4.9-14.5c-0.4,0-0.9,0-1.4,0C257.4,87.6,256,87.5,254.6,87.5L254.6,87.5z M267.3,119.3c0.1,0,0.2,0,0.2,0
					S267.4,119.3,267.3,119.3L267.3,119.3z"/>
			</g>
		</g>
		<g>
			<g>
				<path class="st4" d="M229.5,116.4c3.1,0,7.3-0.4,9-3.7c1.4-2.6,1-6.8,0.8-10.1c-0.1-0.9-0.1-1.7-0.2-2.4c0-0.8,0-1.7,0-2.7
					c0.1-3.2,0.2-7.5-1.7-8.6c-1.2-0.6-3.3-0.9-4.8-0.9c-0.3,0-0.6,0-0.9,0c-0.5,0-1.1,0.1-1.6,0.1c-1,0-1.9-0.1-2.9-0.1
					c-0.9-0.1-1.9-0.1-2.8-0.1l0,0c-0.2,0-0.5,0-0.7,0c-1.1-0.1-2.5-0.2-4-0.2c-3.9,0-5.4,0.7-6,1.3c-1.2,1.4-0.7,6.3-0.4,9.6
					c0.1,1.3,0.2,2.4,0.2,3.2s0,1.6-0.1,2.5c-0.2,4-0.4,8.9,2.8,10.2c2.9,1.2,6.5,1.5,9.7,1.8c0.5,0,1,0.1,1.5,0.1
					C228,116.4,228.8,116.4,229.5,116.4z"/>
			</g>
			<g>
				<path class="st2" d="M219.7,88.2c1.5,0,2.9,0.1,4,0.2c0.3,0,0.5,0,0.7,0l0,0h0c0.9,0,1.8,0.1,2.7,0.1c0.9,0.1,1.9,0.1,2.9,0.1
					c0.6,0,1.2,0,1.7-0.1c0.3,0,0.6,0,0.9,0c1.7,0,3.6,0.4,4.5,0.9c1.5,0.9,1.4,5.2,1.4,8.1c0,1,0,2,0,2.8c0,0.7,0.1,1.6,0.2,2.4
					c0.3,3.3,0.6,7.3-0.7,9.8c-1.2,2.3-3.9,3.3-8.5,3.3c-0.7,0-1.5,0-2,0c-0.5,0-1-0.1-1.5-0.1c-3.1-0.3-6.7-0.5-9.4-1.7l0,0l0,0
					c-1.2-0.5-2-1.6-2.3-3.5c-0.3-1.9-0.2-4.1-0.1-6.1c0-0.9,0.1-1.8,0.1-2.5c0-0.8-0.1-1.9-0.2-3.3c-0.2-1.8-0.4-3.8-0.3-5.6
					c0-2.4,0.4-3.2,0.6-3.5C214.7,88.9,215.9,88.2,219.7,88.2 M219.7,87c-2.6,0-5.3,0.3-6.4,1.5c-1.8,2.1-0.3,10.4-0.3,13.2
					c0,4.3-1.3,11.5,3.1,13.3c3.5,1.5,7.7,1.6,11.3,2c0.7,0,1.4,0.1,2.1,0.1c3.6,0,7.8-0.6,9.6-4c1.8-3.5,0.8-9.2,0.7-12.8
					c-0.2-3.3,0.8-10.2-2-11.8c-1.2-0.7-3.4-1-5.1-1c-0.3,0-0.7,0-1,0c-0.5,0-1.1,0.1-1.6,0.1c-1.9,0-3.8-0.2-5.6-0.2
					C223.4,87.1,221.6,87,219.7,87L219.7,87z"/>
			</g>
		</g>
		<g>
			<g>
				<path class="st4" d="M197.1,115.7c1,0,1.8,0,2.7,0c4.4-0.2,4.6-3.1,4.8-7c0-0.7,0.1-1.5,0.2-2.3c0.3-5.2,0.3-10.1,0-15.4
					c-0.1-2.7-0.7-2.7-3.1-3c-0.3,0-0.6-0.1-1-0.1l-3.7-0.4c-2.8-0.3-5.6-0.4-8.7-0.4c-2.3,0-4.7,0.1-7.2,0.2c-0.3,0-0.6,0-1,0
					c-1.5,0-3-0.1-4.5-0.3c-1.5-0.1-3-0.3-4.5-0.3c-0.6,0-1.2,0-1.7,0.1c-0.6,0-1.3,0.1-2.1,0.1c-2.5,0-6,0.1-7.5,1.1
					c-1.6,1.1-0.9,6.1-0.5,8.8c0.1,0.4,0.1,0.8,0.1,1.2l0,0c0.1,1.1,0.1,2.4,0.1,3.8c0.1,3.6,0.1,7.7,1.6,10.5
					c1.5,2.8,4.7,3.1,7.4,3.1c1,0,2-0.1,2.9-0.1c0.5,0,0.9,0,1.3-0.1c1-0.1,2.1-0.1,3.4-0.1c1.7,0,3.4,0.1,5.1,0.1
					c1.7,0.1,3.4,0.1,5,0.1c1.8,0,3.6,0.1,5.4,0.1C193.5,115.7,195.3,115.7,197.1,115.7z"/>
			</g>
			<g>
				<path class="st2" d="M171.1,87.5c1.4,0,3,0.1,4.4,0.3c1.5,0.1,3.1,0.3,4.6,0.3c0.3,0,0.7,0,1,0l0,0h0c2.5-0.2,4.9-0.2,7.2-0.2
					c3,0,5.8,0.1,8.6,0.4l3.7,0.4c0.4,0,0.7,0.1,1,0.1c0.9,0.1,1.7,0.2,2,0.4c0.3,0.2,0.4,0.9,0.5,2v0l0,0c0.3,5.2,0.3,10.1,0,15.3
					c-0.1,0.8-0.1,1.5-0.2,2.3c-0.3,4.2-0.5,6.3-4.3,6.5c-0.8,0-1.7,0-2.6,0c-1.8,0-3.6-0.1-5.4-0.1c-1.8-0.1-3.6-0.1-5.4-0.1
					c-1.6,0-3.3-0.1-5-0.1c-1.7-0.1-3.4-0.1-5.2-0.1c-1.3,0-2.4,0-3.4,0.1c-0.4,0-0.9,0-1.3,0.1c-0.9,0.1-1.9,0.1-2.9,0.1
					c-3.7,0-5.8-0.8-6.8-2.8c-1.4-2.6-1.5-6.6-1.5-10.2c0-1.4,0-2.6-0.1-3.8l0,0l0,0c0-0.3-0.1-0.7-0.1-1.2
					c-0.2-1.5-0.5-3.5-0.4-5.2c0-2.4,0.6-2.9,0.7-3c1.3-0.9,4.8-1,7.2-1c0.8,0,1.5,0,2.1-0.1l0,0l0,0
					C170,87.6,170.6,87.5,171.1,87.5 M171.1,86.3c-0.6,0-1.2,0-1.8,0.1c-2.5,0.2-7.7-0.2-9.9,1.3c-2.1,1.5-1,7.7-0.7,10.5
					c0.3,4.3-0.3,10.5,1.8,14.5c1.6,2.9,4.7,3.5,7.9,3.5c1.5,0,3-0.1,4.3-0.2c1.1-0.1,2.2-0.1,3.4-0.1c3.4,0,6.8,0.3,10.1,0.3
					c3.6,0,7.2,0.2,10.8,0.2c0.9,0,1.8,0,2.7,0c5.9-0.3,5.1-5.1,5.6-9.9c0.3-5.3,0.3-10.2,0-15.5c-0.2-3.6-1.5-3.3-4.6-3.6l-3.7-0.4
					c-2.9-0.3-5.8-0.4-8.7-0.4c-2.4,0-4.8,0.1-7.2,0.2c-0.3,0-0.6,0-0.9,0C177.2,86.8,174.1,86.3,171.1,86.3L171.1,86.3z"/>
			</g>
		</g>
		<g>
			<g>
				<path class="st10" d="M246.2,106.1c0-0.8-0.1-1.7-0.1-2.5c-0.3-3.6-1-9,0.8-12.5c1.6-3.2,4.6-3.7,7.7-3.7c1.4,0,2.8,0.1,4.1,0.1
					c0.5,0,0.9,0,1.4,0c0,0,0.2,0.4,0.5,1.2c-3.6,0.4-6.7,2.3-8.6,5.6c-1.4,2.4-2.4,5.1-2.5,7.9c-0.1,2.6,0.5,5.3,1.5,7.7
					c0.8,2,2.1,3.9,4.1,4.9c1.9,0.9,3.9,1.3,6,1.2c1.9-0.1,4-0.4,5.9-1.1c0.3,2.6,0.4,4.3,0.4,4.3H265c-1.5,0-3,0-4.4-0.2
					c-3.6-0.2-7.9-0.2-10.9-2.6c-2.5-1.9-3.1-5.2-3.4-8.5C246.8,107.4,246.6,106.6,246.2,106.1z"/>
			</g>
			<g>
				<path class="st10" d="M213.3,88.5c1.1-1.2,3.8-1.5,6.4-1.5c1.9,0,3.7,0.2,4.8,0.2c1.9,0,3.8,0.2,5.6,0.2c0.5,0,1.1,0,1.6-0.1
					c0.3,0,0.6,0,1,0c1.7,0,3.9,0.3,5.1,1c0.6,0.4,1,1,1.3,1.7c-2.8-0.2-5.5-0.6-8.3-0.5c-2.9,0.1-6.2,0.8-8.2,3.1
					c-3.4,4-5,11.2-1.5,15.7c2.9,3.8,8.7,4.1,13,3.9c1.7-0.1,3.7-0.2,5.5-0.6c-0.1,0.5-0.3,0.9-0.5,1.3c-1.8,3.4-6,4-9.6,4
					c-0.7,0-1.4,0-2.1-0.1c-3.6-0.3-7.9-0.5-11.3-2c-4.4-1.8-3.1-9-3.1-13.3C213,98.9,211.5,90.7,213.3,88.5z"/>
			</g>
			<g>
				<path class="st10" d="M159.5,87.7c2.1-1.5,7.4-1.2,9.9-1.3c0.6,0,1.2-0.1,1.8-0.1c3,0,6.1,0.5,9,0.5c0.3,0,0.6,0,0.9,0
					c2.4-0.1,4.8-0.2,7.2-0.2c2.9,0,5.8,0.1,8.7,0.4l3.7,0.4c3,0.3,4.3,0,4.6,3.2c-6.4-0.3-12.8-0.1-19.2,0.4
					c-4.1,0.3-8.5,0.6-12.2,2.6c-5.1,2.8-10.1,12-4.5,16.7c2.5,2.1,5.8,2.9,9,3.3c3.8,0.5,7.7,0.4,11.5,0c3.8-0.4,7.5-1,11.2-1.9
					c1.3-0.3,2.6-0.7,3.9-1.2c-0.3,3.2-1.1,5.7-5.3,5.9c-0.9,0-1.8,0-2.7,0c-3.6,0-7.3-0.2-10.8-0.2c-3.3,0-6.8-0.3-10.1-0.3
					c-1.1,0-2.2,0-3.4,0.1c-1.3,0.1-2.8,0.2-4.3,0.2c-3.2,0-6.3-0.5-7.9-3.5c-2.1-3.9-1.5-10.2-1.8-14.5
					C158.5,95.4,157.4,89.2,159.5,87.7z"/>
			</g>
		</g>
		<g>
			<g>
				<path class="st3" d="M120.4,140.5c0.2-9.7,0.1-16.3,0.3-26.2c0.1-5.3,0.3-11.6,0.2-16.9c-0.2-3.1-0.5-12,2.6-14
					c1.1-0.6,2.9-0.8,4.8-0.8c1.6,0,3.2,0.1,4.2,0.1c3.5,0,6.7-0.2,10-0.2c1.1,0,2.2-0.1,3.2-0.1v0.6l0,0v-0.6l0,0
					c3,0,5.7,0.5,6.6,4c0.1,0.2,0.1,0.4,0.2,0.6c-3.9-1.2-8-1.6-12-1.2c-3.3,0.3-6.9,0.9-10,2.1c-2.8,1.1-5.4,2.7-6.7,5.6
					c-1.3,2.9-1.1,6.3-1.1,9.5c0,3.6,0,7.2,0.4,10.8c0.4,3.8,1,7.6,1.8,11.3c0.7,3.5,1.2,7.1,1.9,10.6c0.7,3.1,1.6,6.3,4.1,8.4
					c4.1,3.4,10.4,4,15.6,3.8c2.3-0.1,4.8-0.3,7.2-0.7c-0.1,1.6-0.2,3.2-0.4,4.8l-0.3,2.1c-0.2,1-3,1.3-4.1,1.3c-1,0.1-2,0.1-3,0.1
					c-5.6,0-11-0.7-16.7-0.7c-0.3,0-0.5,0-0.8,0c-3.3,0-7.3-0.1-8.2-4C119.4,147.9,120.3,143.6,120.4,140.5z"/>
			</g>
			<g>
				<polygon class="st3" points="145.8,82.5 145.8,82.5 145.8,82.5 				"/>
			</g>
		</g>
		<g>
			<g>
				<path class="st4" d="M145.9,154.9c1,0,2,0,3-0.1h0c1.7,0,3.3-0.4,3.5-0.8l0.3-2.1c0-0.6,0.1-1.1,0.1-1.7
					c-2.3,0.5-4.9,0.8-8.1,1.2c-2.9,0.3-5.7,0.5-8.4,0.5c-1.6,0-3.3-0.1-4.9-0.2c-3.5-0.3-7.1-0.8-10.8-1.6c0,0.2,0.1,0.4,0.1,0.6
					c0.8,3.2,4,3.5,7.6,3.5h0.8c2.9,0,5.7,0.2,8.5,0.3C140.3,154.8,143.1,154.9,145.9,154.9z"/>
			</g>
			<g>
				<path class="st2" d="M121.5,151c3.4,0.7,6.7,1.2,9.9,1.4c1.6,0.1,3.3,0.2,4.9,0.2c2.8,0,5.5-0.2,8.5-0.5
					c2.9-0.3,5.2-0.7,7.3-1.1c0,0.3,0,0.6-0.1,0.9l-0.3,1.8c-0.4,0.2-1.7,0.5-2.9,0.5h0l0,0c-1,0-1.9,0.1-3,0.1
					c-2.8,0-5.5-0.2-8.2-0.3c-2.8-0.2-5.6-0.3-8.5-0.3h-0.4h-0.4C124.6,153.6,122.3,153.2,121.5,151 M120,149.4
					c0.1,0.5,0.1,1,0.3,1.5c0.9,3.8,4.9,4,8.2,4c0.3,0,0.5,0,0.8,0c5.7,0,11.1,0.7,16.7,0.7c1,0,2,0,3-0.1c1.2,0,3.9-0.3,4.1-1.3
					l0.3-2.1c0.1-0.9,0.1-1.7,0.2-2.5c-2.9,0.6-5.9,1-8.8,1.4c-2.8,0.3-5.6,0.5-8.4,0.5c-1.6,0-3.2-0.1-4.8-0.2
					C127.6,150.9,123.8,150.3,120,149.4L120,149.4z"/>
			</g>
		</g>
		<g>
			<g>
				<path class="st4" d="M143.5,107.9c2.3,0,4.6-0.2,5.5-1.7c0.6-1,0.6-2.4,0.6-3.6v-0.1c0-1-0.1-2-0.2-3c0-0.5-0.1-0.9-0.1-1.4
					c0-0.5,0-1.1,0-1.8c0.1-2.1,0.1-4.5-1.6-5.2c-1.3-0.5-2.9-0.6-4.3-0.6c-0.4,0-0.8,0-1.1,0c-0.2,0-0.4,0-0.6,0
					c-0.2,0-0.4,0-0.6,0c-1.4,0-2.8,0-4.2-0.1c-1.4,0-2.8-0.1-4.2-0.1c-1.4,0-2.6,0-3.7,0.1c-1.2,0.1-2.5,0.3-3.4,1.1
					c-0.8,0.7-0.9,2.1-1,3.3c0,0.6,0,1.3,0,1.9c0,0.5,0,1,0,1.5c0,0.7-0.1,1.4-0.2,2c-0.1,0.5-0.1,0.9-0.1,1.4
					c-0.2,2.5-0.1,4.8,1.7,5.5c1.3,0.5,2.8,0.5,4.1,0.5l0,0c0.2,0,0.5,0,0.7,0l0.2,0c1,0,2,0,3-0.1c0.8,0,1.7-0.1,2.6-0.1
					c0.1,0,0.3,0,0.4,0c1.1,0,2.2,0.1,3.3,0.1c1,0.1,2.1,0.1,3.1,0.1L143.5,107.9z"/>
			</g>
			<g>
				<g>
					<path class="st2" d="M132.6,91c1.4,0,2.8,0,4.2,0.1c1.4,0,2.8,0.1,4.2,0.1c0.2,0,0.4,0,0.6,0c0.2,0,0.4,0,0.6,0
						c0.4,0,0.7,0,1.1,0c1.4,0,2.9,0.1,4.1,0.5c1.2,0.5,1.3,2.2,1.2,4.6c0,0.7,0,1.3,0,1.8c0,0.5,0.1,0.9,0.1,1.4c0.1,1,0.2,2,0.2,3
						v0.1c0,1.2,0,2.5-0.5,3.3c-0.8,1.2-2.9,1.4-4.9,1.4h-0.2c-1,0-2-0.1-3.1-0.1c-1.1-0.1-2.2-0.1-3.3-0.1c-0.1,0-0.3,0-0.4,0
						c-0.9,0-1.7,0.1-2.6,0.1c-1,0-2,0.1-3,0.1l-0.2,0c-0.2,0-0.4,0-0.7,0c-1.3,0-2.7,0-3.9-0.5c-1.5-0.5-1.5-2.7-1.3-4.9
						c0-0.5,0.1-0.9,0.1-1.4c0.1-0.7,0.2-1.4,0.2-2.1c0-0.5,0-1,0-1.6c0-0.7,0-1.3,0-1.9c0.1-0.9,0.1-2.3,0.8-2.9
						c0.7-0.7,2-0.9,3-0.9C130,91,131.2,91,132.6,91 M132.6,89.8c-1.2,0-2.5,0-3.7,0.1c-1.3,0.1-2.8,0.3-3.8,1.3
						c-0.9,0.9-1.1,2.5-1.2,3.7c-0.1,1.2,0,2.3-0.1,3.5c0,1.1-0.2,2.3-0.3,3.4c-0.2,2.1-0.3,5.3,2.1,6.1c1.3,0.5,2.9,0.5,4.3,0.5
						c0.3,0,0.6,0,0.9,0c1.8,0,3.7-0.2,5.5-0.2c0.1,0,0.3,0,0.4,0c2.1,0,4.2,0.3,6.4,0.3c0.1,0,0.2,0,0.2,0c2,0,4.9-0.1,6-2
						c0.7-1.2,0.7-2.7,0.7-4c0-1.5-0.2-3-0.3-4.5c-0.1-2.3,0.8-6.4-2-7.5c-1.4-0.5-3-0.6-4.6-0.6c-0.6,0-1.2,0-1.8,0
						c-0.2,0-0.4,0-0.6,0C138.2,89.9,135.4,89.8,132.6,89.8L132.6,89.8z"/>
				</g>
			</g>
		</g>
		<g>
			<path class="st10" d="M123.6,101.8c0.1-1.1,0.3-2.3,0.3-3.4c0-1.2,0-2.3,0.1-3.5c0.1-1.2,0.2-2.8,1.2-3.7c1-0.9,2.5-1.2,3.8-1.3
				c1.2-0.1,2.5-0.1,3.7-0.1c2.8,0,5.6,0.2,8.4,0.2c0.2,0,0.4,0,0.6,0c0.6,0,1.2,0,1.8,0c1.6,0,3.2,0.1,4.6,0.6
				c1.2,0.5,1.7,1.5,1.9,2.7c-0.1,0-0.1,0-0.2,0c-3.4-1-7-2.2-10.6-1.8c-2.8,0.3-5.4,1.2-7.6,2.9c-1.9,1.5-3.8,3.9-2.9,6.5
				c0.6,1.6,2,2.8,3.5,3.5c3.9,1.7,8.5,2,12.7,1.9c1.6,0,3.4-0.1,5.1-0.3c-0.1,0.2-0.2,0.4-0.3,0.6c-1.1,1.9-4,2-6,2
				c-0.1,0-0.2,0-0.2,0c-2.1,0-4.2-0.3-6.4-0.3c-0.1,0-0.3,0-0.4,0c-1.8,0-3.7,0.2-5.5,0.2c-0.3,0-0.6,0-0.9,0c-1.4,0-3-0.1-4.3-0.5
				C123.3,107,123.4,103.9,123.6,101.8z"/>
		</g>
		<g>
			<g>
				<path class="st2" d="M261.3,128.2c-4.6,0-9.2-0.8-13.9-0.8c-4.9,0-9.6,0.8-14.5,0.2c-0.9-0.1-0.5-1.6,0.4-1.4
					c4.7,0.6,9.4-0.2,14.1-0.2c4.6-0.1,9.2,0.8,13.9,0.8C262.3,126.8,262.3,128.3,261.3,128.2L261.3,128.2z"/>
			</g>
		</g>
		<g>
			<g>
				<path class="st2" d="M220.9,126.9c-5.3,0.5-10.6,0.7-15.8,0.7c-5.5,0-10.9-0.5-16.4-0.6c-5.4-0.1-10.8,0.2-16.2,0.1
					c-2.5-0.1-5-0.1-7.4-0.6c-2.2-0.4-4.6-1.3-6.9-0.8c-0.9,0.2-1.3-1.2-0.4-1.4c2-0.5,4.1,0,6.1,0.5c2.5,0.6,5.1,0.8,7.6,0.9
					c5.4,0.2,10.8-0.1,16.2-0.1c5.5,0,10.9,0.6,16.4,0.6c5.6,0,11.2-0.2,16.8-0.7C221.8,125.4,221.8,126.8,220.9,126.9L220.9,126.9z
					"/>
			</g>
		</g>
		<g>
			<g>
				<path class="st2" d="M262.2,133.2c-7.7,0-15.3-1.4-22.9-1.5c-3.7-0.1-7.4,0-11.1-0.2c-3.5-0.2-6.9-1.5-10.4-1.4
					c-1,0-1-1.4,0-1.5c3.5-0.1,6.9,1.2,10.4,1.4c3.7,0.3,7.4,0.2,11.1,0.2c7.7,0.1,15.3,1.5,22.9,1.5
					C263.1,131.7,263.1,133.2,262.2,133.2L262.2,133.2z"/>
			</g>
		</g>
		<g>
			<g>
				<path class="st2" d="M211.7,131.2c-9,0.5-18.1,0-27.1-0.2c-4.5-0.1-9.1,0.2-13.6,0c-4-0.3-8.2-1.1-12.1-0.3
					c-0.9,0.2-1.3-1.2-0.4-1.4c3.8-0.8,7.8-0.1,11.6,0.2c4.6,0.4,9.3,0,13.9,0.1c9.2,0.1,18.4,0.7,27.6,0.2
					C212.6,129.7,212.6,131.2,211.7,131.2L211.7,131.2z"/>
			</g>
		</g>
		<g>
			<g>
				<path class="st2" d="M190.4,135.8c-7.4,0-14.8-0.2-22.2-0.8c-0.9-0.1-1-1.6,0-1.5c7.4,0.6,14.8,0.8,22.2,0.8
					C191.4,134.3,191.4,135.8,190.4,135.8L190.4,135.8z"/>
			</g>
		</g>
		<g>
			<g>
				<path class="st2" d="M260.7,136.5c-3.8,0-7.5-0.8-11.2-0.7c-3.6,0.1-7.2,1-10.8,1c-1,0-1-1.5,0-1.5c3.6,0,7.2-0.9,10.8-1
					c3.8-0.2,7.5,0.7,11.2,0.7C261.6,135,261.6,136.5,260.7,136.5L260.7,136.5z"/>
			</g>
		</g>
		<g>
			<path class="st10" d="M237.5,165c0.2-0.9,0.4-2,0.9-2.8c0.9-1.4,2.4-2,4.1-2.1c0.3,0,0.6,0,0.9,0c0.6,0,1.2,0,1.7,0.1
				c-2,1.5-3.7,3.9-2,6.3c1.1,1.7,3.5,2.7,5.4,3c2.7,0.5,5.2,0,7.9-0.1c4.3-0.2,8.6-0.2,12.9-0.3c0,0.2-0.1,0.3-0.1,0.5
				c-0.8,2.5-4.3,2.6-6.4,2.7c-1.5,0.1-3,0.1-4.4,0.1c-3.7,0-7.4-0.2-11-0.7c-1.6-0.2-3.3-0.4-4.9-0.7c-1.4-0.3-2.8-0.4-3.8-1.5
				C237.5,168.3,237.2,166.6,237.5,165z"/>
		</g>
		<g>
			<g>
				<path class="st4" d="M149.3,176.5c5,0,5.8-0.7,6-1v-0.9c0-3.1-0.3-6.1-0.6-9c-0.5-0.1-1.1-0.1-1.8-0.1c-0.8,0-1.7,0.1-2.5,0.1
					c-0.9,0.1-1.8,0.1-2.7,0.1c-0.3,0-0.6,0-0.8,0c-1.1-0.1-2.2-0.1-3.3-0.2c-1.8-0.1-3.6-0.3-5.3-0.3c-0.5,0-0.9,0-1.4,0
					c-1.8,0.1-3.4,0.1-5.1,0.1c-1.7,0-3.4,0-5.1-0.1c-0.4,0-0.9,0-1.4-0.1c-0.7-0.1-1.5-0.1-2.1-0.1c-0.8,0-1,0.1-1.1,0.1l0,0l0,0
					c-0.8,0.4-0.8,1.3-0.8,2.8c0,0.5,0,1,0,1.5c-0.1,1.1-0.2,2.2-0.4,3.3c-0.1,0.7-0.2,1.4-0.2,2.1c2.8,0,5.7,0.3,8.4,0.6
					c2.9,0.3,6,0.6,9,0.6c0.6,0,1.7,0.1,3.1,0.2C143.4,176.2,146.5,176.5,149.3,176.5z"/>
			</g>
			<g>
				<path class="st2" d="M123.1,165.5c0.6,0,1.4,0.1,2,0.1c0.6,0,1.1,0.1,1.5,0.1c1.8,0.1,3.4,0.1,5.1,0.1c1.7,0,3.4,0,5.2-0.1
					c0.4,0,0.9,0,1.3,0c1.7,0,3.5,0.1,5.3,0.3c1.1,0.1,2.2,0.2,3.3,0.2c0.3,0,0.6,0,0.9,0c0.9,0,1.8-0.1,2.7-0.1
					c0.9-0.1,1.7-0.1,2.5-0.1c0.5,0,0.9,0,1.3,0.1c0.3,2.8,0.6,5.6,0.6,8.5v0.7c-0.3,0.2-1.5,0.6-5.4,0.6c-2.7,0-5.9-0.2-8.1-0.4
					c-1.4-0.1-2.6-0.2-3.2-0.2c-3,0-6-0.3-8.9-0.6c-2.5-0.2-5.2-0.5-7.8-0.6c0.1-0.5,0.1-0.9,0.2-1.4c0.1-1.1,0.3-2.2,0.4-3.3
					c0-0.5,0-1,0-1.5c0-1.4,0-2,0.5-2.2l0,0l0,0C122.3,165.6,122.6,165.5,123.1,165.5 M123.1,164.3c-0.6,0-1.1,0.1-1.4,0.2
					c-1.6,0.8-1,3.1-1.2,4.8c-0.2,2.1-0.5,4.1-0.7,6.1c6.1,0,12,1.2,18.1,1.2c1.6,0,6.9,0.6,11.3,0.6c3.4,0,6.3-0.3,6.6-1.5v-1.1
					c0-3.3-0.3-6.4-0.7-9.5c-0.8-0.2-1.6-0.3-2.4-0.3c-1.7,0-3.5,0.3-5.2,0.3c-0.3,0-0.5,0-0.8,0c-2.8-0.1-5.8-0.5-8.6-0.5
					c-0.5,0-0.9,0-1.4,0c-1.7,0.1-3.4,0.1-5.1,0.1c-1.7,0-3.4,0-5.1-0.1C125.9,164.5,124.3,164.3,123.1,164.3L123.1,164.3z"/>
			</g>
		</g>
		<g>
			<g>
				<path class="st5" d="M149.3,176.5c5,0,5.8-0.7,6-1v-0.9c0-1,0-2-0.1-3c-2,0-4,0.1-6,0.1c-3.7,0.1-7.5,0.2-11.2,0.2
					c-1.4,0-2.7,0-3.9,0c-3.7-0.1-7.5-0.2-11.2-0.4l-2-0.1c-0.1,0.4-0.1,0.9-0.2,1.3c-0.1,0.7-0.2,1.4-0.2,2.1
					c2.8,0,5.7,0.3,8.4,0.6c2.9,0.3,6,0.6,9,0.6c0.6,0,1.7,0.1,3.1,0.2C143.4,176.2,146.5,176.5,149.3,176.5z"/>
			</g>
			<g>
				<g>
					<path class="st2" d="M121.5,172l1.4,0.1c3.7,0.1,7.5,0.3,11.2,0.4c1.3,0,2.5,0,3.9,0c3.8,0,7.6-0.1,11.2-0.2
						c1.8,0,3.6-0.1,5.4-0.1c0,0.8,0.1,1.6,0.1,2.4v0.7c-0.3,0.2-1.5,0.6-5.4,0.6c-2.7,0-5.9-0.2-8.1-0.4c-1.4-0.1-2.6-0.2-3.2-0.2
						c-3,0-6-0.3-8.9-0.6c-2.5-0.2-5.2-0.5-7.8-0.6c0.1-0.5,0.1-1,0.2-1.4C121.4,172.5,121.5,172.2,121.5,172 M120.4,170.7
						c-0.2,1.6-0.4,3.1-0.5,4.7c6.1,0,12,1.2,18.1,1.2c1.6,0,6.9,0.6,11.3,0.6c3.4,0,6.3-0.3,6.6-1.5v-1.1c0-1.2,0-2.4-0.1-3.6
						c-5.9,0.1-11.8,0.3-17.8,0.3c-1.3,0-2.6,0-3.9,0c-4.3-0.1-8.6-0.3-12.9-0.4C120.9,170.7,120.7,170.7,120.4,170.7L120.4,170.7z"
						/>
				</g>
			</g>
		</g>
		<g>
			<g>
				<path class="st2" d="M180.5,115.4c-0.2-9.3,0.7-18.5,0.7-27.8c0-1,1.5-1,1.5,0c0,9.3-1,18.5-0.7,27.8
					C182,116.3,180.6,116.3,180.5,115.4L180.5,115.4z"/>
			</g>
		</g>
		<g>
			<path class="st11" d="M263.9,100.8c-7.3-2.5-6.3,14.6-6.3,18.5h9.4c0,0-1.7-12.9-2-14.4C264.8,103.5,263.9,100.8,263.9,100.8z"/>
			<path class="st2" d="M257,119.3c0-0.3,0-0.8,0-1.3c-0.1-4.4-0.2-13.7,2.9-16.9c1.1-1.1,2.6-1.4,4.2-0.9l0.3,0.1l0.1,0.3
				c0,0.1,0.9,2.7,1.2,4.2c0.2,1.5,1.9,13.9,2,14.4l0.1,0.7H257V119.3z M264.5,105.1c-0.2-1.1-0.8-3-1-3.8c-1.1-0.3-1.9-0.1-2.7,0.7
				c-2.8,2.8-2.6,12.1-2.6,16c0,0.3,0,0.5,0,0.7h8.1C266,116,264.7,106.3,264.5,105.1z"/>
		</g>
		<g>
			<path class="st11" d="M260.5,100.4c-8.1-5.1-10.7,13.6-8.1,17.8l5.3,0.3c0,0-0.2-10.4,0.9-13.3c1.2-2.9,2.4-4.4,2.4-4.4
				L260.5,100.4z"/>
			<path class="st2" d="M252,118.8l-0.2-0.3c-1.7-2.8-1.4-11.3,1.3-16.2c1.2-2.2,2.9-3.4,4.7-3.4c1,0,2,0.3,3,1l1,0.8l-0.4,0.5
				c0,0-1.2,1.5-2.3,4.3c-1.1,2.7-0.9,12.9-0.9,13l0,0.7L252,118.8z M257.8,100.2c-1.4,0-2.6,0.9-3.6,2.8
				c-2.3,4.2-2.8,11.9-1.5,14.6l4.3,0.2c0-2.4-0.1-10.3,1-12.8c0.8-2,1.7-3.4,2.1-4.1C259.3,100.4,258.5,100.2,257.8,100.2z"/>
		</g>
		<g>
			<path class="st11" d="M195.8,116.4c1-4.1,0.6-8.5,2.3-12.5c1.6-3.8,3.2-2.6,6.5-2.7c0,0,0.7,7.4-0.5,11.5
				c-1.2,4.1-3.2,4.6-4.3,4.6c-1.1,0-4.2,0-4.2,0L195.8,116.4z"/>
			<path class="st2" d="M195.2,116.3L195.2,116.3c0.4-1.6,0.6-3.3,0.7-4.9c0.3-2.6,0.6-5.2,1.6-7.7c1.1-2.7,2.4-3.2,4-3.2
				c0.4,0,0.7,0,1.1,0c0.6,0,1.2,0.1,1.9,0l0.6,0l0.1,0.6c0,0.3,0.7,7.6-0.6,11.7c-1.3,4.4-3.6,5-4.9,5h-4.9L195.2,116.3z
				 M202.7,101.8c-0.4,0-0.7,0-1,0c-1.1,0-1.9,0.2-2.9,2.4c-1,2.3-1.3,4.9-1.6,7.3c-0.2,1.6-0.4,3.4-0.8,5l0,0.2h3.5
				c1.6,0,2.9-1.5,3.7-4.2c1-3.3,0.7-8.9,0.6-10.7C203.6,101.8,203.1,101.8,202.7,101.8z"/>
		</g>
		<g>
			<path class="st11" d="M189.7,115.6c0.5-0.7,0.2-3.1,0.2-4.3c0.1-2.6,0.1-6.2,1.2-8.5c1.7-3.3,5.2-2.3,7.8-0.9
				c0,0-1.5,2.7-2.1,7.3c-0.5,4.6-1.2,8.6-1.2,8.6l-6-0.3V115.6z"/>
			<path class="st2" d="M189,118.1v-2.7l0.1-0.2c0.3-0.4,0.2-2.1,0.2-3c0-0.4,0-0.7,0-1v0c0-0.3,0-0.6,0-1c0.1-2.5,0.2-5.6,1.3-7.8
				c0.9-1.7,2.3-2.6,4.1-2.6c1.3,0,2.9,0.5,4.6,1.5l0.5,0.3l-0.3,0.5c0,0-1.5,2.6-2,7c-0.5,4.6-1.2,8.6-1.2,8.6l-0.1,0.5L189,118.1z
				 M194.7,101.2c-1.3,0-2.3,0.6-3,1.9c-0.9,1.9-1,4.9-1.1,7.3c0,0.3,0,0.7,0,1c0,0.3,0,0.6,0,1c0.1,1.6,0.1,2.8-0.3,3.5v1.1
				l4.9,0.2c0.2-1.2,0.7-4.5,1.1-8c0.4-3.5,1.4-5.9,1.9-6.9C196.8,101.5,195.6,101.2,194.7,101.2z"/>
		</g>
		<g>
			<path class="st11" d="M169.1,116.1L169.1,116.1c0.6-3.5-1.6-16.8,3.5-17c1.1,0,3.9,0.7,4.7,1.5c1.2,1.1,1,3.2,1.1,4.7
				c0,3.3-0.1,7-0.6,10.2L169.1,116.1z"/>
			<path class="st2" d="M168.5,116c0.2-0.9,0.1-2.5,0.1-4.4c-0.1-5.4-0.3-12.9,4-13.1h0c1.2,0,4.2,0.7,5.1,1.6
				c1.2,1.1,1.2,2.8,1.3,4.1c0,0.3,0,0.7,0,0.9l0,0.1c0,4.2-0.2,7.6-0.6,10.3l-0.1,0.5l-9.9,0.7L168.5,116z M177.7,105.3
				c0-0.3,0-0.6,0-1c0-1.2-0.1-2.6-0.9-3.3l0,0c-0.6-0.6-3.1-1.3-4.2-1.3c-3.1,0.2-2.9,7.2-2.8,11.9c0,1.5,0.1,2.9,0,3.9l7.4-0.5
				C177.5,112.3,177.7,109.2,177.7,105.3z"/>
		</g>
		<g>
			<path class="st11" d="M169.8,100.6c-8-5.3-4.8,12-5.2,14.6l4.5,0.2c0,0-0.3-7.3,0-10c0.4-2.7,0.9-4.2,0.9-4.2L169.8,100.6z"/>
			<path class="st2" d="M163.9,115.7l0.1-0.7c0.1-0.5,0-1.7-0.1-3.1c-0.3-4.2-0.7-10,1.3-12.1c0.5-0.6,1.2-0.9,2-0.9
				c0.9,0,1.8,0.4,3,1.1l0.1,0.1l0.4,0.9l-0.1,0.2c0,0-0.5,1.5-0.8,4.1c-0.4,2.6,0,9.9,0,9.9l0,0.7L163.9,115.7z M169.3,101
				c-0.8-0.5-1.6-0.8-2.1-0.8c-0.4,0-0.8,0.1-1,0.5c-1.6,1.8-1.2,7.7-1,11.2c0.1,1.1,0.1,2,0.1,2.7l3.2,0.2
				c-0.1-1.9-0.2-7.2,0.1-9.5c0.3-2.1,0.7-3.6,0.8-4.1L169.3,101z"/>
		</g>
		<g>
			<path class="st11" d="M227.7,117.2c0.4-4.4,0.1-10.1,2.6-13.9c2.2-3.5,5.4-3.1,8.8-2.7c0,0,1.2,8.7,0,11.6
				c-1.2,2.9-3.7,5.5-6.3,5.8c-2.7,0.3-5,0-5,0V117.2z"/>
			<path class="st2" d="M227.6,118.6l-0.5-0.1v-1.3l0-0.1c0.1-0.9,0.1-1.8,0.2-2.7c0.2-3.9,0.4-8.3,2.5-11.5
				c1.8-2.9,4.3-3.2,6.2-3.2c1,0,2.1,0.1,3.1,0.2l0.5,0.1l0.1,0.5c0,0.4,1.2,8.9,0,11.9c-1.3,3.4-4.1,5.8-6.8,6.1
				c-0.8,0.1-1.7,0.1-2.6,0.1l0,0C228.7,118.7,227.6,118.6,227.6,118.6z M236,101c-2.4,0-4,0.8-5.2,2.7c-1.9,2.9-2.1,7.2-2.3,10.9
				c-0.1,0.9-0.1,1.8-0.2,2.7v0.2c0.4,0,1.1,0.1,1.9,0.1c0.8,0,1.7,0,2.4-0.1c2.3-0.2,4.7-2.5,5.8-5.4c0.9-2.4,0.2-9,0-10.9
				C237.6,101,236.8,101,236,101z"/>
		</g>
		<g>
			<path class="st11" d="M219.9,116.2c-0.9-3.9-0.7-11.7,1.9-15.1c3.3-4.3,6.4-1.8,9.7,0.5c0,0-3.1,3-3.6,11.6l-0.2,5.1l-7.5-0.7
				L219.9,116.2z"/>
			<path class="st2" d="M219.7,118.1l-0.4-1.8c-0.9-4.2-0.7-12.1,2-15.6c1.4-1.8,2.8-2.6,4.4-2.6c2,0,3.8,1.3,5.8,2.7l1,0.7
				l-0.5,0.5c0,0-2.9,3-3.4,11.1l-0.3,5.7L219.7,118.1z M225.6,99.4c-1.2,0-2.3,0.7-3.4,2.1c-2.4,3.1-2.6,10.5-1.7,14.5l0.2,0.9
				l6.4,0.6l0.2-4.4c0.4-6.8,2.4-10.2,3.3-11.4C228.8,100.6,227.2,99.4,225.6,99.4z"/>
		</g>
		<g>
			<path class="st2" d="M254.6,88.7c0.7,0,1.4,0,2.1,0c0.7,0,1.4,0,2.1,0c0.2,0,0.4,0,0.6,0c0.9,2,3.3,7.7,4.5,13.5
				c1.2,5.6,1.9,12.9,2.2,15.8h-1c-1.5,0-2.9,0-4.3-0.2l0,0l0,0c-0.3,0-0.5,0-0.8,0c-3.2-0.1-6.9-0.3-9.3-2.3l0,0l0,0
				c-2.6-2-2.8-6.2-3-9.9c0-0.7-0.1-1.4-0.1-2.1v0v0c0-0.2,0-0.5-0.1-0.7c-0.3-3.5-0.8-8.2,0.8-11.1
				C249.3,89.2,251.5,88.7,254.6,88.7L254.6,88.7 M254.6,87.5c-3.1,0-6,0.5-7.7,3.7c-1.8,3.5-1.2,8.9-0.8,12.5
				c0.3,4.3,0,10,3.6,12.8c3,2.5,7.2,2.5,10.9,2.6c1.5,0.2,3,0.2,4.4,0.2c0.2,0,1.8,0,2.3,0c0,0-0.8-9.9-2.3-17.3
				c-1.5-7.4-4.9-14.5-4.9-14.5c-0.4,0-0.9,0-1.4,0C257.4,87.6,256,87.5,254.6,87.5L254.6,87.5z M267.3,119.3c0.1,0,0.2,0,0.2,0
				S267.4,119.3,267.3,119.3L267.3,119.3z"/>
		</g>
		<g>
			<path class="st2" d="M219.7,88.2c1.5,0,2.9,0.1,4,0.2c0.3,0,0.5,0,0.7,0l0,0h0c0.9,0,1.8,0.1,2.7,0.1c0.9,0.1,1.9,0.1,2.9,0.1
				c0.6,0,1.2,0,1.7-0.1c0.3,0,0.6,0,0.9,0c1.7,0,3.6,0.4,4.5,0.9c1.5,0.9,1.4,5.2,1.4,8.1c0,1,0,2,0,2.8c0,0.7,0.1,1.6,0.2,2.4
				c0.3,3.3,0.6,7.3-0.7,9.8c-2,3.9-7.4,4.3-9.6,4.3c-0.2,0-0.5,0-0.7,0c-0.7-0.1-1.4-0.1-2.1-0.2c-3-0.2-6.4-0.5-9-1.6l0,0l0,0
				c-2.9-1.2-2.7-6.8-2.5-10.8c0-0.9,0.1-1.7,0.1-2.5c0-0.8-0.1-1.9-0.2-3.3c-0.2-1.8-0.4-3.8-0.3-5.6c0-2.4,0.4-3.2,0.6-3.5
				C214.7,88.9,215.9,88.2,219.7,88.2 M219.7,87c-2.6,0-5.3,0.3-6.4,1.5c-1.8,2.1-0.3,10.4-0.3,13.2c0,4.3-1.2,12.6,3.2,14.4
				c3.5,1.5,7.9,1.5,11.5,1.8c0.3,0,0.5,0,0.8,0c3.8,0,8.7-1.1,10.7-5c1.8-3.5,0.8-9.2,0.7-12.8c-0.2-3.3,0.8-10.2-2-11.8
				c-1.2-0.7-3.4-1-5.1-1c-0.3,0-0.7,0-1,0c-0.5,0-1.1,0.1-1.6,0.1c-1.9,0-3.8-0.2-5.6-0.2C223.4,87.1,221.6,87,219.7,87L219.7,87z"
				/>
		</g>
		<g>
			<path class="st2" d="M171.1,87.5c1.4,0,3,0.1,4.4,0.3c1.5,0.1,3.1,0.3,4.6,0.3c0.3,0,0.7,0,1,0l0,0h0c2.5-0.2,4.9-0.2,7.2-0.2
				c3,0,5.8,0.1,8.6,0.4l3.7,0.4c0.4,0,0.7,0.1,1,0.1c0.9,0.1,1.7,0.2,2,0.4c0.3,0.2,0.4,0.9,0.5,2v0l0,0c0.3,5.2,0.3,10.1,0,15.3
				c-0.1,0.8-0.1,1.7-0.2,2.5c-0.2,4.5-0.6,7.1-4.2,7.3c-0.6,0-1.3,0-2,0c-1.9,0-3.9-0.1-5.8-0.2c-1.9-0.1-3.9-0.2-5.8-0.2
				c-1.5,0-3,0-4.4-0.1c-1.5,0-3.1-0.1-4.6-0.1c-1.7,0-3.2,0-4.6,0.1c-0.6,0-1.1,0-1.6,0c-4.9,0-7.8-1.2-9.2-3.7
				c-1.4-2.6-1.5-6.6-1.5-10.2c0-1.4,0-2.6-0.1-3.8l0,0l0,0c0-0.3-0.1-0.7-0.1-1.2c-0.2-1.5-0.5-3.5-0.4-5.2c0-2.4,0.6-2.9,0.7-3
				c1.3-0.9,4.8-1,7.2-1c0.8,0,1.5,0,2.1-0.1l0,0l0,0C170,87.6,170.6,87.5,171.1,87.5 M171.1,86.3c-0.6,0-1.2,0-1.8,0.1
				c-2.5,0.2-7.7-0.2-9.9,1.3c-2.1,1.5-1,7.7-0.7,10.5c0.3,4.3-0.3,10.5,1.8,14.5c2,3.7,6.4,4.4,10.3,4.4c0.6,0,1.2,0,1.7,0
				c1.5-0.1,3-0.1,4.5-0.1c3,0,6.1,0.1,9.1,0.1c3.7,0,7.7,0.3,11.5,0.3c0.7,0,1.4,0,2.1,0c5.9-0.3,5.1-6.1,5.6-10.9
				c0.3-5.3,0.3-10.2,0-15.5c-0.2-3.6-1.5-3.3-4.6-3.6l-3.7-0.4c-2.9-0.3-5.8-0.4-8.7-0.4c-2.4,0-4.8,0.1-7.2,0.2
				c-0.3,0-0.6,0-0.9,0C177.2,86.8,174.1,86.3,171.1,86.3L171.1,86.3z"/>
		</g>
		<g>
			<path class="st5" d="M201.7,102.6c0,0.2-0.2,0.5-0.4,0.7c-0.9,0.7-1.7,1-2.1,2.2c-0.3,1-0.1,2.2-0.6,3.2c0.1-0.2-0.1-1.4-0.1-1.7
				c0.1-0.6,0.2-1.3,0.4-1.9c0.2-0.8,0.6-1.6,1.2-2.2c0.3-0.3,0.6-0.6,1-0.6C201.5,102.2,201.7,102.4,201.7,102.6z"/>
		</g>
		<g>
			<path class="st5" d="M257.4,101.2c0,0.2-0.2,0.5-0.4,0.7c-0.7,0.6-1.4,1.2-1.8,2c-0.2,0.4-0.3,0.8-0.3,1.3c0,0.4,0.1,0.9-0.2,1.2
				c-0.3,0.3-0.6-0.6-0.5-0.7c0.1-1.4,0.5-3,1.5-4.1c0.3-0.3,0.6-0.6,1-0.6C257.2,100.8,257.4,100.9,257.4,101.2z"/>
		</g>
		<g>
			<path class="st5" d="M194.5,101.6c0,0,0.1,0,0.1,0c0.8,0.3-0.6,1.4-0.9,1.7c-0.6,0.6-1,1.4-1.3,2.2c-0.3,0.8-0.7,1.6-0.9,2.4
				c-0.1,0.5-0.2,1-0.4,1.5c-0.3-1.3,0-2.8,0.3-4C191.9,104,192.7,101.8,194.5,101.6z"/>
		</g>
		<g>
			<path class="st5" d="M172.8,100.3c0.1,0,0.2,0.1,0.2,0.2c0.2,0.7-1.3,1.9-1.6,2.4c-0.6,1-1,2.3-0.9,3.5c-0.1-1.3-0.3-2.8,0.2-4.1
				c0.2-0.5,0.6-1,0.9-1.4C171.9,100.8,172.5,100.2,172.8,100.3z"/>
		</g>
		<g>
			<path class="st5" d="M262.2,101.7c0.1,0,0.2,0.1,0.2,0.2c0.2,0.7-1.3,1.9-1.6,2.4c-0.6,1-1,2.3-0.9,3.5c-0.1-1.3-0.3-2.8,0.2-4.1
				c0.2-0.5,0.6-1,0.9-1.4C261.3,102.2,261.9,101.7,262.2,101.7z"/>
		</g>
		<g>
			<path class="st5" d="M167,100.6c0.2,0,0.3,0.2,0.4,0.6c0.1,0.4,0,0.9-0.2,1.3c-0.2,0.7-0.6,1.4-0.7,2.1c-0.1,0.9,0.1,1.9-0.2,2.8
				c-0.3,1-0.9-0.7-0.9-1.1c-0.1-0.7,0-1.4,0.1-2c0.1-0.8,0.2-1.5,0.5-2.3C166.1,101.5,166.7,100.5,167,100.6z"/>
		</g>
		<g>
			<path class="st5" d="M229.9,109.3c0-1,0.4-2.5,0.5-2.8c0.6-1.4,1.7-3.3,3.2-3.9c0.8-0.3,1.7,0,1.2,0.9c-0.5,1-1.9,1.8-2.6,2.7
				c-0.6,0.8-0.6,1.9-1,2.7c-0.1,0.3-0.4,1.1-0.8,1.2C230.1,110.2,229.9,109.8,229.9,109.3z"/>
		</g>
		<g>
			<path class="st5" d="M225.5,100.7c0.5,0,0.8,0.3,0.7,1c-0.2,1.5-2.2,2.3-3,3.3c-0.7,1-1.2,2.1-1.4,3.3c-0.1,0.4-0.1,0.7-0.2,1.1
				c-0.2,0.6-0.8,0.4-1-0.2c-0.5-1.7,0.5-3.8,1.2-5.3c0.5-1,1.2-2,2-2.7C224.3,100.9,225,100.6,225.5,100.7z"/>
		</g>
		<g>
			<g>
				<path class="st7" d="M30.1,160.8c3.7-0.5,2.9-10.3,2.4-16.1c-0.2-2.1-0.3-3.7-0.3-4.7c0-4.6,0.4-9.4,1.2-15.3
					c0-0.3,0.1-0.5,0.1-0.9c0.3-2.7,0.8-7.5-1.2-8.7c-1,0.7-4.7,4-6,13.4c-1.1,8.1-2.3,19.3-1.4,23.3c0.8,3.7,2.4,7,4.2,9H30.1z"/>
			</g>
			<g>
				<g>
					<path class="st2" d="M32.4,115.8c1.2,1.4,0.8,5.9,0.6,7.9c0,0.3-0.1,0.6-0.1,0.8c-0.9,6-1.2,10.8-1.2,15.4
						c-0.1,1,0.1,2.7,0.3,4.8c0.3,3.2,0.6,7.2,0.3,10.4c-0.2,2.2-0.7,4.8-2.2,5.1h-0.5c-1.7-2-3.1-5.1-3.9-8.5
						c-0.9-3.9,0.4-15.1,1.4-23.1C28.1,120.2,31.1,116.9,32.4,115.8 M32.4,114.3c0,0-5.1,2.7-6.5,14.1c-1.5,11.4-2.2,20-1.4,23.6
						c0.8,3.5,2.3,7.2,4.6,9.5h1.2c5.7-0.7,2.5-17.5,2.7-21.5c0-5.2,0.5-10.1,1.2-15.3C34.4,121.9,35.3,115.5,32.4,114.3L32.4,114.3
						z"/>
				</g>
			</g>
		</g>
		<g>
			<g>
				<path class="st4" d="M93.8,114.9c1.2,0,2.3-0.1,3.4-0.3c5.2-1,8.9-5.4,10.2-12.2c1.6-8-0.5-18.6-6.8-22.7
					c-5.4-3.3-12.2-4.6-18.3-5.8c-0.5-0.1-1-0.2-1.5-0.3c-2.1-0.5-4.9-0.8-7.5-1.1c-2.8-0.3-5.4-0.6-7.4-1.1c-0.3,1-0.9,3.4-1,5.8
					l0,0.2c-0.4,6-0.6,8.6-0.7,9.8c-0.1,1.2-0.8,7.5-2.7,11.8c-1.3,2.7-4.3,5.2-6,6.3c5.2,1.6,10.4,3.1,16.3,4.5
					c2.3,0.5,4.6,1.2,7.2,2C83.9,113.4,89,114.9,93.8,114.9L93.8,114.9z"/>
			</g>
			<g>
				<path class="st2" d="M66.4,72.3c1.9,0.4,4.3,0.7,6.9,1c2.7,0.3,5.4,0.6,7.4,1.1l0,0l0,0c0.5,0.1,1,0.2,1.5,0.3
					c6,1.1,12.8,2.4,18,5.7c2.6,1.7,4.8,5,5.9,9.2c1.2,4.1,1.3,8.7,0.5,12.8c-0.6,3.1-1.8,5.8-3.3,7.8c-1.7,2.2-3.9,3.5-6.4,4
					c-1,0.2-2.1,0.3-3.2,0.3c-4.7,0-9.8-1.5-14.7-3c-2.5-0.8-4.9-1.5-7.2-2c-5.4-1.3-10.3-2.7-15-4.1c1.8-1.3,4.1-3.5,5.2-5.8
					c2-4.4,2.7-10.8,2.8-12c0.1-1.2,0.3-3.8,0.7-9.8l0-0.2C65.7,75.4,66.1,73.4,66.4,72.3 M65.5,70.8c0,0-1,3.2-1.2,6.5
					c-0.1,1-0.5,7.3-0.7,10c-0.2,2.7-1,8-2.7,11.6c-1.7,3.6-6.9,6.8-6.9,6.8c6,1.8,11.4,3.4,17.6,4.9c6.8,1.5,14.9,5,22.2,5
					c1.2,0,2.3-0.1,3.5-0.3c14.3-2.7,14.3-29.1,3.7-36c-5.9-3.7-13.6-4.9-20-6.2C76.5,72.1,69.3,71.8,65.5,70.8L65.5,70.8z"/>
			</g>
		</g>
		<g>
			<g>
				<path class="st4" d="M44.8,149.5c2.6,0,4.3-2.6,4.8-3.4c1.8-3.3,2.5-7.2,1.8-11.4c-0.3-1.7-1.3-5.9-4.3-6.4l-0.2,0l-0.1-0.2
					c0,0-0.1-0.1-0.1-0.1c-2.8,0.1-5.2,2-6.4,5.1c-1.7,4-1.5,9.1,0.4,13.1c1,2.1,2.4,3.2,4.1,3.2C44.8,149.5,44.8,149.5,44.8,149.5z
					"/>
			</g>
			<g>
				<path class="st2" d="M46.5,128.8l0.1,0.2L47,129c2.6,0.5,3.5,4.3,3.8,5.9c0.6,4,0,7.8-1.7,11c-0.8,1.5-2.4,3.1-4.2,3.1
					c0,0-0.1,0-0.1,0c-1.5,0-2.7-1-3.6-2.9c-1.9-3.9-2-8.8-0.4-12.6C41.9,130.7,44,129,46.5,128.8 M46.7,127.5
					C46.6,127.5,46.6,127.5,46.7,127.5c-3.3,0.2-5.8,2.5-7,5.4c-1.8,4.2-1.5,9.5,0.4,13.6c0.9,1.9,2.4,3.5,4.7,3.6c0,0,0.1,0,0.1,0
					c2.3,0,4.2-1.8,5.3-3.7c2-3.6,2.5-7.7,1.9-11.8c-0.5-2.9-1.8-6.4-4.8-6.9C47.1,127.6,46.9,127.5,46.7,127.5L46.7,127.5z"/>
			</g>
		</g>
		<g>
			<path class="st10" d="M70.9,107.1c5.3,1.2,11,2.4,16.5,2.2c3.9-0.1,7.9-0.9,11-3.5c4.2-3.4,4.5-9.3,2.9-14.1
				c-2-6-7.3-9.2-12.8-11.6c-2.4-1-4.7-1.9-7.3-2.5c-2.3-0.6-4.7-1-7-1.7c-3.4-1-6-2.3-7.5-5c4,0.8,10.3,1.1,14.3,2
				c6.4,1.2,14.1,2.5,20,6.2c10.6,6.9,10.6,33.3-3.7,36c-1.1,0.2-2.3,0.3-3.5,0.3c-7.3,0-15.4-3.5-22.2-5
				c-6.2-1.5-11.6-3.1-17.6-4.9c0,0,1.6-1,3.4-2.5C61.8,104.8,66.4,106.1,70.9,107.1z"/>
		</g>
		<g>
			<g>
				<path class="st5" d="M235.3,73.5c1.6,0,3.2,0,4.7-0.1c0.8,0,1.7-0.1,2.5-0.1c0.4,0,0.8-0.1,1.2-0.1c0.1,0,0.3,0,0.4,0l0.1,0
					c0.1,0,0.2,0,0.3,0l0.1,0c0.8-0.1,1.6-0.3,2.4-0.5c0.2,0,0.4-0.1,0.6-0.2c-5.3-3.5-11.6-5.5-17.7-7.2
					c-8.3-2.3-16.7-3.9-25.2-4.8c-5.1-0.6-10.6-0.8-17.4-0.8c-1.4,0-2.9,0-4.5,0c-6.3,0.1-37.9,0.2-59,0.2c-10.5,0-17,0-19.5-0.1
					l-1.1,0c-2.2-0.1-4.4-0.1-6.7-0.2c-0.6,0-1.3,0-1.9,0c-3,0-6.1,0.1-9.1,0.4c1.3,2.6,3.5,4.9,6.3,6.5c4,2.3,9.2,3.3,12,3.6
					c3.2,0.4,6.8,0.6,11.3,0.6c0.9,0,1.8,0,2.9,0c4.4-0.1,8.9-0.1,13.3-0.2c9.9-0.2,20.2-0.3,30.2-0.3c17.3,0,31.4,0.5,44.4,1.6
					l1.7,0.1C216.6,72.7,226,73.5,235.3,73.5L235.3,73.5z"/>
			</g>
			<g>
				<g>
					<path class="st2" d="M94.5,60.2c0.6,0,1.3,0,1.9,0c2.2,0,4.5,0.1,6.7,0.2l1.1,0c2.5,0.1,9,0.1,19.5,0.1c21.1,0,52.6-0.1,59-0.2
						c1.6,0,3.1,0,4.5,0c6.7,0,12.2,0.3,17.3,0.8c8.4,0.9,16.8,2.5,25.1,4.7c5.6,1.5,11.4,3.4,16.4,6.3c-0.5,0.1-1,0.2-1.5,0.3
						l-0.1,0c-0.2,0-0.3,0-0.3,0l-0.1,0c-0.1,0-0.3,0-0.4,0c-0.3,0-0.7,0.1-1.1,0.1c-0.8,0.1-1.7,0.1-2.5,0.1
						c-1.5,0-3.1,0.1-4.7,0.1c-9.2,0-18.6-0.8-27.6-1.6l-1.7-0.1c-13-1.1-27.1-1.6-44.5-1.6c-10.1,0-20.3,0.2-30.3,0.3
						c-4.4,0.1-8.9,0.1-13.3,0.2c-1.1,0-2,0-2.9,0c-4.5,0-8-0.2-11.2-0.6c-2.7-0.3-7.9-1.3-11.8-3.6c-2.4-1.4-4.3-3.2-5.6-5.4
						C89.1,60.3,91.9,60.2,94.5,60.2 M94.5,59c-3.1,0-6.1,0.1-9.2,0.4c-0.3,0-0.6,0-0.9,0.1c1.4,3.2,3.8,5.8,6.9,7.6
						c3.5,2.1,8.2,3.2,12.2,3.7c3.8,0.5,7.6,0.6,11.4,0.6c1,0,1.9,0,2.9,0c14.5-0.2,29-0.5,43.6-0.5c14.8,0,29.6,0.4,44.4,1.6
						c9.8,0.8,19.6,1.7,29.4,1.7c1.6,0,3.1,0,4.7-0.1c0.8,0,1.7-0.1,2.5-0.1c0.4,0,0.8-0.1,1.2-0.1c0.2,0,0.3,0,0.5-0.1
						c0,0,0.4-0.1,0.5-0.1c0.8-0.1,1.6-0.3,2.4-0.5c0.3-0.1,0.7-0.2,1-0.3c0.2-0.1,0.4-0.1,0.6-0.2c0,0,0.1,0,0.1,0c0,0,0,0,0.1,0
						c0,0,0,0,0,0c-5.3-3.8-11.8-6-18.9-8c-8.3-2.2-16.7-3.9-25.2-4.8c-5.8-0.6-11.6-0.8-17.5-0.8c-1.5,0-3,0-4.5,0
						c-6.2,0.1-37.5,0.2-59,0.2c-9.3,0-16.8,0-19.5-0.1c-2.6-0.1-5.2-0.2-7.8-0.2C95.8,59,95.2,59,94.5,59L94.5,59z"/>
				</g>
			</g>
		</g>
		<g>
			<path class="st5" d="M85.4,59.3c2.8-0.2,5.6-0.3,8.4-0.4c0,0.2,0.1,0.3,0.1,0.5c0.8,2.6,2.7,4.7,5.1,6.1
				c5.1,2.9,11.5,3.5,17.3,3.7c4.5,0.1,9-0.2,13.5-0.5c8.1-0.5,16.3-1.1,24.4-1.3c8.2-0.2,16.2,0.2,24.4,0.7
				c8,0.5,16.1,0.8,24.1,1.1c4.7,0.1,9.3,0.1,13.9,0.4c3.7,0.2,7.4,0.4,11.1,0.4c3.7,0,7.7-0.1,11.3-1.2c0.5-0.2,1-0.4,1.5-0.6
				c3,1.2,5.8,2.7,8.3,4.5c0,0,0,0,0,0c0,0-0.1,0-0.1,0c0,0-0.1,0-0.1,0c-0.2,0.1-0.4,0.1-0.6,0.2c-0.3,0.1-0.7,0.2-1,0.3
				c-0.8,0.2-1.6,0.4-2.4,0.5c0,0-0.5,0.1-0.5,0.1c-0.2,0-0.3,0-0.5,0.1c-0.4,0-0.8,0.1-1.2,0.1c-0.8,0.1-1.7,0.1-2.5,0.1
				c-1.6,0-3.1,0.1-4.7,0.1c-9.8,0-19.6-0.9-29.4-1.7c-14.8-1.3-29.6-1.6-44.4-1.6c-14.5,0-29,0.3-43.6,0.5c-1,0-1.9,0-2.9,0
				c-3.8,0-7.6-0.1-11.4-0.6c-4-0.5-8.7-1.7-12.2-3.7c-3.1-1.8-5.5-4.3-6.9-7.6C84.8,59.4,85.1,59.4,85.4,59.3z"/>
		</g>
		<g>
			<path class="st12" d="M65.2,168.8c0,0.2,0,0.3,0.1,0.5c-2.2,0-4.3,0.1-6.3,0.1c-0.2-0.7-0.5-1.4-0.7-2.1
				C60.5,168,62.8,168.6,65.2,168.8z"/>
		</g>
		<g>
			<path class="st10" d="M48.2,142.9c1-1.8,1-4,0.8-6c-0.2-1.9-0.4-3.9-1.1-5.7c-0.7-1.6-1.7-2.7-3-3.4c0.5-0.2,1.1-0.3,1.7-0.3
				c0,0,0,0,0,0c0.3,0,0.4,0.1,0.6,0.3c3,0.5,4.3,4,4.8,6.9c0.6,4,0.1,8.2-1.9,11.8c-1.1,1.9-3,3.7-5.3,3.7c0,0-0.1,0-0.1,0
				c-2.3-0.1-3.7-1.6-4.7-3.6c0-0.1-0.1-0.2-0.1-0.2C43,147.6,46.7,145.7,48.2,142.9z"/>
		</g>
		<g>
			<path class="st10" d="M29.9,153.5c0.7-3.2,0.1-6.7-0.1-10c-0.2-3.5-0.8-7.2-0.2-10.6c0.4-2.2,1-4.3,1.4-6.5
				c0.4-2.1,0.7-4.5,0-6.6c-0.4-1-0.9-1.9-1.6-2.5c1.5-2.3,2.9-3,2.9-3c3,1.2,2,7.6,1.7,10.4c-0.7,5.2-1.2,10.1-1.2,15.3
				c-0.2,3.9,3,20.7-2.7,21.5H29c-0.7-0.7-1.3-1.5-1.8-2.4C28.5,157.4,29.5,155.5,29.9,153.5z"/>
		</g>
		<g>
			<g>
				<path class="st7" d="M50.4,172c5.5,0,9.2-1,9.5-5.9c0.1-1.7,0-2.9-0.4-3.9c-0.3-0.8-0.9-1.6-1.6-2.1c-1.2-0.9-2.7-1.3-4.8-1.4
					c-0.4,0-0.9,0-1.5,0c-0.5,0-1,0-1.5,0c-0.5,0-1,0-1.5,0c-1.2,0-2-0.1-2.8-0.2c-1.2-0.2-2.5-0.4-3.7-0.6c-2.9-0.5-5.9-1-8.8-1.2
					c-1.1-0.1-2.3-0.2-3.6-0.2c-3.2,0-5.6,0.6-7.2,2c-1,0.8-1.5,1.8-1.6,3.1c-0.1,1.8,0.8,3.9,2.3,5.3c2.1,2,5.3,2.6,8.1,3.2
					l0.5,0.1c4.2,0.9,8.6,1.7,13.2,1.7c0.8,0,1.7,0,2.6,0.1C48.5,172,49.4,172,50.4,172z"/>
			</g>
			<g>
				<g>
					<path class="st2" d="M29.6,157c1.3,0,2.5,0.1,3.6,0.2c2.9,0.3,5.9,0.8,8.8,1.2c1.2,0.2,2.5,0.4,3.7,0.6
						c0.8,0.1,1.7,0.2,2.9,0.2c0.5,0,1,0,1.5,0c0.5,0,1,0,1.5,0c0.5,0,1,0,1.4,0c2,0.1,3.4,0.5,4.5,1.3c0.6,0.4,1.1,1.1,1.4,1.8
						c0.3,0.9,0.5,2.1,0.3,3.6l0,0v0c-0.2,3.9-2.7,5.4-8.9,5.4c-0.9,0-1.9,0-2.8-0.1c-0.9,0-1.8-0.1-2.6-0.1
						c-4.5,0-8.9-0.9-13.1-1.7l-0.5-0.1c-2.8-0.6-5.9-1.2-7.8-3.1c-1.3-1.2-2.2-3.2-2.1-4.8c0-1.1,0.5-2,1.3-2.7l0,0l0,0
						C24.3,157.6,26.5,157,29.6,157 M29.6,155.8c-2.7,0-5.5,0.4-7.6,2.1c-3.1,2.4-1.8,7,0.7,9.3c2.3,2.2,5.9,2.8,8.9,3.5
						c4.4,0.9,8.8,1.8,13.3,1.8c1.7,0,3.6,0.1,5.4,0.1c5,0,9.8-0.8,10.1-6.5c0.1-1.3,0.1-2.9-0.4-4.2c-0.4-0.9-1-1.8-1.8-2.4
						c-1.5-1.1-3.3-1.5-5.2-1.6c-0.5,0-1,0-1.5,0c-1,0-2,0-3.1,0c-0.9,0-1.9,0-2.7-0.2c-4.2-0.6-8.3-1.4-12.5-1.8
						C32.1,155.9,30.9,155.8,29.6,155.8L29.6,155.8z"/>
				</g>
			</g>
		</g>
		<g>
			<path class="st10" d="M22,157.9c2-1.7,4.8-2.1,7.6-2.1c1.3,0,2.5,0.1,3.7,0.2c4.2,0.4,8.4,1.2,12.5,1.8c0.9,0.1,1.8,0.2,2.7,0.2
				c1,0,2,0,3.1,0c0.5,0,1,0,1.5,0c1.7,0.1,3.4,0.4,4.9,1.4c-4.5,0.2-9.1-0.6-13.6-1c-3.8-0.3-7.7-0.5-11.4,0
				c-2.1,0.3-4.4,1.4-4.5,3.7c-0.2,2,1.3,3.8,3,4.8c1.3,0.8,2.7,1.2,4.1,1.5c1.7,0.4,3.5,0.8,5.2,1.1c4.7,0.7,9.9,0.7,14.6,0
				c1.7-0.2,3.4-0.7,4.8-1.5c-1.2,4-5.4,4.6-9.8,4.6c-1.9,0-3.7-0.1-5.4-0.1c-4.5,0-8.9-0.8-13.3-1.8c-3-0.6-6.5-1.3-8.9-3.5
				C20.2,164.9,19,160.4,22,157.9z"/>
		</g>
		<g>
			<g>
				<path class="st2" d="M250.9,82.5c-1.6-1.9-3-3.9-4.9-5.4c-0.8-0.6,0.3-1.6,1-1c2,1.5,3.4,3.6,4.9,5.4
					C252.6,82.1,251.6,83.2,250.9,82.5L250.9,82.5z"/>
			</g>
		</g>
		<g>
			<g>
				<path class="st2" d="M124.6,80.7c-1.7,0.7-3.2,1.9-3.7,3.7c-0.3,0.9-1.7,0.5-1.4-0.4c0.6-2.3,2.5-3.9,4.7-4.7
					C125.1,78.9,125.5,80.3,124.6,80.7L124.6,80.7z"/>
			</g>
		</g>
		<g>
			<g>
				<path class="st2" d="M122,78.3c-1.2,1.2-2.6,2.4-3.6,3.8c-0.5,0.8-1.8,0-1.3-0.7c1.1-1.6,2.5-2.8,3.8-4.1
					C121.6,76.6,122.6,77.6,122,78.3L122,78.3z"/>
			</g>
		</g>
		<g>
			<g>
				<path class="st2" d="M92.9,99.6c-2.5-4.7-5.8-8.8-8.1-13.6c-0.4-0.9,0.9-1.6,1.3-0.7c2.3,4.8,5.7,8.9,8.1,13.6
					C94.7,99.7,93.4,100.4,92.9,99.6L92.9,99.6z"/>
			</g>
		</g>
		<g>
			<g>
				<path class="st2" d="M90.3,105.7c-4.8-5.9-8.2-12.7-12.2-19.1c-0.5-0.8,0.8-1.6,1.3-0.7c3.9,6.3,7.2,13.1,12,18.8
					C92,105.3,90.9,106.4,90.3,105.7L90.3,105.7z"/>
			</g>
		</g>
		<g>
			<g>
				<path class="st2" d="M80.3,106.2c-2.2-3.6-4.4-7.1-6.7-10.6c-0.5-0.8,0.8-1.5,1.3-0.7c2.3,3.5,4.5,7,6.7,10.6
					C82.1,106.3,80.8,107.1,80.3,106.2L80.3,106.2z"/>
			</g>
		</g>
		<g>
			<g>
				<path class="st2" d="M47.8,141.6c-1.1,0.5-2.2,1-3.2,1.7c-0.8,0.6-1.5-0.7-0.7-1.3c1-0.7,2.1-1.2,3.2-1.7
					C47.9,139.9,48.7,141.1,47.8,141.6L47.8,141.6z"/>
			</g>
		</g>
		<g>
			<g>
				<path class="st2" d="M47.1,137.6c-1.1,0.5-2,1.3-2.8,2.1c-0.7,0.7-1.7-0.4-1-1c0.9-0.9,1.9-1.7,3.1-2.3
					C47.2,135.9,47.9,137.2,47.1,137.6L47.1,137.6z"/>
			</g>
		</g>
		<g>
			<g>
				<path class="st2" d="M47.7,132.8c-1.3,1.3-2.8,2.3-3.9,3.7c-0.6,0.7-1.7-0.3-1-1c1.2-1.4,2.7-2.4,3.9-3.7
					C47.3,131.1,48.4,132.1,47.7,132.8L47.7,132.8z"/>
			</g>
		</g>
	</g>
</g>
</svg>
