<svg version="1.2" xmlns="http://www.w3.org/2000/svg" viewBox="0 0 261 138" width="261" height="138">
	<title>schoolbus-01-svg</title>
	<style>
		.s0 { fill: #ffffff;stroke: #ffffff;stroke-linecap: round;stroke-linejoin: round;stroke-width: 11.5 } 
		.s1 { fill: #ffd142 } 
		.s2 { fill: #010202 } 
		.s3 { fill: #f08f3a } 
		.s4 { fill: #ededed } 
		.s5 { fill: #6a5265 } 
		.s6 { fill: #878787 } 
		.s7 { fill: #d0d7e1 } 
		.s8 { fill: #f6f6f6 } 
		.s9 { fill: #9aacc0 } 
		.s10 { fill: #c6c6c6 } 
		.s11 { fill: #ca9e67 } 
		.s12 { fill: #ffe278 } 
	</style>
	<g id="Layer">
		<g id="Layer">
			<g id="Layer">
				<path id="Layer" fill-rule="evenodd" class="s0" d="m82.4 5.9c2.6 0 5.2 0.1 7.8 0.2 2.7 0.1 10.2 0.1 19.5 0.1 21.5 0 52.8-0.1 59-0.2q2.2 0 4.5 0c5.9 0 11.7 0.2 17.5 0.8 8.5 0.9 16.9 2.6 25.2 4.8 12.3 3.4 22.6 7.4 28.3 18.7 12.6 24.4 11.8 56.6 5.9 82.9l-0.7 1.9c-1.7 0.9-5.9 1.4-10.9 1.4-6.5 0-14.3-0.8-18.8-2.8l-0.5-0.3 0.7-2.3c0.4-1.2 0.5-2.6 0.6-3.9q0.2-1.9 0-3.9c-0.2-2.3-1.2-4.9-2.1-7-0.9-2.1-2.2-4.1-3.8-5.8-2.9-3.2-6.7-5.7-10.9-6.6-1.7-0.4-3.6-0.6-5.5-0.6-0.6 0-1.2 0-1.8 0.1-0.3 0-0.5 0.1-0.8 0.1-4.5 0.6-8.9 2.1-12.5 4.9-2.8 2.2-4.9 5-6.6 8.1-1.1 2.1-2 4.4-2.3 6.8-0.3 2.4 0.1 4.8 0.5 7.1 0.1 0.3 0.1 0.6 0.2 0.9l0.7 3.2-2.7 0.8c-3.4 0.8-18.9 1.2-34.9 1.2-17.6 0-35.8-0.5-39.5-1.5l-3-0.8 0.7-2.8c0.6-4.5 0.9-8.5-0.8-12.8-1.4-3.6-3.6-7.2-6.6-9.8-4.2-3.6-9.7-5.5-15.2-5.5-2 0-4 0.2-5.9 0.7-1.9 0.5-4 1.3-5.7 2.3-3.1 1.9-5.4 4.6-7.1 7.8-0.9 1.7-1.9 3.7-2.5 5.6-0.6 1.8-1 3.6-1.3 5.5-0.6 3.6-0.5 7.5 0.1 11.1-5 0-9.8 0.3-14.3 0.3-8.3 0-15.6-1-21.8-7.1-8.7-8.5-5.1-22.2-4-33.2l0.4-2.2c2.2-22.9 25.5-12.6 34.8-28.1 7.4-13.3-3.2-36 18.6-39 2.2-0.2 4.3-0.4 6.4-0.6 3.1-0.3 6.1-0.4 9.2-0.4 0.7 0 1.3 0 1.9-0.1zm-10.9 1.8c-2.1 0.1-4.2 0.4-6.3 0.6-13.1 1.8-13.6 10.9-14.2 21.4-0.4 5.9-0.7 12-3.5 17-4.3 7.2-11.2 9.1-17.8 11-8.5 2.3-15.7 4.4-16.9 16.6l-0.4 2.2c-0.1 1.6-0.4 3.3-0.6 5.1-0.6 5-1.3 10.1-0.9 14.8 0.5 5.2 2.2 9.2 5.2 12.2 5.7 5.6 12.5 6.8 20.9 6.8 2.1 0 4.4-0.1 6.7-0.2 2-0.1 4-0.2 6.1-0.2-0.4-3.4-0.4-6.9 0.1-10 0.3-1.9 0.8-3.8 1.4-5.7 0.6-1.7 1.4-3.5 2.6-5.8 1.9-3.6 4.4-6.3 7.6-8.3 1.6-1 3.8-1.9 6-2.4 2.1-0.5 4.1-0.7 6.2-0.7 6 0 11.7 2 16 5.8 2.8 2.5 5.2 6.1 6.9 10.3 1.8 4.6 1.5 8.8 0.9 13.4 0 0.2-0.1 0.6-0.4 1.8l1.8 0.5c3.1 0.9 19.2 1.5 39.1 1.5 17.4 0 31.6-0.5 34.6-1.2l1.5-0.4-0.4-2c0-0.3-0.1-0.5-0.1-0.7 0 0 0-0.1 0-0.2-0.5-2.4-0.8-4.9-0.5-7.5 0.2-2.4 1-4.8 2.4-7.3 1.9-3.6 4.2-6.4 6.9-8.5 3.5-2.7 8-4.5 13.1-5.1 0.3 0 0.5-0.1 0.8-0.1 0.7-0.1 1.3-0.1 2-0.1 1.9 0 3.9 0.2 5.8 0.6 5.3 1.1 9.2 4.4 11.5 7 1.7 1.9 3 4 4 6.2 1.3 3 2 5.4 2.2 7.4q0.1 2 0 4.2c0 0.1 0 0.3 0 0.5-0.1 1.1-0.3 2.4-0.6 3.6-0.1 0.2-0.2 0.6-0.4 1.3 4.6 1.9 12.2 2.6 17.9 2.6 4.5 0 8.3-0.5 10-1.1l0.5-1.3c3.1-14.1 4.5-28.5 3.9-41.7-0.7-15.4-4-29-9.8-40.2-2.6-5.2-6.3-9.3-11.4-12.3-5-3-10.8-4.8-16.3-6.3-8.3-2.2-16.7-3.8-25.1-4.7-5.1-0.5-10.6-0.8-17.3-0.8q-2.1 0-4.5 0c-6.4 0.1-37.9 0.2-59 0.2-10.5 0-17 0-19.5-0.1h-1.1c-2.2-0.1-4.5-0.2-6.7-0.2-0.6 0-1.3 0-1.9 0-3 0-6 0.1-9 0.5z"/>
			</g>
			<g id="Layer">
				<g id="Layer">
					<path id="Layer" fill-rule="evenodd" class="s0" d="m62.8 70c1.1 0 2.3 0.1 3.4 0.2 1.7 0.1 3.4 0.2 5.1 0.2 6.5 0.1 13.2 0.3 19.2 4.1 10.7 7.1 11.6 17.6 11.6 27.7v6.8l-53.7 2.4v-0.1c-0.2 0.1-0.4 0.1-0.6 0.1-2.1 0-6.8-1.6-8-2.3-4.7-2.2-8.1-6-10.2-11.2-2.2-6.1-1.7-13.6 1.4-19.2 2.4-4.4 6.1-7.2 10.7-8.2 3.4-0.8 7-1 10.5-1 3.5 0 7.1 0.3 10.6 0.5zm-20.7 1.7c-4.2 0.9-7.7 3.5-9.9 7.6-2.9 5.3-3.4 12.4-1.3 18.2 1.9 4.9 5.1 8.4 9.5 10.5 1 0.6 5.5 2.1 7.4 2.1q0.3 0 0.3 0l1.4-0.3v0.3l51.3-2.3v-5.6c0-4.9-0.2-10-1.7-14.6q-2.4-7.5-9.3-12c-5.7-3.6-12.2-3.8-18.5-3.9-1.7-0.1-3.4-0.1-5.1-0.2-1.1 0-2.3-0.1-3.4-0.2-3.5-0.2-7.1-0.5-10.6-0.5-3.9 0-7.3 0.3-10.1 0.9z"/>
				</g>
			</g>
			<g id="Layer">
				<path id="Layer" fill-rule="evenodd" class="s0" d="m212.3 81.1c5.2 2 9.7 5.1 12.6 9.9 4.5 7.4 5.6 16.7 4.2 25.2-3.6-0.4-6.9-1.1-9.3-2.2l-0.5-0.3 0.7-2.3c0.4-1.2 0.5-2.6 0.6-3.9q0.2-1.9 0-3.9c-0.2-2.3-1.2-4.9-2.1-7-0.9-2.1-2.2-4.1-3.8-5.8-2.9-3.2-6.7-5.7-10.9-6.6-1.7-0.4-3.6-0.6-5.5-0.6-0.6 0-1.2 0-1.8 0.1-0.3 0-0.5 0.1-0.8 0.1-4.5 0.6-8.9 2.1-12.5 4.9-2.8 2.2-4.9 5-6.6 8.1-1.1 2.1-2 4.4-2.3 6.8-0.3 2.4 0.1 4.8 0.5 7.1 0.1 0.3 0.1 0.6 0.2 0.9l0.7 3.2-2.1 0.6c-0.7-5.3-0.7-10.6 0.3-15.8 0.9-4.4 2.7-8.7 5.7-12.1 3.6-4 8.4-6.8 13.7-7.9 2.1-0.4 4.1-0.6 6.2-0.6 4.4 0 8.8 0.8 12.8 2.1zm-18.7-0.4c-5 1-9.7 3.7-13.1 7.5-1.4 1.5-2.6 3.3-3.5 5.4 1.6-2.4 3.5-4.4 5.5-6 3.5-2.7 8-4.5 13.1-5.1 0.3 0 0.5-0.1 0.8-0.1 0.7-0.1 1.3-0.1 2-0.1 1.9 0 3.9 0.2 5.8 0.6 5.3 1.1 9.2 4.4 11.5 7 1.7 1.9 3 4 4 6.2 1.3 3 2 5.4 2.2 7.4q0.1 1.9 0 4.2c0 0.1 0 0.3 0 0.5-0.1 1.1-0.3 2.4-0.6 3.6-0.1 0.2-0.2 0.6-0.4 1.3 1.9 0.7 4.4 1.4 7.3 1.8 0.5-3.8 0.5-7.7-0.1-11.4-0.7-4.4-2-8.3-4.1-11.7-2.6-4.2-6.5-7.2-12-9.3-4.1-1.5-8.4-2.3-12.5-2.3-2.1 0-4.1 0.2-5.9 0.5z"/>
			</g>
			<g id="Layer">
				<path id="Layer" fill-rule="evenodd" class="s0" d="m74.3 79c6.3 0.4 12.4 2.7 17.4 6.7 4.6 3.7 7.7 8.6 9.3 14.3 1.4 5.1 2 10.5 1.3 15.8-1.3-0.2-2.5-0.5-3.7-0.8l-3-0.8 0.7-2.8c0.6-4.5 0.9-8.5-0.8-12.8-1.4-3.6-3.6-7.2-6.6-9.8-4.2-3.6-9.7-5.5-15.2-5.5-2 0-4 0.2-5.9 0.7-1.9 0.5-4 1.3-5.7 2.3-3.1 1.9-5.4 4.6-7.1 7.8-0.9 1.7-1.9 3.7-2.5 5.6-0.6 1.8-1 3.6-1.3 5.5-0.6 3.6-0.5 7.5 0.1 11.1q-1 0-2.1 0c0.1-4.9 0.5-9.9 1.5-14.8 1.2-6 3.5-12.2 7.9-16.6 3.9-3.9 8.9-5.8 14.3-5.8 0.4 0 0.9 0 1.4-0.1zm-14.7 6.6c-1.3 1.2-2.4 2.7-3.4 4.4 1.5-2 3.3-3.6 5.4-4.9 1.6-1 3.8-1.9 6-2.4 2.1-0.5 4.1-0.7 6.2-0.7 6 0 11.7 2 16 5.8 2.9 2.5 5.2 6.1 6.9 10.3 1.8 4.6 1.5 8.8 0.9 13.4 0 0.2-0.1 0.6-0.4 1.8l1.8 0.5c0.7 0.2 1.5 0.4 2.3 0.6 0.4-4.4-0.1-9.1-1.5-14-1.6-5.6-4.6-10.2-8.9-13.7-4.8-3.8-10.7-6.1-16.7-6.4-0.4 0-0.9 0-1.3 0-5.3 0-9.9 1.9-13.3 5.3z"/>
			</g>
			<g id="Layer">
				<path id="Layer" fill-rule="evenodd" class="s0" d="m219.5 96.1c1.2 2.8 2.1 6.2 2.3 9.3 0.2 2.8-0.3 5.8-1.2 8.5-0.9 2.8-2.8 5.2-4.8 7.4-4 4.5-9.4 7-15.2 7.9-1.8 0.2-3.6 0.4-5.5 0.4-3.8 0-7.7-0.7-11.1-2.6-5-2.8-8.7-8.5-10.1-13.9-1.3-5-1.2-10.8 0.5-15.8 3-9.1 12.6-14.3 21.7-15.1 0.7-0.1 1.4-0.1 2.1-0.1 9.1 0 17.9 5.3 21.3 14zm-23.2-12.6c-4.5 0.4-9 2-12.6 4.3-4 2.6-6.8 6-8.1 10-1.6 4.7-1.8 10.2-0.5 15 1.4 5.6 5.2 10.7 9.5 13.2 2.8 1.7 6.4 2.5 10.5 2.5 1.7 0 3.5-0.1 5.3-0.4 5.8-0.9 10.8-3.5 14.4-7.5 1.9-2.1 3.7-4.4 4.6-7 0.9-2.7 1.3-5.5 1.2-8.1-0.2-2.6-1-5.9-2.2-9-3.1-7.9-11.3-13.2-20.2-13.2-0.7 0-1.3 0-1.9 0.2z"/>
			</g>
			<g id="Layer">
				<path id="Layer" fill-rule="evenodd" class="s0" d="m77.3 82.5c4.2 0.6 9 2.3 12.2 5.1 4.8 4.3 7.2 9.6 8.3 16.1 0.3 1.9 0.5 3.8 0.5 5.7 0.1 6.3-1.9 12.8-6.6 17.1-4.3 3.9-10.3 5.5-16 5.5-0.1 0-0.1 0-0.1 0-5.9 0-12-0.8-17.2-3.6-5.2-2.8-8.3-8.2-9.9-13.7-1.9-6.5-0.2-13.3 2.9-19.1 1.4-2.5 3.2-4.8 5.3-6.7 2.3-2 4.8-4 7.6-5.1 2.7-1 5.8-1.5 8.8-1.5 1.4 0 2.7 0.1 4.2 0.2zm-12.6 2.6c-2.7 1-5.1 3-7.2 4.8-2 1.8-3.7 4-5 6.4-3.3 6.3-4.3 12.7-2.8 18.2 1 3.5 3.5 9.9 9.3 13 4.2 2.3 9.5 3.4 16.6 3.4h0.1c6 0 11.4-1.9 15.1-5.2 4-3.7 6.3-9.5 6.2-16.2 0-1.9-0.2-3.7-0.5-5.5-1.2-6.8-3.7-11.6-7.9-15.4-2.7-2.4-7-4.2-11.6-4.8q-2-0.3-3.9-0.3c-3.1 0-6 0.5-8.4 1.6z"/>
			</g>
			<g id="Layer">
				<g id="Layer">
					<path id="Layer" fill-rule="evenodd" class="s0" d="m205.9 98.4c1.8 1.9 2.7 4.5 2.8 7 0 1.3-0.2 2.7-0.6 3.9-0.5 1.2-1.3 2.3-2.2 3.3-1.8 2-4.3 3.2-6.9 3.6-0.8 0.1-1.7 0.2-2.5 0.2-1.7 0-3.5-0.3-5-1.2-2.3-1.3-4-3.9-4.6-6.3-0.6-2.2-0.6-4.8 0.2-7.1 1.4-4.1 5.7-6.4 9.8-6.8 0.3 0 0.7 0 1 0 3 0 6 1.2 8 3.4zm-8.9-1.9c-3.5 0.3-7.6 2.3-8.8 6-0.7 2-0.7 4.3-0.2 6.4 0.6 2.4 2.2 4.6 4 5.6 1.2 0.7 2.7 1 4.4 1 0.7 0 1.5-0.1 2.3-0.2 2.5-0.4 4.6-1.5 6.1-3.2 0.8-0.9 1.5-1.8 1.9-2.9 0.4-1.1 0.6-2.3 0.5-3.4-0.2-2.4-1.1-4.7-2.5-6.2v-0.2c-1.4-1.9-4-3.1-6.8-3.1-0.3 0-0.6 0-0.9 0.2z"/>
				</g>
			</g>
			<g id="Layer">
				<g id="Layer">
					<path id="Layer" fill-rule="evenodd" class="s0" d="m74.5 97.3c1.8 0.3 3.7 0.9 5 2.1 2 1.7 3 3.9 3.4 6.5 0.1 0.8 0.2 1.5 0.2 2.3 0 2.5-0.8 5.2-2.7 6.9-1.8 1.5-4.2 2.2-6.5 2.2-2.4-0.1-4.9-0.3-7-1.5-2.1-1.2-3.4-3.4-4-5.6-0.7-2.7-0.1-5.4 1.2-7.8 0.6-1 1.3-1.9 2.2-2.7 0.9-0.9 2-1.7 3.1-2.1 1.1-0.4 2.4-0.6 3.6-0.6 0.5 0 1.1 0.1 1.5 0.3zm-4.6 1.6c-1 0.3-1.9 1.1-2.7 1.8-0.8 0.7-1.4 1.5-1.9 2.4-1.3 2.3-1.7 4.8-1.1 6.8 0.3 1.3 1.3 3.7 3.4 4.8 1.6 0.9 3.6 1.3 6.4 1.3 2.3 0 4.3-0.7 5.7-1.9 1.5-1.3 2.3-3.5 2.3-6 0-0.7-0.1-1.4-0.2-2.1-0.5-2.6-1.4-4.4-3-5.8-1-0.9-2.6-1.6-4.3-1.8-0.5-0.1-1-0.1-1.5-0.1-1.2 0-2.3 0.2-3.1 0.6z"/>
				</g>
			</g>
			<g id="Layer">
				<path id="Layer" fill-rule="evenodd" class="s0" d="m201.2 115.6c-2-9.1 6.8-9.2 6.8-9.2-0.1 7.1-6.8 9.2-6.8 9.2zm2-5.9c-0.8 1-1.1 2.4-1 4.1 1.6-0.8 3.9-2.7 4.5-6-1.1 0.2-2.6 0.7-3.5 1.9z"/>
			</g>
			<g id="Layer">
				<path id="Layer" fill-rule="evenodd" class="s0" d="m82.7 109.3c0 0 0.2 6.7-6.3 7.2 0 0-0.5-7.4 4.9-7.4 0.4 0 0.9 0 1.4 0.2zm-3.8 1.9c-0.9 1-1.2 2.6-1.3 3.8 1.5-0.4 2.5-1.4 3.2-2.8 0.4-0.7 0.5-1.4 0.6-1.9h-0.1c-1 0-1.7 0.3-2.4 0.9z"/>
			</g>
			<g id="Layer">
				<path id="Layer" fill-rule="evenodd" class="s0" d="m202.9 96.6c0 0-2.2 5.9-7 5.9-1.8 0-4-0.9-6.6-3.1 0 0 3.2-4.1 8.4-4.1 1.5 0 3.2 0.4 5.2 1.3zm-11.8 2.8c1.7 1.2 3.3 1.9 4.7 1.9 2.8 0 4.6-2.5 5.4-4-1.2-0.5-2.4-0.7-3.5-0.7-3.1 0-5.5 1.7-6.6 2.8z"/>
			</g>
			<g id="Layer">
				<path id="Layer" fill-rule="evenodd" class="s0" d="m194.4 116.2c-8.2-1.8-7.5-10.4-7.5-10.4 11.5 1 7.5 10.4 7.5 10.4zm-0.9-1.5c0.3-1.2 0.6-3.1-0.4-4.7-0.8-1.5-2.5-2.4-5-2.8 0.2 2.1 1 6 5.4 7.5z"/>
			</g>
			<g id="Layer">
				<path id="Layer" fill-rule="evenodd" class="s0" d="m73.5 97.3c2.8 0.3 4.7 1 5.2 1.3 0 0-1.5 3.8-5.3 3.8q-0.3 0-0.6 0c-4.2-0.4-5.4-3.4-5.4-3.4 0 0 2.8-1.7 5.4-1.7 0.2 0 0.4 0.1 0.7 0zm-4.4 2.3c0.7 0.7 1.8 1.5 3.8 1.7 0.2 0 0.4 0 0.5 0 1.7 0 2.9-1.1 3.5-2-0.9-0.2-2.1-0.5-3.6-0.7-0.1 0-0.3 0-0.5 0-1.3 0-2.7 0.5-3.7 1z"/>
			</g>
			<g id="Layer">
				<path id="Layer" fill-rule="evenodd" class="s0" d="m69.4 116.3c0 0-4.2-1.4-5.7-4.5-1.5-3-0.1-7.1-0.1-7.1 10.4 2.4 5.8 11.6 5.8 11.6zm-4.5-5c0.8 1.7 2.7 2.8 3.9 3.4 0.4-1.3 0.8-3.5-0.1-5.3-0.7-1.5-2.1-2.5-4.2-3.2-0.3 1.4-0.4 3.5 0.4 5.1z"/>
			</g>
			<g id="Layer">
				<path id="Layer" fill-rule="evenodd" class="s0" d="m235.1 107.7c3.7 0.5 7.4 0.5 11 1.1 1.1 0.2 2.3 0.5 3.4 0.8 0.9 0.3 1.8 0.7 2.7 1.1 2.1 1 3.7 3.5 2.9 5.9-0.8 2.5-4.3 2.6-6.4 2.7-1.4 0.1-2.9 0.1-4.4 0.1-3.7 0-7.3-0.2-11-0.7-1.6-0.2-3.3-0.4-4.9-0.7-1.4-0.2-2.8-0.4-3.8-1.5-1.1-1.2-1.4-2.9-1.1-4.5 0.2-0.9 0.4-2 0.9-2.8 0.9-1.4 2.4-2 4.1-2.1q0.5 0 0.9 0c1.9 0 3.8 0.4 5.7 0.6zm-6.6 0.6c-1.5 0.1-2.6 0.6-3.1 1.5-0.2 0.3-0.5 1-0.7 2.4-0.2 1.3 0.1 2.6 0.8 3.4 0.6 0.7 1.4 0.9 2.7 1.1 0.2 0.1 0.3 0.1 0.4 0.1 1.2 0.2 2.4 0.3 3.6 0.5 0.4 0.1 0.8 0.1 1.2 0.2 3.4 0.5 7 0.7 10.9 0.7 1.4 0 2.9 0 4.4-0.1 1.7-0.1 4.7-0.2 5.3-1.9 0.6-1.7-0.7-3.6-2.3-4.4-0.7-0.4-1.6-0.7-2.5-1-1-0.3-2.1-0.5-3.3-0.7-1.9-0.3-3.9-0.4-5.8-0.6-1.7-0.1-3.5-0.3-5.2-0.5-0.5-0.1-1.1-0.2-1.6-0.3-1.4-0.2-2.6-0.4-3.9-0.4q-0.4 0-0.9 0z"/>
			</g>
			<g id="Layer">
				<path id="Layer" fill-rule="evenodd" class="s0" d="m138.4 33.6c1.4 4.3 1.2 9.3 1.2 13.7 0.2 17 1.4 33.5-0.2 52l-0.3 2.1c-0.2 1-2.9 1.3-4.1 1.3-1 0.1-2 0.1-3 0.1-5.6 0-11-0.7-16.7-0.7-0.3 0-0.5 0-0.8 0-3.3 0-7.3-0.2-8.2-4-0.8-3.1 0.1-7.4 0.2-10.5 0.1-9.7 0-16.3 0.3-26.2 0.2-5.3 0.4-11.6 0.2-16.9-0.2-3.1-0.5-12 2.6-14 1.1-0.7 2.9-0.8 4.8-0.8 1.5 0 3.1 0.1 4.2 0.1 3.4 0 6.7-0.2 10-0.2 1.1 0 2.2-0.1 3.2-0.1v1.2q0.1 0 0.1 0v-1.2c3.1 0 5.6 0.5 6.5 4.1zm-6.5-4.1h-0.1q0.1 0 0.1 0zm0 1.2v0.1c-0.6 0-1.1 0-1.6 0-0.6 0-1.1 0-1.7 0-1.6 0-3.2 0.1-4.9 0.1-1.7 0.1-3.4 0.1-5.2 0.1q-0.9 0-1.8 0c-0.8-0.1-1.6-0.1-2.5-0.1q-3.2 0-4.2 0.6c-0.6 0.5-2.5 2.6-2 12.9 0.2 5 0 10.8-0.1 16v0.9c-0.1 5.7-0.2 10.3-0.2 15.2 0 3.4 0 7-0.1 11 0 1.1-0.1 2.2-0.2 3.4-0.3 2.4-0.5 4.9 0 6.8 0.6 2.5 2.9 3 7 3h0.8c2.9 0 5.7 0.1 8.5 0.3 2.7 0.1 5.4 0.3 8.2 0.3 1.1 0 2-0.1 3-0.1 1.2 0 2.5-0.3 2.9-0.5l0.3-1.8c1.1-13.5 0.8-26.2 0.5-38.4-0.1-4.4-0.3-9-0.3-13.5 0-0.4 0-0.8 0-1.3 0-4 0-8.2-1.1-11.9-0.7-2.6-2.4-3.1-5.3-3.1z"/>
			</g>
			<g id="Layer">
				<path id="Layer" fill-rule="evenodd" class="s0" d="m244.7 34.5c0.5 0 1 0 1.4 0 0 0 3.4 7.1 4.9 14.5 1.5 7.4 2.3 17.3 2.3 17.3-0.5 0-2.1 0-2.3 0-1.4 0-2.9 0-4.4-0.2-3.7-0.1-7.9-0.1-10.9-2.6-3.6-2.8-3.3-8.5-3.6-12.8-0.4-3.6-1-9 0.8-12.5 1.7-3.2 4.6-3.7 7.7-3.7 1.4 0 2.8 0.1 4.1 0zm-10.4 4.2c-1.6 2.9-1.1 7.6-0.8 11.1 0.1 0.2 0.1 0.5 0.1 0.7 0 0.7 0.1 1.4 0.1 2.1 0.2 3.7 0.4 7.9 3 9.9 2.4 2 6.1 2.2 9.3 2.3 0.3 0 0.5 0 0.8 0 1.4 0.2 2.8 0.2 4.3 0.2h1c-0.3-2.9-1-10.2-2.2-15.8-1.2-5.8-3.6-11.5-4.5-13.5q-0.3 0-0.6 0-1.1 0-2.1 0-1.1 0-2.1 0c-3.1 0-5.3 0.5-6.3 3zm19 27.6c0.1 0 0.2 0 0.2 0 0 0-0.1 0-0.2 0z"/>
			</g>
			<g id="Layer">
				<path id="Layer" fill-rule="evenodd" class="s0" d="m210.5 34.4c1.8 0 3.7 0.2 5.6 0.2 0.5 0 1.1-0.1 1.6-0.1 0.3 0 0.7 0 1 0 1.7 0 3.9 0.3 5.1 1 2.8 1.6 1.8 8.5 2 11.8 0.1 3.6 1.1 9.3-0.7 12.8-1.8 3.4-6 4-9.6 4-0.7 0-1.4-0.1-2.1-0.1-3.6-0.4-7.8-0.5-11.3-2-4.4-1.8-3.1-9-3.1-13.3 0-2.8-1.5-11.1 0.3-13.2 1.1-1.2 3.8-1.5 6.4-1.5 1.9 0 3.7 0.1 4.8 0.4zm-10.1 2.1c-0.2 0.3-0.6 1.1-0.6 3.5-0.1 1.8 0.1 3.8 0.3 5.6 0.1 1.4 0.2 2.5 0.2 3.3 0 0.7-0.1 1.6-0.1 2.5-0.1 2-0.2 4.2 0.1 6.1 0.3 1.9 1.1 3 2.3 3.5 2.7 1.2 6.3 1.4 9.4 1.7 0.5 0 1 0.1 1.5 0.1 0.5 0 1.3 0 2 0 4.6 0 7.3-1 8.5-3.3 1.3-2.5 1-6.5 0.7-9.8-0.1-0.8-0.2-1.7-0.2-2.4 0-0.8 0-1.8 0-2.8 0-2.9 0.1-7.2-1.4-8.1-0.9-0.5-2.8-0.9-4.5-0.9q-0.5 0-0.9 0c-0.5 0.1-1.1 0.1-1.7 0.1-1 0-2 0-2.9-0.1-0.9 0-1.8-0.1-2.7-0.1-0.2 0-0.4 0-0.7 0-1.1-0.1-2.5-0.2-4-0.2-3.8 0-5 0.7-5.3 1.3z"/>
			</g>
			<g id="Layer">
				<path id="Layer" fill-rule="evenodd" class="s0" d="m166.2 33.8q0.5 0 0.9 0c2.4-0.1 4.8-0.2 7.2-0.2 2.9 0 5.8 0.1 8.7 0.4l3.7 0.4c3.1 0.3 4.4 0 4.6 3.6 0.3 5.3 0.3 10.2 0 15.5-0.5 4.8 0.3 9.6-5.6 9.9q-1.3 0-2.7 0c-3.6 0-7.2-0.2-10.8-0.2-3.3 0-6.7-0.3-10.1-0.3-1.2 0-2.3 0-3.4 0.1-1.3 0.1-2.8 0.2-4.3 0.2-3.2 0-6.3-0.6-7.9-3.5-2.1-4-1.5-10.2-1.8-14.5-0.3-2.8-1.4-9 0.7-10.5 2.2-1.5 7.4-1.1 9.9-1.3 0.6-0.1 1.2-0.1 1.8-0.1 3 0 6.1 0.5 9.1 0.5zm-10.7 1.1c-0.6 0.1-1.3 0.1-2.1 0.1-2.4 0-5.9 0.1-7.2 1-0.1 0.1-0.7 0.6-0.7 3-0.1 1.7 0.2 3.7 0.4 5.2 0 0.5 0.1 0.9 0.1 1.2 0.1 1.2 0.1 2.4 0.1 3.8 0 3.6 0.1 7.6 1.5 10.2 1 2 3.1 2.8 6.8 2.8 1 0 2 0 2.9-0.1 0.4-0.1 0.9-0.1 1.3-0.1 1-0.1 2.1-0.1 3.4-0.1 1.8 0 3.5 0 5.2 0.1 1.7 0 3.4 0.1 5 0.1 1.8 0 3.6 0 5.4 0.1 1.8 0 3.6 0.1 5.4 0.1 0.9 0 1.8 0 2.6 0 3.8-0.2 4-2.3 4.3-6.5 0.1-0.8 0.1-1.5 0.2-2.3 0.3-5.2 0.3-10.1 0-15.3-0.1-1.1-0.2-1.8-0.5-2-0.3-0.2-1.1-0.3-2-0.4-0.3 0-0.6-0.1-1-0.1l-3.7-0.4c-2.8-0.3-5.6-0.4-8.6-0.4-2.3 0-4.7 0-7.2 0.2-0.3 0-0.7 0-1 0-1.5 0-3.1-0.2-4.6-0.3-1.4-0.2-3-0.3-4.4-0.3-0.5 0-1.1 0.1-1.6 0.4z"/>
			</g>
			<g id="Layer">
				<path id="Layer" fill-rule="evenodd" class="s0" d="m117.6 98.3c1.6 0.1 3.2 0.2 4.8 0.2 2.8 0 5.6-0.2 8.4-0.5 2.9-0.4 5.9-0.8 8.8-1.4-0.1 0.8-0.1 1.6-0.2 2.5l-0.3 2.1c-0.2 1-2.9 1.3-4.1 1.3-1 0.1-2 0.1-3 0.1-5.6 0-11-0.7-16.7-0.7-0.3 0-0.5 0-0.8 0-3.3 0-7.3-0.2-8.2-4-0.2-0.5-0.2-1-0.3-1.5 3.8 0.9 7.6 1.5 11.6 1.9zm-3.3 2.4h0.8c2.9 0 5.7 0.1 8.5 0.3 2.7 0.1 5.4 0.3 8.2 0.3 1.1 0 2-0.1 3-0.1 1.2 0 2.5-0.3 2.9-0.5l0.3-1.8c0.1-0.3 0.1-0.6 0.1-0.9-2.1 0.4-4.4 0.8-7.3 1.1-3 0.3-5.7 0.5-8.5 0.5-1.6 0-3.3-0.1-4.9-0.2-3.2-0.2-6.5-0.7-9.9-1.4 0.8 2.2 3.1 2.6 6.8 2.7z"/>
			</g>
			<g id="Layer">
				<g id="Layer">
					<path id="Layer" fill-rule="evenodd" class="s0" d="m126.7 36.9q0.3 0 0.6 0 0.9 0 1.8 0c1.6 0 3.2 0.1 4.6 0.6 2.8 1.1 1.9 5.2 2 7.5 0.1 1.5 0.3 3 0.3 4.5 0 1.3 0 2.8-0.7 4-1.1 1.9-4 2-6 2 0 0-0.1 0-0.2 0-2.2 0-4.3-0.3-6.4-0.3-0.1 0-0.3 0-0.4 0-1.8 0-3.7 0.2-5.5 0.2q-0.5 0-0.9 0c-1.4 0-3 0-4.3-0.5-2.4-0.8-2.3-4-2.1-6.1 0.1-1.1 0.3-2.3 0.3-3.4 0.1-1.2 0-2.3 0.1-3.5 0.1-1.2 0.3-2.8 1.2-3.7 1-1 2.5-1.2 3.8-1.3 1.2-0.1 2.5-0.1 3.7-0.1 2.8 0 5.6 0.1 8.1 0.1zm-11.8 1.2c-1 0-2.3 0.2-3 0.9-0.7 0.6-0.7 2-0.8 2.9 0 0.6 0 1.2 0 1.9 0 0.6 0 1.1 0 1.6 0 0.7-0.1 1.4-0.2 2.1 0 0.5-0.1 0.9-0.1 1.4-0.2 2.2-0.2 4.4 1.3 4.9 1.2 0.5 2.6 0.5 3.9 0.5 0.3 0 0.7 0 0.9 0 1 0 2-0.1 3-0.1 0.9 0 1.7-0.1 2.6-0.1 0.1 0 0.3 0 0.4 0 1.1 0 2.2 0 3.3 0.1 1.1 0 2.1 0.1 3.1 0.1h0.2c2 0 4.1-0.2 4.9-1.4 0.5-0.8 0.5-2.1 0.5-3.3v-0.1c0-1-0.1-2-0.2-3 0-0.5-0.1-0.9-0.1-1.4q0-0.8 0-1.8c0.1-2.4 0-4.1-1.2-4.6-1.2-0.4-2.7-0.5-4.1-0.5-0.4 0-0.7 0-1.1 0q-0.3 0-0.6 0-0.3 0-0.6 0c-1.4 0-2.8-0.1-4.2-0.1-1.4-0.1-2.8-0.1-4.2-0.1-1.4 0-2.6 0-3.7 0.1z"/>
				</g>
			</g>
			<g id="Layer">
				<path id="Layer" fill-rule="evenodd" class="s0" d="m112.5 111.6c1.7 0.1 3.4 0.1 5.1 0.1 1.7 0 3.4 0 5.1-0.1 0.5 0 0.9 0 1.4 0 2.8 0 5.8 0.4 8.6 0.5 0.3 0 0.5 0 0.8 0 1.7 0 3.5-0.3 5.2-0.3q1.2 0 2.4 0.3c0.4 3.1 0.7 6.2 0.7 9.5v1.1c-0.3 1.2-3.2 1.5-6.6 1.5-4.4 0-9.7-0.6-11.3-0.6-6.1 0-12-1.2-18.1-1.2 0.2-2 0.5-4 0.7-6.1 0.2-1.7-0.4-4 1.2-4.8 0.3-0.1 0.8-0.2 1.4-0.2 1.2 0 2.8 0.2 3.4 0.3zm-4 1.1c-0.5 0.2-0.5 0.8-0.5 2.2q0 0.7 0 1.5c-0.1 1.1-0.3 2.2-0.4 3.3-0.1 0.5-0.1 0.9-0.2 1.4 2.6 0.1 5.3 0.4 7.8 0.6 2.9 0.3 5.9 0.6 8.9 0.6 0.6 0 1.8 0.1 3.2 0.2 2.2 0.2 5.4 0.4 8.1 0.4 3.9 0 5.1-0.4 5.4-0.6v-0.7c0-2.9-0.3-5.7-0.6-8.5-0.4-0.1-0.8-0.1-1.3-0.1-0.8 0-1.6 0-2.5 0.1-0.9 0-1.8 0.1-2.7 0.1q-0.4 0-0.9 0c-1.1 0-2.2-0.1-3.3-0.2-1.8-0.2-3.6-0.3-5.3-0.3-0.4 0-0.9 0-1.3 0-1.8 0.1-3.5 0.1-5.2 0.1-1.7 0-3.3 0-5.1-0.1-0.4 0-0.9-0.1-1.5-0.1-0.6 0-1.4-0.1-2-0.1-0.5 0-0.8 0.1-0.6 0.2z"/>
			</g>
			<g id="Layer">
				<g id="Layer">
					<path id="Layer" fill-rule="evenodd" class="s0" d="m107.2 117.9c4.3 0.1 8.6 0.3 12.9 0.4q2 0 3.9 0c6 0 11.9-0.2 17.8-0.3 0.1 1.2 0.1 2.4 0.1 3.6v1.1c-0.3 1.2-3.2 1.5-6.6 1.5-4.4 0-9.7-0.6-11.3-0.6-6.1 0-12-1.2-18.1-1.2 0.1-1.6 0.3-3.1 0.5-4.7 0.3 0 0.5 0 0.8 0.2zm0.3 1.8c-0.1 0.4-0.1 0.9-0.2 1.4 2.6 0.1 5.3 0.4 7.8 0.6 2.9 0.3 5.9 0.6 8.9 0.6 0.6 0 1.8 0.1 3.2 0.2 2.2 0.2 5.4 0.4 8.1 0.4 3.9 0 5.1-0.4 5.4-0.6v-0.7c0-0.8-0.1-1.6-0.1-2.4-1.8 0-3.6 0.1-5.4 0.1-3.6 0.1-7.4 0.2-11.2 0.2-1.4 0-2.6 0-3.9 0-3.7-0.1-7.5-0.3-11.2-0.4l-1.4-0.1c0 0.2-0.1 0.5 0 0.7z"/>
				</g>
			</g>
			<g id="Layer">
				<path id="Layer" fill-rule="evenodd" class="s0" d="m244.7 34.5c0.5 0 1 0 1.4 0 0 0 3.4 7.1 4.9 14.5 1.5 7.4 2.3 17.3 2.3 17.3-0.5 0-2.1 0-2.3 0-1.4 0-2.9 0-4.4-0.2-3.7-0.1-7.9-0.1-10.9-2.6-3.6-2.8-3.3-8.5-3.6-12.8-0.4-3.6-1-9 0.8-12.5 1.7-3.2 4.6-3.7 7.7-3.7 1.4 0 2.8 0.1 4.1 0zm-10.4 4.2c-1.6 2.9-1.1 7.6-0.8 11.1 0.1 0.2 0.1 0.5 0.1 0.7 0 0.7 0.1 1.4 0.1 2.1 0.2 3.7 0.4 7.9 3 9.9 2.4 2 6.1 2.2 9.3 2.3 0.3 0 0.5 0 0.8 0 1.4 0.2 2.8 0.2 4.3 0.2h1c-0.3-2.9-1-10.2-2.2-15.8-1.2-5.8-3.6-11.5-4.5-13.5q-0.3 0-0.6 0-1.1 0-2.1 0-1.1 0-2.1 0c-3.1 0-5.3 0.5-6.3 3zm19 27.6c0.1 0 0.2 0 0.2 0 0 0-0.1 0-0.2 0z"/>
			</g>
			<g id="Layer">
				<path id="Layer" fill-rule="evenodd" class="s0" d="m210.6 34.2c1.8 0 3.7 0.2 5.6 0.2 0.5 0 1.1-0.1 1.6-0.1 0.3 0 0.7 0 1 0 1.7 0 3.9 0.3 5.1 1 2.8 1.6 1.8 8.5 2 11.8 0.1 3.6 1.1 9.3-0.7 12.8-2 3.9-6.9 5-10.7 5-0.3 0-0.5 0-0.8 0-3.6-0.3-8-0.3-11.5-1.8-4.4-1.8-3.2-10.1-3.2-14.4 0-2.8-1.5-11.1 0.3-13.2 1.1-1.2 3.8-1.5 6.4-1.5 1.9 0 3.7 0.1 4.9 0.2zm-10.3 2.1c-0.2 0.3-0.6 1.1-0.6 3.5-0.1 1.8 0.1 3.8 0.3 5.6 0.1 1.4 0.2 2.5 0.2 3.3 0 0.8-0.1 1.6-0.1 2.5-0.2 4-0.4 9.6 2.5 10.8 2.6 1.1 6 1.4 9 1.6 0.7 0.1 1.4 0.1 2.1 0.2 0.2 0 0.5 0 0.7 0 2.2 0 7.6-0.4 9.6-4.3 1.3-2.5 1-6.5 0.7-9.8-0.1-0.8-0.2-1.7-0.2-2.4 0-0.8 0-1.8 0-2.8 0-2.9 0.1-7.2-1.4-8.1-0.9-0.5-2.8-0.9-4.5-0.9q-0.5 0-0.9 0c-0.5 0.1-1.1 0.1-1.7 0.1-1 0-2 0-2.9-0.1-0.9 0-1.8-0.1-2.7-0.1-0.2 0-0.4 0-0.7 0-1.1-0.1-2.5-0.2-4-0.2-3.8 0-5 0.7-5.4 1.1z"/>
			</g>
			<g id="Layer">
				<path id="Layer" fill-rule="evenodd" class="s0" d="m166.2 33.8q0.5 0 0.9 0c2.4-0.1 4.8-0.2 7.2-0.2 2.9 0 5.8 0.1 8.7 0.4l3.7 0.4c3.1 0.3 4.4 0 4.6 3.6 0.3 5.3 0.3 10.2 0 15.5-0.5 4.8 0.3 10.6-5.6 10.9q-1.1 0-2.1 0c-3.8 0-7.8-0.3-11.5-0.3-3 0-6.1-0.1-9.1-0.1-1.5 0-3 0-4.5 0.1-0.5 0-1.1 0-1.7 0-3.9 0-8.3-0.7-10.3-4.4-2.1-4-1.5-10.2-1.8-14.5-0.3-2.8-1.4-9 0.7-10.5 2.2-1.5 7.4-1.1 9.9-1.3 0.6-0.1 1.2-0.1 1.8-0.1 3 0 6.1 0.5 9.1 0.5zm-10.6 0.8c-0.6 0.1-1.3 0.1-2.1 0.1-2.4 0-5.9 0.1-7.2 1-0.1 0.1-0.7 0.6-0.7 3-0.1 1.7 0.2 3.7 0.4 5.2 0 0.5 0.1 0.9 0.1 1.2 0.1 1.2 0.1 2.4 0.1 3.8 0 3.6 0.1 7.6 1.5 10.2 1.4 2.5 4.3 3.7 9.2 3.7 0.5 0 1 0 1.6 0 1.4-0.1 2.9-0.1 4.6-0.1 1.5 0 3.1 0.1 4.6 0.1 1.4 0.1 2.9 0.1 4.4 0.1 1.9 0 3.9 0.1 5.8 0.2 1.9 0.1 3.9 0.2 5.8 0.2 0.7 0 1.4 0 2 0 3.6-0.2 4-2.8 4.2-7.3 0.1-0.8 0.1-1.7 0.2-2.5 0.3-5.2 0.3-10.1 0-15.3-0.1-1.1-0.2-1.8-0.5-2-0.3-0.2-1.1-0.3-2-0.4-0.3 0-0.6-0.1-1-0.1l-3.7-0.4c-2.8-0.3-5.6-0.4-8.6-0.4-2.3 0-4.7 0-7.2 0.2-0.3 0-0.7 0-1 0-1.5 0-3.1-0.2-4.6-0.3-1.4-0.2-3-0.3-4.4-0.3-0.5 0-1.1 0.1-1.5 0.1z"/>
			</g>
			<g id="Layer">
				<g id="Layer">
					<path id="Layer" fill-rule="evenodd" class="s0" d="m20.2 71.7c-0.7 5.2-1.2 10.1-1.2 15.3-0.2 4 3 20.8-2.7 21.5h-1.2c-2.3-2.3-3.8-6-4.6-9.5-0.8-3.6-0.1-12.2 1.4-23.6 1.4-11.4 6.5-14.1 6.5-14.1 2.9 1.2 2 7.6 1.8 10.4zm-7.1 3.9c-1 8-2.3 19.2-1.4 23.1 0.8 3.4 2.2 6.5 3.9 8.5h0.5c1.5-0.3 2-2.9 2.2-5.1 0.3-3.2 0-7.2-0.3-10.4-0.2-2.1-0.4-3.8-0.3-4.8 0-4.6 0.3-9.4 1.2-15.4 0-0.2 0.1-0.5 0.1-0.8 0.2-2 0.6-6.5-0.6-7.9-1.3 1.1-4.3 4.4-5.3 12.8z"/>
				</g>
			</g>
			<g id="Layer">
				<path id="Layer" fill-rule="evenodd" class="s0" d="m67 20.1c6.4 1.3 14.1 2.5 20 6.2 10.6 6.9 10.6 33.3-3.7 36-1.2 0.2-2.3 0.3-3.5 0.3-7.3 0-15.4-3.5-22.2-5-6.2-1.5-11.6-3.1-17.6-4.9 0 0 5.2-3.2 6.9-6.8 1.7-3.6 2.5-8.9 2.7-11.6 0.2-2.7 0.6-9 0.7-10 0.2-3.3 1.2-6.5 1.2-6.5 3.8 1 11 1.3 15.5 2.3zm-15.5 4.5v0.2c-0.4 6-0.6 8.6-0.7 9.8-0.1 1.2-0.8 7.6-2.8 12-1.1 2.3-3.4 4.5-5.2 5.8 4.7 1.4 9.6 2.8 15 4.1 2.3 0.5 4.7 1.2 7.2 2 4.9 1.5 10 3 14.7 3 1.1 0 2.2-0.1 3.2-0.3 2.5-0.5 4.7-1.8 6.4-4 1.5-2 2.7-4.7 3.3-7.8 0.8-4.1 0.7-8.7-0.5-12.8-1.1-4.2-3.3-7.5-5.9-9.2-5.2-3.3-12-4.6-18-5.7q-0.7-0.2-1.5-0.3c-2-0.5-4.7-0.8-7.4-1.1-2.6-0.3-5-0.6-6.9-1-0.3 1.1-0.7 3.1-0.9 5.3z"/>
			</g>
			<g id="Layer">
				<path id="Layer" fill-rule="evenodd" class="s0" d="m33.3 74.7c3 0.5 4.3 4 4.8 6.9 0.6 4.1 0.1 8.2-1.9 11.8-1.1 1.9-3 3.7-5.3 3.7h-0.1c-2.3-0.1-3.8-1.7-4.7-3.6-1.9-4.1-2.2-9.4-0.4-13.6 1.2-2.9 3.7-5.2 7-5.4q-0.1 0 0 0c0.2 0 0.4 0.1 0.6 0.2zm-6.5 5.8c-1.6 3.8-1.5 8.7 0.4 12.6 0.9 1.9 2.1 2.9 3.6 2.9h0.1c1.8 0 3.4-1.6 4.2-3.1 1.7-3.2 2.3-7 1.7-11-0.3-1.6-1.2-5.4-3.8-5.9h-0.4l-0.1-0.2c-2.5 0.2-4.6 1.9-5.7 4.7z"/>
			</g>
			<g id="Layer">
				<g id="Layer">
					<path id="Layer" fill-rule="evenodd" class="s0" d="m82.4 6c2.6 0 5.2 0.1 7.8 0.2 2.7 0.1 10.2 0.1 19.5 0.1 21.5 0 52.8-0.1 59-0.2q2.2 0 4.5 0c5.9 0 11.7 0.2 17.5 0.8 8.5 0.9 16.9 2.6 25.2 4.8 7.1 2 13.6 4.2 18.9 8-0.1 0-0.2 0-0.2 0-0.2 0.1-0.4 0.1-0.6 0.2-0.3 0.1-0.7 0.2-1 0.3-0.8 0.2-1.6 0.4-2.4 0.5-0.1 0-0.5 0.1-0.5 0.1-0.2 0.1-0.3 0.1-0.5 0.1-0.4 0-0.8 0.1-1.2 0.1-0.8 0-1.7 0.1-2.5 0.1-1.6 0.1-3.1 0.1-4.7 0.1-9.8 0-19.6-0.9-29.4-1.7-14.8-1.2-29.6-1.6-44.4-1.6-14.6 0-29.1 0.3-43.6 0.5-1 0-1.9 0-2.9 0-3.8 0-7.6-0.1-11.4-0.6-4-0.5-8.7-1.6-12.2-3.7-3.1-1.8-5.5-4.4-6.9-7.6 0.3-0.1 0.6-0.1 0.9-0.1 3.1-0.3 6.1-0.4 9.2-0.4 0.7 0 1.3 0 1.9 0zm-10 1.3c1.3 2.2 3.2 4 5.6 5.4 3.9 2.3 9.1 3.3 11.8 3.6 3.2 0.4 6.7 0.6 11.2 0.6 0.9 0 1.8 0 2.9 0 4.4-0.1 8.9-0.1 13.3-0.2 10-0.1 20.2-0.3 30.3-0.3 17.4 0 31.5 0.5 44.5 1.6l1.7 0.1c9 0.8 18.4 1.6 27.6 1.6 1.6 0 3.2-0.1 4.7-0.1 0.8 0 1.7 0 2.5-0.1 0.4 0 0.8-0.1 1.1-0.1 0.1 0 0.4 0 0.5 0 0 0 0.2 0 0.4 0q0.7-0.2 1.5-0.3c-5-2.9-10.8-4.8-16.4-6.3-8.3-2.2-16.7-3.8-25.1-4.7-5.1-0.5-10.6-0.8-17.3-0.8q-2.1 0-4.5 0c-6.4 0.1-37.9 0.2-59 0.2-10.5 0-17 0-19.5-0.1h-1.1c-2.2-0.1-4.5-0.2-6.7-0.2-0.6 0-1.3 0-1.9 0-2.6 0-5.4 0.1-8.1 0.1z"/>
				</g>
			</g>
			<g id="Layer">
				<g id="Layer">
					<path id="Layer" fill-rule="evenodd" class="s0" d="m19.2 102.9c4.2 0.4 8.3 1.2 12.5 1.8 0.8 0.2 1.8 0.2 2.7 0.2 1.1 0 2.1 0 3.1 0q0.8 0 1.5 0c1.9 0.1 3.7 0.5 5.2 1.6 0.8 0.6 1.4 1.5 1.8 2.4 0.5 1.3 0.5 2.9 0.4 4.2-0.3 5.7-5.1 6.5-10.1 6.5-1.8 0-3.7-0.1-5.4-0.1-4.5 0-8.9-0.9-13.3-1.8-3-0.7-6.6-1.3-8.9-3.5-2.5-2.3-3.8-6.9-0.7-9.3 2.1-1.7 4.9-2.1 7.6-2.1 1.3 0 2.5 0.1 3.6 0.1zm-10.5 2.8c-0.8 0.7-1.3 1.6-1.3 2.7-0.1 1.6 0.8 3.6 2.1 4.8 1.9 1.9 5 2.5 7.8 3.1l0.5 0.1c4.2 0.8 8.6 1.7 13.1 1.7 0.8 0 1.7 0.1 2.6 0.1 0.9 0.1 1.9 0.1 2.8 0.1 6.2 0 8.7-1.5 8.9-5.4 0.2-1.5 0-2.7-0.3-3.6-0.3-0.7-0.8-1.4-1.4-1.8-1.1-0.8-2.5-1.2-4.5-1.3-0.4 0-0.9 0-1.4 0q-0.7 0-1.5 0-0.7 0-1.5 0c-1.2 0-2.1-0.1-2.9-0.2-1.2-0.2-2.5-0.4-3.7-0.6-2.9-0.4-5.9-0.9-8.8-1.2-1.1-0.1-2.3-0.2-3.6-0.2-3.1 0-5.3 0.6-6.9 1.7z"/>
				</g>
			</g>
		</g>
		<g id="Layer">
			<g id="Layer">
				<g id="Layer">
					<path id="Layer" class="s1" d="m220.2 113.5l-0.1-0.1c0.4-1.3 0.6-1.7 0.6-1.9v0.1c0.3-1.1 0.4-2.4 0.5-3.5 0-0.1 0-0.3 0-0.5 0.1-1.5 0.1-2.8 0-4.1-0.2-1.9-0.9-4.3-2.2-7.2q-1.5-3.3-3.9-6c-2.3-2.5-6.1-5.7-11.2-6.8-1.9-0.4-3.8-0.6-5.6-0.6-0.7 0-1.3 0-1.9 0.1-0.3 0-0.5 0.1-0.8 0.1-5 0.6-9.4 2.4-12.8 5-2.6 2.1-4.8 4.8-6.7 8.3-1.3 2.4-2.1 4.7-2.4 7-0.3 2.5 0.1 5 0.5 7.3v0.3c0 0.2 0.1 0.4 0.1 0.6l0.6 2.6-2.1 0.6c-3 0.7-17 1.2-34.7 1.2-16.9 0-35.6-0.5-39.3-1.5l-2.4-0.6c0.4-1.9 0.5-2.2 0.5-2.3 0.5-4.5 0.9-8.6-0.9-13.1-1.7-4.2-4-7.7-6.8-10.1-4.2-3.7-9.8-5.7-15.6-5.7-2 0-4 0.2-6 0.7-2.1 0.6-4.2 1.4-5.8 2.4-3 1.9-5.5 4.6-7.3 8-1.2 2.2-2 4-2.6 5.7-0.6 1.8-1 3.7-1.3 5.6-0.5 3.2-0.5 6.9 0 10.5-2.3 0-4.6 0.1-6.8 0.2-2.4 0.1-4.6 0.2-6.8 0.2-8.5 0-15.4-1.2-21.3-7-7.1-7-5.7-17.9-4.4-27.5 0.2-1.8 0.4-3.4 0.6-5.1l0.4-2.2c1.2-12.6 9-14.9 17.3-17.2 6.5-1.8 13.3-3.8 17.4-10.7 2.7-4.8 3-10.9 3.4-16.7 0.3-5.3 0.6-10.3 2.5-14.3 2.2-4.4 6-6.9 12.2-7.7 2-0.2 4.2-0.4 6.3-0.6 3-0.3 6.1-0.4 9.1-0.4 0.6 0 1.3 0 1.9 0 2.3 0.1 4.5 0.1 6.7 0.2h1.1c2.5 0.1 9 0.1 19.5 0.1 21.1 0 52.7-0.1 59-0.2q2.4 0 4.5 0c6.8 0 12.3 0.2 17.4 0.8q12.7 1.4 25.2 4.8c11.4 3.1 22.1 6.9 28.1 18.9 5.8 11.3 9.1 24.9 9.8 40.5 0.6 13.3-0.8 27.8-4 41.9l-0.6 1.6c-1.6 0.7-5.6 1.2-10.4 1.2-5.9 0-13.9-0.8-18.5-2.9z"/>
				</g>
				<g id="Layer">
					<path id="Layer" fill-rule="evenodd" class="s2" d="m82.4 5.9c2.6 0 5.2 0.1 7.8 0.2 2.7 0.1 10.2 0.1 19.5 0.1 21.5 0 52.8-0.1 59-0.2q2.2 0 4.5 0c5.9 0 11.7 0.2 17.5 0.8 8.5 0.9 16.9 2.6 25.2 4.8 12.3 3.4 22.6 7.4 28.3 18.7 12.6 24.4 11.8 56.6 5.9 82.9l-0.7 1.9c-1.7 0.9-5.9 1.4-10.9 1.4-6.5 0-14.3-0.8-18.8-2.8l-0.5-0.3 0.7-2.3c0.4-1.2 0.5-2.6 0.6-3.9q0.2-1.9 0-3.9c-0.2-2.3-1.2-4.9-2.1-7-0.9-2.1-2.2-4.1-3.8-5.8-2.9-3.2-6.7-5.7-10.9-6.6-1.7-0.4-3.6-0.6-5.5-0.6-0.6 0-1.2 0-1.8 0.1-0.3 0-0.5 0.1-0.8 0.1-4.5 0.6-8.9 2.1-12.5 4.9-2.8 2.2-4.9 5-6.6 8.1-1.1 2.1-2 4.4-2.3 6.8-0.3 2.4 0.1 4.8 0.5 7.1 0.1 0.3 0.1 0.6 0.2 0.9l0.7 3.2-2.7 0.8c-3.4 0.8-18.9 1.2-34.9 1.2-17.6 0-35.8-0.5-39.5-1.5l-3-0.8 0.7-2.8c0.6-4.5 0.9-8.5-0.8-12.8-1.4-3.6-3.6-7.2-6.6-9.8-4.2-3.6-9.7-5.5-15.2-5.5-2 0-4 0.2-5.9 0.7-1.9 0.5-4 1.3-5.7 2.3-3.1 1.9-5.4 4.6-7.1 7.8-0.9 1.7-1.9 3.7-2.5 5.6-0.6 1.8-1 3.6-1.3 5.5-0.6 3.6-0.5 7.5 0.1 11.1-5 0-9.8 0.3-14.3 0.3-8.3 0-15.6-1-21.8-7.1-8.7-8.5-5.1-22.2-4-33.2l0.4-2.2c2.2-22.9 25.5-12.6 34.8-28.1 7.4-13.3-3.2-36 18.6-39 2.2-0.2 4.3-0.4 6.4-0.6 3.1-0.3 6.1-0.4 9.2-0.4 0.7 0 1.3 0 1.9-0.1zm-10.9 1.8c-2.1 0.1-4.2 0.4-6.3 0.6-13.1 1.8-13.6 10.9-14.2 21.4-0.4 5.9-0.7 12-3.5 17-4.3 7.2-11.2 9.1-17.8 11-8.5 2.3-15.7 4.4-16.9 16.6l-0.4 2.2c-0.1 1.6-0.4 3.3-0.6 5.1-0.6 5-1.3 10.1-0.9 14.8 0.5 5.2 2.2 9.2 5.2 12.2 5.7 5.6 12.5 6.8 20.9 6.8 2.1 0 4.4-0.1 6.7-0.2 2-0.1 4-0.2 6.1-0.2-0.4-3.4-0.4-6.9 0.1-10 0.3-1.9 0.8-3.8 1.4-5.7 0.6-1.7 1.4-3.5 2.6-5.8 1.9-3.6 4.4-6.3 7.6-8.3 1.6-1 3.8-1.9 6-2.4 2.1-0.5 4.1-0.7 6.2-0.7 6 0 11.7 2 16 5.8 2.8 2.5 5.2 6.1 6.9 10.3 1.8 4.6 1.5 8.8 0.9 13.4 0 0.2-0.1 0.6-0.4 1.8l1.8 0.5c3.1 0.9 19.2 1.5 39.1 1.5 17.4 0 31.6-0.5 34.6-1.2l1.5-0.4-0.4-2c0-0.3-0.1-0.5-0.1-0.7 0 0 0-0.1 0-0.2-0.5-2.4-0.8-4.9-0.5-7.5 0.2-2.4 1-4.8 2.4-7.3 1.9-3.6 4.2-6.4 6.9-8.5 3.5-2.7 8-4.5 13.1-5.1 0.3 0 0.5-0.1 0.8-0.1 0.7-0.1 1.3-0.1 2-0.1 1.9 0 3.9 0.2 5.8 0.6 5.3 1.1 9.2 4.4 11.5 7 1.7 1.9 3 4 4 6.2 1.3 3 2 5.4 2.2 7.4q0.1 2 0 4.2c0 0.1 0 0.3 0 0.5-0.1 1.1-0.3 2.4-0.6 3.6-0.1 0.2-0.2 0.6-0.4 1.3 4.6 1.9 12.2 2.6 17.9 2.6 4.5 0 8.3-0.5 10-1.1l0.5-1.3c3.1-14.1 4.5-28.5 3.9-41.7-0.7-15.4-4-29-9.8-40.2-2.6-5.2-6.3-9.3-11.4-12.3-5-3-10.8-4.8-16.3-6.3-8.3-2.2-16.7-3.8-25.1-4.7-5.1-0.5-10.6-0.8-17.3-0.8q-2.1 0-4.5 0c-6.4 0.1-37.9 0.2-59 0.2-10.5 0-17 0-19.5-0.1h-1.1c-2.2-0.1-4.5-0.2-6.7-0.2-0.6 0-1.3 0-1.9 0-3 0-6 0.1-9 0.5z"/>
				</g>
			</g>
			<g id="Layer">
				<path id="Layer" class="s1" d="m52.4 99.8c-0.6 1.8-1 3.6-1.3 5.5-0.4 2.5-0.4 5.3-0.2 7.9-2.6-0.4-5.1-1-7.6-1.8-1.4-4.6-3-9.2-3.8-13.9-0.5-2.6-0.8-5.2-0.4-7.8 0.2-2.1 1.1-4 2.4-5.7 3.4-4.5 8.8-7.8 14.1-9.7 7.1-2.6 14.4-0.5 21.4 1.3 3.7 0.9 7.2 1.4 11 1.5 3.1 0.1 6.3 0.1 9 1.8 4 2.5 4.6 7.3 4.9 11.6 0.3 5-0.2 10.8 3.6 14.7 3.6 3.6 9 4.4 13.8 4.5 3.8 0.1 7.5 0.3 11.2 0.8 3.8 0.5 7.6 1.2 11.4 1.8 5.9 0.8 11.7 1.2 17.4-0.9 2.4-0.9 4.9-2.2 6.6-4.2 1.9-2.3 2.3-5.2 2.7-8.1 0.2-1.6 0.4-3.2 0.9-4.8 0.5-1.5 1.1-3.1 1.9-4.5 1.6-3 3.6-5.7 6.3-7.9 9.2-7.5 22.3-8.1 33.5-5.6 5 1.1 10.1 3 14.1 6.2 1.9 1.6 3.6 3.4 4.9 5.6 1.3 2.2 1.9 4.7 2.5 7.1 0.5 1.9 0.9 4 2 5.6 1.2 1.7 2.9 2.8 5 3.2 1.6 0.3 3.2 0.3 4.8 0.5 1.5 0.2 3 0.6 4.4 1.2 1 0.4 2 0.8 3 1.3-0.4 2.3-0.9 4.6-1.4 6.9l-0.7 1.9c-1.7 0.9-6 1.4-10.9 1.4-6.6 0-14.3-0.9-18.8-2.8l-0.5-0.3 0.7-2.3c0.4-1.2 0.4-2.6 0.6-3.9q0.1-2 0-3.9c-0.2-2.3-1.2-4.9-2.1-7-0.9-2.1-2.2-4.1-3.8-5.8-2.9-3.2-6.6-5.7-10.9-6.6-1.7-0.4-3.7-0.6-5.5-0.6-0.6 0-1.2 0-1.8 0.1-0.2 0-0.5 0.1-0.8 0.1-4.5 0.6-8.9 2.1-12.5 4.9-2.8 2.2-4.9 5-6.6 8.1-1.1 2.1-2 4.4-2.3 6.8-0.3 2.4 0 4.8 0.5 7.1 0.1 0.3 0.1 0.6 0.2 0.9l0.7 3.2-2.7 0.8c-3.4 0.8-18.9 1.2-34.9 1.2-17.6 0-35.8-0.5-39.5-1.5l-3-0.8 0.7-2.8c0.6-4.5 0.9-8.5-0.8-12.8-1.4-3.7-3.6-7.2-6.6-9.8-4.2-3.7-9.7-5.5-15.2-5.5-2 0-3.9 0.2-5.9 0.7-1.9 0.5-4 1.2-5.7 2.3-3.1 1.9-5.4 4.6-7.1 7.8-1.3 1.1-2.2 3.1-2.9 5z"/>
			</g>
			<g id="Layer">
				<g id="Layer">
					<path id="Layer" class="s3" d="m39.9 108.7c-4.5-2.1-7.8-5.8-9.8-10.8-2.2-5.9-1.7-13.3 1.3-18.7 2.4-4.2 5.9-6.9 10.3-7.9 3-0.7 6.4-1 10.3-1 3.6 0 7.2 0.3 10.7 0.5 1.1 0 2.3 0.1 3.4 0.2 1.7 0.1 3.4 0.2 5.1 0.2 6.4 0.1 13 0.3 18.9 4 10.4 6.9 11.3 17.1 11.3 27.1v6.2l-52.5 2.4v-0.2l-0.7 0.2c0 0-0.2 0-0.4 0-1.9 0-6.5-1.6-7.9-2.2z"/>
				</g>
				<g id="Layer">
					<g id="Layer">
						<path id="Layer" fill-rule="evenodd" class="s2" d="m62.8 70c1.1 0 2.3 0.1 3.4 0.2 1.7 0.1 3.4 0.2 5.1 0.2 6.5 0.1 13.2 0.3 19.2 4.1 10.7 7.1 11.6 17.6 11.6 27.7v6.8l-53.7 2.4v-0.1c-0.2 0.1-0.4 0.1-0.6 0.1-2.1 0-6.8-1.6-8-2.3-4.7-2.2-8.1-6-10.2-11.2-2.2-6.1-1.7-13.6 1.4-19.2 2.4-4.4 6.1-7.2 10.7-8.2 3.4-0.8 7-1 10.5-1 3.5 0 7.1 0.3 10.6 0.5zm-20.7 1.7c-4.2 0.9-7.7 3.5-9.9 7.6-2.9 5.3-3.4 12.4-1.3 18.2 1.9 4.9 5.1 8.4 9.5 10.5 1 0.6 5.5 2.1 7.4 2.1q0.3 0 0.3 0l1.4-0.3v0.3l51.3-2.3v-5.6c0-4.9-0.2-10-1.7-14.6q-2.4-7.5-9.3-12c-5.7-3.6-12.2-3.8-18.5-3.9-1.7-0.1-3.4-0.1-5.1-0.2-1.1 0-2.3-0.1-3.4-0.2-3.5-0.2-7.1-0.5-10.6-0.5-3.9 0-7.3 0.3-10.1 0.9z"/>
					</g>
				</g>
			</g>
			<g id="Layer">
				<path id="Layer" class="s3" d="m31 78.8c2.4-4.4 6.1-7.2 10.7-8.2 3.4-0.7 6.9-1 10.5-1 3.6 0 7.2 0.3 10.7 0.5 1.1 0.1 2.3 0.2 3.4 0.2 1.7 0.1 3.4 0.1 5.1 0.2 6.5 0.1 13.2 0.3 19.2 4.1 10.7 7.1 11.6 17.5 11.6 27.7v6.8h-0.4c-0.2-10.7-1.8-22.3-11.1-29-4.4-3.2-9.7-4.6-15-4.9-3.3-0.2-6.6-0.1-9.9 0q-6 0.1-12 0.3c-6.1 0.2-12.7 0.8-17.7 4.9-5 4-6.1 10.7-3.6 16.5 5.2 11.9 20.6 10.2 31.3 9.8 8.1-0.3 16.1-1 24.2-1.2 2.9-0.1 5.8-0.1 8.7 0.1 0.8 0 1.7 0.2 2.4-0.1 0.1 1.3 0.1 2.5 0.1 3.8l-50.7 2.3v-0.1c-0.2 0-0.4 0.1-0.6 0.1-2.1 0-6.8-1.6-8-2.3-4.7-2.2-8.1-6-10.2-11.2-2.3-6.2-1.8-13.8 1.3-19.3z"/>
			</g>
			<g id="Layer">
				<path id="Layer" class="s1" d="m144.6 31.8c2.1-1.4 4.7-1.7 7.1-1.8 4.4-0.1 8.8 0.3 13.1 0.2 4.5-0.1 9.1-0.2 13.5 0.5 3.1 0.5 7.7 1.4 9.3 4.5-0.5 0.5-0.6 1.2 0 1.7 1.4 1.2 1.6 3.7 1.8 5.4 0.2 2.5 0 5-0.2 7.4-0.2 2.5-0.6 5-0.9 7.4-0.3 2-0.3 4.2-0.7 6.2-0.3 1.8-1.1 2-2.9 2.2-3.6 0.4-7.1 0.8-10.7 1.1-3.7 0.3-7.4 0.3-11.1 0.6-3.6 0.2-7.2 0.5-10.8 0-2.6-0.4-6.2-1-7.7-3.5-1.2-2-1.3-4.5-1.3-6.8 0-2.5 0.2-5 0-7.5-0.4-3.3-1.3-6.5-1.4-9.8-0.2-2.7 0.3-6.2 2.9-7.8z"/>
			</g>
			<g id="Layer">
				<path id="Layer" class="s1" d="m11.3 76.4l0.4-2.2c2.2-22.9 25.5-12.6 34.8-28.1 7.4-13.3-3.3-36.1 18.6-39q3.1-0.5 6.3-0.6c-0.8 1.1-1.7 2.2-2.2 3.5-1.2 3.2 1.6 5.9 3.9 7.6 6.3 4.7 15.2 5 20.7 10.9 6.2 6.7 7.5 17.3 4.7 25.8-1.4 4.2-3.9 8.1-7.7 10.5-5.1 3.2-11.2 1.9-16.5 0.1-6.1-2-11.9-4.6-18.1-6.2-3.5-1-7.2-1.7-10.8-1.5-3.6 0.2-6.9 1.1-10.1 2.6-4.5 2-8.8 4.9-11.6 9.1-2.5 3.7-3.7 8.1-4.3 12.5-0.3 2.5-0.4 5-0.5 7.4 0 2.7-0.2 5.6 0.1 8.3 0.2 2.1 0.6 4.4 1.9 6.1 1.2 1.6 2.8 2.7 4.6 3.6 2.5 1.2 5 2.3 7.5 3.4 2.7 1.2 5.4 2.4 8.2 3.3 0.3 1.1 0.7 2.1 1 3.2-1.8 0.1-3.5 0.1-5.2 0.1-8.2 0-15.6-1.1-21.8-7.1-8.6-8.6-5.1-22.4-3.9-33.3z"/>
			</g>
			<g id="Layer">
				<path id="Layer" class="s1" d="m225.5 51.9c-0.4 2.6-0.2 5.3-0.7 7.9-0.3 1.7-1.1 3.3-2.8 4-2.1 0.8-4.2 1.4-6.4 1.9-2.5 0.7-5 1.3-7.5 1.4-4.1 0.3-9.4-0.2-10.9-4.8-0.9-2.7-0.9-5.6-1-8.4-0.1-4.1 0.2-8.1 0.4-12.2 0.1-2.3-0.3-6 1.6-7.7 1.4-1.3 3.6-1.5 5.5-1.7 5.2-0.5 15.7-2.5 19.9 2-0.1 0.3-0.2 0.6-0.1 0.9 1.7 5.5 2.9 11 2 16.7z"/>
			</g>
			<g id="Layer">
				<path id="Layer" class="s1" d="m253 72.6c-3.3-0.4-6.5-1.2-9.8-1.8-3.4-0.6-8.4 0.1-11-2.8-1.3-1.5-1.7-3.7-2-5.6-0.6-3.9-0.9-7.9-1-11.8-0.1-3.1-0.3-6.3 0.1-9.4 0.2-1.9 0.7-3.9 2-5.3 1.6-1.7 3.8-2.3 6-2.8 2.5-0.6 5.3-1.2 7.9-0.7 5.9 12.2 8.6 26.2 9.2 40.4-0.5-0.1-1-0.1-1.4-0.2z"/>
			</g>
			<g id="Layer">
				<g id="Layer">
					<path id="Layer" class="s4" d="m220.2 113.6c0.3-1.4 0.4-1.8 0.5-1.9v0.1c0.3-1.1 0.4-2.4 0.5-3.5 0-0.2 0-0.4 0-0.5 0.1-1.5 0.1-2.8 0-4.1-0.2-1.9-0.9-4.3-2.2-7.2q-1.5-3.3-3.9-6c-2.3-2.5-6-5.7-11.2-6.8-1.9-0.4-3.8-0.6-5.6-0.6-0.7 0-1.3 0-1.9 0.1-0.3 0-0.5 0.1-0.8 0.1-5 0.6-9.4 2.3-12.8 5-2.6 2-4.9 4.8-6.7 8.3-0.8 1.5-1.4 3-1.8 4.4 0.1-0.4 0.1-0.8 0.2-1.2 1-4.9 2.8-8.8 5.5-11.8 3.5-3.9 8.3-6.6 13.4-7.7 1.9-0.4 4-0.6 6.1-0.6 4.2 0 8.6 0.8 12.7 2.4 5.7 2.1 9.7 5.3 12.3 9.6 3.9 6.5 5.5 15.3 4.2 24.2-3.6-0.7-6.5-1.4-8.5-2.3zm-46.1 0.9c-0.3-2.5-0.4-4.9-0.4-7.1 0.1 1.2 0.3 2.3 0.5 3.4v0.3c0 0.2 0.1 0.4 0.1 0.6l0.6 2.6z"/>
				</g>
				<g id="Layer">
					<path id="Layer" fill-rule="evenodd" class="s2" d="m212.3 81.1c5.2 2 9.7 5.1 12.6 9.9 4.5 7.4 5.6 16.7 4.2 25.2-3.6-0.4-6.9-1.1-9.3-2.2l-0.5-0.3 0.7-2.3c0.4-1.2 0.5-2.6 0.6-3.9q0.2-1.9 0-3.9c-0.2-2.3-1.2-4.9-2.1-7-0.9-2.1-2.2-4.1-3.8-5.8-2.9-3.2-6.7-5.7-10.9-6.6-1.7-0.4-3.6-0.6-5.5-0.6-0.6 0-1.2 0-1.8 0.1-0.3 0-0.5 0.1-0.8 0.1-4.5 0.6-8.9 2.1-12.5 4.9-2.8 2.2-4.9 5-6.6 8.1-1.1 2.1-2 4.4-2.3 6.8-0.3 2.4 0.1 4.8 0.5 7.1 0.1 0.3 0.1 0.6 0.2 0.9l0.7 3.2-2.1 0.6c-0.7-5.3-0.7-10.6 0.3-15.8 0.9-4.4 2.7-8.7 5.7-12.1 3.6-4 8.4-6.8 13.7-7.9 2.1-0.4 4.1-0.6 6.2-0.6 4.4 0 8.8 0.8 12.8 2.1zm-18.7-0.4c-5 1-9.7 3.7-13.1 7.5-1.4 1.5-2.6 3.3-3.5 5.4 1.6-2.4 3.5-4.4 5.5-6 3.5-2.7 8-4.5 13.1-5.1 0.3 0 0.5-0.1 0.8-0.1 0.7-0.1 1.3-0.1 2-0.1 1.9 0 3.9 0.2 5.8 0.6 5.3 1.1 9.2 4.4 11.5 7 1.7 1.9 3 4 4 6.2 1.3 3 2 5.4 2.2 7.4q0.1 1.9 0 4.2c0 0.1 0 0.3 0 0.5-0.1 1.1-0.3 2.4-0.6 3.6-0.1 0.2-0.2 0.6-0.4 1.3 1.9 0.7 4.4 1.4 7.3 1.8 0.5-3.8 0.5-7.7-0.1-11.4-0.7-4.4-2-8.3-4.1-11.7-2.6-4.2-6.5-7.2-12-9.3-4.1-1.5-8.4-2.3-12.5-2.3-2.1 0-4.1 0.2-5.9 0.5z"/>
				</g>
			</g>
			<g id="Layer">
				<g id="Layer">
					<path id="Layer" class="s4" d="m49.8 115.7c0.1-2.2 0.2-4.3 0.4-6.3 0 2.1 0.1 4.2 0.4 6.3-0.3 0-0.6 0-0.8 0zm49-1.2l-2.4-0.6c0.5-1.9 0.5-2.2 0.5-2.3 0.6-4.5 0.9-8.6-0.9-13.1-1.6-4.1-4-7.6-6.8-10.1-4.2-3.7-9.8-5.7-15.6-5.7-2 0-4 0.2-6 0.7-2.2 0.5-4.3 1.4-5.8 2.4-3.1 1.9-5.5 4.6-7.3 8-1.2 2.2-2 4.1-2.6 5.7-0.2 0.5-0.3 1-0.5 1.5 1.4-6.8 4-12.1 7.6-15.8 3.6-3.7 8.4-5.6 13.8-5.6 0.4 0 0.9 0 1.3 0 6.1 0.4 12.2 2.7 17 6.5 4.4 3.6 7.5 8.3 9.1 14 1.5 5.2 1.9 10.2 1.4 14.9-0.9 0-1.9-0.2-2.8-0.5z"/>
				</g>
				<g id="Layer">
					<path id="Layer" fill-rule="evenodd" class="s2" d="m74.3 79c6.3 0.4 12.4 2.7 17.4 6.7 4.6 3.7 7.7 8.6 9.3 14.3 1.4 5.1 2 10.5 1.3 15.8-1.3-0.2-2.5-0.5-3.7-0.8l-3-0.8 0.7-2.8c0.6-4.5 0.9-8.5-0.8-12.8-1.4-3.6-3.6-7.2-6.6-9.8-4.2-3.6-9.7-5.5-15.2-5.5-2 0-4 0.2-5.9 0.7-1.9 0.5-4 1.3-5.7 2.3-3.1 1.9-5.4 4.6-7.1 7.8-0.9 1.7-1.9 3.7-2.5 5.6-0.6 1.8-1 3.6-1.3 5.5-0.6 3.6-0.5 7.5 0.1 11.1q-1 0-2.1 0c0.1-4.9 0.5-9.9 1.5-14.8 1.2-6 3.5-12.2 7.9-16.6 3.9-3.9 8.9-5.8 14.3-5.8 0.4 0 0.9 0 1.4-0.1zm-14.7 6.6c-1.3 1.2-2.4 2.7-3.4 4.4 1.5-2 3.3-3.6 5.4-4.9 1.6-1 3.8-1.9 6-2.4 2.1-0.5 4.1-0.7 6.2-0.7 6 0 11.7 2 16 5.8 2.9 2.5 5.2 6.1 6.9 10.3 1.8 4.6 1.5 8.8 0.9 13.4 0 0.2-0.1 0.6-0.4 1.8l1.8 0.5c0.7 0.2 1.5 0.4 2.3 0.6 0.4-4.4-0.1-9.1-1.5-14-1.6-5.6-4.6-10.2-8.9-13.7-4.8-3.8-10.7-6.1-16.7-6.4-0.4 0-0.9 0-1.3 0-5.3 0-9.9 1.9-13.3 5.3z"/>
				</g>
			</g>
			<g id="Layer">
				<g id="Layer">
					<path id="Layer" class="s5" d="m184.5 126.3c-4.4-2.6-8.3-7.9-9.8-13.6-1.3-4.9-1.1-10.5 0.5-15.4 1.3-4.1 4.2-7.7 8.3-10.3 3.6-2.3 8.2-3.9 12.8-4.3 0.7-0.1 1.3-0.1 2-0.1 9.2 0 17.5 5.5 20.8 13.6 1.3 3.1 2.1 6.4 2.2 9.1 0.1 2.7-0.3 5.5-1.2 8.3-0.9 2.8-2.8 5.1-4.7 7.2-3.7 4.1-8.8 6.8-14.8 7.7-1.9 0.3-3.7 0.4-5.4 0.4-4.3 0-7.9-0.8-10.7-2.6z"/>
				</g>
				<g id="Layer">
					<path id="Layer" fill-rule="evenodd" class="s2" d="m219.5 96.1c1.2 2.8 2.1 6.2 2.3 9.3 0.2 2.8-0.3 5.8-1.2 8.5-0.9 2.8-2.8 5.2-4.8 7.4-4 4.5-9.4 7-15.2 7.9-1.8 0.2-3.6 0.4-5.5 0.4-3.8 0-7.7-0.7-11.1-2.6-5-2.8-8.7-8.5-10.1-13.9-1.3-5-1.2-10.8 0.5-15.8 3-9.1 12.6-14.3 21.7-15.1 0.7-0.1 1.4-0.1 2.1-0.1 9.1 0 17.9 5.3 21.3 14zm-23.2-12.6c-4.5 0.4-9 2-12.6 4.3-4 2.6-6.8 6-8.1 10-1.6 4.7-1.8 10.2-0.5 15 1.4 5.6 5.2 10.7 9.5 13.2 2.8 1.7 6.4 2.5 10.5 2.5 1.7 0 3.5-0.1 5.3-0.4 5.8-0.9 10.8-3.5 14.4-7.5 1.9-2.1 3.7-4.4 4.6-7 0.9-2.7 1.3-5.5 1.2-8.1-0.2-2.6-1-5.9-2.2-9-3.1-7.9-11.3-13.2-20.2-13.2-0.7 0-1.3 0-1.9 0.2z"/>
				</g>
			</g>
			<g id="Layer">
				<g id="Layer">
					<path id="Layer" class="s5" d="m58.6 127.8c-6-3.2-8.6-9.7-9.6-13.3-1.6-5.7-0.6-12.3 2.9-18.7 1.4-2.4 3.1-4.7 5.2-6.5 2.1-1.9 4.6-4 7.4-5 2.5-0.9 5.5-1.4 8.6-1.4 1.3 0 2.7 0.1 4 0.3 4.7 0.6 9.1 2.4 11.9 4.9 4.4 3.9 6.9 8.9 8.1 15.7 0.3 1.8 0.5 3.7 0.5 5.6 0.1 6.8-2.3 12.9-6.4 16.6-3.9 3.4-9.4 5.3-15.6 5.3-7.3 0-12.7-1.1-17-3.5z"/>
				</g>
				<g id="Layer">
					<path id="Layer" fill-rule="evenodd" class="s2" d="m77.3 82.5c4.2 0.6 9 2.3 12.2 5.1 4.8 4.3 7.2 9.6 8.3 16.1 0.3 1.9 0.5 3.8 0.5 5.7 0.1 6.3-1.9 12.8-6.6 17.1-4.3 3.9-10.3 5.5-16 5.5-0.1 0-0.1 0-0.1 0-5.9 0-12-0.8-17.2-3.6-5.2-2.8-8.3-8.2-9.9-13.7-1.9-6.5-0.2-13.3 2.9-19.1 1.4-2.5 3.2-4.8 5.3-6.7 2.3-2 4.8-4 7.6-5.1 2.7-1 5.8-1.5 8.8-1.5 1.4 0 2.7 0.1 4.2 0.2zm-12.6 2.6c-2.7 1-5.1 3-7.2 4.8-2 1.8-3.7 4-5 6.4-3.3 6.3-4.3 12.7-2.8 18.2 1 3.5 3.5 9.9 9.3 13 4.2 2.3 9.5 3.4 16.6 3.4h0.1c6 0 11.4-1.9 15.1-5.2 4-3.7 6.3-9.5 6.2-16.2 0-1.9-0.2-3.7-0.5-5.5-1.2-6.8-3.7-11.6-7.9-15.4-2.7-2.4-7-4.2-11.6-4.8q-2-0.3-3.9-0.3c-3.1 0-6 0.5-8.4 1.6z"/>
				</g>
			</g>
			<g id="Layer">
				<path id="Layer" class="s6" d="m194.9 96.3c0.3 0 0.7 0 1 0 3 0 6 1.1 7.8 3.6 1.7 1.9 2.7 4.5 2.8 7q0.2 1.9-0.6 3.9c-0.4 1.3-1.3 2.4-2.2 3.3-1.8 2-4.2 3.2-6.9 3.6-0.8 0.1-1.6 0.2-2.5 0.2-1.8 0-3.5-0.3-5-1.2-2.3-1.3-3.9-3.9-4.6-6.3-0.6-2.3-0.5-4.9 0.2-7.1 1.5-4.3 5.9-6.6 10-7z"/>
			</g>
			<g id="Layer">
				<path id="Layer" class="s6" d="m62.2 103.7c0.6-1 1.3-2 2.2-2.7 0.9-0.8 1.9-1.6 3.1-2.1 1.1-0.4 2.4-0.6 3.6-0.6 0.6 0 1.1 0 1.7 0.1 1.7 0.2 3.7 0.9 5 2.1 2 1.7 2.9 3.9 3.4 6.5 0.1 0.8 0.2 1.5 0.2 2.3 0 2.5-0.8 5.2-2.7 6.9-1.8 1.6-4.2 2.2-6.5 2.2-2.4 0-4.9-0.3-7-1.5-2.1-1.1-3.4-3.3-4-5.6-1-2.5-0.3-5.3 1-7.6z"/>
			</g>
			<g id="Layer">
				<g id="Layer">
					<path id="Layer" class="s7" d="m191.7 114.8c-2-1.1-3.6-3.4-4.3-5.9-0.6-2.2-0.5-4.7 0.2-6.8 1.3-4 5.6-6.1 9.3-6.4 0.3 0 0.7 0 1 0 3 0 5.8 1.2 7.3 3.3 1.5 1.7 2.5 4.1 2.6 6.6 0.1 1.1-0.1 2.4-0.5 3.6-0.3 1.1-1.2 2.2-2 3.1-1.6 1.8-3.9 3-6.5 3.4-0.8 0.1-1.6 0.2-2.4 0.2-1.8 0-3.4-0.3-4.7-1.1z"/>
				</g>
				<g id="Layer">
					<g id="Layer">
						<path id="Layer" fill-rule="evenodd" class="s2" d="m205.9 98.4c1.8 1.9 2.7 4.5 2.8 7 0 1.3-0.2 2.7-0.6 3.9-0.5 1.2-1.3 2.3-2.2 3.3-1.8 2-4.3 3.2-6.9 3.6-0.8 0.1-1.7 0.2-2.5 0.2-1.7 0-3.5-0.3-5-1.2-2.3-1.3-4-3.9-4.6-6.3-0.6-2.2-0.6-4.8 0.2-7.1 1.4-4.1 5.7-6.4 9.8-6.8 0.3 0 0.7 0 1 0 3 0 6 1.2 8 3.4zm-8.9-1.9c-3.5 0.3-7.6 2.3-8.8 6-0.7 2-0.7 4.3-0.2 6.4 0.6 2.4 2.2 4.6 4 5.6 1.2 0.7 2.7 1 4.4 1 0.7 0 1.5-0.1 2.3-0.2 2.5-0.4 4.6-1.5 6.1-3.2 0.8-0.9 1.5-1.8 1.9-2.9 0.4-1.1 0.6-2.3 0.5-3.4-0.2-2.4-1.1-4.7-2.5-6.2v-0.2c-1.4-1.9-4-3.1-6.8-3.1-0.3 0-0.6 0-0.9 0.2z"/>
					</g>
				</g>
			</g>
			<g id="Layer">
				<g id="Layer">
					<path id="Layer" class="s7" d="m67.2 115.2c-2.3-1.3-3.3-3.8-3.7-5.2-0.7-2.2-0.3-4.8 1.1-7.3 0.5-1 1.2-1.9 2-2.6 0.8-0.7 1.8-1.5 2.9-1.9 1-0.4 2.2-0.6 3.4-0.6 0.5 0 1.1 0 1.6 0.1 1.9 0.2 3.6 0.9 4.7 1.9 1.7 1.5 2.7 3.5 3.2 6.2 0.1 0.7 0.2 1.5 0.2 2.2 0 2.7-0.9 5.1-2.5 6.5-1.5 1.4-3.7 2.1-6.1 2.1-2.9 0-5-0.4-6.8-1.4z"/>
				</g>
				<g id="Layer">
					<g id="Layer">
						<path id="Layer" fill-rule="evenodd" class="s2" d="m74.5 97.3c1.8 0.3 3.7 0.9 5 2.1 2 1.7 3 3.9 3.4 6.5 0.1 0.8 0.2 1.5 0.2 2.3 0 2.5-0.8 5.2-2.7 6.9-1.8 1.5-4.2 2.2-6.5 2.2-2.4-0.1-4.9-0.3-7-1.5-2.1-1.2-3.4-3.4-4-5.6-0.7-2.7-0.1-5.4 1.2-7.8 0.6-1 1.3-1.9 2.2-2.7 0.9-0.9 2-1.7 3.1-2.1 1.1-0.4 2.4-0.6 3.6-0.6 0.5 0 1.1 0.1 1.5 0.3zm-4.6 1.6c-1 0.3-1.9 1.1-2.7 1.8-0.8 0.7-1.4 1.5-1.9 2.4-1.3 2.3-1.7 4.8-1.1 6.8 0.3 1.3 1.3 3.7 3.4 4.8 1.6 0.9 3.6 1.3 6.4 1.3 2.3 0 4.3-0.7 5.7-1.9 1.5-1.3 2.3-3.5 2.3-6 0-0.7-0.1-1.4-0.2-2.1-0.5-2.6-1.4-4.4-3-5.8-1-0.9-2.6-1.6-4.3-1.8-0.5-0.1-1-0.1-1.5-0.1-1.2 0-2.3 0.2-3.1 0.6z"/>
					</g>
				</g>
			</g>
			<g id="Layer">
				<g id="Layer">
					<path id="Layer" class="s8" d="m202.7 109.4c1.4-1.7 3.6-2.2 4.7-2.3-0.4 4.8-4.2 7-5.7 7.7-0.4-2.3 0-4.1 1-5.4z"/>
				</g>
				<g id="Layer">
					<path id="Layer" fill-rule="evenodd" class="s2" d="m201.2 115.6c-2-9.1 6.8-9.2 6.8-9.2-0.1 7.1-6.8 9.2-6.8 9.2zm2-5.9c-0.8 1-1.1 2.4-1 4.1 1.6-0.8 3.9-2.7 4.5-6-1.1 0.2-2.6 0.7-3.5 1.9z"/>
				</g>
			</g>
			<g id="Layer">
				<g id="Layer">
					<path id="Layer" class="s8" d="m78.5 110.8c0.7-0.7 1.6-1.1 2.8-1.1 0.3 0 0.5 0.1 0.8 0.1-0.1 1.4-0.7 5.3-5.1 6 0-1.2 0.2-3.6 1.5-5z"/>
				</g>
				<g id="Layer">
					<path id="Layer" fill-rule="evenodd" class="s2" d="m82.7 109.3c0 0 0.2 6.7-6.3 7.2 0 0-0.5-7.4 4.9-7.4 0.4 0 0.9 0 1.4 0.2zm-3.8 1.9c-0.9 1-1.2 2.6-1.3 3.8 1.5-0.4 2.5-1.4 3.2-2.8 0.4-0.7 0.5-1.4 0.6-1.9h-0.1c-1 0-1.7 0.3-2.4 0.9z"/>
				</g>
			</g>
			<g id="Layer">
				<path id="Layer" class="s5" d="m174.4 97.2c3.1-9.1 12.6-14.3 21.7-15.1 0.8-0.1 1.5-0.1 2.3-0.1 5.7 0 11.4 1.9 15.4 5.8-4.8-2.1-10.5-2.5-15.5-1.8-4.9 0.7-9.6 2.8-13.1 6.4-4 4.2-6.9 10.3-6.1 16.3 0.8 5.9 4.4 11.1 9.3 14.3 4.7 3 10.1 4.1 15.6 4.4 0.8 0 1.6 0.1 2.5 0.1-1.9 0.7-3.8 1.2-5.8 1.5-1.8 0.3-3.6 0.4-5.5 0.4-3.9 0-7.8-0.7-11.1-2.6-5-2.9-8.7-8.6-10.1-13.9-1.4-4.9-1.2-10.7 0.4-15.7z"/>
			</g>
			<g id="Layer">
				<path id="Layer" class="s5" d="m51.3 95.6c1.4-2.5 3.2-4.8 5.3-6.7 2.3-2 4.8-4 7.6-5.1 2.7-1 5.8-1.5 8.8-1.5 1.4 0 2.8 0.1 4.1 0.3 2.4 0.3 5 1 7.3 2-3.2-0.6-6.5-0.5-9.5 0.1-10.1 2-18 11-19.9 20.9-0.7 3.8-0.5 7.4 1.1 10.9 1.2 2.6 2.9 5 5 6.8 4.7 4 10.7 5.8 16.8 6.5 3.2 0.4 6.4 0.2 9.3-0.4-3.6 1.8-7.7 2.6-11.6 2.6h-0.1c-5.9 0-12-0.7-17.2-3.6-5.2-2.8-8.3-8.2-9.9-13.7-1.8-6.5-0.2-13.3 2.9-19.1z"/>
			</g>
			<g id="Layer">
				<path id="Layer" class="s9" d="m187 101.9c1.4-4.1 5.7-6.5 9.8-6.8 0.3 0 0.7 0 1 0 3 0 6 1.1 7.8 3.6 1 1.1 1.7 2.4 2.2 3.8-0.9-0.5-1.9-0.8-2.9-0.9-2.3-0.2-4.8 0.5-6.8 1.6-3.9 2.2-5.9 6.2-5.7 10.6 0 0.7 0.1 1.5 0.2 2.3-0.5-0.2-0.9-0.4-1.3-0.6-2.3-1.3-3.9-3.9-4.6-6.3-0.5-2.4-0.4-5 0.3-7.3z"/>
			</g>
			<g id="Layer">
				<path id="Layer" class="s9" d="m64.1 102.4c0.6-1 1.3-2 2.2-2.7 0.9-0.8 1.9-1.6 3.1-2.1 1.1-0.4 2.4-0.6 3.6-0.6 0.6 0 1.1 0 1.7 0.1 1.7 0.2 3.7 0.9 5 2.1 1 0.9 1.8 1.9 2.3 3.1-2.2-0.2-4.5 0.3-6.4 1.8-3.1 2.4-4.7 6.2-4.7 10.1 0 0.9 0.1 1.9 0.3 2.8-1.4-0.2-2.9-0.6-4.2-1.3-2.1-1.1-3.4-3.3-4-5.6-0.8-2.5-0.1-5.3 1.1-7.7z"/>
			</g>
			<g id="Layer">
				<g id="Layer">
					<path id="Layer" class="s8" d="m190.1 99.3c1-1 3.7-3.4 7.6-3.4 1.4 0 2.8 0.4 4.3 1-0.6 1.4-2.6 5-6.2 5-1.7 0-3.6-0.8-5.7-2.6z"/>
				</g>
				<g id="Layer">
					<path id="Layer" fill-rule="evenodd" class="s2" d="m202.9 96.6c0 0-2.2 5.9-7 5.9-1.8 0-4-0.9-6.6-3.1 0 0 3.2-4.1 8.4-4.1 1.5 0 3.2 0.4 5.2 1.3zm-11.8 2.8c1.7 1.2 3.3 1.9 4.7 1.9 2.8 0 4.6-2.5 5.4-4-1.2-0.5-2.4-0.7-3.5-0.7-3.1 0-5.5 1.7-6.6 2.8z"/>
				</g>
			</g>
			<g id="Layer">
				<g id="Layer">
					<path id="Layer" class="s8" d="m187.5 106.4c3.1 0.4 5.2 1.5 6.2 3.2 1.3 2.1 0.6 4.7 0.3 5.8-6-1.5-6.5-7-6.5-9z"/>
				</g>
				<g id="Layer">
					<path id="Layer" fill-rule="evenodd" class="s2" d="m194.4 116.2c-8.2-1.8-7.5-10.4-7.5-10.4 11.5 1 7.5 10.4 7.5 10.4zm-0.9-1.5c0.3-1.2 0.6-3.1-0.4-4.7-0.8-1.5-2.5-2.4-5-2.8 0.2 2.1 1 6 5.4 7.5z"/>
				</g>
			</g>
			<g id="Layer">
				<g id="Layer">
					<path id="Layer" class="s8" d="m72.8 102c-2.8-0.3-4.1-1.8-4.6-2.6 0.9-0.5 2.8-1.4 4.6-1.4q0.3 0 0.6 0c2.1 0.3 3.6 0.7 4.4 1-0.6 1-2 2.9-4.5 2.9-0.1 0-0.3 0-0.5 0.1z"/>
				</g>
				<g id="Layer">
					<path id="Layer" fill-rule="evenodd" class="s2" d="m73.5 97.3c2.8 0.3 4.7 1 5.2 1.3 0 0-1.5 3.8-5.3 3.8q-0.3 0-0.6 0c-4.2-0.4-5.4-3.4-5.4-3.4 0 0 2.8-1.7 5.4-1.7 0.2 0 0.4 0.1 0.7 0zm-4.4 2.3c0.7 0.7 1.8 1.5 3.8 1.7 0.2 0 0.4 0 0.5 0 1.7 0 2.9-1.1 3.5-2-0.9-0.2-2.1-0.5-3.6-0.7-0.1 0-0.3 0-0.5 0-1.3 0-2.7 0.5-3.7 1z"/>
				</g>
			</g>
			<g id="Layer">
				<g id="Layer">
					<path id="Layer" class="s8" d="m64.2 111.5c-1-2.2-0.5-4.9-0.2-6.1 2.6 0.7 4.4 1.9 5.2 3.7 1.2 2.4 0.3 5.3-0.1 6.4-1.1-0.5-3.8-1.8-4.9-4z"/>
				</g>
				<g id="Layer">
					<path id="Layer" fill-rule="evenodd" class="s2" d="m69.4 116.3c0 0-4.2-1.4-5.7-4.5-1.5-3-0.1-7.1-0.1-7.1 10.4 2.4 5.8 11.6 5.8 11.6zm-4.5-5c0.8 1.7 2.7 2.8 3.9 3.4 0.4-1.3 0.8-3.5-0.1-5.3-0.7-1.5-2.1-2.5-4.2-3.2-0.3 1.4-0.4 3.5 0.4 5.1z"/>
				</g>
			</g>
			<g id="Layer">
				<path id="Layer" fill-rule="evenodd" class="s2" d="m189.1 94.7c2.6-2 5.8-3 9-3.2 8-0.4 14 7.8 13.5 15.3-0.1 2.4-0.8 5.5-2 7.6-1.3 2.3-3.4 4.2-5.8 5.3-2.3 1.1-5.2 1.1-7.7 0.8-5-0.6-9.8-3.5-11.9-8.2-2.8-6.3-0.5-13.6 4.9-17.6zm-3.7 16.1c2 4.9 7.8 7.3 12.8 7.4 4.7 0.1 9.7-3.1 11.2-7.5 1.7-4.8 0.5-10.9-3.8-13.9-1.8-1.3-5.7-3.1-8-2.8-8 1-15.7 8.2-12.2 16.8z"/>
			</g>
			<g id="Layer">
				<path id="Layer" fill-rule="evenodd" class="s2" d="m59.7 102.4c2.5-7.7 10.7-12.2 18.4-9 7.7 3.2 12.6 13.3 8.1 21-1.3 2.2-3.7 3.9-5.9 5.1-4.4 2.4-10 2.8-14.4 0.2-5.9-3.5-8.2-10.8-6.2-17.3zm6.4 15.4c1.8 1.2 5.5 1.5 7.6 1.4 2.6-0.1 5.1-1.1 7.2-2.7 5.7-4.5 7-15.1 0.2-19.3-3.6-2.2-7.9-3.2-11.8-1.5-3.8 1.7-7.3 5.2-8.2 9.4-0.4 1.9-0.5 4.9 0.3 6.8 0.8 2 2.8 4.7 4.7 5.9z"/>
			</g>
			<g id="Layer">
				<g id="Layer">
					<path id="Layer" class="s2" d="m196.4 104c0.5-0.1 1 0.1 1.4 0.3 0.1-0.1 0.2-0.1 0.4 0 1.8 1.3 0.6 4.5-1.7 4.1-0.6-0.1-1.1-0.5-1.4-1l-0.1-0.1c-0.3-0.4-0.4-1-0.3-1.5 0.1-0.9 0.8-1.7 1.7-1.8z"/>
				</g>
				<g id="Layer">
					<path id="Layer" class="s2" d="m72 105.8c0.6-0.8 1.4-0.8 2.1-0.5 1.4 0.2 1.9 1.7 1.2 3-0.7 1.1-2.4 1.3-3.2 0.3-0.7-0.8-0.6-2-0.1-2.8z"/>
				</g>
			</g>
			<g id="Layer">
				<g id="Layer">
					<g id="Layer">
						<path id="Layer" class="s2" d="m211.4 124c-1.7-2.1-3.1-4.5-5.3-6.2-0.7-0.6 0.3-1.6 1-1 2.2 1.7 3.5 4.1 5.3 6.3 0.6 0.5-0.4 1.6-1 0.9z"/>
					</g>
				</g>
				<g id="Layer">
					<g id="Layer">
						<path id="Layer" class="s2" d="m200.6 128.1c0-2.7-0.5-5.3-1.1-7.9-0.2-0.9 1.2-1.3 1.4-0.4 0.6 2.7 1.1 5.5 1.2 8.3 0 1-1.5 1-1.5 0z"/>
					</g>
				</g>
				<g id="Layer">
					<g id="Layer">
						<path id="Layer" class="s2" d="m192.6 118.4c-0.2 1.8-1.3 3.1-2.2 4.6-1 1.5-1.7 3.2-3.1 4.4-0.7 0.6-1.8-0.4-1-1 1.2-1.1 1.9-2.5 2.7-3.8 0.8-1.3 2-2.6 2.2-4.1 0-1 1.5-1 1.4-0.1z"/>
					</g>
				</g>
				<g id="Layer">
					<g id="Layer">
						<path id="Layer" class="s2" d="m186 114.1c-2.5 2.2-5.1 4.3-8.2 5.5-0.9 0.4-1.3-1.1-0.4-1.4 2.9-1.2 5.2-3.2 7.6-5.2 0.7-0.6 1.7 0.5 1 1.1z"/>
					</g>
				</g>
				<g id="Layer">
					<g id="Layer">
						<path id="Layer" class="s2" d="m183.9 104.7c-3.2 0-6.5-0.3-9.7 0.1-0.9 0.1-1.3-1.3-0.4-1.4 3.3-0.5 6.7-0.2 10.1-0.2 1 0 1 1.5 0 1.5z"/>
					</g>
				</g>
				<g id="Layer">
					<g id="Layer">
						<path id="Layer" class="s2" d="m186.3 98.1c-0.8-1.4-2.2-2.3-3.3-3.5-1.3-1.2-2.3-2.7-3.6-4-0.7-0.7 0.4-1.7 1-1 1.3 1.2 2.4 2.7 3.6 4 1.2 1.3 2.6 2.2 3.6 3.8 0.4 0.7-0.9 1.5-1.3 0.7z"/>
					</g>
				</g>
				<g id="Layer">
					<g id="Layer">
						<path id="Layer" class="s2" d="m192.5 93.5c-0.8-3-1.8-6-3.5-8.7-0.5-0.8 0.8-1.6 1.3-0.7 1.7 2.8 2.8 5.9 3.6 9.1 0.3 0.8-1.1 1.2-1.4 0.3z"/>
					</g>
				</g>
				<g id="Layer">
					<g id="Layer">
						<path id="Layer" class="s2" d="m199.8 92.4c0.1-1.5 0.6-2.9 1-4.4 0.5-1.6 0.7-3.4 1.3-5 0.3-0.9 1.8-0.5 1.4 0.4-0.5 1.4-0.7 2.8-1.1 4.2-0.4 1.6-1.1 3.1-1.2 4.8 0 1-1.4 1-1.4 0z"/>
					</g>
				</g>
			</g>
			<g id="Layer">
				<g id="Layer">
					<path id="Layer" class="s2" d="m84.5 129.6c-2-3.3-3.5-6.9-4.8-10.5-0.3-0.9 1.1-1.3 1.4-0.4 1.3 3.5 2.7 6.9 4.7 10.1 0.5 0.8-0.8 1.6-1.3 0.8z"/>
				</g>
			</g>
			<g id="Layer">
				<g id="Layer">
					<path id="Layer" class="s2" d="m93.8 122.4c-3-2.4-6.1-4.9-8.7-7.8-0.6-0.7 0.4-1.8 1-1 2.6 2.9 5.7 5.4 8.7 7.8 0.8 0.6-0.2 1.6-1 1z"/>
				</g>
			</g>
			<g id="Layer">
				<g id="Layer">
					<path id="Layer" class="s2" d="m97.1 108.9c-3.3-0.1-6.6 0.5-9.9 0.7-1 0.1-0.9-1.4 0-1.5 3.3-0.2 6.6-0.8 9.9-0.7 1 0 1 1.5 0 1.5z"/>
				</g>
			</g>
			<g id="Layer">
				<g id="Layer">
					<path id="Layer" class="s2" d="m94.4 96.3c-3 1.1-5.6 3.2-8.3 4.9-0.8 0.5-1.5-0.8-0.7-1.3 2.8-1.9 5.5-3.9 8.6-5.1 0.9-0.3 1.3 1.1 0.4 1.5z"/>
				</g>
			</g>
			<g id="Layer">
				<g id="Layer">
					<path id="Layer" class="s2" d="m77.9 94c0.9-3.2 2.1-6.2 3.4-9.2 0.4-0.9 1.7-0.1 1.3 0.7-1.3 2.9-2.4 5.8-3.3 8.9-0.2 0.9-1.6 0.5-1.4-0.4z"/>
				</g>
			</g>
			<g id="Layer">
				<g id="Layer">
					<path id="Layer" class="s2" d="m67.6 94.1c-1.1-3-1.2-6.4-3-9-0.5-0.8 0.8-1.5 1.3-0.7 1.9 2.8 2 6.3 3.1 9.4 0.3 0.8-1.1 1.2-1.4 0.3z"/>
				</g>
			</g>
			<g id="Layer">
				<g id="Layer">
					<path id="Layer" class="s2" d="m61.4 100.2c-3.4-0.7-6.4-2.9-9.1-4.9-0.8-0.6 0-1.8 0.7-1.3 2.6 1.9 5.5 4.2 8.8 4.8 1 0.2 0.6 1.6-0.4 1.4z"/>
				</g>
			</g>
			<g id="Layer">
				<g id="Layer">
					<path id="Layer" class="s2" d="m59.7 108.8c-1.4 0.8-3 0.7-4.6 0.7-2.1 0-4.5 0.1-6.6 0.5-0.9 0.2-1.3-1.2-0.4-1.4 1.9-0.4 3.8-0.3 5.7-0.5 1.6-0.2 3.6 0.3 5.1-0.6 0.9-0.5 1.6 0.8 0.8 1.3z"/>
				</g>
			</g>
			<g id="Layer">
				<g id="Layer">
					<path id="Layer" class="s2" d="m63.2 117.4c-1.4 1.3-3 2.4-4.4 3.6-1.5 1.2-2.6 2.7-4.4 3.6-0.8 0.4-1.6-0.8-0.7-1.3 1.6-0.8 2.8-2.2 4.1-3.4 1.4-1.3 3-2.3 4.4-3.6 0.6-0.6 1.7 0.4 1 1.1z"/>
				</g>
			</g>
			<g id="Layer">
				<g id="Layer">
					<path id="Layer" class="s2" d="m68.9 130.6c-0.2-3.3 0-6.6 0.8-9.8 0.2-0.9 1.6-0.5 1.4 0.4-0.7 3.1-0.9 6.3-0.7 9.4 0 0.9-1.5 0.9-1.5 0z"/>
				</g>
			</g>
			<g id="Layer">
				<g id="Layer">
					<path id="Layer" class="s2" d="m219.3 115.1c-3-0.9-5.9-2.3-9-3-0.9-0.2-0.5-1.6 0.4-1.4 3.1 0.6 6 2 9 3 0.9 0.3 0.5 1.7-0.4 1.4z"/>
				</g>
			</g>
			<g id="Layer">
				<g id="Layer">
					<path id="Layer" class="s2" d="m220.7 102.5c-3.3-0.2-6.4 1.3-9.6 2-0.9 0.2-1.3-1.2-0.4-1.4 3.3-0.8 6.5-2.3 10-2.1 0.9 0 0.9 1.5 0 1.5z"/>
				</g>
			</g>
			<g id="Layer">
				<g id="Layer">
					<path id="Layer" class="s2" d="m214.9 90.2c-1.2 1.1-2.2 2.2-3.3 3.4-1.1 1.1-2 2.4-3.2 3.4-0.7 0.6-1.8-0.4-1-1 1.1-0.9 1.9-2 2.9-3 1.2-1.2 2.3-2.5 3.6-3.7 0.6-0.7 1.7 0.3 1 0.9z"/>
				</g>
			</g>
			<g id="Layer">
				<g id="Layer">
					<path id="Layer" class="s2" d="m250.2 114.3c0 0.2-0.1 0.4-0.3 0.4-0.1 0-0.1 0-0.2 0-0.1 0-0.2 0-0.2-0.1q-0.2-0.1 0-0.3l0.1-0.1c0 0 0.1 0 0.2 0h0.1c0.1 0 0 0 0 0 0-0.1 0.1-0.3 0.2-0.3 0.1 0.2 0.1 0.3 0.1 0.4z"/>
				</g>
			</g>
			<g id="Layer">
				<g id="Layer">
					<path id="Layer" class="s7" d="m233.4 118.2c-0.4-0.1-0.8-0.1-1.2-0.2-1.2-0.1-2.4-0.3-3.6-0.5l-0.4-0.1c-1.2-0.2-2.3-0.4-3.1-1.3-0.8-0.9-1.2-2.3-0.9-3.9 0.2-1.2 0.5-2 0.8-2.6 0.7-1.1 1.8-1.7 3.6-1.8q0.4 0 0.9 0c1.3 0 2.7 0.2 4 0.4 0.5 0 1.1 0.1 1.6 0.2 1.7 0.2 3.4 0.4 5.1 0.5 2 0.1 4 0.3 5.9 0.6 1.2 0.2 2.3 0.4 3.3 0.7 0.9 0.3 1.8 0.6 2.6 1 1.8 1 3.3 3.2 2.6 5.2-0.7 1.9-3.4 2.2-5.9 2.3-1.5 0.1-3 0.1-4.4 0.1-4 0-7.5-0.2-10.9-0.6z"/>
				</g>
				<g id="Layer">
					<path id="Layer" fill-rule="evenodd" class="s2" d="m235.1 107.7c3.7 0.5 7.4 0.5 11 1.1 1.1 0.2 2.3 0.5 3.4 0.8 0.9 0.3 1.8 0.7 2.7 1.1 2.1 1 3.7 3.5 2.9 5.9-0.8 2.5-4.3 2.6-6.4 2.7-1.4 0.1-2.9 0.1-4.4 0.1-3.7 0-7.3-0.2-11-0.7-1.6-0.2-3.3-0.4-4.9-0.7-1.4-0.2-2.8-0.4-3.8-1.5-1.1-1.2-1.4-2.9-1.1-4.5 0.2-0.9 0.4-2 0.9-2.8 0.9-1.4 2.4-2 4.1-2.1q0.5 0 0.9 0c1.9 0 3.8 0.4 5.7 0.6zm-6.6 0.6c-1.5 0.1-2.6 0.6-3.1 1.5-0.2 0.3-0.5 1-0.7 2.4-0.2 1.3 0.1 2.6 0.8 3.4 0.6 0.7 1.4 0.9 2.7 1.1 0.2 0.1 0.3 0.1 0.4 0.1 1.2 0.2 2.4 0.3 3.6 0.5 0.4 0.1 0.8 0.1 1.2 0.2 3.4 0.5 7 0.7 10.9 0.7 1.4 0 2.9 0 4.4-0.1 1.7-0.1 4.7-0.2 5.3-1.9 0.6-1.7-0.7-3.6-2.3-4.4-0.7-0.4-1.6-0.7-2.5-1-1-0.3-2.1-0.5-3.3-0.7-1.9-0.3-3.9-0.4-5.8-0.6-1.7-0.1-3.5-0.3-5.2-0.5-0.5-0.1-1.1-0.2-1.6-0.3-1.4-0.2-2.6-0.4-3.9-0.4q-0.4 0-0.9 0z"/>
				</g>
			</g>
			<g id="Layer">
				<g id="Layer">
					<path id="Layer" class="s3" d="m123.8 101.6c-2.8-0.1-5.6-0.3-8.5-0.3h-0.8c-3.6 0-6.8-0.3-7.6-3.5-0.6-2-0.3-4.5-0.1-7 0.1-1.2 0.2-2.3 0.2-3.3 0.1-4.1 0.1-7.6 0.1-11 0-4.9 0-9.5 0.2-15.3v-0.9c0.1-5.2 0.3-11 0.1-16-0.6-10 1.2-12.7 2.3-13.4 0.8-0.5 2.3-0.7 4.5-0.7 0.8 0 1.7 0.1 2.5 0.1 0.6 0 1.2 0 1.7 0 1.8 0 3.5-0.1 5.2-0.1 1.7-0.1 3.3-0.1 4.9-0.1 0.6 0 1.2 0 1.7 0 0.6 0 1.1 0 1.6 0 3.2 0 5.2 0.6 6 3.6 1.1 3.7 1.1 8 1.1 12.1 0 0.4 0 0.9 0 1.3 0.1 4.5 0.2 9 0.3 13.4 0.3 12.3 0.6 24.9-0.5 38.5l-0.3 2.1c-0.2 0.4-1.8 0.8-3.5 0.8-1 0.1-2 0.1-3 0.1-2.8 0-5.6-0.1-8.1-0.4z"/>
				</g>
				<g id="Layer">
					<path id="Layer" fill-rule="evenodd" class="s2" d="m138.4 33.6c1.4 4.3 1.2 9.3 1.2 13.7 0.2 17 1.4 33.5-0.2 52l-0.3 2.1c-0.2 1-2.9 1.3-4.1 1.3-1 0.1-2 0.1-3 0.1-5.6 0-11-0.7-16.7-0.7-0.3 0-0.5 0-0.8 0-3.3 0-7.3-0.2-8.2-4-0.8-3.1 0.1-7.4 0.2-10.5 0.1-9.7 0-16.3 0.3-26.2 0.2-5.3 0.4-11.6 0.2-16.9-0.2-3.1-0.5-12 2.6-14 1.1-0.7 2.9-0.8 4.8-0.8 1.5 0 3.1 0.1 4.2 0.1 3.4 0 6.7-0.2 10-0.2 1.1 0 2.2-0.1 3.2-0.1v1.2q0.1 0 0.1 0v-1.2c3.1 0 5.6 0.5 6.5 4.1zm-6.5-4.1h-0.1q0.1 0 0.1 0zm0 1.2v0.1c-0.6 0-1.1 0-1.6 0-0.6 0-1.1 0-1.7 0-1.6 0-3.2 0.1-4.9 0.1-1.7 0.1-3.4 0.1-5.2 0.1q-0.9 0-1.8 0c-0.8-0.1-1.6-0.1-2.5-0.1q-3.2 0-4.2 0.6c-0.6 0.5-2.5 2.6-2 12.9 0.2 5 0 10.8-0.1 16v0.9c-0.1 5.7-0.2 10.3-0.2 15.2 0 3.4 0 7-0.1 11 0 1.1-0.1 2.2-0.2 3.4-0.3 2.4-0.5 4.9 0 6.8 0.6 2.5 2.9 3 7 3h0.8c2.9 0 5.7 0.1 8.5 0.3 2.7 0.1 5.4 0.3 8.2 0.3 1.1 0 2-0.1 3-0.1 1.2 0 2.5-0.3 2.9-0.5l0.3-1.8c1.1-13.5 0.8-26.2 0.5-38.4-0.1-4.4-0.3-9-0.3-13.5 0-0.4 0-0.8 0-1.3 0-4 0-8.2-1.1-11.9-0.7-2.6-2.4-3.1-5.3-3.1z"/>
				</g>
			</g>
			<g id="Layer">
				<path id="Layer" class="s2" d="m133.1 66.2c0-1.9 0-3.9 0.1-5.8 0-0.3 0.2-0.6 0.5-0.7 0.6-0.2 1.1-0.3 1.7-0.3 0.3 0 0.6 0 0.8-0.1 0.1 0 0.1 0 0.2 0 0.4 0 0.8 0.3 0.9 0.8 0 0.4-0.2 0.8-0.7 0.9q-0.3 0-0.6 0c-0.3 0-0.8 0-1.1 0.1-0.1 1.2-0.1 2.4-0.1 3.7 0 0.5 0 0.9 0 1.4 0 1.6 0 3.3-0.1 5 0.5 0 1 0.1 1.5 0.2 0.4 0.1 0.7 0.5 0.6 0.9-0.1 0.5-0.4 0.8-0.9 0.8-0.1 0-0.1 0-0.2 0-0.6-0.1-1.1-0.1-1.7-0.2q-0.1 0-0.3 0-0.3 0-0.6-0.3c-0.2-0.2-0.2-0.4-0.2-0.6 0.2-2 0.2-3.9 0.2-5.8z"/>
			</g>
			<g id="Layer">
				<g id="Layer">
					<path id="Layer" class="s2" d="m240.6 37.4c1.4 0 2.8 0.1 4.1 0.1 0.5 0 0.9 0 1.4 0 0 0 3.3 7.1 4.9 14.5 1.5 7.4 2.3 17.3 2.3 17.3-0.5 0-2.1 0-2.3 0-1.5 0-3 0-4.4-0.2-3.6-0.2-7.9-0.2-10.9-2.6-3.6-2.8-3.3-8.6-3.6-12.8-0.3-3.6-1-9 0.8-12.5 1.7-3.3 4.6-3.8 7.7-3.8z"/>
				</g>
				<g id="Layer">
					<path id="Layer" class="s2" d="m199.3 38.5c1.1-1.2 3.8-1.5 6.4-1.5 1.9 0 3.7 0.2 4.8 0.2 1.9 0 3.8 0.2 5.6 0.2 0.5 0 1.1 0 1.6-0.1 0.3 0 0.6 0 1 0 1.7 0 3.9 0.3 5.1 1 2.8 1.6 1.8 8.6 2 11.8 0.2 3.6 1.2 9.4-0.7 12.8-1.8 3.4-6 4-9.6 4q-1 0-2.1 0c-3.6-0.3-7.9-0.5-11.3-2-4.4-1.8-3.1-9-3.1-13.3 0-2.8-1.5-11 0.3-13.1z"/>
				</g>
				<g id="Layer">
					<path id="Layer" class="s2" d="m145.5 37.7c2.1-1.5 7.4-1.2 9.9-1.3 0.6 0 1.2-0.1 1.8-0.1 3 0 6.1 0.5 9 0.5q0.5 0 0.9 0c2.4-0.1 4.8-0.2 7.2-0.2 2.9 0 5.8 0.1 8.7 0.4l3.7 0.4c3.1 0.3 4.4 0 4.6 3.6 0.3 5.3 0.3 10.2 0 15.5-0.5 4.8 0.3 9.5-5.6 9.9q-1.4 0-2.7 0c-3.6 0-7.3-0.2-10.8-0.2-3.3 0-6.8-0.3-10.1-0.3-1.1 0-2.2 0-3.4 0.1-1.3 0.1-2.8 0.2-4.3 0.2-3.2 0-6.3-0.5-7.9-3.5-2.1-3.9-1.5-10.2-1.8-14.5-0.2-2.8-1.3-9.1 0.8-10.5z"/>
				</g>
			</g>
			<g id="Layer">
				<g id="Layer">
					<path id="Layer" class="s4" d="m250.9 65.7c-1.5 0-3 0-4.4-0.2 0 0-0.5 0-0.8 0-3.3-0.2-7.1-0.3-9.7-2.5-2.9-2.2-3.1-6.5-3.3-10.3 0-0.8 0-1.4-0.1-2.1l-0.1-0.7c-0.4-3.5-0.8-8.3 0.8-11.4 1.4-2.7 3.9-3.3 7.1-3.3q1.1 0 2.1 0 1.1 0 2.1 0c0.4 0 0.7 0 1 0 0.7 1.6 3.4 7.7 4.7 14 1.3 6.1 2.1 14.2 2.3 16.5z"/>
				</g>
				<g id="Layer">
					<path id="Layer" fill-rule="evenodd" class="s2" d="m244.7 34.5c0.5 0 1 0 1.4 0 0 0 3.4 7.1 4.9 14.5 1.5 7.4 2.3 17.3 2.3 17.3-0.5 0-2.1 0-2.3 0-1.4 0-2.9 0-4.4-0.2-3.7-0.1-7.9-0.1-10.9-2.6-3.6-2.8-3.3-8.5-3.6-12.8-0.4-3.6-1-9 0.8-12.5 1.7-3.2 4.6-3.7 7.7-3.7 1.4 0 2.8 0.1 4.1 0zm-10.4 4.2c-1.6 2.9-1.1 7.6-0.8 11.1 0.1 0.2 0.1 0.5 0.1 0.7 0 0.7 0.1 1.4 0.1 2.1 0.2 3.7 0.4 7.9 3 9.9 2.4 2 6.1 2.2 9.3 2.3 0.3 0 0.5 0 0.8 0 1.4 0.2 2.8 0.2 4.3 0.2h1c-0.3-2.9-1-10.2-2.2-15.8-1.2-5.8-3.6-11.5-4.5-13.5q-0.3 0-0.6 0-1.1 0-2.1 0-1.1 0-2.1 0c-3.1 0-5.3 0.5-6.3 3zm19 27.6c0.1 0 0.2 0 0.2 0 0 0-0.1 0-0.2 0z"/>
				</g>
			</g>
			<g id="Layer">
				<g id="Layer">
					<path id="Layer" class="s4" d="m213.4 63.4c-0.5 0-1-0.1-1.5-0.1-3.2-0.3-6.8-0.6-9.7-1.8-3.2-1.3-3-6.2-2.8-10.2 0.1-0.9 0.1-1.7 0.1-2.5 0-0.8-0.1-1.9-0.2-3.2-0.3-3.3-0.8-8.2 0.4-9.6 0.6-0.6 2.1-1.3 6-1.3 1.5 0 2.9 0.1 4 0.2 0.2 0 0.5 0 0.7 0 0.9 0 1.9 0 2.8 0.1 1 0 1.9 0.1 2.9 0.1 0.5 0 1.1-0.1 1.6-0.1q0.5 0 0.9 0c1.5 0 3.6 0.3 4.8 0.9 1.9 1.1 1.8 5.4 1.7 8.6q0 1.5 0 2.7c0.1 0.7 0.1 1.5 0.2 2.4 0.2 3.3 0.6 7.5-0.8 10.1-1.7 3.3-5.9 3.7-9 3.7-0.7 0-1.5 0-2.1 0z"/>
				</g>
				<g id="Layer">
					<path id="Layer" fill-rule="evenodd" class="s2" d="m210.5 34.4c1.8 0 3.7 0.2 5.6 0.2 0.5 0 1.1-0.1 1.6-0.1 0.3 0 0.7 0 1 0 1.7 0 3.9 0.3 5.1 1 2.8 1.6 1.8 8.5 2 11.8 0.1 3.6 1.1 9.3-0.7 12.8-1.8 3.4-6 4-9.6 4-0.7 0-1.4-0.1-2.1-0.1-3.6-0.4-7.8-0.5-11.3-2-4.4-1.8-3.1-9-3.1-13.3 0-2.8-1.5-11.1 0.3-13.2 1.1-1.2 3.8-1.5 6.4-1.5 1.9 0 3.7 0.1 4.8 0.4zm-10.1 2.1c-0.2 0.3-0.6 1.1-0.6 3.5-0.1 1.8 0.1 3.8 0.3 5.6 0.1 1.4 0.2 2.5 0.2 3.3 0 0.7-0.1 1.6-0.1 2.5-0.1 2-0.2 4.2 0.1 6.1 0.3 1.9 1.1 3 2.3 3.5 2.7 1.2 6.3 1.4 9.4 1.7 0.5 0 1 0.1 1.5 0.1 0.5 0 1.3 0 2 0 4.6 0 7.3-1 8.5-3.3 1.3-2.5 1-6.5 0.7-9.8-0.1-0.8-0.2-1.7-0.2-2.4 0-0.8 0-1.8 0-2.8 0-2.9 0.1-7.2-1.4-8.1-0.9-0.5-2.8-0.9-4.5-0.9q-0.5 0-0.9 0c-0.5 0.1-1.1 0.1-1.7 0.1-1 0-2 0-2.9-0.1-0.9 0-1.8-0.1-2.7-0.1-0.2 0-0.4 0-0.7 0-1.1-0.1-2.5-0.2-4-0.2-3.8 0-5 0.7-5.3 1.3z"/>
				</g>
			</g>
			<g id="Layer">
				<g id="Layer">
					<path id="Layer" class="s4" d="m177.6 62.4c-1.8 0-3.6-0.1-5.4-0.1-1.6 0-3.3 0-5-0.1-1.7 0-3.4-0.1-5.1-0.1-1.3 0-2.4 0-3.4 0.1-0.4 0.1-0.8 0.1-1.3 0.1-0.9 0-1.9 0.1-2.9 0.1-2.7 0-5.9-0.3-7.4-3.1-1.5-2.8-1.5-6.9-1.6-10.5 0-1.4 0-2.7-0.1-3.8 0-0.4 0-0.8-0.1-1.2-0.4-2.7-1.1-7.7 0.5-8.8 1.5-1 5-1.1 7.5-1.1 0.8 0 1.5-0.1 2.1-0.1 0.5-0.1 1.1-0.1 1.7-0.1 1.5 0 3 0.2 4.5 0.3q2.3 0.3 4.5 0.3c0.4 0 0.7 0 1 0 2.5-0.1 4.9-0.2 7.2-0.2 3.1 0 5.9 0.1 8.7 0.4l3.7 0.4c0.4 0 0.7 0.1 1 0.1 2.4 0.3 3 0.3 3.1 3 0.3 5.3 0.3 10.2 0 15.4-0.1 0.8-0.2 1.6-0.2 2.3-0.2 3.9-0.4 6.8-4.8 7-0.9 0-1.7 0-2.7 0-1.8 0-3.6 0-5.5-0.3z"/>
				</g>
				<g id="Layer">
					<path id="Layer" fill-rule="evenodd" class="s2" d="m166.2 33.8q0.5 0 0.9 0c2.4-0.1 4.8-0.2 7.2-0.2 2.9 0 5.8 0.1 8.7 0.4l3.7 0.4c3.1 0.3 4.4 0 4.6 3.6 0.3 5.3 0.3 10.2 0 15.5-0.5 4.8 0.3 9.6-5.6 9.9q-1.3 0-2.7 0c-3.6 0-7.2-0.2-10.8-0.2-3.3 0-6.7-0.3-10.1-0.3-1.2 0-2.3 0-3.4 0.1-1.3 0.1-2.8 0.2-4.3 0.2-3.2 0-6.3-0.6-7.9-3.5-2.1-4-1.5-10.2-1.8-14.5-0.3-2.8-1.4-9 0.7-10.5 2.2-1.5 7.4-1.1 9.9-1.3 0.6-0.1 1.2-0.1 1.8-0.1 3 0 6.1 0.5 9.1 0.5zm-10.7 1.1c-0.6 0.1-1.3 0.1-2.1 0.1-2.4 0-5.9 0.1-7.2 1-0.1 0.1-0.7 0.6-0.7 3-0.1 1.7 0.2 3.7 0.4 5.2 0 0.5 0.1 0.9 0.1 1.2 0.1 1.2 0.1 2.4 0.1 3.8 0 3.6 0.1 7.6 1.5 10.2 1 2 3.1 2.8 6.8 2.8 1 0 2 0 2.9-0.1 0.4-0.1 0.9-0.1 1.3-0.1 1-0.1 2.1-0.1 3.4-0.1 1.8 0 3.5 0 5.2 0.1 1.7 0 3.4 0.1 5 0.1 1.8 0 3.6 0 5.4 0.1 1.8 0 3.6 0.1 5.4 0.1 0.9 0 1.8 0 2.6 0 3.8-0.2 4-2.3 4.3-6.5 0.1-0.8 0.1-1.5 0.2-2.3 0.3-5.2 0.3-10.1 0-15.3-0.1-1.1-0.2-1.8-0.5-2-0.3-0.2-1.1-0.3-2-0.4-0.3 0-0.6-0.1-1-0.1l-3.7-0.4c-2.8-0.3-5.6-0.4-8.6-0.4-2.3 0-4.7 0-7.2 0.2-0.3 0-0.7 0-1 0-1.5 0-3.1-0.2-4.6-0.3-1.4-0.2-3-0.3-4.4-0.3-0.5 0-1.1 0.1-1.6 0.4z"/>
				</g>
			</g>
			<g id="Layer">
				<g id="Layer">
					<path id="Layer" class="s10" d="m232.2 53.1c0-0.8-0.1-1.7-0.1-2.5-0.3-3.6-1-9 0.8-12.5 1.6-3.2 4.6-3.7 7.7-3.7 1.4 0 2.8 0.1 4.1 0.1 0.5 0 0.9 0 1.4 0 0 0 0.2 0.4 0.5 1.2-3.6 0.4-6.7 2.3-8.6 5.6-1.4 2.4-2.4 5.1-2.5 7.9-0.1 2.6 0.5 5.3 1.5 7.7 0.8 2 2.1 3.9 4.1 4.9q2.8 1.4 6 1.2c1.9-0.1 4-0.4 5.9-1.1 0.3 2.6 0.4 4.3 0.4 4.3h-2.4c-1.5 0-3 0-4.4-0.2-3.6-0.2-7.9-0.2-10.9-2.6-2.5-1.9-3.1-5.2-3.4-8.5 0.5-0.5 0.3-1.3-0.1-1.8z"/>
				</g>
				<g id="Layer">
					<path id="Layer" class="s10" d="m199.3 35.5c1.1-1.2 3.8-1.5 6.4-1.5 1.9 0 3.7 0.2 4.8 0.2 1.9 0 3.8 0.2 5.6 0.2 0.5 0 1.1 0 1.6-0.1 0.3 0 0.6 0 1 0 1.7 0 3.9 0.3 5.1 1 0.6 0.4 1 1 1.3 1.7-2.8-0.2-5.5-0.6-8.3-0.5-2.9 0.1-6.2 0.8-8.2 3.1-3.4 4-5 11.2-1.5 15.7 2.9 3.8 8.7 4.1 13 3.9 1.7-0.1 3.7-0.2 5.5-0.6-0.1 0.5-0.3 0.9-0.5 1.3-1.8 3.4-6 4-9.6 4-0.7 0-1.4 0-2.1-0.1-3.6-0.3-7.9-0.5-11.3-2-4.4-1.8-3.1-9-3.1-13.3 0-2.6-1.5-10.8 0.3-13z"/>
				</g>
				<g id="Layer">
					<path id="Layer" class="s10" d="m145.5 34.7c2.1-1.5 7.4-1.2 9.9-1.3 0.6 0 1.2-0.1 1.8-0.1 3 0 6.1 0.5 9 0.5q0.5 0 0.9 0c2.4-0.1 4.8-0.2 7.2-0.2 2.9 0 5.8 0.1 8.7 0.4l3.7 0.4c3 0.3 4.3 0 4.6 3.2-6.4-0.3-12.8-0.1-19.2 0.4-4.1 0.3-8.5 0.6-12.2 2.6-5.1 2.8-10.1 12-4.5 16.7 2.5 2.1 5.8 2.9 9 3.3 3.8 0.5 7.7 0.4 11.5 0 3.8-0.4 7.5-1 11.2-1.9q1.9-0.4 3.9-1.2c-0.3 3.2-1.1 5.7-5.3 5.9q-1.4 0-2.7 0c-3.6 0-7.3-0.2-10.8-0.2-3.3 0-6.8-0.3-10.1-0.3-1.1 0-2.2 0-3.4 0.1-1.3 0.1-2.8 0.2-4.3 0.2-3.2 0-6.3-0.5-7.9-3.5-2.1-3.9-1.5-10.2-1.8-14.5-0.2-2.8-1.3-9 0.8-10.5z"/>
				</g>
			</g>
			<g id="Layer">
				<g id="Layer">
					<path id="Layer" class="s3" d="m106.4 87.5c0.2-9.7 0.1-16.3 0.3-26.2 0.1-5.3 0.3-11.6 0.2-16.9-0.2-3.1-0.5-12 2.6-14 1.1-0.6 2.9-0.8 4.8-0.8 1.6 0 3.2 0.1 4.2 0.1 3.5 0 6.7-0.2 10-0.2 1.1 0 2.2-0.1 3.2-0.1v0.6-0.6c3 0 5.7 0.5 6.6 4 0.1 0.2 0.1 0.4 0.2 0.6-3.9-1.2-8-1.6-12-1.2-3.3 0.3-6.9 0.9-10 2.1-2.8 1.1-5.4 2.7-6.7 5.6-1.3 2.9-1.1 6.3-1.1 9.5 0 3.6 0 7.2 0.4 10.8 0.4 3.8 1 7.6 1.8 11.3 0.7 3.5 1.2 7.1 1.9 10.6 0.7 3.1 1.6 6.3 4.1 8.4 4.1 3.4 10.4 4 15.6 3.8 2.3-0.1 4.8-0.3 7.2-0.7-0.1 1.6-0.2 3.2-0.4 4.8l-0.3 2.1c-0.2 1-3 1.3-4.1 1.3-1 0.1-2 0.1-3 0.1-5.6 0-11-0.7-16.7-0.7-0.3 0-0.5 0-0.8 0-3.3 0-7.3-0.1-8.2-4-0.8-2.9 0.1-7.2 0.2-10.3z"/>
				</g>
				<g id="Layer">
					<path id="Layer" class="s3" d="m131.8 29.5z"/>
				</g>
			</g>
			<g id="Layer">
				<g id="Layer">
					<path id="Layer" class="s4" d="m123.6 101.5c-2.8-0.1-5.6-0.3-8.5-0.3h-0.8c-3.6 0-6.8-0.3-7.6-3.5 0-0.2-0.1-0.4-0.1-0.6 3.7 0.8 7.3 1.3 10.8 1.6 1.6 0.1 3.3 0.2 4.9 0.2 2.7 0 5.5-0.2 8.4-0.5 3.2-0.4 5.8-0.7 8.1-1.2 0 0.6-0.1 1.1-0.1 1.7l-0.3 2.1c-0.2 0.4-1.8 0.8-3.5 0.8-1 0.1-2 0.1-3 0.1-2.8 0-5.6-0.1-8.3-0.4z"/>
				</g>
				<g id="Layer">
					<path id="Layer" fill-rule="evenodd" class="s2" d="m117.6 98.3c1.6 0.1 3.2 0.2 4.8 0.2 2.8 0 5.6-0.2 8.4-0.5 2.9-0.4 5.9-0.8 8.8-1.4-0.1 0.8-0.1 1.6-0.2 2.5l-0.3 2.1c-0.2 1-2.9 1.3-4.1 1.3-1 0.1-2 0.1-3 0.1-5.6 0-11-0.7-16.7-0.7-0.3 0-0.5 0-0.8 0-3.3 0-7.3-0.2-8.2-4-0.2-0.5-0.2-1-0.3-1.5 3.8 0.9 7.6 1.5 11.6 1.9zm-3.3 2.4h0.8c2.9 0 5.7 0.1 8.5 0.3 2.7 0.1 5.4 0.3 8.2 0.3 1.1 0 2-0.1 3-0.1 1.2 0 2.5-0.3 2.9-0.5l0.3-1.8c0.1-0.3 0.1-0.6 0.1-0.9-2.1 0.4-4.4 0.8-7.3 1.1-3 0.3-5.7 0.5-8.5 0.5-1.6 0-3.3-0.1-4.9-0.2-3.2-0.2-6.5-0.7-9.9-1.4 0.8 2.2 3.1 2.6 6.8 2.7z"/>
				</g>
			</g>
			<g id="Layer">
				<g id="Layer">
					<path id="Layer" class="s4" d="m129.4 54.6c-1 0-2.1 0-3.1-0.1-1.1 0-2.2-0.1-3.3-0.1-0.1 0-0.3 0-0.4 0-0.9 0-1.8 0.1-2.6 0.1-1 0.1-2 0.1-3 0.1h-0.2c-0.2 0-0.5 0-0.7 0-1.3 0-2.8 0-4.1-0.5-1.8-0.7-1.9-3-1.7-5.5 0-0.5 0-0.9 0.1-1.4 0.1-0.6 0.2-1.3 0.2-2q0-0.7 0-1.5c0-0.6 0-1.3 0-1.9 0.1-1.2 0.2-2.6 1-3.3 0.9-0.8 2.2-1 3.4-1.1 1.1-0.1 2.3-0.1 3.7-0.1 1.4 0 2.8 0.1 4.2 0.1 1.4 0.1 2.8 0.1 4.2 0.1q0.3 0 0.6 0 0.3 0 0.6 0c0.3 0 0.7 0 1.1 0 1.4 0 3 0.1 4.3 0.6 1.7 0.7 1.7 3.1 1.6 5.2q0 1.1 0 1.8c0 0.5 0.1 0.9 0.1 1.4 0.1 1 0.2 2 0.2 3v0.1c0 1.2 0 2.6-0.6 3.6-0.9 1.5-3.2 1.7-5.5 1.7z"/>
				</g>
				<g id="Layer">
					<g id="Layer">
						<path id="Layer" fill-rule="evenodd" class="s2" d="m126.7 36.9q0.3 0 0.6 0 0.9 0 1.8 0c1.6 0 3.2 0.1 4.6 0.6 2.8 1.1 1.9 5.2 2 7.5 0.1 1.5 0.3 3 0.3 4.5 0 1.3 0 2.8-0.7 4-1.1 1.9-4 2-6 2 0 0-0.1 0-0.2 0-2.2 0-4.3-0.3-6.4-0.3-0.1 0-0.3 0-0.4 0-1.8 0-3.7 0.2-5.5 0.2q-0.5 0-0.9 0c-1.4 0-3 0-4.3-0.5-2.4-0.8-2.3-4-2.1-6.1 0.1-1.1 0.3-2.3 0.3-3.4 0.1-1.2 0-2.3 0.1-3.5 0.1-1.2 0.3-2.8 1.2-3.7 1-1 2.5-1.2 3.8-1.3 1.2-0.1 2.5-0.1 3.7-0.1 2.8 0 5.6 0.1 8.1 0.1zm-11.8 1.2c-1 0-2.3 0.2-3 0.9-0.7 0.6-0.7 2-0.8 2.9 0 0.6 0 1.2 0 1.9 0 0.6 0 1.1 0 1.6 0 0.7-0.1 1.4-0.2 2.1 0 0.5-0.1 0.9-0.1 1.4-0.2 2.2-0.2 4.4 1.3 4.9 1.2 0.5 2.6 0.5 3.9 0.5 0.3 0 0.7 0 0.9 0 1 0 2-0.1 3-0.1 0.9 0 1.7-0.1 2.6-0.1 0.1 0 0.3 0 0.4 0 1.1 0 2.2 0 3.3 0.1 1.1 0 2.1 0.1 3.1 0.1h0.2c2 0 4.1-0.2 4.9-1.4 0.5-0.8 0.5-2.1 0.5-3.3v-0.1c0-1-0.1-2-0.2-3 0-0.5-0.1-0.9-0.1-1.4q0-0.8 0-1.8c0.1-2.4 0-4.1-1.2-4.6-1.2-0.4-2.7-0.5-4.1-0.5-0.4 0-0.7 0-1.1 0q-0.3 0-0.6 0-0.3 0-0.6 0c-1.4 0-2.8-0.1-4.2-0.1-1.4-0.1-2.8-0.1-4.2-0.1-1.4 0-2.6 0-3.7 0.1z"/>
					</g>
				</g>
			</g>
			<g id="Layer">
				<path id="Layer" class="s10" d="m109.6 48.8c0.1-1.1 0.3-2.3 0.3-3.4 0-1.2 0-2.3 0.1-3.5 0.1-1.2 0.2-2.8 1.2-3.7 1-0.9 2.5-1.2 3.8-1.3 1.2-0.1 2.5-0.1 3.7-0.1 2.8 0 5.6 0.2 8.4 0.2q0.3 0 0.6 0 0.9 0 1.8 0c1.6 0 3.2 0.1 4.6 0.6 1.2 0.5 1.7 1.5 1.9 2.7-0.1 0-0.1 0-0.2 0-3.4-1-7-2.2-10.6-1.8-2.8 0.3-5.4 1.2-7.6 2.9-1.9 1.5-3.8 3.9-2.9 6.5 0.6 1.6 2 2.8 3.5 3.5 3.9 1.7 8.5 2 12.7 1.9 1.6 0 3.4-0.1 5.1-0.3q-0.1 0.3-0.3 0.6c-1.1 1.9-4 2-6 2-0.1 0-0.2 0-0.2 0-2.1 0-4.2-0.3-6.4-0.3-0.1 0-0.3 0-0.4 0-1.8 0-3.7 0.2-5.5 0.2q-0.5 0-0.9 0c-1.4 0-3-0.1-4.3-0.5-2.7-1-2.6-4.1-2.4-6.2z"/>
			</g>
			<g id="Layer">
				<g id="Layer">
					<path id="Layer" class="s2" d="m247.3 75.2c-4.6 0-9.2-0.8-13.9-0.8-4.9 0-9.6 0.8-14.5 0.2-0.9-0.1-0.5-1.6 0.4-1.4 4.7 0.6 9.4-0.2 14.1-0.2 4.6-0.1 9.2 0.8 13.9 0.8 1 0 1 1.5 0 1.4z"/>
				</g>
			</g>
			<g id="Layer">
				<g id="Layer">
					<path id="Layer" class="s2" d="m206.9 73.9c-5.3 0.5-10.6 0.7-15.8 0.7-5.5 0-10.9-0.5-16.4-0.6-5.4-0.1-10.8 0.2-16.2 0.1-2.5-0.1-5-0.1-7.4-0.6-2.2-0.4-4.6-1.3-6.9-0.8-0.9 0.2-1.3-1.2-0.4-1.4 2-0.5 4.1 0 6.1 0.5 2.5 0.6 5.1 0.8 7.6 0.9 5.4 0.2 10.8-0.1 16.2-0.1 5.5 0 10.9 0.6 16.4 0.6 5.6 0 11.2-0.2 16.8-0.7 0.9-0.1 0.9 1.3 0 1.4z"/>
				</g>
			</g>
			<g id="Layer">
				<g id="Layer">
					<path id="Layer" class="s2" d="m248.2 80.2c-7.7 0-15.3-1.4-22.9-1.5-3.7-0.1-7.4 0-11.1-0.2-3.5-0.2-6.9-1.5-10.4-1.4-1 0-1-1.4 0-1.5 3.5-0.1 6.9 1.2 10.4 1.4 3.7 0.3 7.4 0.2 11.1 0.2 7.7 0.1 15.3 1.5 22.9 1.5 0.9 0 0.9 1.5 0 1.5z"/>
				</g>
			</g>
			<g id="Layer">
				<g id="Layer">
					<path id="Layer" class="s2" d="m197.7 78.2c-9 0.5-18.1 0-27.1-0.2-4.5-0.1-9.1 0.2-13.6 0-4-0.3-8.2-1.1-12.1-0.3-0.9 0.2-1.3-1.2-0.4-1.4 3.8-0.8 7.8-0.1 11.6 0.2 4.6 0.4 9.3 0 13.9 0.1 9.2 0.1 18.4 0.7 27.6 0.2 1-0.1 1 1.4 0.1 1.4z"/>
				</g>
			</g>
			<g id="Layer">
				<g id="Layer">
					<path id="Layer" class="s2" d="m176.4 82.8c-7.4 0-14.8-0.2-22.2-0.8-0.9-0.1-1-1.6 0-1.5 7.4 0.6 14.8 0.8 22.2 0.8 1 0 1 1.5 0 1.5z"/>
				</g>
			</g>
			<g id="Layer">
				<g id="Layer">
					<path id="Layer" class="s2" d="m246.7 83.5c-3.8 0-7.5-0.8-11.2-0.7-3.6 0.1-7.2 1-10.8 1-1 0-1-1.5 0-1.5 3.6 0 7.2-0.9 10.8-1 3.8-0.2 7.5 0.7 11.2 0.7 0.9 0 0.9 1.5 0 1.5z"/>
				</g>
			</g>
			<g id="Layer">
				<path id="Layer" class="s10" d="m223.5 112c0.2-0.9 0.4-2 0.9-2.8 0.9-1.4 2.4-2 4.1-2.1q0.5 0 0.9 0c0.6 0 1.2 0 1.7 0.1-2 1.5-3.7 3.9-2 6.3 1.1 1.7 3.5 2.7 5.4 3 2.7 0.5 5.2 0 7.9-0.1 4.3-0.2 8.6-0.2 12.9-0.3 0 0.2-0.1 0.3-0.1 0.5-0.8 2.5-4.3 2.6-6.4 2.7-1.5 0.1-3 0.1-4.4 0.1-3.7 0-7.4-0.2-11-0.7-1.6-0.2-3.3-0.4-4.9-0.7-1.4-0.3-2.8-0.4-3.8-1.5-1.2-1.2-1.5-2.9-1.2-4.5z"/>
			</g>
			<g id="Layer">
				<g id="Layer">
					<path id="Layer" class="s4" d="m127.2 123.2c-1.4-0.1-2.5-0.2-3.1-0.2-3 0-6.1-0.3-9-0.6-2.7-0.3-5.6-0.6-8.4-0.6 0-0.7 0.1-1.4 0.2-2.1 0.2-1.1 0.3-2.2 0.4-3.3q0-0.7 0-1.5c0-1.5 0-2.4 0.8-2.8 0.1 0 0.3-0.1 1.1-0.1 0.6 0 1.4 0 2.1 0.1 0.5 0.1 1 0.1 1.4 0.1 1.7 0.1 3.4 0.1 5.1 0.1 1.7 0 3.3 0 5.1-0.1 0.5 0 0.9 0 1.4 0 1.7 0 3.5 0.2 5.3 0.3 1.1 0.1 2.2 0.1 3.3 0.2 0.2 0 0.5 0 0.8 0 0.9 0 1.8 0 2.7-0.1 0.8 0 1.7-0.1 2.5-0.1 0.7 0 1.3 0 1.8 0.1 0.3 2.9 0.6 5.9 0.6 9v0.9c-0.2 0.3-1 1-6 1-2.8 0-5.9-0.3-8.1-0.3z"/>
				</g>
				<g id="Layer">
					<path id="Layer" fill-rule="evenodd" class="s2" d="m112.5 111.6c1.7 0.1 3.4 0.1 5.1 0.1 1.7 0 3.4 0 5.1-0.1 0.5 0 0.9 0 1.4 0 2.8 0 5.8 0.4 8.6 0.5 0.3 0 0.5 0 0.8 0 1.7 0 3.5-0.3 5.2-0.3q1.2 0 2.4 0.3c0.4 3.1 0.7 6.2 0.7 9.5v1.1c-0.3 1.2-3.2 1.5-6.6 1.5-4.4 0-9.7-0.6-11.3-0.6-6.1 0-12-1.2-18.1-1.2 0.2-2 0.5-4 0.7-6.1 0.2-1.7-0.4-4 1.2-4.8 0.3-0.1 0.8-0.2 1.4-0.2 1.2 0 2.8 0.2 3.4 0.3zm-4 1.1c-0.5 0.2-0.5 0.8-0.5 2.2q0 0.7 0 1.5c-0.1 1.1-0.3 2.2-0.4 3.3-0.1 0.5-0.1 0.9-0.2 1.4 2.6 0.1 5.3 0.4 7.8 0.6 2.9 0.3 5.9 0.6 8.9 0.6 0.6 0 1.8 0.1 3.2 0.2 2.2 0.2 5.4 0.4 8.1 0.4 3.9 0 5.1-0.4 5.4-0.6v-0.7c0-2.9-0.3-5.7-0.6-8.5-0.4-0.1-0.8-0.1-1.3-0.1-0.8 0-1.6 0-2.5 0.1-0.9 0-1.8 0.1-2.7 0.1q-0.4 0-0.9 0c-1.1 0-2.2-0.1-3.3-0.2-1.8-0.2-3.6-0.3-5.3-0.3-0.4 0-0.9 0-1.3 0-1.8 0.1-3.5 0.1-5.2 0.1-1.7 0-3.3 0-5.1-0.1-0.4 0-0.9-0.1-1.5-0.1-0.6 0-1.4-0.1-2-0.1-0.5 0-0.8 0.1-0.6 0.2z"/>
				</g>
			</g>
			<g id="Layer">
				<g id="Layer">
					<path id="Layer" class="s5" d="m127 123.2c-1.4-0.1-2.5-0.2-3.1-0.2-3 0-6.1-0.3-9-0.6-2.7-0.3-5.6-0.6-8.4-0.6 0-0.7 0.1-1.4 0.2-2.1 0.1-0.4 0.1-0.9 0.2-1.3l2 0.1c3.7 0.2 7.5 0.3 11.2 0.4q1.8 0 3.9 0c3.7 0 7.5-0.1 11.2-0.2 2 0 4-0.1 6-0.1 0.1 1 0.1 2 0.1 3v0.9c-0.2 0.3-1 1-6 1-2.8 0-5.9-0.3-8.3-0.3z"/>
				</g>
				<g id="Layer">
					<g id="Layer">
						<path id="Layer" fill-rule="evenodd" class="s2" d="m107.2 117.9c4.3 0.1 8.6 0.3 12.9 0.4q2 0 3.9 0c6 0 11.9-0.2 17.8-0.3 0.1 1.2 0.1 2.4 0.1 3.6v1.1c-0.3 1.2-3.2 1.5-6.6 1.5-4.4 0-9.7-0.6-11.3-0.6-6.1 0-12-1.2-18.1-1.2 0.1-1.6 0.3-3.1 0.5-4.7 0.3 0 0.5 0 0.8 0.2zm0.3 1.8c-0.1 0.4-0.1 0.9-0.2 1.4 2.6 0.1 5.3 0.4 7.8 0.6 2.9 0.3 5.9 0.6 8.9 0.6 0.6 0 1.8 0.1 3.2 0.2 2.2 0.2 5.4 0.4 8.1 0.4 3.9 0 5.1-0.4 5.4-0.6v-0.7c0-0.8-0.1-1.6-0.1-2.4-1.8 0-3.6 0.1-5.4 0.1-3.6 0.1-7.4 0.2-11.2 0.2-1.4 0-2.6 0-3.9 0-3.7-0.1-7.5-0.3-11.2-0.4l-1.4-0.1c0 0.2-0.1 0.5 0 0.7z"/>
					</g>
				</g>
			</g>
			<g id="Layer">
				<g id="Layer">
					<path id="Layer" class="s2" d="m166.5 62.4c-0.2-9.3 0.7-18.5 0.7-27.8 0-1 1.5-1 1.5 0 0 9.3-1 18.5-0.7 27.8 0 0.9-1.4 0.9-1.5 0z"/>
				</g>
			</g>
			<g id="Layer">
				<path id="Layer" class="s11" d="m251 51.9c0.3 1.5 2 14.4 2 14.4h-9.4c0-3.9-1-21 6.3-18.5 0 0 0.9 2.7 1.1 4.1z"/>
				<path id="Layer" fill-rule="evenodd" class="s2" d="m243 65c-0.1-4.4-0.2-13.7 2.9-16.9 1.1-1.1 2.6-1.4 4.2-0.9l0.3 0.1 0.1 0.3c0 0.1 0.9 2.7 1.2 4.2 0.2 1.5 1.9 13.9 2 14.4l0.1 0.7h-10.8c0-0.3 0-1.4 0-1.9zm7.5-12.9c-0.2-1.1-0.8-3-1-3.8-1.1-0.3-1.9-0.1-2.7 0.7-2.8 2.8-2.6 12.1-2.6 16 0 0.3 0 0.5 0 0.7h8.1c-0.3-2.7-1.6-12.4-1.8-13.6z"/>
			</g>
			<g id="Layer">
				<path id="Layer" class="s11" d="m247 47.8c0 0-1.2 1.5-2.4 4.4-1.1 2.9-0.9 13.3-0.9 13.3l-5.3-0.3c-2.6-4.2 0-22.9 8.1-17.8z"/>
				<path id="Layer" fill-rule="evenodd" class="s2" d="m238 65.8l-0.2-0.3c-1.7-2.8-1.4-11.3 1.3-16.2 1.2-2.2 2.9-3.4 4.7-3.4 1 0 2 0.3 3 1l1 0.8-0.4 0.5c0 0-1.2 1.5-2.3 4.3-1.1 2.7-0.9 12.9-0.9 13v0.7zm5.8-18.6c-1.4 0-2.6 0.9-3.6 2.8-2.3 4.2-2.8 11.9-1.5 14.6l4.3 0.2c0-2.4-0.1-10.3 1-12.8 0.8-2 1.7-3.4 2.1-4.1-0.8-0.5-1.6-0.7-2.3-0.7z"/>
			</g>
			<g id="Layer">
				<path id="Layer" class="s11" d="m181.8 63.4c1-4.1 0.6-8.5 2.3-12.5 1.6-3.8 3.2-2.6 6.5-2.7 0 0 0.7 7.4-0.5 11.5-1.2 4.1-3.2 4.6-4.3 4.6-1.1 0-4.2 0-4.2 0z"/>
				<path id="Layer" fill-rule="evenodd" class="s2" d="m181.2 63.3c0.4-1.6 0.6-3.3 0.7-4.9 0.3-2.6 0.6-5.2 1.6-7.7 1.1-2.7 2.4-3.2 4-3.2 0.4 0 0.7 0 1.1 0 0.6 0 1.2 0.1 1.9 0h0.6l0.1 0.6c0 0.3 0.7 7.6-0.6 11.7-1.3 4.4-3.6 5-4.9 5h-4.9zm7.5-14.5c-0.4 0-0.7 0-1 0-1.1 0-1.9 0.2-2.9 2.4-1 2.3-1.3 4.9-1.6 7.3-0.2 1.6-0.4 3.4-0.8 5v0.2h3.5c1.6 0 2.9-1.5 3.7-4.2 1-3.3 0.7-8.9 0.6-10.7q-0.9 0-1.5 0z"/>
			</g>
			<g id="Layer">
				<path id="Layer" class="s11" d="m175.7 62.6c0.5-0.7 0.2-3.1 0.2-4.3 0.1-2.6 0.1-6.2 1.2-8.5 1.7-3.3 5.2-2.3 7.8-0.9 0 0-1.5 2.7-2.1 7.3-0.5 4.6-1.2 8.6-1.2 8.6l-6-0.3v-1.9z"/>
				<path id="Layer" fill-rule="evenodd" class="s2" d="m175 65.1v-2.7l0.1-0.2c0.3-0.4 0.2-2.1 0.2-3 0-0.4 0-0.7 0-1 0-0.3 0-0.6 0-1 0.1-2.5 0.2-5.6 1.3-7.8 0.9-1.7 2.3-2.6 4.1-2.6 1.3 0 2.9 0.5 4.6 1.5l0.5 0.3-0.3 0.5c0 0-1.5 2.6-2 7-0.5 4.6-1.2 8.6-1.2 8.6l-0.1 0.5zm5.7-16.9c-1.3 0-2.3 0.6-3 1.9-0.9 1.9-1 4.9-1.1 7.3 0 0.3 0 0.7 0 1 0 0.3 0 0.6 0 1 0.1 1.6 0.1 2.8-0.3 3.5v1.1l4.9 0.2c0.2-1.2 0.7-4.5 1.1-8 0.4-3.5 1.4-5.9 1.9-6.9-1.4-0.8-2.6-1.1-3.5-1.1z"/>
			</g>
			<g id="Layer">
				<path id="Layer" class="s11" d="m155.1 63.1c0.6-3.5-1.6-16.8 3.5-17 1.1 0 3.9 0.7 4.7 1.5 1.2 1.1 1 3.2 1.1 4.7 0 3.3-0.1 7-0.6 10.2z"/>
				<path id="Layer" fill-rule="evenodd" class="s2" d="m154.5 63c0.2-0.9 0.1-2.5 0.1-4.4-0.1-5.4-0.3-12.9 4-13.1 1.2 0 4.2 0.7 5.1 1.6 1.2 1.1 1.2 2.8 1.3 4.1 0 0.3 0 0.7 0 0.9v0.1c0 4.2-0.2 7.6-0.6 10.3l-0.1 0.5-9.9 0.7zm9.2-10.7c0-0.3 0-0.6 0-1 0-1.2-0.1-2.6-0.9-3.3-0.6-0.6-3.1-1.3-4.2-1.3-3.1 0.2-2.9 7.2-2.8 11.9 0 1.5 0.1 2.9 0 3.9l7.4-0.5c0.3-2.7 0.5-5.8 0.5-9.7z"/>
			</g>
			<g id="Layer">
				<path id="Layer" class="s11" d="m156 48.2c0 0-0.5 1.5-0.9 4.2-0.3 2.7 0 10 0 10l-4.5-0.2c0.4-2.6-2.8-19.9 5.2-14.6z"/>
				<path id="Layer" fill-rule="evenodd" class="s2" d="m149.9 62.7l0.1-0.7c0.1-0.5 0-1.7-0.1-3.1-0.3-4.2-0.7-10 1.3-12.1 0.5-0.6 1.2-0.9 2-0.9 0.9 0 1.8 0.4 3 1.1l0.1 0.1 0.4 0.9-0.1 0.2c0 0-0.5 1.5-0.8 4.1-0.4 2.6 0 9.9 0 9.9v0.7zm5.4-14.7c-0.8-0.5-1.6-0.8-2.1-0.8-0.4 0-0.8 0.1-1 0.5-1.6 1.8-1.2 7.7-1 11.2 0.1 1.1 0.1 2 0.1 2.7l3.2 0.2c-0.1-1.9-0.2-7.2 0.1-9.5 0.3-2.1 0.7-3.6 0.8-4.1z"/>
			</g>
			<g id="Layer">
				<path id="Layer" class="s11" d="m213.7 64.2c0.4-4.4 0.1-10.1 2.6-13.9 2.2-3.5 5.4-3.1 8.8-2.7 0 0 1.2 8.7 0 11.6-1.2 2.9-3.7 5.5-6.3 5.8-2.7 0.3-5 0-5 0v-0.8z"/>
				<path id="Layer" fill-rule="evenodd" class="s2" d="m213.6 65.6l-0.5-0.1v-1.4c0.1-0.9 0.1-1.8 0.2-2.7 0.2-3.9 0.4-8.3 2.5-11.5 1.8-2.9 4.3-3.2 6.2-3.2 1 0 2.1 0.1 3.1 0.2l0.5 0.1 0.1 0.5c0 0.4 1.2 8.9 0 11.9-1.3 3.4-4.1 5.8-6.8 6.1-0.8 0.1-1.7 0.1-2.6 0.1-1.6 0.1-2.7 0-2.7 0zm8.4-17.6c-2.4 0-4 0.8-5.2 2.7-1.9 2.9-2.1 7.2-2.3 10.9-0.1 0.9-0.1 1.8-0.2 2.7v0.2c0.4 0 1.1 0.1 1.9 0.1 0.8 0 1.7 0 2.4-0.1 2.3-0.2 4.7-2.5 5.8-5.4 0.9-2.4 0.2-9 0-10.9-0.8-0.2-1.6-0.2-2.4-0.2z"/>
			</g>
			<g id="Layer">
				<path id="Layer" class="s11" d="m205.9 63.2c-0.9-3.9-0.7-11.7 1.9-15.1 3.3-4.3 6.4-1.8 9.7 0.5 0 0-3.1 3-3.6 11.6l-0.2 5.1-7.5-0.7z"/>
				<path id="Layer" fill-rule="evenodd" class="s2" d="m205.7 65.1l-0.4-1.8c-0.9-4.2-0.7-12.1 2-15.6 1.4-1.8 2.8-2.6 4.4-2.6 2 0 3.8 1.3 5.8 2.7l1 0.7-0.5 0.5c0 0-2.9 3-3.4 11.1l-0.3 5.7zm5.9-18.7c-1.2 0-2.3 0.7-3.4 2.1-2.4 3.1-2.6 10.5-1.7 14.5l0.2 0.9 6.4 0.6 0.2-4.4c0.4-6.8 2.4-10.2 3.3-11.4-1.8-1.1-3.4-2.3-5-2.3z"/>
			</g>
			<g id="Layer">
				<path id="Layer" fill-rule="evenodd" class="s2" d="m244.7 34.5c0.5 0 1 0 1.4 0 0 0 3.4 7.1 4.9 14.5 1.5 7.4 2.3 17.3 2.3 17.3-0.5 0-2.1 0-2.3 0-1.4 0-2.9 0-4.4-0.2-3.7-0.1-7.9-0.1-10.9-2.6-3.6-2.8-3.3-8.5-3.6-12.8-0.4-3.6-1-9 0.8-12.5 1.7-3.2 4.6-3.7 7.7-3.7 1.4 0 2.8 0.1 4.1 0zm-10.4 4.2c-1.6 2.9-1.1 7.6-0.8 11.1 0.1 0.2 0.1 0.5 0.1 0.7 0 0.7 0.1 1.4 0.1 2.1 0.2 3.7 0.4 7.9 3 9.9 2.4 2 6.1 2.2 9.3 2.3 0.3 0 0.5 0 0.8 0 1.4 0.2 2.8 0.2 4.3 0.2h1c-0.3-2.9-1-10.2-2.2-15.8-1.2-5.8-3.6-11.5-4.5-13.5q-0.3 0-0.6 0-1.1 0-2.1 0-1.1 0-2.1 0c-3.1 0-5.3 0.5-6.3 3zm19 27.6c0.1 0 0.2 0 0.2 0 0 0-0.1 0-0.2 0z"/>
			</g>
			<g id="Layer">
				<path id="Layer" fill-rule="evenodd" class="s2" d="m210.6 34.2c1.8 0 3.7 0.2 5.6 0.2 0.5 0 1.1-0.1 1.6-0.1 0.3 0 0.7 0 1 0 1.7 0 3.9 0.3 5.1 1 2.8 1.6 1.8 8.5 2 11.8 0.1 3.6 1.1 9.3-0.7 12.8-2 3.9-6.9 5-10.7 5-0.3 0-0.5 0-0.8 0-3.6-0.3-8-0.3-11.5-1.8-4.4-1.8-3.2-10.1-3.2-14.4 0-2.8-1.5-11.1 0.3-13.2 1.1-1.2 3.8-1.5 6.4-1.5 1.9 0 3.7 0.1 4.9 0.2zm-10.3 2.1c-0.2 0.3-0.6 1.1-0.6 3.5-0.1 1.8 0.1 3.8 0.3 5.6 0.1 1.4 0.2 2.5 0.2 3.3 0 0.8-0.1 1.6-0.1 2.5-0.2 4-0.4 9.6 2.5 10.8 2.6 1.1 6 1.4 9 1.6 0.7 0.1 1.4 0.1 2.1 0.2 0.2 0 0.5 0 0.7 0 2.2 0 7.6-0.4 9.6-4.3 1.3-2.5 1-6.5 0.7-9.8-0.1-0.8-0.2-1.7-0.2-2.4 0-0.8 0-1.8 0-2.8 0-2.9 0.1-7.2-1.4-8.1-0.9-0.5-2.8-0.9-4.5-0.9q-0.5 0-0.9 0c-0.5 0.1-1.1 0.1-1.7 0.1-1 0-2 0-2.9-0.1-0.9 0-1.8-0.1-2.7-0.1-0.2 0-0.4 0-0.7 0-1.1-0.1-2.5-0.2-4-0.2-3.8 0-5 0.7-5.4 1.1z"/>
			</g>
			<g id="Layer">
				<path id="Layer" fill-rule="evenodd" class="s2" d="m166.2 33.8q0.5 0 0.9 0c2.4-0.1 4.8-0.2 7.2-0.2 2.9 0 5.8 0.1 8.7 0.4l3.7 0.4c3.1 0.3 4.4 0 4.6 3.6 0.3 5.3 0.3 10.2 0 15.5-0.5 4.8 0.3 10.6-5.6 10.9q-1.1 0-2.1 0c-3.8 0-7.8-0.3-11.5-0.3-3 0-6.1-0.1-9.1-0.1-1.5 0-3 0-4.5 0.1-0.5 0-1.1 0-1.7 0-3.9 0-8.3-0.7-10.3-4.4-2.1-4-1.5-10.2-1.8-14.5-0.3-2.8-1.4-9 0.7-10.5 2.2-1.5 7.4-1.1 9.9-1.3 0.6-0.1 1.2-0.1 1.8-0.1 3 0 6.1 0.5 9.1 0.5zm-10.6 0.8c-0.6 0.1-1.3 0.1-2.1 0.1-2.4 0-5.9 0.1-7.2 1-0.1 0.1-0.7 0.6-0.7 3-0.1 1.7 0.2 3.7 0.4 5.2 0 0.5 0.1 0.9 0.1 1.2 0.1 1.2 0.1 2.4 0.1 3.8 0 3.6 0.1 7.6 1.5 10.2 1.4 2.5 4.3 3.7 9.2 3.7 0.5 0 1 0 1.6 0 1.4-0.1 2.9-0.1 4.6-0.1 1.5 0 3.1 0.1 4.6 0.1 1.4 0.1 2.9 0.1 4.4 0.1 1.9 0 3.9 0.1 5.8 0.2 1.9 0.1 3.9 0.2 5.8 0.2 0.7 0 1.4 0 2 0 3.6-0.2 4-2.8 4.2-7.3 0.1-0.8 0.1-1.7 0.2-2.5 0.3-5.2 0.3-10.1 0-15.3-0.1-1.1-0.2-1.8-0.5-2-0.3-0.2-1.1-0.3-2-0.4-0.3 0-0.6-0.1-1-0.1l-3.7-0.4c-2.8-0.3-5.6-0.4-8.6-0.4-2.3 0-4.7 0-7.2 0.2-0.3 0-0.7 0-1 0-1.5 0-3.1-0.2-4.6-0.3-1.4-0.2-3-0.3-4.4-0.3-0.5 0-1.1 0.1-1.5 0.1z"/>
			</g>
			<g id="Layer">
				<path id="Layer" class="s5" d="m187.7 49.6c0 0.2-0.2 0.5-0.4 0.7-0.9 0.7-1.7 1-2.1 2.2-0.3 1-0.1 2.2-0.6 3.2 0.1-0.2-0.1-1.4-0.1-1.7 0.1-0.6 0.2-1.3 0.4-1.9 0.2-0.8 0.6-1.6 1.2-2.2 0.3-0.3 0.6-0.6 1-0.6 0.4-0.1 0.6 0.1 0.6 0.3z"/>
			</g>
			<g id="Layer">
				<path id="Layer" class="s5" d="m243.4 48.2c0 0.2-0.2 0.5-0.4 0.7-0.7 0.6-1.4 1.2-1.8 2-0.2 0.4-0.3 0.8-0.3 1.3 0 0.4 0.1 0.9-0.2 1.2-0.3 0.3-0.6-0.6-0.5-0.7 0.1-1.4 0.5-3 1.5-4.1 0.3-0.3 0.6-0.6 1-0.6 0.5-0.2 0.7-0.1 0.7 0.2z"/>
			</g>
			<g id="Layer">
				<path id="Layer" class="s5" d="m180.5 48.6h0.1c0.8 0.3-0.6 1.4-0.9 1.7-0.6 0.6-1 1.4-1.3 2.2-0.3 0.8-0.7 1.6-0.9 2.4-0.1 0.5-0.2 1-0.4 1.5-0.3-1.3 0-2.8 0.3-4 0.5-1.4 1.3-3.6 3.1-3.8z"/>
			</g>
			<g id="Layer">
				<path id="Layer" class="s5" d="m158.8 47.3c0.1 0 0.2 0.1 0.2 0.2 0.2 0.7-1.3 1.9-1.6 2.4-0.6 1-1 2.3-0.9 3.5-0.1-1.3-0.3-2.8 0.2-4.1 0.2-0.5 0.6-1 0.9-1.4 0.3-0.1 0.9-0.7 1.2-0.6z"/>
			</g>
			<g id="Layer">
				<path id="Layer" class="s5" d="m248.2 48.7c0.1 0 0.2 0.1 0.2 0.2 0.2 0.7-1.3 1.9-1.6 2.4-0.6 1-1 2.3-0.9 3.5-0.1-1.3-0.3-2.8 0.2-4.1 0.2-0.5 0.6-1 0.9-1.4 0.3-0.1 0.9-0.6 1.2-0.6z"/>
			</g>
			<g id="Layer">
				<path id="Layer" class="s5" d="m153 47.6c0.2 0 0.3 0.2 0.4 0.6 0.1 0.4 0 0.9-0.2 1.3-0.2 0.7-0.6 1.4-0.7 2.1-0.1 0.9 0.1 1.9-0.2 2.8-0.3 1-0.9-0.7-0.9-1.1-0.1-0.7 0-1.4 0.1-2 0.1-0.8 0.2-1.5 0.5-2.3 0.1-0.5 0.7-1.5 1-1.4z"/>
			</g>
			<g id="Layer">
				<path id="Layer" class="s5" d="m215.9 56.3c0-1 0.4-2.5 0.5-2.8 0.6-1.4 1.7-3.3 3.2-3.9 0.8-0.3 1.7 0 1.2 0.9-0.5 1-1.9 1.8-2.6 2.7-0.6 0.8-0.6 1.9-1 2.7-0.1 0.3-0.4 1.1-0.8 1.2-0.3 0.1-0.5-0.3-0.5-0.8z"/>
			</g>
			<g id="Layer">
				<path id="Layer" class="s5" d="m211.5 47.7c0.5 0 0.8 0.3 0.7 1-0.2 1.5-2.2 2.3-3 3.3-0.7 1-1.2 2.1-1.4 3.3-0.1 0.4-0.1 0.7-0.2 1.1-0.2 0.6-0.8 0.4-1-0.2-0.5-1.7 0.5-3.8 1.2-5.3 0.5-1 1.2-2 2-2.7 0.5-0.3 1.2-0.6 1.7-0.5z"/>
			</g>
			<g id="Layer">
				<g id="Layer">
					<path id="Layer" class="s7" d="m15.1 107.8c-1.8-2-3.4-5.3-4.2-9-0.9-4 0.3-15.2 1.4-23.3 1.3-9.4 5-12.7 6-13.4 2 1.2 1.5 6 1.2 8.7 0 0.4-0.1 0.6-0.1 0.9-0.8 5.9-1.2 10.7-1.2 15.3 0 1 0.1 2.6 0.3 4.7 0.5 5.8 1.3 15.6-2.4 16.1z"/>
				</g>
				<g id="Layer">
					<g id="Layer">
						<path id="Layer" fill-rule="evenodd" class="s2" d="m20.2 71.7c-0.7 5.2-1.2 10.1-1.2 15.3-0.2 4 3 20.8-2.7 21.5h-1.2c-2.3-2.3-3.8-6-4.6-9.5-0.8-3.6-0.1-12.2 1.4-23.6 1.4-11.4 6.5-14.1 6.5-14.1 2.9 1.2 2 7.6 1.8 10.4zm-7.1 3.9c-1 8-2.3 19.2-1.4 23.1 0.8 3.4 2.2 6.5 3.9 8.5h0.5c1.5-0.3 2-2.9 2.2-5.1 0.3-3.2 0-7.2-0.3-10.4-0.2-2.1-0.4-3.8-0.3-4.8 0-4.6 0.3-9.4 1.2-15.4 0-0.2 0.1-0.5 0.1-0.8 0.2-2 0.6-6.5-0.6-7.9-1.3 1.1-4.3 4.4-5.3 12.8z"/>
					</g>
				</g>
			</g>
			<g id="Layer">
				<g id="Layer">
					<path id="Layer" class="s4" d="m65 58.8c-2.6-0.8-4.9-1.5-7.2-2-5.9-1.4-11.1-2.9-16.3-4.5 1.7-1.1 4.7-3.6 6-6.3 1.9-4.3 2.6-10.6 2.7-11.8 0.1-1.2 0.3-3.8 0.7-9.8v-0.2c0.1-2.4 0.7-4.8 1-5.8 2 0.5 4.6 0.8 7.4 1.1 2.6 0.3 5.4 0.6 7.5 1.1q0.8 0.2 1.5 0.3c6.1 1.2 12.9 2.5 18.3 5.8 6.3 4.1 8.4 14.7 6.8 22.7-1.3 6.8-5 11.2-10.2 12.2-1.1 0.2-2.2 0.3-3.4 0.3-4.8 0-9.9-1.5-14.8-3.1z"/>
				</g>
				<g id="Layer">
					<path id="Layer" fill-rule="evenodd" class="s2" d="m67 20.1c6.4 1.3 14.1 2.5 20 6.2 10.6 6.9 10.6 33.3-3.7 36-1.2 0.2-2.3 0.3-3.5 0.3-7.3 0-15.4-3.5-22.2-5-6.2-1.5-11.6-3.1-17.6-4.9 0 0 5.2-3.2 6.9-6.8 1.7-3.6 2.5-8.9 2.7-11.6 0.2-2.7 0.6-9 0.7-10 0.2-3.3 1.2-6.5 1.2-6.5 3.8 1 11 1.3 15.5 2.3zm-15.5 4.5v0.2c-0.4 6-0.6 8.6-0.7 9.8-0.1 1.2-0.8 7.6-2.8 12-1.1 2.3-3.4 4.5-5.2 5.8 4.7 1.4 9.6 2.8 15 4.1 2.3 0.5 4.7 1.2 7.2 2 4.9 1.5 10 3 14.7 3 1.1 0 2.2-0.1 3.2-0.3 2.5-0.5 4.7-1.8 6.4-4 1.5-2 2.7-4.7 3.3-7.8 0.8-4.1 0.7-8.7-0.5-12.8-1.1-4.2-3.3-7.5-5.9-9.2-5.2-3.3-12-4.6-18-5.7q-0.7-0.2-1.5-0.3c-2-0.5-4.7-0.8-7.4-1.1-2.6-0.3-5-0.6-6.9-1-0.3 1.1-0.7 3.1-0.9 5.3z"/>
				</g>
			</g>
			<g id="Layer">
				<g id="Layer">
					<path id="Layer" class="s4" d="m30.8 96.4c-1.7 0-3.1-1.1-4.1-3.2-1.9-4-2.1-9.1-0.4-13.1 1.2-3.1 3.6-5 6.4-5.1l0.1 0.1 0.1 0.2h0.2c3 0.5 4 4.7 4.3 6.4 0.7 4.2 0 8.1-1.8 11.4-0.5 0.8-2.2 3.4-4.8 3.4 0 0 0 0 0-0.1z"/>
				</g>
				<g id="Layer">
					<path id="Layer" fill-rule="evenodd" class="s2" d="m33.3 74.7c3 0.5 4.3 4 4.8 6.9 0.6 4.1 0.1 8.2-1.9 11.8-1.1 1.9-3 3.7-5.3 3.7h-0.1c-2.3-0.1-3.8-1.7-4.7-3.6-1.9-4.1-2.2-9.4-0.4-13.6 1.2-2.9 3.7-5.2 7-5.4q-0.1 0 0 0c0.2 0 0.4 0.1 0.6 0.2zm-6.5 5.8c-1.6 3.8-1.5 8.7 0.4 12.6 0.9 1.9 2.1 2.9 3.6 2.9h0.1c1.8 0 3.4-1.6 4.2-3.1 1.7-3.2 2.3-7 1.7-11-0.3-1.6-1.2-5.4-3.8-5.9h-0.4l-0.1-0.2c-2.5 0.2-4.6 1.9-5.7 4.7z"/>
				</g>
			</g>
			<g id="Layer">
				<path id="Layer" class="s10" d="m56.9 54.1c5.3 1.2 11 2.4 16.5 2.2 3.9-0.1 7.9-0.9 11-3.5 4.2-3.4 4.5-9.3 2.9-14.1-2-6-7.3-9.2-12.8-11.6-2.4-1-4.7-1.9-7.3-2.5-2.3-0.6-4.7-1-7-1.7-3.4-1-6-2.3-7.5-5 4 0.8 10.3 1.1 14.3 2 6.4 1.2 14.1 2.5 20 6.2 10.6 6.9 10.6 33.3-3.7 36-1.1 0.2-2.3 0.3-3.5 0.3-7.3 0-15.4-3.5-22.2-5-6.2-1.5-11.6-3.1-17.6-4.9 0 0 1.6-1 3.4-2.5 4.4 1.8 9 3.1 13.5 4.1z"/>
			</g>
			<g id="Layer">
				<g id="Layer">
					<path id="Layer" class="s5" d="m193.6 18.9l-1.7-0.1c-13-1.1-27.1-1.6-44.4-1.6-10 0-20.3 0.1-30.2 0.3-4.4 0.1-8.9 0.1-13.3 0.2-1.1 0-2 0-2.9 0-4.5 0-8.1-0.2-11.3-0.6-2.8-0.3-8-1.3-12-3.6-2.8-1.6-5-3.9-6.3-6.5 3-0.3 6.1-0.4 9.1-0.4 0.6 0 1.3 0 1.9 0 2.3 0.1 4.5 0.1 6.7 0.2h1.1c2.5 0.1 9 0.1 19.5 0.1 21.1 0 52.7-0.1 59-0.2q2.4 0 4.5 0c6.8 0 12.3 0.2 17.4 0.8q12.7 1.4 25.2 4.8c6.1 1.7 12.4 3.7 17.7 7.2-0.2 0.1-0.4 0.2-0.6 0.2-0.8 0.2-1.6 0.4-2.4 0.5h-0.1q-0.2 0-0.3 0h-0.1c-0.1 0-0.3 0-0.4 0-0.4 0-0.8 0.1-1.2 0.1-0.8 0-1.7 0.1-2.5 0.1-1.5 0.1-3.1 0.1-4.7 0.1-9.3 0-18.7-0.8-27.7-1.6z"/>
				</g>
				<g id="Layer">
					<g id="Layer">
						<path id="Layer" fill-rule="evenodd" class="s2" d="m82.4 6c2.6 0 5.2 0.1 7.8 0.2 2.7 0.1 10.2 0.1 19.5 0.1 21.5 0 52.8-0.1 59-0.2q2.2 0 4.5 0c5.9 0 11.7 0.2 17.5 0.8 8.5 0.9 16.9 2.6 25.2 4.8 7.1 2 13.6 4.2 18.9 8-0.1 0-0.2 0-0.2 0-0.2 0.1-0.4 0.1-0.6 0.2-0.3 0.1-0.7 0.2-1 0.3-0.8 0.2-1.6 0.4-2.4 0.5-0.1 0-0.5 0.1-0.5 0.1-0.2 0.1-0.3 0.1-0.5 0.1-0.4 0-0.8 0.1-1.2 0.1-0.8 0-1.7 0.1-2.5 0.1-1.6 0.1-3.1 0.1-4.7 0.1-9.8 0-19.6-0.9-29.4-1.7-14.8-1.2-29.6-1.6-44.4-1.6-14.6 0-29.1 0.3-43.6 0.5-1 0-1.9 0-2.9 0-3.8 0-7.6-0.1-11.4-0.6-4-0.5-8.7-1.6-12.2-3.7-3.1-1.8-5.5-4.4-6.9-7.6 0.3-0.1 0.6-0.1 0.9-0.1 3.1-0.3 6.1-0.4 9.2-0.4 0.7 0 1.3 0 1.9 0zm-10 1.3c1.3 2.2 3.2 4 5.6 5.4 3.9 2.3 9.1 3.3 11.8 3.6 3.2 0.4 6.7 0.6 11.2 0.6 0.9 0 1.8 0 2.9 0 4.4-0.1 8.9-0.1 13.3-0.2 10-0.1 20.2-0.3 30.3-0.3 17.4 0 31.5 0.5 44.5 1.6l1.7 0.1c9 0.8 18.4 1.6 27.6 1.6 1.6 0 3.2-0.1 4.7-0.1 0.8 0 1.7 0 2.5-0.1 0.4 0 0.8-0.1 1.1-0.1 0.1 0 0.4 0 0.5 0 0 0 0.2 0 0.4 0q0.7-0.2 1.5-0.3c-5-2.9-10.8-4.8-16.4-6.3-8.3-2.2-16.7-3.8-25.1-4.7-5.1-0.5-10.6-0.8-17.3-0.8q-2.1 0-4.5 0c-6.4 0.1-37.9 0.2-59 0.2-10.5 0-17 0-19.5-0.1h-1.1c-2.2-0.1-4.5-0.2-6.7-0.2-0.6 0-1.3 0-1.9 0-2.6 0-5.4 0.1-8.1 0.1z"/>
					</g>
				</g>
			</g>
			<g id="Layer">
				<path id="Layer" class="s5" d="m71.4 6.3c2.8-0.2 5.6-0.3 8.4-0.4 0 0.2 0.1 0.3 0.1 0.5 0.8 2.6 2.7 4.7 5.1 6.1 5.1 2.9 11.5 3.5 17.3 3.7 4.5 0.1 9-0.2 13.5-0.5 8.1-0.5 16.3-1.1 24.4-1.3 8.2-0.2 16.2 0.2 24.4 0.7 8 0.5 16.1 0.8 24.1 1.1 4.7 0.1 9.3 0.1 13.9 0.4 3.7 0.2 7.4 0.4 11.1 0.4 3.7 0 7.7-0.1 11.3-1.2q0.8-0.3 1.5-0.6c3 1.2 5.8 2.7 8.3 4.5h-0.1-0.1c-0.2 0.1-0.4 0.1-0.6 0.2-0.3 0.1-0.7 0.2-1 0.3-0.8 0.2-1.6 0.4-2.4 0.5l-0.5 0.1c-0.2 0-0.3 0-0.5 0.1-0.4 0-0.8 0.1-1.2 0.1-0.8 0.1-1.7 0.1-2.5 0.1-1.6 0-3.1 0.1-4.7 0.1-9.8 0-19.6-0.9-29.4-1.7-14.8-1.3-29.6-1.6-44.4-1.6-14.5 0-29 0.3-43.6 0.5-1 0-1.9 0-2.9 0-3.8 0-7.6-0.1-11.4-0.6-4-0.5-8.7-1.7-12.2-3.7-3.1-1.8-5.5-4.3-6.9-7.6 0.4-0.1 0.7-0.1 1-0.2z"/>
			</g>
			<g id="Layer">
				<path id="Layer" class="s12" d="m51.2 115.8c0 0.2 0 0.3 0.1 0.5-2.2 0-4.3 0.1-6.3 0.1-0.2-0.7-0.5-1.4-0.7-2.1 2.2 0.7 4.5 1.3 6.9 1.5z"/>
			</g>
			<g id="Layer">
				<path id="Layer" class="s10" d="m34.2 89.9c1-1.8 1-4 0.8-6-0.2-1.9-0.4-3.9-1.1-5.7-0.7-1.6-1.7-2.7-3-3.4 0.5-0.2 1.1-0.3 1.7-0.3 0.3 0 0.4 0.1 0.6 0.3 3 0.5 4.3 4 4.8 6.9 0.6 4 0.1 8.2-1.9 11.8-1.1 1.9-3 3.7-5.3 3.7h-0.1c-2.3-0.1-3.7-1.6-4.7-3.6 0-0.1-0.1-0.2-0.1-0.2 3.1 1.2 6.8-0.7 8.3-3.5z"/>
			</g>
			<g id="Layer">
				<path id="Layer" class="s10" d="m15.9 100.5c0.7-3.2 0.1-6.7-0.1-10-0.2-3.5-0.8-7.2-0.2-10.6 0.4-2.2 1-4.3 1.4-6.5 0.4-2.1 0.7-4.5 0-6.6-0.4-1-0.9-1.9-1.6-2.5 1.5-2.3 2.9-3 2.9-3 3 1.2 2 7.6 1.7 10.4-0.7 5.2-1.2 10.1-1.2 15.3-0.2 3.9 3 20.7-2.7 21.5h-1.1q-1.1-1-1.8-2.4c1.3-1.7 2.3-3.6 2.7-5.6z"/>
			</g>
			<g id="Layer">
				<g id="Layer">
					<path id="Layer" class="s7" d="m33.6 119c-0.9-0.1-1.8-0.1-2.6-0.1-4.6 0-9-0.8-13.2-1.7l-0.5-0.1c-2.8-0.6-6-1.2-8.1-3.2-1.5-1.4-2.4-3.5-2.3-5.3 0.1-1.3 0.6-2.3 1.6-3.1 1.6-1.4 4-2 7.2-2 1.3 0 2.5 0.1 3.6 0.2 2.9 0.2 5.9 0.7 8.8 1.2 1.2 0.2 2.5 0.4 3.7 0.6 0.8 0.1 1.6 0.2 2.8 0.2q0.8 0 1.5 0 0.8 0 1.5 0 0.9 0 1.5 0c2.1 0.1 3.6 0.5 4.8 1.4 0.7 0.5 1.3 1.3 1.6 2.1 0.4 1 0.5 2.2 0.4 3.9-0.3 4.9-4 5.9-9.5 5.9-1 0-1.9 0-2.8 0z"/>
				</g>
				<g id="Layer">
					<g id="Layer">
						<path id="Layer" fill-rule="evenodd" class="s2" d="m19.2 102.9c4.2 0.4 8.3 1.2 12.5 1.8 0.8 0.2 1.8 0.2 2.7 0.2 1.1 0 2.1 0 3.1 0q0.8 0 1.5 0c1.9 0.1 3.7 0.5 5.2 1.6 0.8 0.6 1.4 1.5 1.8 2.4 0.5 1.3 0.5 2.9 0.4 4.2-0.3 5.7-5.1 6.5-10.1 6.5-1.8 0-3.7-0.1-5.4-0.1-4.5 0-8.9-0.9-13.3-1.8-3-0.7-6.6-1.3-8.9-3.5-2.5-2.3-3.8-6.9-0.7-9.3 2.1-1.7 4.9-2.1 7.6-2.1 1.3 0 2.5 0.1 3.6 0.1zm-10.5 2.8c-0.8 0.7-1.3 1.6-1.3 2.7-0.1 1.6 0.8 3.6 2.1 4.8 1.9 1.9 5 2.5 7.8 3.1l0.5 0.1c4.2 0.8 8.6 1.7 13.1 1.7 0.8 0 1.7 0.1 2.6 0.1 0.9 0.1 1.9 0.1 2.8 0.1 6.2 0 8.7-1.5 8.9-5.4 0.2-1.5 0-2.7-0.3-3.6-0.3-0.7-0.8-1.4-1.4-1.8-1.1-0.8-2.5-1.2-4.5-1.3-0.4 0-0.9 0-1.4 0q-0.7 0-1.5 0-0.7 0-1.5 0c-1.2 0-2.1-0.1-2.9-0.2-1.2-0.2-2.5-0.4-3.7-0.6-2.9-0.4-5.9-0.9-8.8-1.2-1.1-0.1-2.3-0.2-3.6-0.2-3.1 0-5.3 0.6-6.9 1.7z"/>
					</g>
				</g>
			</g>
			<g id="Layer">
				<path id="Layer" class="s10" d="m8 104.9c2-1.7 4.8-2.1 7.6-2.1 1.3 0 2.5 0.1 3.7 0.2 4.2 0.4 8.4 1.2 12.5 1.8 0.9 0.1 1.8 0.2 2.7 0.2 1 0 2 0 3.1 0q0.8 0 1.5 0c1.7 0.1 3.4 0.4 4.9 1.4-4.5 0.2-9.1-0.6-13.6-1-3.8-0.3-7.7-0.5-11.4 0-2.1 0.3-4.4 1.4-4.5 3.7-0.2 2 1.3 3.8 3 4.8 1.3 0.8 2.7 1.2 4.1 1.5 1.7 0.4 3.5 0.8 5.2 1.1 4.7 0.7 9.9 0.7 14.6 0 1.7-0.2 3.4-0.7 4.8-1.5-1.2 4-5.4 4.6-9.8 4.6-1.9 0-3.7-0.1-5.4-0.1-4.5 0-8.9-0.8-13.3-1.8-3-0.6-6.5-1.3-8.9-3.5-2.6-2.3-3.8-6.8-0.8-9.3z"/>
			</g>
			<g id="Layer">
				<g id="Layer">
					<path id="Layer" class="s2" d="m236.9 29.5c-1.6-1.9-3-3.9-4.9-5.4-0.8-0.6 0.3-1.6 1-1 2 1.5 3.4 3.6 4.9 5.4 0.7 0.6-0.3 1.7-1 1z"/>
				</g>
			</g>
			<g id="Layer">
				<g id="Layer">
					<path id="Layer" class="s2" d="m110.6 27.7c-1.7 0.7-3.2 1.9-3.7 3.7-0.3 0.9-1.7 0.5-1.4-0.4 0.6-2.3 2.5-3.9 4.7-4.7 0.9-0.4 1.3 1 0.4 1.4z"/>
				</g>
			</g>
			<g id="Layer">
				<g id="Layer">
					<path id="Layer" class="s2" d="m108 25.3c-1.2 1.2-2.6 2.4-3.6 3.8-0.5 0.8-1.8 0-1.3-0.7 1.1-1.6 2.5-2.8 3.8-4.1 0.7-0.7 1.7 0.3 1.1 1z"/>
				</g>
			</g>
			<g id="Layer">
				<g id="Layer">
					<path id="Layer" class="s2" d="m78.9 46.6c-2.5-4.7-5.8-8.8-8.1-13.6-0.4-0.9 0.9-1.6 1.3-0.7 2.3 4.8 5.7 8.9 8.1 13.6 0.5 0.8-0.8 1.5-1.3 0.7z"/>
				</g>
			</g>
			<g id="Layer">
				<g id="Layer">
					<path id="Layer" class="s2" d="m76.3 52.7c-4.8-5.9-8.2-12.7-12.2-19.1-0.5-0.8 0.8-1.6 1.3-0.7 3.9 6.3 7.2 13.1 12 18.8 0.6 0.6-0.5 1.7-1.1 1z"/>
				</g>
			</g>
			<g id="Layer">
				<g id="Layer">
					<path id="Layer" class="s2" d="m66.3 53.2c-2.2-3.6-4.4-7.1-6.7-10.6-0.5-0.8 0.8-1.5 1.3-0.7 2.3 3.5 4.5 7 6.7 10.6 0.5 0.8-0.8 1.6-1.3 0.7z"/>
				</g>
			</g>
			<g id="Layer">
				<g id="Layer">
					<path id="Layer" class="s2" d="m33.8 88.6c-1.1 0.5-2.2 1-3.2 1.7-0.8 0.6-1.5-0.7-0.7-1.3 1-0.7 2.1-1.2 3.2-1.7 0.8-0.4 1.6 0.8 0.7 1.3z"/>
				</g>
			</g>
			<g id="Layer">
				<g id="Layer">
					<path id="Layer" class="s2" d="m33.1 84.6c-1.1 0.5-2 1.3-2.8 2.1-0.7 0.7-1.7-0.4-1-1 0.9-0.9 1.9-1.7 3.1-2.3 0.8-0.5 1.5 0.8 0.7 1.2z"/>
				</g>
			</g>
			<g id="Layer">
				<g id="Layer">
					<path id="Layer" class="s2" d="m33.7 79.8c-1.3 1.3-2.8 2.3-3.9 3.7-0.6 0.7-1.7-0.3-1-1 1.2-1.4 2.7-2.4 3.9-3.7 0.6-0.7 1.7 0.3 1 1z"/>
				</g>
			</g>
		</g>
	</g>
</svg>