<svg xmlns="http://www.w3.org/2000/svg" width="157.4" height="83" viewBox="0 0 157.4 83"><title>2108.m10.i006.n015_9</title><g id="Layer_2" data-name="Layer 2"><g id="Layer_2-2" data-name="Layer 2"><path d="M40.4,24c-2.4.1-5.1.3-6.8,2a9.8,9.8,0,0,0-2.1,4.2L26.3,47.6c-4.9,3-13.3.5-17.7,4.4-2.8,2.4-3.5,6.4-3.6,10s.2,7.3-1.3,10.6H21.2c1-5,5.8-11.4,13.1-11.4s9.4,6.4,8.1,11.4h14l1.1-11.6L60,23.3Z" fill="#ffcc7f"/><path d="M61.9,0,57.8,62.1H73.3a11.3,11.3,0,0,1,12.5,0h36.5a11.8,11.8,0,0,1,6.7-2.2,8.3,8.3,0,0,1,4.2.9,8.2,8.2,0,0,1,2.4,1.3h16.9L156.6,0Z" fill="#4d71a2"/><path d="M73.6,61.9H57.8l-.7,10.3H68.5c0-.2,0-.5,0-.7v-.3a11.1,11.1,0,0,1,1.3-4.5A10.1,10.1,0,0,1,73.6,61.9Z" fill="#164483"/><path d="M121.2,63.1l1.3-1.2H86a7.6,7.6,0,0,1,1.8,1.5,10.6,10.6,0,0,1,2.7,7.8v.3c0,.2-.1.5-.1.7h27.5a10.1,10.1,0,0,1,0-1v-.3c0-.3.1-.6.1-1A11.6,11.6,0,0,1,121.2,63.1Z" fill="#164483"/><path d="M136,61.9l1.3,1.2a10.6,10.6,0,0,1,2.7,6.8c0,.3.1.6.1,1V71a10.5,10.5,0,0,1-.1,1.2h11.9l.7-10.3Z" fill="#164483"/><path d="M55.5,28.7h-13a7.3,7.3,0,0,0-5.3,2.5,13.6,13.6,0,0,0-2.3,5l-3,10.1H54.4Z" fill="#fff"/><path d="M2.5,73.3l8.1-.3c3.3-.2,3.3-5.3,0-5.1l-8.1.3C-.8,68.2-.8,73.3,2.5,73.3Z"/><path d="M144.3,73.1H155c3.1,0,3.1-4.8,0-4.8H144.3C141.1,68.3,141.1,73.1,144.3,73.1Z"/><path d="M36.6,63C30.4,61.3,23,65.2,22.8,75.5c-.1,6.7,8.4,9.3,13.9,6.1C43.9,77.5,43.7,65,36.6,63ZM32.2,74.6c-2.9,0-2.2-4.8.6-4.8S35,74.6,32.2,74.6Z"/><path d="M83.1,61.8C77,60.1,69.6,64,69.4,74.3c-.1,6.6,8.4,9.3,13.8,6.1C90.4,76.2,90.2,63.8,83.1,61.8ZM78.7,73.4c-2.9,0-2.2-4.8.6-4.8S81.6,73.4,78.7,73.4Z"/><path d="M132.9,62c-6.2-1.8-13.8,2.2-14,12.7-.1,6.8,8.5,9.4,14.1,6.2C140.3,76.6,140.1,64,132.9,62Zm-4.5,11.8c-2.9,0-2.3-4.9.6-4.9S131.3,73.8,128.4,73.8Z"/><path d="M67,67.5c3.8-12.3,24-13,26.6.4.2,1.1,1.9.6,1.7-.5C92.3,52.2,69.6,53.2,65.3,67,65,68.1,66.6,68.5,67,67.5Z"/><path d="M116.8,66.6c3.5-10.6,20.1-12.6,24.6-1.7.4,1,2.1.6,1.7-.5-5.2-12.4-23.9-10.6-27.9,1.7C114.8,67.1,116.5,67.6,116.8,66.6Z"/><path d="M152.5,2.5c-1.7,19-3.2,38-5.3,56.9-.1,1.1,1.6,1.1,1.7,0,2.2-18.9,3.6-37.9,5.3-56.9C154.3,1.4,152.6,1.4,152.5,2.5Z"/><path d="M14.6,70.8h5.6a.9.9,0,0,0,0-1.7H14.6C13.4,69,13.5,70.7,14.6,70.8Z"/><path d="M20.5,68.2a15.6,15.6,0,0,1,9.8-8.5c6.4-1.7,14,1.7,13.6,9.2-.1,1.1,1.7,1.1,1.7,0,.4-6.4-4.6-11-10.9-11.4S21.9,61.4,19,67.3C18.5,68.3,20,69.2,20.5,68.2Z"/><path d="M46.6,70.8h8.1a.9.9,0,0,0,0-1.7H46.6A.9.9,0,0,0,46.6,70.8Z"/><path d="M49.1,51.8h3.3a.9.9,0,0,0,0-1.7H49.1A.9.9,0,0,0,49.1,51.8Z"/><path d="M30.7,49.4c-.3,2.1-.8,4.2-1.2,6.2s1.4,1.5,1.7.5,1-4.4,1.3-6.7S30.8,48.3,30.7,49.4Z"/><path d="M9.4,61.9H5c0,1.1,0,2.3,0,3.4H9.4A1.7,1.7,0,0,0,9.4,61.9Z"/><path d="M5.1,60.6H8.4a.9.9,0,0,0,0-1.7H5.3c-.1.6-.2,1.1-.2,1.7Z"/></g></g></svg>